<svg width="96" height="96" viewBox="0 0 96 96" fill="none" xmlns="http://www.w3.org/2000/svg">
<path d="M40.2295 55.9999H37.7452L36.3006 52.2462H28.432L26.9874 55.9999H24.5032L30.8397 40H33.893L40.2295 55.9999ZM32.328 42.1122L29.1981 50.2544H35.5455L32.4156 42.1122H32.328Z" fill="#8B3DFF"/>
<path d="M57.1972 56C57.3408 54.9377 57.6532 53.9689 58.1344 53.0934C58.8275 51.8458 59.7723 50.8828 60.9689 50.2043C62.1727 49.5184 63.5115 49.1755 64.9852 49.1755C66.729 49.1755 68.1371 49.5148 69.2096 50.1933C70.2894 50.8645 71.0518 51.7692 71.4968 52.9074L69.6583 54.2535C69.2789 53.2831 68.7025 52.5535 67.9291 52.0647C67.1631 51.5686 66.1818 51.3205 64.9852 51.3205C63.9346 51.3205 62.9935 51.5649 62.1617 52.0538C61.3373 52.5426 60.6916 53.2466 60.2247 54.1659C59.9437 54.7192 59.7472 55.3305 59.6353 56H57.1972Z" fill="#8B3DFF"/>
<path fill-rule="evenodd" clip-rule="evenodd" d="M42.2543 56H44.5744V53.2061H49.8056C50.8197 53.2061 51.5785 53.4396 52.0819 53.9065C52.5853 54.3734 52.837 55.0592 52.837 55.9639C52.837 55.976 52.837 55.988 52.8369 56H55.2334C55.2228 54.9552 54.9457 54.0823 54.402 53.3812C53.8548 52.6662 53.0194 52.1664 51.8959 51.8819V51.7834C53.4426 51.1559 54.216 50.0579 54.216 48.4893C54.216 47.7159 54.0445 47.0484 53.7016 46.4866C53.3587 45.9175 52.8443 45.4797 52.1585 45.1733C51.48 44.8596 50.6483 44.7027 49.6633 44.7027H42.2543V56ZM51.1955 50.7109C50.7285 51.1195 50.0646 51.3237 49.2037 51.3237H44.5744V46.5851H49.2037C50.1157 46.5851 50.7942 46.7784 51.2392 47.1651C51.6843 47.5518 51.9068 48.1464 51.9068 48.9489C51.9068 49.7077 51.6697 50.295 51.1955 50.7109Z" fill="#8B3DFF"/>
</svg>
