<svg width="96" height="96" viewBox="0 0 96 96" fill="none" xmlns="http://www.w3.org/2000/svg">
<path fill-rule="evenodd" clip-rule="evenodd" d="M60.1382 30.5C60.5524 30.5 60.8882 30.8358 60.8882 31.25V34.25C60.8882 34.6642 60.5524 35 60.1382 35C59.724 35 59.3882 34.6642 59.3882 34.25V31.25C59.3882 30.8358 59.724 30.5 60.1382 30.5ZM53.1079 32.7197C53.4007 32.4268 53.8756 32.4268 54.1685 32.7197L56.1685 34.7197C56.4614 35.0126 56.4614 35.4874 56.1685 35.7803C55.8756 36.0732 55.4007 36.0732 55.1079 35.7803L53.1079 33.7803C52.815 33.4874 52.815 33.0126 53.1079 32.7197ZM67.1685 32.7197C67.4614 33.0126 67.4614 33.4874 67.1685 33.7803L65.1685 35.7803C64.8756 36.0732 64.4007 36.0732 64.1079 35.7803C63.815 35.4874 63.815 35.0126 64.1079 34.7197L66.1079 32.7197C66.4007 32.4268 66.8756 32.4268 67.1685 32.7197Z" fill="#8B3DFF"/>
<path fill-rule="evenodd" clip-rule="evenodd" d="M60.1382 65.5C59.724 65.5 59.3882 65.1642 59.3882 64.75L59.3882 61.75C59.3882 61.3358 59.724 61 60.1382 61C60.5524 61 60.8882 61.3358 60.8882 61.75L60.8882 64.75C60.8882 65.1642 60.5524 65.5 60.1382 65.5ZM67.1685 63.2803C66.8756 63.5732 66.4007 63.5732 66.1079 63.2803L64.1079 61.2803C63.815 60.9874 63.815 60.5126 64.1079 60.2197C64.4007 59.9268 64.8756 59.9268 65.1685 60.2197L67.1685 62.2197C67.4614 62.5126 67.4614 62.9874 67.1685 63.2803ZM53.1079 63.2803C52.815 62.9874 52.815 62.5126 53.1079 62.2197L55.1079 60.2197C55.4007 59.9268 55.8756 59.9268 56.1685 60.2197C56.4614 60.5126 56.4614 60.9874 56.1685 61.2803L54.1685 63.2803C53.8756 63.5732 53.4007 63.5732 53.1079 63.2803Z" fill="#8B3DFF"/>
<path d="M37.5983 52.5713H36.1787L35.3533 50.4263H30.8569L30.0314 52.5713H28.6118L32.2327 43.4285H33.9775L37.5983 52.5713ZM33.0832 44.6354L31.2946 49.2882H34.9218L33.1332 44.6354H33.0832Z" fill="#8B3DFF"/>
<path d="M39.8843 54.2858V41.7144H45.7057C46.4795 41.7144 47.1331 41.8376 47.6662 42.0841C48.205 42.3249 48.6092 42.6688 48.8786 43.116C49.148 43.5574 49.2828 44.0819 49.2828 44.6895C49.2828 45.922 48.6751 46.7848 47.4598 47.2778V47.3552C48.3426 47.5787 48.999 47.9714 49.4289 48.5332C49.8646 49.095 50.0824 49.7972 50.0824 50.6399C50.0824 51.8265 49.7242 52.7323 49.0076 53.3571C48.291 53.9762 47.1904 54.2858 45.7057 54.2858H39.8843ZM45.3445 46.9166C46.0209 46.9166 46.5426 46.7561 46.9095 46.4351C47.2821 46.1083 47.4684 45.6469 47.4684 45.0507C47.4684 44.4201 47.2936 43.9529 46.9439 43.6491C46.5942 43.3453 46.0611 43.1933 45.3445 43.1933H41.7072V46.9166H45.3445ZM45.8174 52.738C46.6143 52.738 47.2104 52.5546 47.606 52.1877C48.0015 51.8151 48.1993 51.2733 48.1993 50.5625C48.1993 49.8517 48.0015 49.3128 47.606 48.9459C47.2104 48.5791 46.6143 48.3956 45.8174 48.3956H41.7072V52.738H45.8174Z" fill="#8B3DFF"/>
<path d="M60.0272 56C58.5946 56 57.2932 55.6702 56.123 55.0106C54.9599 54.344 54.0414 53.4043 53.3677 52.1915C52.701 50.9787 52.3677 49.5816 52.3677 48C52.3677 46.4184 52.701 45.0213 53.3677 43.8085C54.0414 42.5957 54.9599 41.6596 56.123 41C57.2932 40.3333 58.5946 40 60.0272 40C61.7223 40 63.0911 40.3298 64.1336 40.9894C65.1833 41.6418 65.9244 42.5213 66.357 43.6277L64.5698 44.9362C64.201 43.9929 63.6407 43.2837 62.889 42.8085C62.1443 42.3262 61.1904 42.0851 60.0272 42.0851C59.006 42.0851 58.0911 42.3227 57.2826 42.7979C56.4812 43.273 55.8535 43.9574 55.3996 44.8511C54.9457 45.7447 54.7187 46.7943 54.7187 48C54.7187 49.2199 54.9457 50.2766 55.3996 51.1702C55.8606 52.0567 56.4953 52.7376 57.3038 53.2128C58.1124 53.6809 59.0308 53.9149 60.0592 53.9149C61.3996 53.9149 62.4599 53.5851 63.24 52.9255C64.0272 52.2589 64.5627 51.2731 64.8464 49.9681L66.7294 51.1064C66.3535 52.5816 65.6159 53.766 64.5166 54.6596C63.4173 55.5532 61.9209 56 60.0272 56Z" fill="#8B3DFF"/>
</svg>
