<svg width="96" height="96" viewBox="0 0 96 96" fill="none" xmlns="http://www.w3.org/2000/svg">
<path d="M33.179 45.8046H31.066L29.8373 42.6118H23.1445L21.9157 45.8046H19.8027L25.1923 32.1956H27.7894L33.179 45.8046ZM26.4583 33.9921L23.7961 40.9176H29.195L26.5328 33.9921H26.4583Z" fill="#8B3DFF"/>
<path d="M34.9013 45.8046V32.1956H41.2032C42.041 32.1956 42.7484 32.329 43.3255 32.5958C43.9089 32.8565 44.3464 33.2288 44.638 33.7128C44.9297 34.1907 45.0755 34.7585 45.0755 35.4163C45.0755 36.7505 44.4177 37.6845 43.1021 38.2182V38.3019C44.0578 38.544 44.7684 38.969 45.2338 39.5772C45.7054 40.1854 45.9412 40.9456 45.9412 41.8578C45.9412 43.1424 45.5534 44.1229 44.7777 44.7993C44.002 45.4695 42.8105 45.8046 41.2032 45.8046H34.9013ZM40.8122 37.8272C41.5445 37.8272 42.1092 37.6534 42.5064 37.3059C42.9098 36.9522 43.1114 36.4526 43.1114 35.8073C43.1114 35.1246 42.9222 34.6189 42.5436 34.29C42.1651 33.9611 41.5879 33.7966 40.8122 33.7966H36.8747V37.8272H40.8122ZM41.3242 44.1291C42.1868 44.1291 42.8322 43.9305 43.2604 43.5333C43.6886 43.13 43.9027 42.5435 43.9027 41.774C43.9027 41.0045 43.6886 40.4212 43.2604 40.024C42.8322 39.6269 42.1868 39.4283 41.3242 39.4283H36.8747V44.1291H41.3242Z" fill="#8B3DFF"/>
<path d="M54.2353 46C52.9818 46 51.843 45.7114 50.8191 45.1343C49.8013 44.551 48.9977 43.7287 48.4082 42.6676C47.8248 41.6064 47.5332 40.3839 47.5332 39C47.5332 37.6161 47.8248 36.3936 48.4082 35.3324C48.9977 34.2713 49.8013 33.4521 50.8191 32.875C51.843 32.2917 52.9818 32 54.2353 32C55.7185 32 56.9162 32.2886 57.8284 32.8657C58.7468 33.4366 59.3953 34.2061 59.7739 35.1742L58.21 36.3191C57.8873 35.4938 57.3971 34.8732 56.7393 34.4574C56.0877 34.0355 55.253 33.8245 54.2353 33.8245C53.3417 33.8245 52.5412 34.0324 51.8337 34.4481C51.1325 34.8639 50.5833 35.4628 50.1861 36.2447C49.7889 37.0266 49.5904 37.945 49.5904 39C49.5904 40.0674 49.7889 40.992 50.1861 41.7739C50.5895 42.5496 51.1449 43.1454 51.8523 43.5612C52.5598 43.9707 53.3634 44.1755 54.2632 44.1755C55.4361 44.1755 56.3638 43.887 57.0465 43.3098C57.7353 42.7265 58.2038 41.8639 58.4521 40.7221L60.0997 41.7181C59.7708 43.0089 59.1254 44.0452 58.1635 44.8271C57.2016 45.609 55.8922 46 54.2353 46Z" fill="#8B3DFF"/>
<path fill-rule="evenodd" clip-rule="evenodd" d="M74.8496 39C74.8496 39.1989 74.7706 39.3897 74.6299 39.5303L71.6299 42.5303C71.337 42.8232 70.8621 42.8232 70.5692 42.5303C70.2764 42.2374 70.2764 41.7626 70.5692 41.4697L72.2889 39.75L64.8496 39.75C64.4354 39.75 64.0996 39.4142 64.0996 39C64.0996 38.5858 64.4354 38.25 64.8496 38.25L72.2889 38.25L70.5692 36.5303C70.2764 36.2374 70.2764 35.7626 70.5692 35.4697C70.8621 35.1768 71.337 35.1768 71.6299 35.4697L74.6299 38.4697C74.7706 38.6103 74.8496 38.8011 74.8496 39Z" fill="#8B3DFF"/>
<g opacity="0.5">
<path d="M49.2767 63.8046H47.1637L45.9349 60.6118H39.2421L38.0134 63.8046H35.9004L41.29 50.1956H43.8871L49.2767 63.8046ZM42.5559 51.9921L39.8937 58.9176H45.2926L42.6304 51.9921H42.5559Z" fill="#8B3DFF"/>
<path d="M50.999 63.8046V50.1956H57.3009C58.1386 50.1956 58.8461 50.329 59.4232 50.5958C60.0065 50.8565 60.444 51.2288 60.7357 51.7128C61.0274 52.1907 61.1732 52.7585 61.1732 53.4163C61.1732 54.7505 60.5154 55.6845 59.1998 56.2182V56.3019C60.1555 56.544 60.866 56.969 61.3314 57.5772C61.8031 58.1854 62.0389 58.9456 62.0389 59.8578C62.0389 61.1424 61.651 62.1229 60.8753 62.7993C60.0996 63.4695 58.9081 63.8046 57.3009 63.8046H50.999ZM56.9099 55.8272C57.6422 55.8272 58.2069 55.6534 58.604 55.3059C59.0074 54.9522 59.2091 54.4526 59.2091 53.8073C59.2091 53.1246 59.0198 52.6189 58.6413 52.29C58.2627 51.9611 57.6856 51.7966 56.9099 51.7966H52.9724V55.8272H56.9099ZM57.4219 62.1291C58.2845 62.1291 58.9298 61.9305 59.358 61.5333C59.7862 61.13 60.0003 60.5435 60.0003 59.774C60.0003 59.0045 59.7862 58.4212 59.358 58.024C58.9298 57.6269 58.2845 57.4283 57.4219 57.4283H52.9724V62.1291H57.4219Z" fill="#8B3DFF"/>
<path d="M70.333 64C69.0794 64 67.9407 63.7114 66.9167 63.1343C65.899 62.551 65.0954 61.7287 64.5058 60.6676C63.9225 59.6064 63.6308 58.3839 63.6308 57C63.6308 55.6161 63.9225 54.3936 64.5058 53.3324C65.0954 52.2713 65.899 51.4521 66.9167 50.875C67.9407 50.2917 69.0794 50 70.333 50C71.8161 50 73.0138 50.2886 73.926 50.8657C74.8445 51.4366 75.493 52.2061 75.8715 53.1742L74.3077 54.3191C73.985 53.4938 73.4947 52.8732 72.8369 52.4574C72.1853 52.0355 71.3507 51.8245 70.333 51.8245C69.4393 51.8245 68.6388 52.0324 67.9314 52.4481C67.2301 52.8639 66.6809 53.4628 66.2838 54.2447C65.8866 55.0266 65.688 55.945 65.688 57C65.688 58.0674 65.8866 58.992 66.2838 59.7739C66.6871 60.5496 67.2425 61.1454 67.95 61.5612C68.6574 61.9707 69.4611 62.1755 70.3609 62.1755C71.5338 62.1755 72.4615 61.887 73.1441 61.3098C73.833 60.7265 74.3015 59.8639 74.5497 58.7221L76.1973 59.7181C75.8684 61.0089 75.223 62.0452 74.2611 62.8271C73.2993 63.609 71.9899 64 70.333 64Z" fill="#8B3DFF"/>
</g>
<path opacity="0.5" fill-rule="evenodd" clip-rule="evenodd" d="M21.1504 57C21.1504 56.8011 21.2294 56.6103 21.37 56.4697L24.37 53.4697C24.6629 53.1768 25.1378 53.1768 25.4307 53.4697C25.7236 53.7626 25.7236 54.2374 25.4307 54.5303L23.711 56.25L31.1504 56.25C31.5646 56.25 31.9004 56.5858 31.9004 57C31.9004 57.4142 31.5646 57.75 31.1504 57.75L23.711 57.75L25.4307 59.4697C25.7236 59.7626 25.7236 60.2374 25.4307 60.5303C25.1378 60.8232 24.6629 60.8232 24.37 60.5303L21.37 57.5303C21.2294 57.3897 21.1504 57.1989 21.1504 57Z" fill="#8B3DFF"/>
</svg>
