<svg width="96" height="96" viewBox="0 0 96 96" fill="none" xmlns="http://www.w3.org/2000/svg">
<path d="M34.2607 55.7766H31.8458L30.4415 52.1276H22.7926L21.3883 55.7766H18.9734L25.133 40.2234H28.1011L34.2607 55.7766ZM26.5798 42.2766L23.5373 50.1915H29.7075L26.6649 42.2766H26.5798Z" fill="#8B3DFF"/>
<path d="M42.2293 55.7766V40.2234H49.4314C50.3889 40.2234 51.1974 40.3759 51.857 40.6808C52.5236 40.9787 53.0236 41.4042 53.357 41.9574C53.6903 42.5035 53.857 43.1525 53.857 43.9042C53.857 45.4291 53.1052 46.4964 51.6016 47.1064V47.2021C52.6938 47.4787 53.5059 47.9645 54.0378 48.6596C54.5768 49.3546 54.8463 50.2234 54.8463 51.2659C54.8463 52.734 54.4031 53.8546 53.5165 54.6276C52.63 55.3936 51.2683 55.7766 49.4314 55.7766H42.2293ZM48.9846 46.6596C49.8215 46.6596 50.4669 46.461 50.9208 46.0638C51.3818 45.6596 51.6123 45.0886 51.6123 44.351C51.6123 43.5709 51.396 42.9929 50.9633 42.617C50.5307 42.2411 49.8711 42.0532 48.9846 42.0532H44.4846V46.6596H48.9846ZM49.5697 53.8617C50.5555 53.8617 51.2931 53.6347 51.7825 53.1808C52.2719 52.7198 52.5165 52.0496 52.5165 51.1702C52.5165 50.2908 52.2719 49.6241 51.7825 49.1702C51.2931 48.7163 50.5555 48.4893 49.5697 48.4893H44.4846V53.8617H49.5697Z" fill="#8B3DFF"/>
<path d="M70.3244 56C68.8918 56 67.5904 55.6702 66.4202 55.0106C65.2571 54.344 64.3386 53.4043 63.6649 52.1915C62.9982 50.9787 62.6649 49.5816 62.6649 48C62.6649 46.4184 62.9982 45.0213 63.6649 43.8085C64.3386 42.5957 65.2571 41.6596 66.4202 41C67.5904 40.3333 68.8918 40 70.3244 40C72.0195 40 73.3883 40.3298 74.4308 40.9894C75.4805 41.6418 76.2216 42.5213 76.6542 43.6277L74.867 44.9362C74.4982 43.9929 73.9379 43.2837 73.1861 42.8085C72.4415 42.3262 71.4876 42.0851 70.3244 42.0851C69.3032 42.0851 68.3883 42.3227 67.5798 42.7979C66.7783 43.273 66.1507 43.9574 65.6968 44.8511C65.2429 45.7447 65.0159 46.7943 65.0159 48C65.0159 49.2199 65.2429 50.2766 65.6968 51.1702C66.1578 52.0567 66.7925 52.7376 67.601 53.2128C68.4095 53.6809 69.328 53.9149 70.3563 53.9149C71.6968 53.9149 72.7571 53.5851 73.5372 52.9255C74.3244 52.2589 74.8599 51.273 75.1436 49.9681L77.0266 51.1064C76.6507 52.5816 75.9131 53.766 74.8138 54.6596C73.7145 55.5532 72.218 56 70.3244 56Z" fill="#8B3DFF"/>
</svg>
