<svg width="96" height="96" viewBox="0 0 96 96" fill="none" xmlns="http://www.w3.org/2000/svg">
<path opacity="0.7" d="M36 52C36 54.2091 37.7909 56 40 56L56 56C58.2091 56 60 54.2091 60 52L60 44C60 46.2091 58.2091 48 56 48L40 48C37.7909 48 36 46.2091 36 44L36 52Z" fill="#8B3DFF"/>
<path opacity="0.5" d="M36 60C36 62.2091 37.7909 64 40 64L56 64C58.2091 64 60 62.2091 60 60L60 52C60 54.2091 58.2091 56 56 56L40 56C37.7909 56 36 54.2091 36 52L36 60Z" fill="#8B3DFF"/>
<path opacity="0.3" d="M60 72L60 60C60 62.2091 58.2091 64 56 64L40 64C37.7909 64 36 62.2091 36 60L36 72L60 72Z" fill="#8B3DFF"/>
<path d="M36 28C36 25.7909 37.7909 24 40 24H56C58.2091 24 60 25.7909 60 28V44C60 46.2091 58.2091 48 56 48H40C37.7909 48 36 46.2091 36 44V28Z" fill="#8B3DFF"/>
<path fill-rule="evenodd" clip-rule="evenodd" d="M32 72C32 71.5858 32.3358 71.25 32.75 71.25L63.25 71.25C63.6642 71.25 64 71.5858 64 72C64 72.4142 63.6642 72.75 63.25 72.75H32.75C32.3358 72.75 32 72.4142 32 72Z" fill="#8B3DFF"/>
</svg>
