<svg width="96" height="96" viewBox="0 0 96 96" fill="none" xmlns="http://www.w3.org/2000/svg">
<path fill-rule="evenodd" clip-rule="evenodd" d="M74.2619 16.75C74.2619 16.3358 74.5977 16 75.0119 16H79.2545C79.6687 16 80.0045 16.3358 80.0045 16.75V20.9926C80.0045 21.4069 79.6687 21.7426 79.2545 21.7426C78.8403 21.7426 78.5045 21.4069 78.5045 20.9926V18.5607L74.128 22.9372C73.8351 23.2301 73.3602 23.2301 73.0673 22.9372C72.7744 22.6443 72.7744 22.1694 73.0673 21.8765L77.4439 17.5H75.0119C74.5977 17.5 74.2619 17.1642 74.2619 16.75Z" fill="#8B3DFF"/>
<path fill-rule="evenodd" clip-rule="evenodd" d="M16.75 21.7426C16.3358 21.7426 16 21.4069 16 20.9926L16 16.75C16 16.3358 16.3358 16 16.75 16L20.9926 16C21.4069 16 21.7426 16.3358 21.7426 16.75C21.7426 17.1642 21.4069 17.5 20.9926 17.5L18.5607 17.5L22.9372 21.8765C23.2301 22.1694 23.2301 22.6443 22.9372 22.9372C22.6443 23.2301 22.1694 23.2301 21.8765 22.9372L17.5 18.5607L17.5 20.9926C17.5 21.4069 17.1642 21.7426 16.75 21.7426Z" fill="#8B3DFF"/>
<path fill-rule="evenodd" clip-rule="evenodd" d="M21.7426 79.2469C21.7426 79.6612 21.4069 79.9969 20.9926 79.9969H16.75C16.3358 79.9969 16 79.6612 16 79.2469L16 75.0043C16 74.5901 16.3358 74.2543 16.75 74.2543C17.1642 74.2543 17.5 74.5901 17.5 75.0043L17.5 77.4363L21.8765 73.0598C22.1694 72.7669 22.6443 72.7669 22.9372 73.0598C23.2301 73.3527 23.2301 73.8275 22.9372 74.1204L18.5607 78.4969H20.9926C21.4069 78.4969 21.7426 78.8327 21.7426 79.2469Z" fill="#8B3DFF"/>
<path fill-rule="evenodd" clip-rule="evenodd" d="M79.2545 74.2543C79.6687 74.2543 80.0045 74.5901 80.0045 75.0043L80.0045 79.2469C80.0045 79.6612 79.6687 79.9969 79.2545 79.9969L75.0119 79.9969C74.5977 79.9969 74.2619 79.6612 74.2619 79.2469C74.2619 78.8327 74.5977 78.4969 75.0119 78.4969H77.4438L73.0673 74.1204C72.7744 73.8275 72.7744 73.3527 73.0673 73.0598C73.3602 72.7669 73.8351 72.7669 74.128 73.0598L78.5045 77.4363L78.5045 75.0043C78.5045 74.5901 78.8403 74.2543 79.2545 74.2543Z" fill="#8B3DFF"/>
<path fill-rule="evenodd" clip-rule="evenodd" d="M36 32C33.7909 32 32 33.7909 32 36V60C32 62.2091 33.7909 64 36 64H60C62.2091 64 64 62.2091 64 60V36C64 33.7909 62.2091 32 60 32H36ZM39 36C37.3431 36 36 37.3431 36 39V57C36 58.6569 37.3431 60 39 60H57C58.6569 60 60 58.6569 60 57V39C60 37.3431 58.6569 36 57 36H39Z" fill="#8B3DFF"/>
<path opacity="0.7" fill-rule="evenodd" clip-rule="evenodd" d="M39 36C37.3431 36 36 37.3431 36 39V57C36 58.6569 37.3431 60 39 60H57C58.6569 60 60 58.6569 60 57V39C60 37.3431 58.6569 36 57 36H39ZM42 40C40.8954 40 40 40.8954 40 42V54C40 55.1046 40.8954 56 42 56H54C55.1046 56 56 55.1046 56 54V42C56 40.8954 55.1046 40 54 40H42Z" fill="#8B3DFF"/>
<path opacity="0.3" d="M44 45C44 44.4477 44.4477 44 45 44H51C51.5523 44 52 44.4477 52 45V51C52 51.5523 51.5523 52 51 52H45C44.4477 52 44 51.5523 44 51V45Z" fill="#8B3DFF"/>
<path opacity="0.5" fill-rule="evenodd" clip-rule="evenodd" d="M42 40C40.8954 40 40 40.8954 40 42V54C40 55.1046 40.8954 56 42 56H54C55.1046 56 56 55.1046 56 54V42C56 40.8954 55.1046 40 54 40H42ZM45 44C44.4477 44 44 44.4477 44 45V51C44 51.5523 44.4477 52 45 52H51C51.5523 52 52 51.5523 52 51V45C52 44.4477 51.5523 44 51 44H45Z" fill="#8B3DFF"/>
</svg>
