<svg width="96" height="96" viewBox="0 0 96 96" fill="none" xmlns="http://www.w3.org/2000/svg">
<path opacity="0.6" d="M45.3337 63.9996H66.6665C69.612 63.9996 71.9997 61.6118 71.9997 58.6663V53.3331L63.2189 44.5523C62.1775 43.5109 60.4891 43.5109 59.4477 44.5523L41.5625 62.4375C42.5276 63.4026 43.8609 63.9996 45.3337 63.9996Z" fill="#8B3DFF"/>
<path fill-rule="evenodd" clip-rule="evenodd" d="M40 37.3332C40 34.3878 42.3878 32 45.3332 32H66.6661C69.6115 32 71.9993 34.3878 71.9993 37.3332V53.3329L63.2184 44.552C62.1771 43.5106 60.4887 43.5106 59.4473 44.552L41.5621 62.4372C40.5969 61.4721 40 60.1388 40 58.6661V37.3332ZM48.6665 43.9997C50.5074 43.9997 51.9997 42.5074 51.9997 40.6665C51.9997 38.8256 50.5074 37.3332 48.6665 37.3332C46.8256 37.3332 45.3332 38.8256 45.3332 40.6665C45.3332 42.5074 46.8256 43.9997 48.6665 43.9997Z" fill="#8B3DFF"/>
<circle opacity="0.6" cx="48.6665" cy="40.6665" r="3.33326" fill="#8B3DFF"/>
<path opacity="0.7" d="M40 48H24V58.6667C24 61.6122 26.3878 64 29.3333 64H45.3333C42.3878 64 40 61.6122 40 58.6667V48Z" fill="#8B3DFF"/>
<path opacity="0.5" d="M24 48H40V40H24V48Z" fill="#8B3DFF"/>
<path opacity="0.3" d="M29.3333 32C26.3878 32 24 34.3878 24 37.3333V40H40V37.3333C40 34.502 42.2062 32.186 44.9933 32.0107L45 32H29.3333Z" fill="#8B3DFF"/>
</svg>
