<svg width="96" height="96" viewBox="0 0 96 96" fill="none" xmlns="http://www.w3.org/2000/svg">
<path d="M32 36C32 33.7909 33.7909 32 36 32H45.7148V64H36C33.7909 64 32 62.2091 32 60V36Z" fill="#8B3DFF"/>
<rect opacity="0.2" x="59.4287" y="36.5713" width="4.57143" height="4.57143" fill="#8B3DFF"/>
<rect opacity="0.4" x="54.8574" y="32" width="4.57143" height="4.57143" fill="#8B3DFF"/>
<rect opacity="0.4" x="54.8574" y="41.1426" width="4.57143" height="4.57143" fill="#8B3DFF"/>
<rect opacity="0.4" x="54.8574" y="50.2852" width="4.57143" height="4.57143" fill="#8B3DFF"/>
<rect opacity="0.4" x="54.8574" y="59.4272" width="4.57143" height="4.57143" fill="#8B3DFF"/>
<rect x="45.7148" y="32" width="4.57143" height="4.57143" fill="#8B3DFF"/>
<rect x="45.7148" y="41.1426" width="4.57143" height="4.57143" fill="#8B3DFF"/>
<rect x="45.7148" y="50.2852" width="4.57143" height="4.57143" fill="#8B3DFF"/>
<rect x="45.7148" y="59.4272" width="4.57143" height="4.57143" fill="#8B3DFF"/>
<rect opacity="0.2" x="59.4287" y="45.7139" width="4.57143" height="4.57143" fill="#8B3DFF"/>
<rect opacity="0.2" x="59.4287" y="54.8564" width="4.57143" height="4.57143" fill="#8B3DFF"/>
<rect opacity="0.6" x="50.2861" y="36.5713" width="4.57143" height="4.57143" fill="#8B3DFF"/>
<rect opacity="0.6" x="50.2861" y="45.7139" width="4.57143" height="4.57143" fill="#8B3DFF"/>
<rect opacity="0.6" x="50.2861" y="54.8564" width="4.57143" height="4.57143" fill="#8B3DFF"/>
</svg>
