<svg width="96" height="96" viewBox="0 0 96 96" fill="none" xmlns="http://www.w3.org/2000/svg">
<path d="M44.9447 64H50.8087C51.6676 63.3193 52.39 62.6941 52.671 62.3789C52.9035 62.1247 53.1707 61.7793 53.3897 61.4568C53.2263 61.0682 53.0757 60.7422 52.9759 60.5662C52.7691 60.2013 52.3555 59.666 52.0756 59.374C51.7837 59.0942 51.2362 58.717 50.859 58.5224C50.2264 58.2304 50.0196 58.1939 48.8151 58.1939C47.5499 58.1939 47.4404 58.2182 46.8199 58.5588C46.4671 58.7657 46.017 59.1428 45.8223 59.4105C45.6277 59.6781 45.3478 60.2013 45.1897 60.5662C44.9585 61.1502 44.922 61.4665 44.9342 62.9994C44.9342 63.4056 44.9356 63.7242 44.9447 64Z" fill="#8B3DFF"/>
<path d="M58.9188 64H60C62.2091 64 64 62.2091 64 60V59.7289C63.7687 59.5974 63.5221 59.4758 63.3406 59.4104C63.0365 59.3009 62.4403 59.1671 62.0024 59.1184C61.5644 59.0576 60.8223 59.0698 60.36 59.1306C59.8976 59.1793 59.2042 59.3739 58.8392 59.5443C58.4742 59.7146 57.9511 60.0309 57.6956 60.2377C57.4513 60.4376 57.045 60.8705 56.7539 61.2498C57.2055 61.6396 57.6439 62.0312 57.8545 62.233C58.1343 62.525 58.5114 63.0481 58.6818 63.3887C58.7713 63.5677 58.853 63.7802 58.9188 64Z" fill="#8B3DFF"/>
<path d="M57.6103 35.1003C57.7737 35.4889 57.9243 35.8149 58.0241 35.9909C58.2309 36.3559 58.6445 36.8912 58.9244 37.1832C59.2163 37.463 59.7638 37.8401 60.141 38.0348C60.7736 38.3268 60.9804 38.3633 62.1849 38.3633C63.3176 38.3633 63.524 38.3438 64 38.0952V36C64 34.066 62.6275 32.4526 60.8033 32.0807C59.6889 32.933 58.6748 33.7904 58.329 34.1782C58.0965 34.4325 57.8293 34.7779 57.6103 35.1003Z" fill="#8B3DFF"/>
<path d="M54.2461 35.3074C53.7945 34.9176 53.3561 34.5259 53.1455 34.3241C52.8657 34.0322 52.4886 33.509 52.3182 33.1684C52.1532 32.8382 52.0143 32.3944 51.9537 32H44.3476C44.3865 32.2467 44.4211 32.4488 44.4476 32.5845C44.5571 33.0833 44.7395 33.7646 44.8734 34.1052C44.995 34.4337 45.3113 35.042 45.5668 35.4435C45.8223 35.8449 46.2846 36.3437 46.5766 36.5627C46.8686 36.7696 47.3552 37.0372 47.6594 37.1467C47.9635 37.2562 48.5597 37.39 48.9976 37.4387C49.4356 37.4995 50.1777 37.4873 50.6401 37.4265C51.1024 37.3779 51.7958 37.1832 52.1608 37.0129C52.5258 36.8426 53.0489 36.5262 53.3044 36.3194C53.5487 36.1196 53.9551 35.6867 54.2461 35.3074Z" fill="#8B3DFF"/>
<path d="M40.9793 32H36C33.7909 32 32 33.7909 32 36V38.8478C32.4914 38.9746 33.0575 39.1035 33.4252 39.1663C33.7386 39.2198 34.3451 39.2685 35.0001 39.2973C35.0022 38.9473 35.0547 38.6795 35.1642 38.4606C35.2737 38.2416 35.5413 37.9253 35.7482 37.7671C35.9671 37.609 36.3686 37.4143 36.6363 37.3413C36.9039 37.2683 37.2567 37.1832 37.4271 37.1588C37.5974 37.1223 38.1084 37.1223 38.5828 37.1467C39.0451 37.171 39.7873 37.3048 40.2252 37.4508C40.2501 37.4591 40.2757 37.4679 40.3018 37.4772C40.379 37.3491 40.4455 37.2265 40.4936 37.1224C40.6274 36.7939 40.8221 36.1856 40.9194 35.7476C41.0046 35.3096 41.0897 34.3364 41.0897 33.5942C41.0897 32.8569 41.0609 32.4023 40.9793 32Z" fill="#8B3DFF"/>
<path d="M32 42.8543V52.4868C32.013 52.475 32.0258 52.4632 32.0382 52.4515C32.3667 52.1352 32.8047 51.5999 32.9994 51.2593C33.194 50.9308 33.4617 50.3468 33.5833 49.9818C33.705 49.6168 33.8388 48.7896 33.8753 48.1569C33.924 47.4635 33.8875 46.6605 33.8023 46.1495C33.7172 45.6872 33.4982 44.9694 33.3157 44.568C33.1332 44.1665 32.7317 43.5825 32.4397 43.2662C32.3265 43.1435 32.1712 42.9989 32 42.8543Z" fill="#8B3DFF"/>
<path d="M32 56.4952V60C32 62.2091 33.7909 64 36 64H41.9411C42.0692 63.3923 42.0759 62.9486 42.0265 61.7828C41.99 60.8826 41.8684 59.7876 41.7589 59.3496C41.6494 58.9117 41.4182 58.2547 41.2357 57.8897C41.0532 57.5247 40.6639 56.9651 40.3598 56.661C40.0556 56.3568 39.5447 55.9675 39.204 55.7972C38.8755 55.6268 38.2672 55.3957 37.8658 55.2862C37.4643 55.1645 36.4545 55.0429 35.615 55.0064C34.2281 54.9334 34.0456 54.9577 33.5468 55.1889C33.2427 55.3227 32.6465 55.8215 32.2086 56.2716C32.1451 56.3386 32.075 56.4138 32 56.4952Z" fill="#8B3DFF"/>
<g opacity="0.6">
<path d="M44.3476 32H40.9793C41.0609 32.4023 41.0897 32.8569 41.0897 33.5942C41.0897 34.3364 41.0046 35.3096 40.9194 35.7476C40.8221 36.1856 40.6274 36.7939 40.4936 37.1224C40.4455 37.2265 40.379 37.3491 40.3018 37.4772C40.7369 37.6311 41.3409 37.9134 41.6852 38.1199C42.0501 38.3511 42.5611 38.7404 42.8288 38.9959C43.0842 39.2514 43.3762 39.6164 43.4736 39.8232C43.5709 40.03 43.6682 40.322 43.6682 40.4923C43.6804 40.6626 43.5831 40.9424 43.4736 41.1371C43.3641 41.3196 42.9748 41.5994 42.6219 41.7697C42.2083 41.9644 41.6122 42.1104 40.8944 42.1834C40.2617 42.2442 39.3858 42.2564 38.8261 42.1955C38.2908 42.1347 37.5731 42.0009 37.2446 41.9036C36.9039 41.8062 36.393 41.5507 36.101 41.3196C35.809 41.1006 35.444 40.76 35.3102 40.5775C35.1399 40.3463 35.0425 39.9935 35.006 39.5434C35.0016 39.457 34.9996 39.3751 35.0001 39.2973C34.3451 39.2685 33.7386 39.2198 33.4252 39.1663C33.0575 39.1035 32.4914 38.9746 32 38.8478V42.8543C32.1712 42.9989 32.3265 43.1435 32.4397 43.2662C32.7317 43.5825 33.1332 44.1665 33.3157 44.568C33.4982 44.9694 33.7172 45.6872 33.8023 46.1495C33.8875 46.6605 33.924 47.4635 33.8753 48.1569C33.8388 48.7896 33.705 49.6168 33.5833 49.9818C33.4617 50.3468 33.194 50.9308 32.9994 51.2593C32.8047 51.5999 32.3667 52.1352 32.0382 52.4515C32.0258 52.4632 32.013 52.475 32 52.4868V56.4952C32.075 56.4138 32.1451 56.3386 32.2086 56.2716C32.6465 55.8215 33.2427 55.3227 33.5468 55.1889C34.0456 54.9577 34.2281 54.9334 35.615 55.0064C36.4545 55.0429 37.4643 55.1645 37.8658 55.2862C38.2672 55.3957 38.8755 55.6268 39.204 55.7972C39.5447 55.9675 40.0556 56.3568 40.3598 56.661C40.6639 56.9651 41.0532 57.5247 41.2357 57.8897C41.4182 58.2547 41.6494 58.9117 41.7589 59.3496C41.8684 59.7876 41.99 60.8826 42.0265 61.7828C42.0759 62.9486 42.0692 63.3923 41.9411 64H44.9447C44.9356 63.7242 44.9342 63.4056 44.9342 62.9994C44.922 61.4665 44.9585 61.1502 45.1897 60.5662C45.3478 60.2013 45.6277 59.6781 45.8223 59.4105C46.017 59.1428 46.4671 58.7657 46.8199 58.5588C47.4404 58.2182 47.5499 58.1939 48.8151 58.1939C50.0196 58.1939 50.2264 58.2304 50.859 58.5224C51.2362 58.717 51.7837 59.0942 52.0756 59.374C52.3555 59.666 52.7691 60.2013 52.9759 60.5662C53.0757 60.7422 53.2263 61.0682 53.3897 61.4568C53.5374 61.2392 53.6632 61.0321 53.7417 60.8703C53.9363 60.4689 54.1796 59.7267 54.2891 59.2279C54.4108 58.6561 54.4594 58.06 54.4108 57.622C54.3743 57.2327 54.2405 56.6852 54.1188 56.4054C54.0093 56.1256 53.6687 55.6876 53.3645 55.4321C53.0604 55.1767 52.5372 54.8725 52.2087 54.763C51.8194 54.6292 51.2233 54.5562 50.5663 54.5684C49.9945 54.5684 49.1551 54.6657 48.6806 54.7873C48.2061 54.909 47.3058 55.2253 46.6732 55.4808C46.0406 55.7485 44.9943 56.1499 44.3617 56.3811C43.3276 56.7582 43.1086 56.8069 42.2326 56.7582C41.6487 56.7339 41.1012 56.6366 40.8579 56.5149C40.651 56.4054 40.3591 56.1256 40.2131 55.9188C40.0306 55.6146 39.9819 55.3956 40.0306 55.0307C40.0671 54.763 40.2009 54.4102 40.3226 54.2399C40.4442 54.0696 40.7605 53.8141 41.0282 53.6681C41.2837 53.5221 41.9163 53.3274 42.4151 53.2179C42.9139 53.1206 44.1427 52.9503 45.1525 52.8408C46.1501 52.7313 47.391 52.561 47.8898 52.4515C48.3886 52.3541 49.1064 52.1595 49.4714 52.0135C49.8364 51.8675 50.3595 51.5877 50.6272 51.3809C50.8948 51.174 51.2598 50.7604 51.4544 50.4563C51.6369 50.1643 51.8438 49.5925 51.9289 49.191C52.0384 48.5949 52.0384 48.3515 51.8924 47.8527C51.7829 47.4756 51.5274 47.0376 51.1746 46.6483C50.8705 46.3198 50.0675 45.675 49.3741 45.2127C48.6928 44.7626 47.9141 44.1786 47.6343 43.9353C47.3667 43.6798 47.0747 43.2662 47.0017 43.0228C46.8679 42.6092 46.88 42.524 47.1112 42.232C47.2572 42.0374 47.6222 41.8062 47.9628 41.6846C48.3156 41.5629 49.3497 41.4291 50.5055 41.3439C51.5761 41.2709 52.9144 41.1249 53.4862 41.0276C54.058 40.9181 54.8123 40.6991 55.1529 40.541C55.5787 40.3463 55.9072 40.0908 56.1019 39.7988C56.2722 39.5434 56.4425 39.0689 56.4912 38.7282C56.552 38.2051 56.5155 38.0226 56.2113 37.39C55.9315 36.806 55.6395 36.4897 54.7636 35.7476C54.5974 35.6085 54.4208 35.4581 54.2461 35.3074C53.9551 35.6867 53.5487 36.1196 53.3044 36.3194C53.0489 36.5262 52.5258 36.8426 52.1608 37.0129C51.7958 37.1832 51.1024 37.3779 50.6401 37.4265C50.1777 37.4873 49.4356 37.4995 48.9976 37.4387C48.5597 37.39 47.9635 37.2562 47.6594 37.1467C47.3552 37.0372 46.8686 36.7696 46.5766 36.5627C46.2846 36.3437 45.8223 35.8449 45.5668 35.4435C45.3113 35.042 44.995 34.4337 44.8734 34.1052C44.7395 33.7646 44.5571 33.0833 44.4476 32.5845C44.4211 32.4488 44.3865 32.2467 44.3476 32Z" fill="#8B3DFF"/>
<path d="M60.8033 32.0807C60.5438 32.0278 60.2751 32 60 32H56.434C56.6252 32.4687 56.8767 33.1336 57.0873 33.7402C57.2448 34.1937 57.4349 34.6831 57.6103 35.1003C57.8293 34.7779 58.0965 34.4325 58.329 34.1782C58.6748 33.7904 59.6889 32.933 60.8033 32.0807Z" fill="#8B3DFF"/>
<path d="M55.676 63.0602C55.5862 63.2485 55.4497 63.5811 55.2883 64H58.9188C58.853 63.7802 58.7713 63.5677 58.6818 63.3887C58.5114 63.0481 58.1343 62.525 57.8545 62.233C57.6439 62.0312 57.2055 61.6396 56.7539 61.2498C56.726 61.2861 56.6992 61.3219 56.6737 61.357C56.3817 61.7585 55.9315 62.5249 55.676 63.0602Z" fill="#8B3DFF"/>
</g>
</svg>
