<svg width="96" height="96" viewBox="0 0 96 96" fill="none" xmlns="http://www.w3.org/2000/svg">
<path d="M32 46.9367L32 58C32 60.2091 33.7909 62 36 62H60C62.2091 62 64 60.2091 64 58V46.9367C62.7376 45.6878 60.6911 45.6878 59.4288 46.9367C58.1664 48.1857 56.1198 48.1857 54.8574 46.9367C53.595 45.6878 51.5481 45.6878 50.2858 46.9367C49.0234 48.1857 46.9768 48.1857 45.7144 46.9367C44.452 45.6878 42.4055 45.6878 41.1432 46.9367C39.8808 48.1857 37.8341 48.1857 36.5718 46.9367C35.3094 45.6878 33.2624 45.6878 32 46.9367Z" fill="#8B3DFF"/>
<path opacity="0.6" d="M32 46.9367V38.9367C33.2624 37.6878 35.3094 37.6878 36.5718 38.9367C37.8341 40.1857 39.8808 40.1857 41.1432 38.9367C42.4055 37.6878 44.452 37.6878 45.7144 38.9367C46.9768 40.1857 49.0234 40.1857 50.2858 38.9367C51.5481 37.6878 53.595 37.6878 54.8574 38.9367C56.1198 40.1857 58.1664 40.1857 59.4288 38.9367C60.6911 37.6878 62.7376 37.6878 64 38.9367V46.9367C62.7376 45.6878 60.6911 45.6878 59.4288 46.9367C58.1664 48.1857 56.1198 48.1857 54.8574 46.9367C53.595 45.6878 51.5481 45.6878 50.2858 46.9367C49.0234 48.1857 46.9768 48.1857 45.7144 46.9367C44.452 45.6878 42.4055 45.6878 41.1432 46.9367C39.8808 48.1857 37.8341 48.1857 36.5718 46.9367C35.3094 45.6878 33.2624 45.6878 32 46.9367Z" fill="#8B3DFF"/>
</svg>
