<svg width="96" height="96" viewBox="0 0 96 96" fill="none" xmlns="http://www.w3.org/2000/svg">
<path opacity="0.5" fill-rule="evenodd" clip-rule="evenodd" d="M60 41.5H44C42.6193 41.5 41.5 42.6193 41.5 44V60C41.5 61.3807 42.6193 62.5 44 62.5H60C61.3807 62.5 62.5 61.3807 62.5 60V44C62.5 42.6193 61.3807 41.5 60 41.5ZM44 40C41.7909 40 40 41.7909 40 44V60C40 62.2091 41.7909 64 44 64H60C62.2091 64 64 62.2091 64 60V44C64 41.7909 62.2091 40 60 40H44Z" fill="#8B3DFF"/>
<path d="M32 36C32 33.7909 33.7909 32 36 32H52C54.2091 32 56 33.7909 56 36V52C56 54.2091 54.2091 56 52 56H36C33.7909 56 32 54.2091 32 52V36Z" fill="#8B3DFF"/>
<path fill-rule="evenodd" clip-rule="evenodd" d="M18 48.25C18 47.8358 18.3358 47.5 18.75 47.5L21.75 47.5C22.1642 47.5 22.5 47.8358 22.5 48.25C22.5 48.6642 22.1642 49 21.75 49L18.75 49C18.3358 49 18 48.6642 18 48.25ZM20.2197 55.2803C19.9268 54.9874 19.9268 54.5126 20.2197 54.2197L22.2197 52.2197C22.5126 51.9268 22.9874 51.9268 23.2803 52.2197C23.5732 52.5126 23.5732 52.9874 23.2803 53.2803L21.2803 55.2803C20.9874 55.5732 20.5126 55.5732 20.2197 55.2803ZM20.2197 41.2197C20.5126 40.9268 20.9874 40.9268 21.2803 41.2197L23.2803 43.2197C23.5732 43.5126 23.5732 43.9874 23.2803 44.2803C22.9874 44.5732 22.5126 44.5732 22.2197 44.2803L20.2197 42.2803C19.9268 41.9874 19.9268 41.5126 20.2197 41.2197Z" fill="#8B3DFF"/>
<path fill-rule="evenodd" clip-rule="evenodd" d="M77.5 48.25C77.5 48.6642 77.1642 49 76.75 49L73.75 49C73.3358 49 73 48.6642 73 48.25C73 47.8358 73.3358 47.5 73.75 47.5L76.75 47.5C77.1642 47.5 77.5 47.8358 77.5 48.25ZM75.2803 41.2197C75.5732 41.5126 75.5732 41.9874 75.2803 42.2803L73.2803 44.2803C72.9874 44.5732 72.5126 44.5732 72.2197 44.2803C71.9268 43.9874 71.9268 43.5126 72.2197 43.2197L74.2197 41.2197C74.5126 40.9268 74.9874 40.9268 75.2803 41.2197ZM75.2803 55.2803C74.9874 55.5732 74.5126 55.5732 74.2197 55.2803L72.2197 53.2803C71.9268 52.9874 71.9268 52.5126 72.2197 52.2197C72.5126 51.9268 72.9874 51.9268 73.2803 52.2197L75.2803 54.2197C75.5732 54.5126 75.5732 54.9874 75.2803 55.2803Z" fill="#8B3DFF"/>
</svg>
