<svg width="96" height="96" viewBox="0 0 96 96" fill="none" xmlns="http://www.w3.org/2000/svg">
<path d="M68 28.25C70.2091 28.25 72 30.0409 72 32.25V48.25C72 50.4591 70.2091 52.25 68 52.25H52C49.7909 52.25 48 50.4591 48 48.25L48 32.25C48 30.0409 49.7909 28.25 52 28.25L68 28.25Z" fill="#8B3DFF"/>
<path opacity="0.3" d="M28 28.25C25.7909 28.25 24 30.0409 24 32.25V48.25C24 50.4591 25.7909 52.25 28 52.25H36C33.7909 52.25 32 50.4591 32 48.25V32.25C32 30.0409 33.7909 28.25 36 28.25L28 28.25Z" fill="#8B3DFF"/>
<path opacity="0.5" d="M36 28.25C33.7909 28.25 32 30.0409 32 32.25V48.25C32 50.4591 33.7909 52.25 36 52.25H44C41.7909 52.25 40 50.4591 40 48.25V32.25C40 30.0409 41.7909 28.25 44 28.25L36 28.25Z" fill="#8B3DFF"/>
<path opacity="0.7" d="M44 28.25C41.7909 28.25 40 30.0409 40 32.25V48.25C40 50.4591 41.7909 52.25 44 52.25H52C49.7909 52.25 48 50.4591 48 48.25V32.25C48 30.0409 49.7909 28.25 52 28.25L44 28.25Z" fill="#8B3DFF"/>
<path fill-rule="evenodd" clip-rule="evenodd" d="M56.75 64C56.75 64.1989 56.671 64.3897 56.5303 64.5303L53.5303 67.5303C53.2374 67.8232 52.7626 67.8232 52.4697 67.5303C52.1768 67.2374 52.1768 66.7626 52.4697 66.4697L54.1893 64.75L40 64.75C39.5858 64.75 39.25 64.4142 39.25 64C39.25 63.5858 39.5858 63.25 40 63.25L54.1893 63.25L52.4697 61.5303C52.1768 61.2374 52.1768 60.7626 52.4697 60.4697C52.7626 60.1768 53.2374 60.1768 53.5303 60.4697L56.5303 63.4697C56.671 63.6103 56.75 63.8011 56.75 64Z" fill="#8B3DFF"/>
</svg>
