<svg width="96" height="96" viewBox="0 0 96 96" fill="none" xmlns="http://www.w3.org/2000/svg">
<path d="M36 40C36 37.7909 37.7909 36 40 36H56C58.2091 36 60 37.7909 60 40V56C60 58.2091 58.2091 60 56 60H40C37.7909 60 36 58.2091 36 56V40Z" fill="#8B3DFF"/>
<path opacity="0.5" d="M35.3785 26.3385C33.2447 25.7667 31.0513 27.033 30.4796 29.1669L26.3385 44.6217C25.7667 46.7556 27.033 48.9489 29.1669 49.5207L36 51.3516V40.2012C36 37.992 37.7909 36.2012 40 36.2012H53.4414L53.6618 35.3785C54.2336 33.2447 52.9672 31.0513 50.8334 30.4796L35.3785 26.3385Z" fill="#8B3DFF"/>
<path opacity="0.3" d="M44.7021 60.2012L46.4792 66.8334C47.051 68.9672 49.2444 70.2335 51.3782 69.6618L66.833 65.5207C68.9669 64.9489 70.2332 62.7556 69.6615 60.6217L65.5204 45.1669C64.9486 43.033 62.7552 41.7667 60.6214 42.3385L59.9997 42.505V56.2012C59.9997 58.4103 58.2088 60.2012 55.9997 60.2012H44.7021Z" fill="#8B3DFF"/>
</svg>
