<svg width="96" height="96" viewBox="0 0 96 96" fill="none" xmlns="http://www.w3.org/2000/svg">
<path opacity="0.6" d="M43.3787 61.6618L58.8335 57.5207C60.9674 56.9489 62.2337 54.7556 61.662 52.6217L60.6267 48.758L52.5608 44.1012C51.6042 43.5489 50.381 43.8766 49.8287 44.8332L40.3434 61.2622C41.23 61.7741 42.3118 61.9477 43.3787 61.6618Z" fill="#8B3DFF"/>
<path fill-rule="evenodd" clip-rule="evenodd" d="M34.3383 43.3785C33.7665 41.2446 35.0328 39.0513 37.1667 38.4795L52.6215 34.3384C54.7554 33.7666 56.9487 35.033 57.5205 37.1668L60.6263 48.7579L52.5604 44.1011C51.6038 43.5488 50.3806 43.8765 49.8283 44.8331L40.3431 61.2621C39.4565 60.7503 38.7652 59.9002 38.4794 58.8333L34.3383 43.3785ZM41.9109 46.5258C43.2445 46.1684 44.036 44.7976 43.6786 43.4639C43.3213 42.1303 41.9504 41.3388 40.6168 41.6961C39.2831 42.0535 38.4917 43.4243 38.849 44.758C39.2064 46.0917 40.5772 46.8831 41.9109 46.5258Z" fill="#8B3DFF"/>
<circle opacity="0.6" cx="41.2638" cy="44.1109" r="2.5" transform="rotate(-15 41.2638 44.1109)" fill="#8B3DFF"/>
<path fill-rule="evenodd" clip-rule="evenodd" d="M74.2619 16.75C74.2619 16.3358 74.5977 16 75.0119 16H79.2545C79.6687 16 80.0045 16.3358 80.0045 16.75V20.9926C80.0045 21.4069 79.6687 21.7426 79.2545 21.7426C78.8403 21.7426 78.5045 21.4069 78.5045 20.9926V18.5607L74.128 22.9372C73.8351 23.2301 73.3602 23.2301 73.0673 22.9372C72.7744 22.6443 72.7744 22.1694 73.0673 21.8765L77.4439 17.5H75.0119C74.5977 17.5 74.2619 17.1642 74.2619 16.75Z" fill="#8B3DFF"/>
<path fill-rule="evenodd" clip-rule="evenodd" d="M16.75 21.7426C16.3358 21.7426 16 21.4069 16 20.9926L16 16.75C16 16.3358 16.3358 16 16.75 16L20.9926 16C21.4069 16 21.7426 16.3358 21.7426 16.75C21.7426 17.1642 21.4069 17.5 20.9926 17.5L18.5607 17.5L22.9372 21.8765C23.2301 22.1694 23.2301 22.6443 22.9372 22.9372C22.6443 23.2301 22.1694 23.2301 21.8765 22.9372L17.5 18.5607L17.5 20.9926C17.5 21.4069 17.1642 21.7426 16.75 21.7426Z" fill="#8B3DFF"/>
<path fill-rule="evenodd" clip-rule="evenodd" d="M21.7426 79.2469C21.7426 79.6612 21.4069 79.9969 20.9926 79.9969H16.75C16.3358 79.9969 16 79.6612 16 79.2469L16 75.0043C16 74.5901 16.3358 74.2543 16.75 74.2543C17.1642 74.2543 17.5 74.5901 17.5 75.0043L17.5 77.4363L21.8765 73.0598C22.1694 72.7669 22.6443 72.7669 22.9372 73.0598C23.2301 73.3527 23.2301 73.8275 22.9372 74.1204L18.5607 78.4969H20.9926C21.4069 78.4969 21.7426 78.8327 21.7426 79.2469Z" fill="#8B3DFF"/>
<path fill-rule="evenodd" clip-rule="evenodd" d="M79.2545 74.2543C79.6687 74.2543 80.0045 74.5901 80.0045 75.0043L80.0045 79.2469C80.0045 79.6612 79.6687 79.9969 79.2545 79.9969L75.0119 79.9969C74.5977 79.9969 74.2619 79.6612 74.2619 79.2469C74.2619 78.8327 74.5977 78.4969 75.0119 78.4969H77.4438L73.0673 74.1204C72.7744 73.8275 72.7744 73.3527 73.0673 73.0598C73.3602 72.7669 73.8351 72.7669 74.128 73.0598L78.5045 77.4363L78.5045 75.0043C78.5045 74.5901 78.8403 74.2543 79.2545 74.2543Z" fill="#8B3DFF"/>
<path opacity="0.5" fill-rule="evenodd" clip-rule="evenodd" d="M27.4229 52.2803C27.13 52.5732 26.6551 52.5732 26.3622 52.2803C23.8602 49.7783 23.8602 45.7217 26.3622 43.2197C26.6551 42.9268 27.13 42.9268 27.4229 43.2197C27.7158 43.5126 27.7158 43.9874 27.4229 44.2803C25.5067 46.1966 25.5067 49.3034 27.4229 51.2197C27.7158 51.5126 27.7158 51.9874 27.4229 52.2803Z" fill="#8B3DFF"/>
<path opacity="0.3" fill-rule="evenodd" clip-rule="evenodd" d="M23.7657 54.2803C23.4728 54.5732 22.9979 54.5732 22.705 54.2803C19.0984 50.6737 19.0984 44.8263 22.705 41.2197C22.9979 40.9268 23.4728 40.9268 23.7657 41.2197C24.0586 41.5126 24.0586 41.9874 23.7657 42.2803C20.7449 45.3011 20.7449 50.1989 23.7657 53.2197C24.0586 53.5126 24.0586 53.9874 23.7657 54.2803Z" fill="#8B3DFF"/>
<path opacity="0.5" fill-rule="evenodd" clip-rule="evenodd" d="M69.2148 43.2197C69.5077 42.9268 69.9826 42.9268 70.2754 43.2197C72.7775 45.7217 72.7775 49.7783 70.2754 52.2803C69.9826 52.5732 69.5077 52.5732 69.2148 52.2803C68.9219 51.9874 68.9219 51.5126 69.2148 51.2197C71.131 49.3034 71.131 46.1966 69.2148 44.2803C68.9219 43.9874 68.9219 43.5126 69.2148 43.2197Z" fill="#8B3DFF"/>
<path opacity="0.3" fill-rule="evenodd" clip-rule="evenodd" d="M72.872 41.2197C73.1649 40.9268 73.6398 40.9268 73.9327 41.2197C77.5393 44.8263 77.5393 50.6737 73.9327 54.2803C73.6398 54.5732 73.1649 54.5732 72.872 54.2803C72.5791 53.9874 72.5791 53.5126 72.872 53.2197C75.8928 50.1989 75.8928 45.3011 72.872 42.2803C72.5791 41.9874 72.5791 41.5126 72.872 41.2197Z" fill="#8B3DFF"/>
</svg>
