<svg width="96" height="96" viewBox="0 0 96 96" fill="none" xmlns="http://www.w3.org/2000/svg">
<path d="M36 40C36 37.7909 37.7909 36 40 36H56C58.2091 36 60 37.7909 60 40V56C60 58.2091 58.2091 60 56 60H40C37.7909 60 36 58.2091 36 56V40Z" fill="#8B3DFF"/>
<path opacity="0.3" fill-rule="evenodd" clip-rule="evenodd" d="M56 29.5H40C34.201 29.5 29.5 34.201 29.5 40V56C29.5 61.799 34.201 66.5 40 66.5H56C61.799 66.5 66.5 61.799 66.5 56V40C66.5 34.201 61.799 29.5 56 29.5ZM40 28C33.3726 28 28 33.3726 28 40V56C28 62.6274 33.3726 68 40 68H56C62.6274 68 68 62.6274 68 56V40C68 33.3726 62.6274 28 56 28H40Z" fill="#8B3DFF"/>
<path opacity="0.5" fill-rule="evenodd" clip-rule="evenodd" d="M56 33.5H40C36.4101 33.5 33.5 36.4101 33.5 40V56C33.5 59.5899 36.4101 62.5 40 62.5H56C59.5899 62.5 62.5 59.5899 62.5 56V40C62.5 36.4101 59.5899 33.5 56 33.5ZM40 32C35.5817 32 32 35.5817 32 40V56C32 60.4183 35.5817 64 40 64H56C60.4183 64 64 60.4183 64 56V40C64 35.5817 60.4183 32 56 32H40Z" fill="#8B3DFF"/>
<path fill-rule="evenodd" clip-rule="evenodd" d="M78.5903 22.4069C78.5903 22.8211 78.2545 23.1569 77.8403 23.1569L73.5977 23.1569C73.1834 23.1569 72.8477 22.8211 72.8477 22.4069L72.8477 18.1642C72.8477 17.75 73.1834 17.4142 73.5977 17.4142C74.0119 17.4142 74.3477 17.75 74.3477 18.1642L74.3477 20.5962L78.7242 16.2197C79.0171 15.9268 79.492 15.9268 79.7848 16.2197C80.0777 16.5126 80.0777 16.9874 79.7848 17.2803L75.4083 21.6569L77.8403 21.6569C78.2545 21.6569 78.5903 21.9926 78.5903 22.4069Z" fill="#8B3DFF"/>
<path fill-rule="evenodd" clip-rule="evenodd" d="M22.4069 17.4142C22.8211 17.4142 23.1569 17.75 23.1569 18.1642L23.1569 22.4069C23.1569 22.8211 22.8211 23.1569 22.4069 23.1569L18.1642 23.1569C17.75 23.1569 17.4142 22.8211 17.4142 22.4069C17.4142 21.9926 17.75 21.6569 18.1642 21.6569L20.5962 21.6569L16.2197 17.2803C15.9268 16.9874 15.9268 16.5126 16.2197 16.2197C16.5126 15.9268 16.9874 15.9268 17.2803 16.2197L21.6569 20.5962L21.6569 18.1642C21.6569 17.75 21.9926 17.4142 22.4069 17.4142Z" fill="#8B3DFF"/>
<path fill-rule="evenodd" clip-rule="evenodd" d="M17.4142 73.5901C17.4142 73.1759 17.75 72.8401 18.1642 72.8401L22.4069 72.8401C22.8211 72.8401 23.1569 73.1759 23.1569 73.5901L23.1569 77.8327C23.1569 78.2469 22.8211 78.5827 22.4069 78.5827C21.9926 78.5827 21.6569 78.2469 21.6569 77.8327L21.6569 75.4008L17.2803 79.7773C16.9874 80.0702 16.5126 80.0702 16.2197 79.7773C15.9268 79.4844 15.9268 79.0095 16.2197 78.7166L20.5962 74.3401L18.1642 74.3401C17.75 74.3401 17.4142 74.0043 17.4142 73.5901Z" fill="#8B3DFF"/>
<path fill-rule="evenodd" clip-rule="evenodd" d="M73.5977 78.5827C73.1834 78.5827 72.8477 78.2469 72.8477 77.8327L72.8477 73.5901C72.8477 73.1759 73.1835 72.8401 73.5977 72.8401L77.8403 72.8401C78.2545 72.8401 78.5903 73.1759 78.5903 73.5901C78.5903 74.0043 78.2545 74.3401 77.8403 74.3401L75.4083 74.3401L79.7848 78.7166C80.0777 79.0095 80.0777 79.4844 79.7848 79.7773C79.492 80.0702 79.0171 80.0702 78.7242 79.7773L74.3477 75.4008L74.3477 77.8327C74.3477 78.2469 74.0119 78.5827 73.5977 78.5827Z" fill="#8B3DFF"/>
</svg>
