<svg width="96" height="96" viewBox="0 0 96 96" fill="none" xmlns="http://www.w3.org/2000/svg">
<path fill-rule="evenodd" clip-rule="evenodd" d="M57 63.75C57 63.9489 56.921 64.1397 56.7803 64.2803L53.7803 67.2803C53.4874 67.5732 53.0126 67.5732 52.7197 67.2803C52.4268 66.9874 52.4268 66.5126 52.7197 66.2197L54.4393 64.5L40.25 64.5C39.8358 64.5 39.5 64.1642 39.5 63.75C39.5 63.3358 39.8358 63 40.25 63L54.4393 63L52.7197 61.2803C52.4268 60.9874 52.4268 60.5126 52.7197 60.2197C53.0126 59.9268 53.4874 59.9268 53.7803 60.2197L56.7803 63.2197C56.921 63.3603 57 63.5511 57 63.75Z" fill="#8B3DFF"/>
<path opacity="0.3" d="M42 28L30 28C27.7909 28 26 29.7909 26 32L26 48C26 50.2091 27.7909 52 30 52L42 52C39.7909 52 38 50.2091 38 48L38 32C38 29.7909 39.7909 28 42 28Z" fill="#8B3DFF"/>
<path d="M46 32C46 29.7909 47.7909 28 50 28H66C68.2091 28 70 29.7909 70 32V48C70 50.2091 68.2091 52 66 52H50C47.7909 52 46 50.2091 46 48V32Z" fill="#8B3DFF"/>
<path opacity="0.7" d="M46 28C43.7909 28 42 29.7909 42 32L42 48C42 50.2091 43.7909 52 46 52L50 52C47.7909 52 46 50.2091 46 48L46 32C46 29.7909 47.7909 28 50 28L46 28Z" fill="#8B3DFF"/>
<path opacity="0.5" d="M42 28C39.7909 28 38 29.7909 38 32L38 48C38 50.2091 39.7909 52 42 52L46 52C43.7909 52 42 50.2091 42 48L42 32C42 29.7909 43.7909 28 46 28L42 28Z" fill="#8B3DFF"/>
</svg>
