<svg width="96" height="96" viewBox="0 0 96 96" fill="none" xmlns="http://www.w3.org/2000/svg">
<path d="M43.3428 50.3394C43.3428 48.1302 45.1336 46.3394 47.3428 46.3394H63.3428C65.5519 46.3394 67.3428 48.1302 67.3428 50.3394V66.3394C67.3428 68.5485 65.5519 70.3394 63.3428 70.3394H47.3428C45.1336 70.3394 43.3428 68.5485 43.3428 66.3394V50.3394Z" fill="#8B3DFF"/>
<path opacity="0.7" d="M39.2069 45.5162C37.0731 46.088 35.8067 48.2813 36.3785 50.4152L40.5196 65.87C40.9834 67.6009 42.5142 68.761 44.2147 68.8322C43.6693 68.1486 43.3432 67.2821 43.3432 66.3396V50.3395C43.3432 48.1304 45.1341 46.3395 47.3432 46.3395H60.1331L59.5607 44.2035C58.989 42.0696 56.7956 40.8033 54.6617 41.3751L39.2069 45.5162Z" fill="#8B3DFF"/>
<path opacity="0.5" d="M50.1268 40.8034C49.0223 38.8902 46.5759 38.2347 44.6627 39.3393L30.8063 47.3393C28.8932 48.4439 28.2377 50.8902 29.3422 52.8034L37.3422 66.6598C38.3738 68.4465 40.5756 69.1363 42.4205 68.32C41.5161 67.8106 40.8094 66.9518 40.5195 65.8699L36.3784 50.4151C35.8066 48.2812 37.073 46.0879 39.2068 45.5161L51.0202 42.3507L50.1268 40.8034Z" fill="#8B3DFF"/>
<path opacity="0.3" d="M41.1421 39.1677C39.58 37.6056 37.0474 37.6056 35.4853 39.1677L24.1716 50.4814C22.6095 52.0435 22.6095 54.5761 24.1716 56.1382L35.4853 67.4519C36.5734 68.54 38.1323 68.8702 39.5062 68.4425C38.625 68.14 37.8449 67.5299 37.3425 66.6597L29.3425 52.8033C28.2379 50.8901 28.8934 48.4438 30.8066 47.3392L42.5396 40.5651L41.1421 39.1677Z" fill="#8B3DFF"/>
<path fill-rule="evenodd" clip-rule="evenodd" d="M50.2961 27.4935C50.1889 27.0934 50.4263 26.6821 50.8264 26.5749C59.5054 24.2494 68.4195 29.1853 71.118 37.6584L72.347 35.5297C72.5542 35.171 73.0128 35.0481 73.3716 35.2552C73.7303 35.4623 73.8532 35.921 73.6461 36.2797L71.5248 39.954C71.3177 40.3127 70.859 40.4356 70.5002 40.2285L66.826 38.1072C66.4673 37.9001 66.3444 37.4414 66.5515 37.0827C66.7586 36.7239 67.2173 36.601 67.576 36.8081L69.6548 38.0083C67.1574 30.3591 59.08 25.9163 51.2146 28.0238C50.8145 28.131 50.4033 27.8936 50.2961 27.4935Z" fill="#8B3DFF"/>
</svg>
