<svg width="96" height="96" viewBox="0 0 96 96" fill="none" xmlns="http://www.w3.org/2000/svg">
<path opacity="0.6" d="M32.2502 72.0002H48.2502C50.4593 72.0002 52.2502 70.2093 52.2502 68.0002V64.0002L45.6644 57.4144C44.8833 56.6334 43.617 56.6334 42.836 57.4144L29.4218 70.8286C30.1456 71.5525 31.1456 72.0002 32.2502 72.0002Z" fill="#8B3DFF"/>
<path fill-rule="evenodd" clip-rule="evenodd" d="M28.2499 52C28.2499 49.7909 30.0407 48 32.2499 48H48.2499C50.459 48 52.2499 49.7909 52.2499 52V64L45.6641 57.4142C44.883 56.6332 43.6167 56.6332 42.8357 57.4142L29.4215 70.8284C28.6976 70.1046 28.2499 69.1046 28.2499 68V52ZM34.7499 57C36.1306 57 37.2499 55.8807 37.2499 54.5C37.2499 53.1193 36.1306 52 34.7499 52C33.3692 52 32.2499 53.1193 32.2499 54.5C32.2499 55.8807 33.3692 57 34.7499 57Z" fill="#8B3DFF"/>
<circle opacity="0.6" cx="34.7499" cy="54.5" r="2.5" fill="#8B3DFF"/>
<path opacity="0.3" d="M52.2501 28C52.2501 25.7909 50.4593 24 48.2501 24L32.2501 24C30.041 24 28.2501 25.7909 28.2501 28L28.2501 36C28.2501 33.7909 30.041 32 32.2501 32L48.2501 32C50.4593 32 52.2501 33.7909 52.2501 36L52.2501 28Z" fill="#8B3DFF"/>
<path opacity="0.5" d="M52.2501 36C52.2501 33.7909 50.4593 32 48.2501 32L32.2501 32C30.041 32 28.2501 33.7909 28.2501 36L28.2501 44C28.2501 41.7909 30.041 40 32.2501 40L48.2501 40C50.4593 40 52.2501 41.7909 52.2501 44L52.2501 36Z" fill="#8B3DFF"/>
<path opacity="0.7" d="M52.2501 44C52.2501 41.7909 50.4593 40 48.2501 40L32.2501 40C30.041 40 28.2501 41.7909 28.2501 44L28.2501 52C28.2501 49.7909 30.041 48 32.2501 48L48.2501 48C50.4593 48 52.2501 49.7909 52.2501 52L52.2501 44Z" fill="#8B3DFF"/>
<path fill-rule="evenodd" clip-rule="evenodd" d="M64.0001 56.75C63.8012 56.75 63.6104 56.671 63.4698 56.5303L60.4698 53.5303C60.1769 53.2374 60.1769 52.7626 60.4698 52.4697C60.7627 52.1768 61.2376 52.1768 61.5305 52.4697L63.2501 54.1893L63.2501 40C63.2501 39.5858 63.5859 39.25 64.0001 39.25C64.4143 39.25 64.7501 39.5858 64.7501 40L64.7501 54.1893L66.4698 52.4697C66.7627 52.1768 67.2376 52.1768 67.5305 52.4697C67.8233 52.7626 67.8233 53.2374 67.5305 53.5303L64.5305 56.5303C64.3898 56.671 64.199 56.75 64.0001 56.75Z" fill="#8B3DFF"/>
</svg>
