<svg width="96" height="96" viewBox="0 0 96 96" fill="none" xmlns="http://www.w3.org/2000/svg">
<path opacity="0.6" d="M32.2501 48.0002H48.2501C50.4592 48.0002 52.2501 46.2093 52.2501 44.0002V40.0002L45.6643 33.4144C44.8832 32.6334 43.6169 32.6334 42.8358 33.4144L29.4216 46.8286C30.1455 47.5525 31.1455 48.0002 32.2501 48.0002Z" fill="#8B3DFF"/>
<path fill-rule="evenodd" clip-rule="evenodd" d="M28.2498 28C28.2498 25.7909 30.0406 24 32.2498 24H48.2498C50.4589 24 52.2498 25.7909 52.2498 28V40L45.664 33.4142C44.8829 32.6332 43.6166 32.6332 42.8355 33.4142L29.4213 46.8284C28.6975 46.1046 28.2498 45.1046 28.2498 44V28ZM34.7498 33C36.1305 33 37.2498 31.8807 37.2498 30.5C37.2498 29.1193 36.1305 28 34.7498 28C33.369 28 32.2498 29.1193 32.2498 30.5C32.2498 31.8807 33.369 33 34.7498 33Z" fill="#8B3DFF"/>
<circle opacity="0.6" cx="34.7498" cy="30.5" r="2.5" fill="#8B3DFF"/>
<path opacity="0.3" d="M28.25 68C28.25 70.2091 30.0409 72 32.25 72L48.25 72C50.4591 72 52.25 70.2091 52.25 68L52.25 60C52.25 62.2091 50.4591 64 48.25 64L32.25 64C30.0409 64 28.25 62.2091 28.25 60L28.25 68Z" fill="#8B3DFF"/>
<path opacity="0.5" d="M28.25 60C28.25 62.2091 30.0409 64 32.25 64L48.25 64C50.4591 64 52.25 62.2091 52.25 60L52.25 52C52.25 54.2091 50.4591 56 48.25 56L32.25 56C30.0409 56 28.25 54.2091 28.25 52L28.25 60Z" fill="#8B3DFF"/>
<path opacity="0.7" d="M28.25 52C28.25 54.2091 30.0409 56 32.25 56L48.25 56C50.4591 56 52.25 54.2091 52.25 52L52.25 44C52.25 46.2091 50.4591 48 48.25 48L32.25 48C30.0409 48 28.25 46.2091 28.25 44L28.25 52Z" fill="#8B3DFF"/>
<path fill-rule="evenodd" clip-rule="evenodd" d="M64 39.25C64.1989 39.25 64.3897 39.329 64.5303 39.4697L67.5303 42.4697C67.8232 42.7626 67.8232 43.2374 67.5303 43.5303C67.2374 43.8232 66.7626 43.8232 66.4697 43.5303L64.75 41.8107V56C64.75 56.4142 64.4142 56.75 64 56.75C63.5858 56.75 63.25 56.4142 63.25 56L63.25 41.8107L61.5303 43.5303C61.2374 43.8232 60.7626 43.8232 60.4697 43.5303C60.1768 43.2374 60.1768 42.7626 60.4697 42.4697L63.4697 39.4697C63.6103 39.329 63.8011 39.25 64 39.25Z" fill="#8B3DFF"/>
</svg>
