<svg width="96" height="96" viewBox="0 0 96 96" fill="none" xmlns="http://www.w3.org/2000/svg">
<path opacity="0.3" fill-rule="evenodd" clip-rule="evenodd" d="M40 32C35.5817 32 32 35.5817 32 40V56C32 60.4183 35.5817 64 40 64H56C60.4183 64 64 60.4183 64 56V40C64 35.5817 60.4183 32 56 32H40ZM40 36C37.7909 36 36 37.7909 36 40V56C36 58.2091 37.7909 60 40 60H56C58.2091 60 60 58.2091 60 56V40C60 37.7909 58.2091 36 56 36H40Z" fill="#8B3DFF"/>
<path opacity="0.6" d="M40.0003 60.0002H56.0003C58.2094 60.0002 60.0003 58.2093 60.0003 56.0002V52.0002L53.4145 45.4144C52.6335 44.6334 51.3671 44.6334 50.5861 45.4144L37.1719 58.8286C37.8957 59.5525 38.8957 60.0002 40.0003 60.0002Z" fill="#8B3DFF"/>
<path fill-rule="evenodd" clip-rule="evenodd" d="M36 40C36 37.7909 37.7909 36 40 36H56C58.2091 36 60 37.7909 60 40V52L53.4142 45.4142C52.6332 44.6332 51.3668 44.6332 50.5858 45.4142L37.1716 58.8284C36.4477 58.1046 36 57.1046 36 56V40ZM42.5 45C43.8807 45 45 43.8807 45 42.5C45 41.1193 43.8807 40 42.5 40C41.1193 40 40 41.1193 40 42.5C40 43.8807 41.1193 45 42.5 45Z" fill="#8B3DFF"/>
<circle opacity="0.6" cx="42.5" cy="42.5" r="2.5" fill="#8B3DFF"/>
<path fill-rule="evenodd" clip-rule="evenodd" d="M74.2597 16.7515C74.2597 16.3373 74.5955 16.0015 75.0097 16.0015H79.2523C79.6665 16.0015 80.0023 16.3373 80.0023 16.7515V20.9941C80.0023 21.4083 79.6665 21.7441 79.2523 21.7441C78.8381 21.7441 78.5023 21.4083 78.5023 20.9941V18.5621L74.1258 22.9386C73.8329 23.2315 73.358 23.2315 73.0651 22.9386C72.7722 22.6458 72.7722 22.1709 73.0651 21.878L77.4417 17.5015H75.0097C74.5955 17.5015 74.2597 17.1657 74.2597 16.7515Z" fill="#8B3DFF"/>
<path fill-rule="evenodd" clip-rule="evenodd" d="M16.7478 21.7441C16.3336 21.7441 15.9978 21.4083 15.9978 20.9941L15.9978 16.7515C15.9978 16.3373 16.3336 16.0015 16.7478 16.0015L20.9904 16.0015C21.4047 16.0015 21.7404 16.3373 21.7404 16.7515C21.7404 17.1657 21.4047 17.5015 20.9904 17.5015L18.5585 17.5015L22.935 21.878C23.2279 22.1709 23.2279 22.6458 22.935 22.9386C22.6421 23.2315 22.1672 23.2315 21.8743 22.9386L17.4978 18.5621L17.4978 20.9941C17.4978 21.4083 17.162 21.7441 16.7478 21.7441Z" fill="#8B3DFF"/>
<path fill-rule="evenodd" clip-rule="evenodd" d="M21.7404 79.2484C21.7404 79.6626 21.4047 79.9984 20.9904 79.9984H16.7478C16.3336 79.9984 15.9978 79.6626 15.9978 79.2484L15.9978 75.0058C15.9978 74.5916 16.3336 74.2558 16.7478 74.2558C17.162 74.2558 17.4978 74.5916 17.4978 75.0058L17.4978 77.4377L21.8743 73.0612C22.1672 72.7683 22.6421 72.7683 22.935 73.0612C23.2279 73.3541 23.2279 73.829 22.935 74.1219L18.5585 78.4984H20.9904C21.4047 78.4984 21.7404 78.8342 21.7404 79.2484Z" fill="#8B3DFF"/>
<path fill-rule="evenodd" clip-rule="evenodd" d="M79.2523 74.2558C79.6665 74.2558 80.0023 74.5916 80.0023 75.0058L80.0023 79.2484C80.0023 79.6626 79.6665 79.9984 79.2523 79.9984L75.0097 79.9984C74.5955 79.9984 74.2597 79.6626 74.2597 79.2484C74.2597 78.8342 74.5955 78.4984 75.0097 78.4984H77.4417L73.0651 74.1219C72.7722 73.829 72.7722 73.3541 73.0651 73.0612C73.358 72.7683 73.8329 72.7683 74.1258 73.0612L78.5023 77.4377L78.5023 75.0058C78.5023 74.5916 78.8381 74.2558 79.2523 74.2558Z" fill="#8B3DFF"/>
</svg>
