<svg width="96" height="96" viewBox="0 0 96 96" fill="none" xmlns="http://www.w3.org/2000/svg">
<g opacity="0.3">
<path d="M32 32.75C29.7909 32.75 28 34.5409 28 36.75V52.75C28 54.9591 29.7909 56.75 32 56.75H44C41.7909 56.75 40 54.9591 40 52.75V36.75C40 34.5409 41.7909 32.75 44 32.75H32Z" fill="#8B3DFF"/>
<path d="M60 32.75C62.2091 32.75 64 34.5409 64 36.75V52.75C64 54.9591 62.2091 56.75 60 56.75H64C66.2091 56.75 68 54.9591 68 52.75V36.75C68 34.5409 66.2091 32.75 64 32.75H60Z" fill="#8B3DFF"/>
</g>
<path opacity="0.6" d="M44.0003 56.7502H60.0003C62.2094 56.7502 64.0003 54.9593 64.0003 52.7502V48.7502L57.4145 42.1644C56.6335 41.3834 55.3671 41.3834 54.5861 42.1644L41.1719 55.5786C41.8957 56.3025 42.8957 56.7502 44.0003 56.7502Z" fill="#8B3DFF"/>
<path fill-rule="evenodd" clip-rule="evenodd" d="M40 36.75C40 34.5409 41.7909 32.75 44 32.75H60C62.2091 32.75 64 34.5409 64 36.75V48.75L57.4142 42.1642C56.6332 41.3832 55.3668 41.3832 54.5858 42.1642L41.1716 55.5784C40.4477 54.8546 40 53.8546 40 52.75V36.75ZM46.5 41.75C47.8807 41.75 49 40.6307 49 39.25C49 37.8693 47.8807 36.75 46.5 36.75C45.1193 36.75 44 37.8693 44 39.25C44 40.6307 45.1193 41.75 46.5 41.75Z" fill="#8B3DFF"/>
<circle opacity="0.6" cx="46.5" cy="39.25" r="2.5" fill="#8B3DFF"/>
<path fill-rule="evenodd" clip-rule="evenodd" d="M56.75 21C56.75 21.1989 56.671 21.3897 56.5303 21.5303L53.5303 24.5303C53.2374 24.8232 52.7626 24.8232 52.4697 24.5303C52.1768 24.2374 52.1768 23.7626 52.4697 23.4697L54.1893 21.75L40 21.75C39.5858 21.75 39.25 21.4142 39.25 21C39.25 20.5858 39.5858 20.25 40 20.25L54.1893 20.25L52.4697 18.5303C52.1768 18.2374 52.1768 17.7626 52.4697 17.4697C52.7626 17.1768 53.2374 17.1768 53.5303 17.4697L56.5303 20.4697C56.671 20.6103 56.75 20.8011 56.75 21Z" fill="#8B3DFF"/>
<path d="M41.2279 78.5548H39.1149L37.8861 75.362H31.1933L29.9646 78.5548H27.8516L33.2412 64.9458H35.8383L41.2279 78.5548ZM34.5071 66.7423L31.8449 73.6679H37.2438L34.5816 66.7423H34.5071Z" fill="#8B3DFF"/>
<path opacity="0.5" d="M42.9502 78.5548V64.9458H49.2521C50.0898 64.9458 50.7973 65.0792 51.3744 65.3461C51.9577 65.6067 52.3952 65.979 52.6869 66.4631C52.9786 66.9409 53.1244 67.5087 53.1244 68.1665C53.1244 69.5008 52.4666 70.4347 51.151 70.9684V71.0522C52.1067 71.2942 52.8172 71.7193 53.2826 72.3274C53.7543 72.9356 53.9901 73.6958 53.9901 74.608C53.9901 75.8926 53.6022 76.8731 52.8265 77.5495C52.0508 78.2197 50.8593 78.5548 49.2521 78.5548H42.9502ZM48.8611 70.5774C49.5934 70.5774 50.1581 70.4037 50.5552 70.0562C50.9586 69.7024 51.1603 69.2029 51.1603 68.5575C51.1603 67.8749 50.971 67.3691 50.5925 67.0402C50.2139 66.7113 49.6368 66.5469 48.8611 66.5469H44.9236V70.5774H48.8611ZM49.3731 76.8793C50.2357 76.8793 50.881 76.6807 51.3092 76.2836C51.7374 75.8802 51.9515 75.2938 51.9515 74.5243C51.9515 73.7548 51.7374 73.1714 51.3092 72.7743C50.881 72.3771 50.2357 72.1785 49.3731 72.1785H44.9236V76.8793H49.3731Z" fill="#8B3DFF"/>
<path opacity="0.3" d="M62.2842 78.7502C61.0306 78.7502 59.8919 78.4617 58.8679 77.8846C57.8502 77.3012 57.0466 76.479 56.457 75.4178C55.8737 74.3566 55.582 73.1341 55.582 71.7502C55.582 70.3664 55.8737 69.1439 56.457 68.0827C57.0466 67.0215 57.8502 66.2024 58.8679 65.6252C59.8919 65.0419 61.0306 64.7502 62.2842 64.7502C63.7673 64.7502 64.965 65.0388 65.8772 65.6159C66.7957 66.1869 67.4442 66.9564 67.8227 67.9244L66.2589 69.0694C65.9362 68.244 65.4459 67.6235 64.7881 67.2077C64.1366 66.7857 63.3019 66.5747 62.2842 66.5747C61.3905 66.5747 60.59 66.7826 59.8826 67.1984C59.1813 67.6142 58.6321 68.213 58.235 68.9949C57.8378 69.7768 57.6392 70.6953 57.6392 71.7502C57.6392 72.8176 57.8378 73.7423 58.235 74.5242C58.6383 75.2999 59.1937 75.8956 59.9012 76.3114C60.6086 76.721 61.4123 76.9258 62.3121 76.9258C63.485 76.9258 64.4127 76.6372 65.0953 76.0601C65.7842 75.4768 66.2527 74.6142 66.5009 73.4723L68.1485 74.4683C67.8196 75.7591 67.1742 76.7955 66.2123 77.5774C65.2505 78.3593 63.9411 78.7502 62.2842 78.7502Z" fill="#8B3DFF"/>
</svg>
