<svg width="96" height="96" viewBox="0 0 96 96" fill="none" xmlns="http://www.w3.org/2000/svg">
<path d="M41.2279 77.8046H39.1148L37.8861 74.6118H31.1933L29.9646 77.8046H27.8516L33.2412 64.1956H35.8383L41.2279 77.8046ZM34.5071 65.9921L31.8449 72.9176H37.2438L34.5816 65.9921H34.5071Z" fill="#8B3DFF"/>
<g opacity="0.3">
<path d="M42.9492 77.8046V64.1956H49.2511C50.0888 64.1956 50.7963 64.329 51.3734 64.5958C51.9567 64.8565 52.3942 65.2288 52.6859 65.7128C52.9776 66.1907 53.1234 66.7585 53.1234 67.4163C53.1234 68.7505 52.4656 69.6845 51.15 70.2182V70.3019C52.1057 70.544 52.8162 70.969 53.2817 71.5772C53.7533 72.1853 53.9891 72.9455 53.9891 73.8578C53.9891 75.1423 53.6012 76.1228 52.8255 76.7993C52.0498 77.4695 50.8583 77.8046 49.2511 77.8046H42.9492ZM48.8601 69.8272C49.5924 69.8272 50.1571 69.6534 50.5543 69.3059C50.9576 68.9522 51.1593 68.4526 51.1593 67.8073C51.1593 67.1246 50.97 66.6189 50.5915 66.29C50.2129 65.9611 49.6358 65.7966 48.8601 65.7966H44.9226V69.8272H48.8601ZM49.3721 76.129C50.2347 76.129 50.8801 75.9305 51.3083 75.5333C51.7364 75.1299 51.9505 74.5435 51.9505 73.774C51.9505 73.0045 51.7364 72.4212 51.3083 72.024C50.8801 71.6268 50.2347 71.4283 49.3721 71.4283H44.9226V76.129H49.3721Z" fill="#8B3DFF"/>
<path d="M62.2832 78C61.0296 78 59.8909 77.7114 58.8669 77.1343C57.8492 76.551 57.0456 75.7287 56.456 74.6675C55.8727 73.6064 55.581 72.3839 55.581 71C55.581 69.6161 55.8727 68.3936 56.456 67.3324C57.0456 66.2713 57.8492 65.4521 58.8669 64.875C59.8909 64.2917 61.0296 64 62.2832 64C63.7663 64 64.964 64.2886 65.8762 64.8657C66.7947 65.4366 67.4432 66.2061 67.8217 67.1742L66.2579 68.3191C65.9352 67.4938 65.4449 66.8732 64.7871 66.4574C64.1355 66.0355 63.3009 65.8245 62.2832 65.8245C61.3895 65.8245 60.589 66.0324 59.8816 66.4481C59.1803 66.8639 58.6311 67.4628 58.234 68.2447C57.8368 69.0266 57.6382 69.945 57.6382 71C57.6382 72.0674 57.8368 72.992 58.234 73.7739C58.6373 74.5496 59.1927 75.1454 59.9002 75.5612C60.6076 75.9707 61.4113 76.1755 62.3111 76.1755C63.484 76.1755 64.4117 75.887 65.0943 75.3098C65.7832 74.7265 66.2517 73.8639 66.4999 72.7221L68.1475 73.7181C67.8186 75.0088 67.1732 76.0452 66.2113 76.8271C65.2495 77.609 63.9401 78 62.2832 78Z" fill="#8B3DFF"/>
</g>
<path d="M42.9492 72.8046V59.1956H49.2511C50.0888 59.1956 50.7963 59.329 51.3734 59.5958C51.9567 59.8565 52.3942 60.2288 52.6859 60.7128C52.9776 61.1907 53.1234 61.7585 53.1234 62.4163C53.1234 63.7505 52.4656 64.6845 51.15 65.2182V65.3019C52.1057 65.544 52.8162 65.969 53.2817 66.5772C53.7533 67.1854 53.9891 67.9455 53.9891 68.8578C53.9891 70.1424 53.6012 71.1228 52.8255 71.7993C52.0498 72.4695 50.8583 72.8046 49.2511 72.8046H42.9492ZM48.8601 64.8272C49.5924 64.8272 50.1571 64.6534 50.5543 64.3059C50.9576 63.9522 51.1593 63.4526 51.1593 62.8073C51.1593 62.1246 50.97 61.6189 50.5915 61.29C50.2129 60.9611 49.6358 60.7966 48.8601 60.7966H44.9226V64.8272H48.8601ZM49.3721 71.1291C50.2347 71.1291 50.8801 70.9305 51.3083 70.5333C51.7364 70.1299 51.9505 69.5435 51.9505 68.774C51.9505 68.0045 51.7364 67.4212 51.3083 67.024C50.8801 66.6268 50.2347 66.4283 49.3721 66.4283H44.9226V71.1291H49.3721Z" fill="#8B3DFF"/>
<path d="M62.2822 68C61.0287 68 59.8899 67.7114 58.866 67.1343C57.8482 66.551 57.0446 65.7287 56.4551 64.6675C55.8717 63.6064 55.5801 62.3839 55.5801 61C55.5801 59.6161 55.8717 58.3936 56.4551 57.3324C57.0446 56.2713 57.8482 55.4521 58.866 54.875C59.8899 54.2917 61.0287 54 62.2822 54C63.7653 54 64.963 54.2886 65.8753 54.8657C66.7937 55.4366 67.4422 56.2061 67.8208 57.1742L66.2569 58.3191C65.9342 57.4938 65.444 56.8732 64.7862 56.4574C64.1346 56.0355 63.2999 55.8245 62.2822 55.8245C61.3886 55.8245 60.5881 56.0324 59.8806 56.4481C59.1794 56.8639 58.6302 57.4628 58.233 58.2447C57.8358 59.0266 57.6373 59.945 57.6373 61C57.6373 62.0674 57.8358 62.992 58.233 63.7739C58.6364 64.5496 59.1918 65.1454 59.8992 65.5612C60.6067 65.9707 61.4103 66.1755 62.3101 66.1755C63.483 66.1755 64.4107 65.887 65.0934 65.3098C65.7822 64.7265 66.2507 63.8639 66.4989 62.7221L68.1466 63.7181C67.8177 65.0089 67.1723 66.0452 66.2104 66.8271C65.2485 67.609 63.9391 68 62.2822 68Z" fill="#8B3DFF"/>
<path fill-rule="evenodd" clip-rule="evenodd" d="M71.75 25.25C71.9489 25.25 72.1397 25.329 72.2803 25.4697L75.2803 28.4697C75.5732 28.7626 75.5732 29.2374 75.2803 29.5303C74.9874 29.8232 74.5126 29.8232 74.2197 29.5303L72.5 27.8107V42C72.5 42.4142 72.1642 42.75 71.75 42.75C71.3358 42.75 71 42.4142 71 42L71 27.8107L69.2803 29.5303C68.9874 29.8232 68.5126 29.8232 68.2197 29.5303C67.9268 29.2374 67.9268 28.7626 68.2197 28.4697L71.2197 25.4697C71.3603 25.329 71.5511 25.25 71.75 25.25Z" fill="#8B3DFF"/>
<path opacity="0.3" d="M36 46C36 48.2091 37.7909 50 40 50L56 50C58.2091 50 60 48.2091 60 46L60 38C60 40.2091 58.2091 42 56 42L40 42C37.7909 42 36 40.2091 36 38L36 46Z" fill="#8B3DFF"/>
<path opacity="0.6" d="M40.0003 42.0002H56.0003C58.2094 42.0002 60.0003 40.2093 60.0003 38.0002V34.0002L53.4145 27.4144C52.6335 26.6334 51.3671 26.6334 50.5861 27.4144L37.1719 40.8286C37.8957 41.5525 38.8957 42.0002 40.0003 42.0002Z" fill="#8B3DFF"/>
<path fill-rule="evenodd" clip-rule="evenodd" d="M36 22C36 19.7909 37.7909 18 40 18H56C58.2091 18 60 19.7909 60 22V34L53.4142 27.4142C52.6332 26.6332 51.3668 26.6332 50.5858 27.4142L37.1716 40.8284C36.4477 40.1046 36 39.1046 36 38V22ZM42.5 27C43.8807 27 45 25.8807 45 24.5C45 23.1193 43.8807 22 42.5 22C41.1193 22 40 23.1193 40 24.5C40 25.8807 41.1193 27 42.5 27Z" fill="#8B3DFF"/>
<circle opacity="0.6" cx="42.5" cy="24.5" r="2.5" fill="#8B3DFF"/>
</svg>
