<svg width="96" height="96" viewBox="0 0 96 96" fill="none" xmlns="http://www.w3.org/2000/svg">
<path opacity="0.6" d="M38.0003 47.0002H54.0003C56.2094 47.0002 58.0003 45.2093 58.0003 43.0002V39.0002L51.4145 32.4144C50.6335 31.6334 49.3671 31.6334 48.5861 32.4144L35.1719 45.8286C35.8957 46.5525 36.8957 47.0002 38.0003 47.0002Z" fill="#8B3DFF"/>
<path fill-rule="evenodd" clip-rule="evenodd" d="M34 27C34 24.7909 35.7909 23 38 23H54C56.2091 23 58 24.7909 58 27V39L51.4142 32.4142C50.6332 31.6332 49.3668 31.6332 48.5858 32.4142L35.1716 45.8284C34.4477 45.1046 34 44.1046 34 43V27ZM40.5 32C41.8807 32 43 30.8807 43 29.5C43 28.1193 41.8807 27 40.5 27C39.1193 27 38 28.1193 38 29.5C38 30.8807 39.1193 32 40.5 32Z" fill="#8B3DFF"/>
<circle opacity="0.6" cx="40.5" cy="29.5" r="2.5" fill="#8B3DFF"/>
<path d="M41.2279 72.8046H39.1149L37.8861 69.6118H31.1933L29.9646 72.8046H27.8516L33.2412 59.1956H35.8383L41.2279 72.8046ZM34.5071 60.9921L31.8449 67.9176H37.2438L34.5816 60.9921H34.5071Z" fill="#8B3DFF"/>
<path d="M42.9502 72.8046V59.1956H49.2521C50.0898 59.1956 50.7973 59.329 51.3744 59.5958C51.9577 59.8565 52.3952 60.2288 52.6869 60.7128C52.9786 61.1907 53.1244 61.7585 53.1244 62.4163C53.1244 63.7505 52.4666 64.6845 51.151 65.2182V65.3019C52.1067 65.544 52.8172 65.969 53.2826 66.5772C53.7543 67.1854 53.9901 67.9456 53.9901 68.8578C53.9901 70.1424 53.6022 71.1229 52.8265 71.7993C52.0508 72.4695 50.8593 72.8046 49.2521 72.8046H42.9502ZM48.8611 64.8272C49.5934 64.8272 50.1581 64.6534 50.5552 64.3059C50.9586 63.9522 51.1603 63.4526 51.1603 62.8073C51.1603 62.1246 50.971 61.6189 50.5925 61.29C50.2139 60.9611 49.6368 60.7966 48.8611 60.7966H44.9236V64.8272H48.8611ZM49.3731 71.1291C50.2357 71.1291 50.881 70.9305 51.3092 70.5333C51.7374 70.13 51.9515 69.5435 51.9515 68.774C51.9515 68.0045 51.7374 67.4212 51.3092 67.024C50.881 66.6269 50.2357 66.4283 49.3731 66.4283H44.9236V71.1291H49.3731Z" fill="#8B3DFF"/>
<path d="M62.2842 73C61.0306 73 59.8919 72.7114 58.8679 72.1343C57.8502 71.551 57.0466 70.7287 56.457 69.6676C55.8737 68.6064 55.582 67.3839 55.582 66C55.582 64.6161 55.8737 63.3936 56.457 62.3324C57.0466 61.2713 57.8502 60.4521 58.8679 59.875C59.8919 59.2917 61.0306 59 62.2842 59C63.7673 59 64.965 59.2886 65.8772 59.8657C66.7957 60.4366 67.4442 61.2061 67.8227 62.1742L66.2589 63.3191C65.9362 62.4938 65.4459 61.8732 64.7881 61.4574C64.1366 61.0355 63.3019 60.8245 62.2842 60.8245C61.3905 60.8245 60.59 61.0324 59.8826 61.4481C59.1813 61.8639 58.6321 62.4628 58.235 63.2447C57.8378 64.0266 57.6392 64.945 57.6392 66C57.6392 67.0674 57.8378 67.992 58.235 68.7739C58.6383 69.5496 59.1937 70.1454 59.9012 70.5612C60.6086 70.9707 61.4123 71.1755 62.3121 71.1755C63.485 71.1755 64.4127 70.887 65.0953 70.3098C65.7842 69.7265 66.2527 68.8639 66.5009 67.7221L68.1485 68.7181C67.8196 70.0089 67.1742 71.0452 66.2123 71.8271C65.2505 72.609 63.9411 73 62.2842 73Z" fill="#8B3DFF"/>
<path opacity="0.5" d="M38 47C38 49.2091 39.7909 51 42 51H58C60.2091 51 62 49.2091 62 47V31C62 28.7909 60.2091 27 58 27V28.5C59.3807 28.5 60.5 29.6193 60.5 31V47C60.5 48.3807 59.3807 49.5 58 49.5H42C40.6193 49.5 39.5 48.3807 39.5 47H38Z" fill="#8B3DFF"/>
<path fill-rule="evenodd" clip-rule="evenodd" d="M76.5 48C76.5 48.4142 76.1642 48.75 75.75 48.75L72.75 48.75C72.3358 48.75 72 48.4142 72 48C72 47.5858 72.3358 47.25 72.75 47.25L75.75 47.25C76.1642 47.25 76.5 47.5858 76.5 48ZM74.2803 40.9697C74.5732 41.2626 74.5732 41.7374 74.2803 42.0303L72.2803 44.0303C71.9874 44.3232 71.5126 44.3232 71.2197 44.0303C70.9268 43.7374 70.9268 43.2626 71.2197 42.9697L73.2197 40.9697C73.5126 40.6768 73.9874 40.6768 74.2803 40.9697ZM74.2803 55.0303C73.9874 55.3232 73.5126 55.3232 73.2197 55.0303L71.2197 53.0303C70.9268 52.7374 70.9268 52.2626 71.2197 51.9697C71.5126 51.6768 71.9874 51.6768 72.2803 51.9697L74.2803 53.9697C74.5732 54.2626 74.5732 54.7374 74.2803 55.0303Z" fill="#8B3DFF"/>
<path fill-rule="evenodd" clip-rule="evenodd" d="M19 48C19 47.5858 19.3358 47.25 19.75 47.25L22.75 47.25C23.1642 47.25 23.5 47.5858 23.5 48C23.5 48.4142 23.1642 48.75 22.75 48.75L19.75 48.75C19.3358 48.75 19 48.4142 19 48ZM21.2197 55.0303C20.9268 54.7374 20.9268 54.2626 21.2197 53.9697L23.2197 51.9697C23.5126 51.6768 23.9874 51.6768 24.2803 51.9697C24.5732 52.2626 24.5732 52.7374 24.2803 53.0303L22.2803 55.0303C21.9874 55.3232 21.5126 55.3232 21.2197 55.0303ZM21.2197 40.9697C21.5126 40.6768 21.9874 40.6768 22.2803 40.9697L24.2803 42.9697C24.5732 43.2626 24.5732 43.7374 24.2803 44.0303C23.9874 44.3232 23.5126 44.3232 23.2197 44.0303L21.2197 42.0303C20.9268 41.7374 20.9268 41.2626 21.2197 40.9697Z" fill="#8B3DFF"/>
</svg>
