<svg width="96" height="96" viewBox="0 0 96 96" fill="none" xmlns="http://www.w3.org/2000/svg">
<path fill-rule="evenodd" clip-rule="evenodd" d="M56.75 75.0002C56.75 75.1992 56.671 75.3899 56.5303 75.5306L53.5303 78.5306C53.2374 78.8235 52.7626 78.8235 52.4697 78.5306C52.1768 78.2377 52.1768 77.7628 52.4697 77.4699L54.1893 75.7502L40 75.7502C39.5858 75.7502 39.25 75.4145 39.25 75.0002C39.25 74.586 39.5858 74.2502 40 74.2502L54.1893 74.2502L52.4697 72.5306C52.1768 72.2377 52.1768 71.7628 52.4697 71.4699C52.7626 71.177 53.2374 71.177 53.5303 71.4699L56.5303 74.4699C56.671 74.6106 56.75 74.8013 56.75 75.0002Z" fill="#8B3DFF"/>
<path opacity="0.3" d="M36 17.25C33.7909 17.25 32 19.0409 32 21.25L32 37.25C32 39.4591 33.7909 41.25 36 41.25H44C41.7909 41.25 40 39.4591 40 37.25V21.25C40 19.0409 41.7909 17.25 44 17.25L36 17.25Z" fill="#8B3DFF"/>
<path opacity="0.6" d="M44.0003 41.2502H60.0003C62.2094 41.2502 64.0003 39.4593 64.0003 37.2502V33.2502L57.4145 26.6644C56.6335 25.8834 55.3671 25.8834 54.5861 26.6644L41.1719 40.0786C41.8957 40.8025 42.8957 41.2502 44.0003 41.2502Z" fill="#8B3DFF"/>
<path fill-rule="evenodd" clip-rule="evenodd" d="M40 21.25C40 19.0409 41.7909 17.25 44 17.25H60C62.2091 17.25 64 19.0409 64 21.25V33.25L57.4142 26.6642C56.6332 25.8832 55.3668 25.8832 54.5858 26.6642L41.1716 40.0784C40.4477 39.3546 40 38.3546 40 37.25V21.25ZM46.5 26.25C47.8807 26.25 49 25.1307 49 23.75C49 22.3693 47.8807 21.25 46.5 21.25C45.1193 21.25 44 22.3693 44 23.75C44 25.1307 45.1193 26.25 46.5 26.25Z" fill="#8B3DFF"/>
<circle opacity="0.6" cx="46.5" cy="23.75" r="2.5" fill="#8B3DFF"/>
<path d="M41.2279 63.0546H39.1149L37.8861 59.8618H31.1933L29.9646 63.0546H27.8516L33.2412 49.4456H35.8383L41.2279 63.0546ZM34.5071 51.2421L31.8449 58.1676H37.2438L34.5816 51.2421H34.5071Z" fill="#8B3DFF"/>
<path d="M42.9502 63.0546V49.4456H49.2521C50.0898 49.4456 50.7973 49.579 51.3744 49.8458C51.9577 50.1065 52.3952 50.4788 52.6869 50.9628C52.9786 51.4407 53.1244 52.0085 53.1244 52.6663C53.1244 54.0005 52.4666 54.9345 51.151 55.4682V55.5519C52.1067 55.794 52.8172 56.219 53.2826 56.8272C53.7543 57.4354 53.9901 58.1956 53.9901 59.1078C53.9901 60.3924 53.6022 61.3729 52.8265 62.0493C52.0508 62.7195 50.8593 63.0546 49.2521 63.0546H42.9502ZM48.8611 55.0772C49.5934 55.0772 50.1581 54.9034 50.5552 54.5559C50.9586 54.2022 51.1603 53.7026 51.1603 53.0573C51.1603 52.3746 50.971 51.8689 50.5925 51.54C50.2139 51.2111 49.6368 51.0466 48.8611 51.0466H44.9236V55.0772H48.8611ZM49.3731 61.3791C50.2357 61.3791 50.881 61.1805 51.3092 60.7833C51.7374 60.38 51.9515 59.7935 51.9515 59.024C51.9515 58.2545 51.7374 57.6712 51.3092 57.274C50.881 56.8769 50.2357 56.6783 49.3731 56.6783H44.9236V61.3791H49.3731Z" fill="#8B3DFF"/>
<path d="M62.2842 63.25C61.0306 63.25 59.8919 62.9614 58.8679 62.3843C57.8502 61.801 57.0466 60.9787 56.457 59.9176C55.8737 58.8564 55.582 57.6339 55.582 56.25C55.582 54.8661 55.8737 53.6436 56.457 52.5824C57.0466 51.5213 57.8502 50.7021 58.8679 50.125C59.8919 49.5417 61.0306 49.25 62.2842 49.25C63.7673 49.25 64.965 49.5386 65.8772 50.1157C66.7957 50.6866 67.4442 51.4561 67.8227 52.4242L66.2589 53.5691C65.9362 52.7438 65.4459 52.1232 64.7881 51.7074C64.1366 51.2855 63.3019 51.0745 62.2842 51.0745C61.3905 51.0745 60.59 51.2824 59.8826 51.6981C59.1813 52.1139 58.6321 52.7128 58.235 53.4947C57.8378 54.2766 57.6392 55.195 57.6392 56.25C57.6392 57.3174 57.8378 58.242 58.235 59.0239C58.6383 59.7996 59.1937 60.3954 59.9012 60.8112C60.6086 61.2207 61.4123 61.4255 62.3121 61.4255C63.485 61.4255 64.4127 61.137 65.0953 60.5598C65.7842 59.9765 66.2527 59.1139 66.5009 57.9721L68.1485 58.9681C67.8196 60.2589 67.1742 61.2952 66.2123 62.0771C65.2505 62.859 63.9411 63.25 62.2842 63.25Z" fill="#8B3DFF"/>
</svg>
