<svg width="96" height="96" viewBox="0 0 96 96" fill="none" xmlns="http://www.w3.org/2000/svg">
<path opacity="0.5" fill-rule="evenodd" clip-rule="evenodd" d="M27.1041 72.702C26.8112 72.9949 26.3363 72.9949 26.0434 72.702C23.5414 70.1999 23.5414 66.1433 26.0434 63.6413C26.3363 63.3484 26.8112 63.3484 27.1041 63.6413C27.397 63.9342 27.397 64.4091 27.1041 64.702C25.1878 66.6182 25.1878 69.7251 27.1041 71.6413C27.397 71.9342 27.397 72.4091 27.1041 72.702Z" fill="#8B3DFF"/>
<path opacity="0.3" fill-rule="evenodd" clip-rule="evenodd" d="M23.4468 74.702C23.1539 74.9949 22.6791 74.9949 22.3862 74.702C18.7796 71.0954 18.7796 65.2479 22.3862 61.6413C22.6791 61.3484 23.1539 61.3484 23.4468 61.6413C23.7397 61.9342 23.7397 62.4091 23.4468 62.702C20.426 65.7228 20.426 70.6205 23.4468 73.6413C23.7397 73.9342 23.7397 74.4091 23.4468 74.702Z" fill="#8B3DFF"/>
<path d="M39.187 72.1716H37.9449L37.2226 70.2947H33.2882L32.5659 72.1716H31.3238L34.4921 64.1716H36.0187L39.187 72.1716ZM35.2362 65.2277L33.6713 69.2989H36.845L35.28 65.2277H35.2362Z" fill="#8B3DFF"/>
<path d="M41.1871 73.6716V62.6716H46.2808C46.9579 62.6716 47.5298 62.7795 47.9962 62.9952C48.4677 63.2058 48.8214 63.5068 49.0571 63.898C49.2929 64.2843 49.4107 64.7432 49.4107 65.2749C49.4107 66.3533 48.879 67.1082 47.8157 67.5396V67.6073C48.5881 67.803 49.1624 68.1466 49.5386 68.6381C49.9199 69.1297 50.1105 69.7441 50.1105 70.4815C50.1105 71.5198 49.797 72.3123 49.17 72.859C48.543 73.4008 47.5799 73.6716 46.2808 73.6716H41.1871ZM45.9648 67.2236C46.5567 67.2236 47.0131 67.0832 47.3341 66.8023C47.6602 66.5164 47.8232 66.1126 47.8232 65.5909C47.8232 65.0392 47.6702 64.6304 47.3642 64.3645C47.0583 64.0987 46.5918 63.9657 45.9648 63.9657H42.7821V67.2236H45.9648ZM46.3786 72.3173C47.0758 72.3173 47.5975 72.1568 47.9436 71.8358C48.2897 71.5098 48.4627 71.0357 48.4627 70.4138C48.4627 69.7918 48.2897 69.3203 47.9436 68.9993C47.5975 68.6782 47.0758 68.5177 46.3786 68.5177H42.7821V72.3173H46.3786Z" fill="#8B3DFF"/>
<path d="M58.812 75.1716C57.5585 75.1716 56.4198 74.8831 55.3958 74.3059C54.3781 73.7226 53.5745 72.9004 52.9849 71.8392C52.4016 70.778 52.1099 69.5555 52.1099 68.1716C52.1099 66.7878 52.4016 65.5652 52.9849 64.5041C53.5745 63.4429 54.3781 62.6238 55.3958 62.0466C56.4198 61.4633 57.5585 61.1716 58.812 61.1716C60.2952 61.1716 61.4929 61.4602 62.4051 62.0373C63.3236 62.6082 63.9721 63.3777 64.3506 64.3458L62.7868 65.4908C62.4641 64.6654 61.9738 64.0449 61.316 63.6291C60.6644 63.2071 59.8298 62.9961 58.812 62.9961C57.9184 62.9961 57.1179 63.204 56.4105 63.6198C55.7092 64.0355 55.16 64.6344 54.7628 65.4163C54.3657 66.1982 54.1671 67.1167 54.1671 68.1716C54.1671 69.239 54.3657 70.1637 54.7628 70.9456C55.1662 71.7213 55.7216 72.317 56.4291 72.7328C57.1365 73.1424 57.9402 73.3472 58.84 73.3472C60.0128 73.3472 60.9406 73.0586 61.6232 72.4815C62.3121 71.8981 62.7806 71.0355 63.0288 69.8937L64.6764 70.8897C64.3475 72.1805 63.7021 73.2168 62.7402 73.9988C61.7784 74.7807 60.469 75.1716 58.812 75.1716Z" fill="#8B3DFF"/>
<path opacity="0.5" fill-rule="evenodd" clip-rule="evenodd" d="M68.896 63.6413C69.1889 63.3484 69.6638 63.3484 69.9567 63.6413C72.4587 66.1433 72.4587 70.1999 69.9567 72.702C69.6638 72.9949 69.1889 72.9949 68.896 72.702C68.6031 72.4091 68.6031 71.9342 68.896 71.6413C70.8122 69.7251 70.8122 66.6182 68.896 64.702C68.6031 64.4091 68.6031 63.9342 68.896 63.6413Z" fill="#8B3DFF"/>
<path opacity="0.3" fill-rule="evenodd" clip-rule="evenodd" d="M72.5532 61.6413C72.8461 61.3484 73.321 61.3484 73.6139 61.6413C77.2205 65.2479 77.2205 71.0954 73.6139 74.702C73.321 74.9949 72.8461 74.9949 72.5532 74.702C72.2603 74.4091 72.2603 73.9342 72.5532 73.6413C75.574 70.6205 75.574 65.7228 72.5532 62.702C72.2603 62.4091 72.2603 61.9342 72.5532 61.6413Z" fill="#8B3DFF"/>
<path opacity="0.6" d="M50.1708 53.1716H66.1708C68.3799 53.1716 70.1708 51.3807 70.1708 49.1716V45.1716L63.585 38.5858C62.8039 37.8047 61.5376 37.8047 60.7566 38.5858L47.3423 52C48.0662 52.7239 49.0662 53.1716 50.1708 53.1716Z" fill="#8B3DFF"/>
<path fill-rule="evenodd" clip-rule="evenodd" d="M46.1705 33.1714C46.1705 30.9622 47.9613 29.1714 50.1705 29.1714H66.1705C68.3796 29.1714 70.1705 30.9622 70.1705 33.1714V45.1714L63.5847 38.5856C62.8036 37.8046 61.5373 37.8046 60.7563 38.5856L47.342 51.9998C46.6182 51.276 46.1705 50.276 46.1705 49.1714V33.1714ZM52.6705 38.1714C54.0512 38.1714 55.1705 37.0521 55.1705 35.6714C55.1705 34.2907 54.0512 33.1714 52.6705 33.1714C51.2898 33.1714 50.1705 34.2907 50.1705 35.6714C50.1705 37.0521 51.2898 38.1714 52.6705 38.1714Z" fill="#8B3DFF"/>
<circle opacity="0.6" cx="52.6705" cy="35.6714" r="2.5" fill="#8B3DFF"/>
<path opacity="0.7" d="M42.0346 28.3482C39.9008 28.92 38.6344 31.1133 39.2062 33.2472L43.3473 48.702C43.8111 50.4329 45.3419 51.593 47.0424 51.6642C46.497 50.9806 46.1709 50.1142 46.1709 49.1716V33.1716C46.1709 30.9624 47.9618 29.1716 50.1709 29.1716H62.9608L62.3884 27.0355C61.8167 24.9017 59.6233 23.6353 57.4894 24.2071L42.0346 28.3482Z" fill="#8B3DFF"/>
<path opacity="0.5" d="M52.9545 23.6354C51.85 21.7223 49.4036 21.0668 47.4904 22.1713L33.634 30.1713C31.7209 31.2759 31.0654 33.7223 32.1699 35.6354L40.1699 49.4918C41.2015 51.2785 43.4033 51.9684 45.2482 51.1521C44.3438 50.6427 43.6371 49.7838 43.3472 48.702L39.2061 33.2471C38.6343 31.1133 39.9006 28.9199 42.0345 28.3482L53.8479 25.1828L52.9545 23.6354Z" fill="#8B3DFF"/>
<path opacity="0.3" d="M43.9698 21.9997C42.4077 20.4376 39.8751 20.4376 38.313 21.9997L26.9993 33.3134C25.4372 34.8755 25.4372 37.4082 26.9993 38.9703L38.313 50.284C39.4011 51.372 40.96 51.7022 42.3339 51.2745C41.4527 50.972 40.6726 50.362 40.1702 49.4917L32.1702 35.6353C31.0656 33.7221 31.7211 31.2758 33.6343 30.1712L45.3673 23.3972L43.9698 21.9997Z" fill="#8B3DFF"/>
</svg>
