<svg width="96" height="96" viewBox="0 0 96 96" fill="none" xmlns="http://www.w3.org/2000/svg">
<path fill-rule="evenodd" clip-rule="evenodd" d="M71.75 28.25C71.9489 28.25 72.1397 28.329 72.2803 28.4697L75.2803 31.4697C75.5732 31.7626 75.5732 32.2374 75.2803 32.5303C74.9874 32.8232 74.5126 32.8232 74.2197 32.5303L72.5 30.8107V45C72.5 45.4142 72.1642 45.75 71.75 45.75C71.3358 45.75 71 45.4142 71 45L71 30.8107L69.2803 32.5303C68.9874 32.8232 68.5126 32.8232 68.2197 32.5303C67.9268 32.2374 67.9268 31.7626 68.2197 31.4697L71.2197 28.4697C71.3603 28.329 71.5511 28.25 71.75 28.25Z" fill="#8B3DFF"/>
<path opacity="0.3" d="M36 49C36 51.2091 37.7909 53 40 53L56 53C58.2091 53 60 51.2091 60 49L60 41C60 43.2091 58.2091 45 56 45L40 45C37.7909 45 36 43.2091 36 41L36 49Z" fill="#8B3DFF"/>
<path opacity="0.6" d="M40.0003 45.0002H56.0003C58.2094 45.0002 60.0003 43.2093 60.0003 41.0002V37.0002L53.4145 30.4144C52.6335 29.6334 51.3671 29.6334 50.5861 30.4144L37.1719 43.8286C37.8957 44.5525 38.8957 45.0002 40.0003 45.0002Z" fill="#8B3DFF"/>
<path fill-rule="evenodd" clip-rule="evenodd" d="M36 25C36 22.7909 37.7909 21 40 21H56C58.2091 21 60 22.7909 60 25V37L53.4142 30.4142C52.6332 29.6332 51.3668 29.6332 50.5858 30.4142L37.1716 43.8284C36.4477 43.1046 36 42.1046 36 41V25ZM42.5 30C43.8807 30 45 28.8807 45 27.5C45 26.1193 43.8807 25 42.5 25C41.1193 25 40 26.1193 40 27.5C40 28.8807 41.1193 30 42.5 30Z" fill="#8B3DFF"/>
<circle opacity="0.6" cx="42.5" cy="27.5" r="2.5" fill="#8B3DFF"/>
<path d="M41.2279 75.0546H39.1149L37.8861 71.8618H31.1933L29.9646 75.0546H27.8516L33.2412 61.4456H35.8383L41.2279 75.0546ZM34.5071 63.2421L31.8449 70.1676H37.2438L34.5816 63.2421H34.5071Z" fill="#8B3DFF"/>
<path d="M42.9502 75.0546V61.4456H49.2521C50.0898 61.4456 50.7973 61.579 51.3744 61.8458C51.9577 62.1065 52.3952 62.4788 52.6869 62.9628C52.9786 63.4407 53.1244 64.0085 53.1244 64.6663C53.1244 66.0005 52.4666 66.9345 51.151 67.4682V67.5519C52.1067 67.794 52.8172 68.219 53.2826 68.8272C53.7543 69.4354 53.9901 70.1956 53.9901 71.1078C53.9901 72.3924 53.6022 73.3729 52.8265 74.0493C52.0508 74.7195 50.8593 75.0546 49.2521 75.0546H42.9502ZM48.8611 67.0772C49.5934 67.0772 50.1581 66.9034 50.5552 66.5559C50.9586 66.2022 51.1603 65.7026 51.1603 65.0573C51.1603 64.3746 50.971 63.8689 50.5925 63.54C50.2139 63.2111 49.6368 63.0466 48.8611 63.0466H44.9236V67.0772H48.8611ZM49.3731 73.3791C50.2357 73.3791 50.881 73.1805 51.3092 72.7833C51.7374 72.38 51.9515 71.7935 51.9515 71.024C51.9515 70.2545 51.7374 69.6712 51.3092 69.274C50.881 68.8769 50.2357 68.6783 49.3731 68.6783H44.9236V73.3791H49.3731Z" fill="#8B3DFF"/>
<path d="M62.2842 75.25C61.0306 75.25 59.8919 74.9614 58.8679 74.3843C57.8502 73.801 57.0466 72.9787 56.457 71.9176C55.8737 70.8564 55.582 69.6339 55.582 68.25C55.582 66.8661 55.8737 65.6436 56.457 64.5824C57.0466 63.5213 57.8502 62.7021 58.8679 62.125C59.8919 61.5417 61.0306 61.25 62.2842 61.25C63.7673 61.25 64.965 61.5386 65.8772 62.1157C66.7957 62.6866 67.4442 63.4561 67.8227 64.4242L66.2589 65.5691C65.9362 64.7438 65.4459 64.1232 64.7881 63.7074C64.1366 63.2855 63.3019 63.0745 62.2842 63.0745C61.3905 63.0745 60.59 63.2824 59.8826 63.6981C59.1813 64.1139 58.6321 64.7128 58.235 65.4947C57.8378 66.2766 57.6392 67.195 57.6392 68.25C57.6392 69.3174 57.8378 70.242 58.235 71.0239C58.6383 71.7996 59.1937 72.3954 59.9012 72.8112C60.6086 73.2207 61.4123 73.4255 62.3121 73.4255C63.485 73.4255 64.4127 73.137 65.0953 72.5598C65.7842 71.9765 66.2527 71.1139 66.5009 69.9721L68.1485 70.9681C67.8196 72.2589 67.1742 73.2952 66.2123 74.0771C65.2505 74.859 63.9411 75.25 62.2842 75.25Z" fill="#8B3DFF"/>
</svg>
