<svg width="96" height="96" viewBox="0 0 96 96" fill="none" xmlns="http://www.w3.org/2000/svg">
<path opacity="0.5" fill-rule="evenodd" clip-rule="evenodd" d="M58.3613 74.4357C57.6876 74.0496 57.0901 73.5781 56.5703 73.0263C56.1678 72.599 55.8119 72.1235 55.5033 71.6022C55.3434 72.1716 55.0951 72.7012 54.7467 73.1755C54.5482 73.4458 54.3172 73.6982 54.0516 73.9298L54.0465 73.9343C52.8804 74.9418 51.2643 75.3046 49.4913 75.3046H38.3241L37.0954 72.1118H32.4626L31.2338 75.3046H25.8834L32.4612 58.6956H37.0968L41.6895 70.2922V58.6956H49.4913C50.477 58.6956 51.4099 58.851 52.2343 59.2302C53.0544 59.5984 53.7404 60.1596 54.2087 60.9349C54.2834 61.0576 54.3512 61.1829 54.4123 61.3105C54.5558 61.6099 54.6626 61.922 54.7361 62.2435C54.7365 62.2449 54.7368 62.2464 54.7371 62.2478C54.7378 62.2507 54.7385 62.2537 54.7391 62.2566C54.7391 62.2566 54.7391 62.2566 54.7391 62.2566C54.824 62.6323 54.8637 63.0207 54.8637 63.4163C54.8637 63.5414 54.8594 63.6657 54.8507 63.7891C54.8957 63.6636 54.9437 63.5393 54.9947 63.4163C55.1087 63.1411 55.2376 62.8722 55.3818 62.6099L55.385 62.604C55.5981 62.2205 55.8357 61.8608 56.0976 61.5257C56.7183 60.7317 57.4756 60.0761 58.366 59.5709C59.6303 58.851 61.0272 58.5 62.5234 58.5C64.1858 58.5 65.6883 58.8215 66.9135 59.5949C68.0924 60.3291 68.9583 61.3474 69.459 62.6279L69.8793 63.7028L66.0158 66.5314L70.1161 69.0101L69.8413 70.0885C69.4392 71.6667 68.6287 72.9905 67.3978 73.9911C66.0904 75.0539 64.4087 75.5 62.5234 75.5C61.0296 75.5 59.6344 75.1533 58.3707 74.441L58.3613 74.4357ZM68.7179 66.4121L70.8921 67.7264C71.4577 68.0683 71.7328 68.7401 71.5697 69.3805L71.2949 70.4588C70.8196 72.3243 69.844 73.9356 68.344 75.155C66.6905 76.4991 64.6362 77 62.5234 77C60.7893 77 59.1377 76.5952 57.6342 75.7478L57.6153 75.7372C56.9254 75.3417 56.3025 74.8705 55.7485 74.3298C55.5366 74.5871 55.3 74.8314 55.0375 75.0603C55.0375 75.0604 55.0375 75.0603 55.0375 75.0603L55.0271 75.0694C53.4703 76.4145 51.4291 76.8046 49.4913 76.8046H38.3241C37.7036 76.8046 37.1471 76.4225 36.9242 75.8433L36.0654 73.6118H33.4925L32.6338 75.8433C32.4109 76.4225 31.8544 76.8046 31.2338 76.8046H25.8834C25.3866 76.8046 24.922 76.5586 24.6428 76.1477C24.3635 75.7367 24.3059 75.2142 24.4888 74.7523L31.0665 58.1432C31.2931 57.5712 31.8459 57.1956 32.4612 57.1956H37.0968C37.7121 57.1956 38.2649 57.5712 38.4914 58.1432L40.1895 62.4308V58.6956C40.1895 57.8671 40.861 57.1956 41.6895 57.1956H49.4913C50.6256 57.1956 51.7836 57.3732 52.8549 57.8646C53.8672 58.3203 54.7668 59.0274 55.4076 60.0231C56.0447 59.3329 56.7848 58.7435 57.6248 58.2669C59.1295 57.4102 60.7846 57 62.5234 57C64.3651 57 66.1721 57.3545 67.7101 58.3239C69.1497 59.2215 70.233 60.4886 70.856 62.0817L71.2763 63.1565C71.524 63.7901 71.3143 64.5111 70.7654 64.913L68.7179 66.4121Z" fill="#8B3DFF"/>
<path opacity="0.3" fill-rule="evenodd" clip-rule="evenodd" d="M74.4768 70.1212C74.8331 68.7229 74.4927 67.2747 73.6269 66.1945C74.4217 64.9986 74.6163 63.4605 74.0703 62.064L73.65 60.9892C72.7826 58.7708 71.2643 57.0062 69.3033 55.7819C67.1397 54.4203 64.7236 54 62.5234 54C60.2115 54 58.1906 54.6523 56.1405 55.6597C55.9567 55.764 55.7763 55.8727 55.5993 55.9856C55.1175 55.6491 54.6122 55.3664 54.0961 55.1334C52.5317 54.4179 50.9235 54.1956 49.4913 54.1956H41.6895C40.8505 54.1956 40.0648 54.4258 39.3928 54.8253C38.7126 54.4217 37.9236 54.1956 37.0968 54.1956H32.4612C30.6155 54.1956 28.9569 55.3226 28.2773 57.0386L21.6996 73.6477C21.1508 75.0334 21.3237 76.601 22.1615 77.8338C22.9992 79.0666 24.393 79.8046 25.8834 79.8046H31.2339C32.6423 79.8046 33.9407 79.1485 34.779 78.0766C35.6173 79.1485 36.9157 79.8046 38.3242 79.8046H49.4913C51.4016 79.8046 53.7561 79.4892 55.8506 78.1789C55.9407 78.2336 56.0317 78.2873 56.1235 78.34L56.1594 78.3602L56.1611 78.3612C58.1444 79.479 60.3091 80 62.5234 80C65.0893 80 67.8898 79.3904 70.2363 77.4829C72.2751 75.8256 73.5804 73.6391 74.202 71.1996L74.4768 70.1212ZM55.8246 76.3578C56.1572 76.6028 56.5056 76.83 56.8694 77.0385L56.8976 77.0544C58.641 78.0371 60.5492 78.5 62.5234 78.5C64.8631 78.5 67.2903 77.9446 69.2901 76.319C71.0595 74.8806 72.2 72.9818 72.7485 70.8292L73.0232 69.7509C73.2428 68.8893 73.0656 67.9993 72.5818 67.3009C72.4577 67.1218 72.3135 66.9553 72.1507 66.8052C72.0045 66.6703 71.8433 66.5486 71.6681 66.4428L71.4201 66.2928L71.6515 66.1233C71.8229 65.9979 71.9777 65.8569 72.1151 65.7034C72.2585 65.5432 72.383 65.3694 72.4874 65.1856C72.9239 64.4172 73.0107 63.4732 72.6733 62.6102L72.253 61.5354C71.5078 59.6297 70.207 58.1138 68.5066 57.0529C66.6559 55.8874 64.5444 55.5 62.5234 55.5C60.5417 55.5 58.6282 55.9696 56.8827 56.9633C56.409 57.2322 55.9618 57.5326 55.542 57.8628C54.9207 57.2835 54.2162 56.833 53.4755 56.499C52.1576 55.8956 50.7745 55.6956 49.4913 55.6956H41.6895C41.1403 55.6956 40.6257 55.8431 40.1829 56.1007C39.8827 56.2754 39.6156 56.5007 39.3932 56.7649C39.1705 56.5001 38.9044 56.2768 38.6078 56.1038C38.1587 55.8419 37.6399 55.6956 37.0968 55.6956H32.4612C31.2307 55.6956 30.125 56.4469 29.6719 57.5909L23.0942 74.2C22.7283 75.1238 22.8436 76.1689 23.4021 76.9907C23.9606 77.8126 24.8898 78.3046 25.8834 78.3046H31.2339C32.4221 78.3046 33.4929 77.604 33.9732 76.5278C33.9945 76.48 34.0147 76.4314 34.0337 76.3821L34.5225 75.1118H35.0355L35.5243 76.3821C35.5433 76.4314 35.5635 76.48 35.5848 76.5278C36.0651 77.6041 37.1359 78.3046 38.3242 78.3046H49.4913C51.5277 78.3046 53.9068 77.913 55.8246 76.3578Z" fill="#8B3DFF"/>
<path d="M41.4658 73.8046H39.3528L38.1241 70.6118H31.4312L30.2025 73.8046H28.0895L33.4791 60.1956H36.0762L41.4658 73.8046ZM34.7451 61.9921L32.0828 68.9176H37.4818L34.8195 61.9921H34.7451Z" fill="#8B3DFF"/>
<path d="M43.1881 73.8046V60.1956H49.49C50.3277 60.1956 51.0352 60.329 51.6123 60.5958C52.1956 60.8565 52.6331 61.2288 52.9248 61.7128C53.2165 62.1907 53.3623 62.7585 53.3623 63.4163C53.3623 64.7505 52.7045 65.6845 51.3889 66.2182V66.3019C52.3446 66.544 53.0551 66.969 53.5206 67.5772C53.9922 68.1854 54.228 68.9456 54.228 69.8578C54.228 71.1424 53.8401 72.1229 53.0644 72.7993C52.2887 73.4695 51.0972 73.8046 49.49 73.8046H43.1881ZM49.099 65.8272C49.8313 65.8272 50.396 65.6534 50.7932 65.3059C51.1965 64.9522 51.3982 64.4526 51.3982 63.8073C51.3982 63.1246 51.2089 62.6189 50.8304 62.29C50.4519 61.9611 49.8747 61.7966 49.099 61.7966H45.1615V65.8272H49.099ZM49.611 72.1291C50.4736 72.1291 51.119 71.9305 51.5472 71.5333C51.9753 71.13 52.1894 70.5435 52.1894 69.774C52.1894 69.0045 51.9753 68.4212 51.5472 68.024C51.119 67.6269 50.4736 67.4283 49.611 67.4283H45.1615V72.1291H49.611Z" fill="#8B3DFF"/>
<path d="M62.5221 74C61.2685 74 60.1298 73.7114 59.1059 73.1343C58.0881 72.551 57.2845 71.7287 56.6949 70.6676C56.1116 69.6064 55.8199 68.3839 55.8199 67C55.8199 65.6161 56.1116 64.3936 56.6949 63.3324C57.2845 62.2713 58.0881 61.4521 59.1059 60.875C60.1298 60.2917 61.2685 60 62.5221 60C64.0052 60 65.2029 60.2886 66.1152 60.8657C67.0336 61.4366 67.6821 62.2061 68.0606 63.1742L66.4968 64.3191C66.1741 63.4938 65.6839 62.8732 65.0261 62.4574C64.3745 62.0355 63.5398 61.8245 62.5221 61.8245C61.6285 61.8245 60.8279 62.0324 60.1205 62.4481C59.4192 62.8639 58.87 63.4628 58.4729 64.2447C58.0757 65.0266 57.8771 65.945 57.8771 67C57.8771 68.0674 58.0757 68.992 58.4729 69.7739C58.8762 70.5496 59.4316 71.1454 60.1391 71.5612C60.8465 71.9707 61.6502 72.1755 62.55 72.1755C63.7229 72.1755 64.6506 71.887 65.3332 71.3098C66.0221 70.7265 66.4906 69.8639 66.7388 68.7221L68.3864 69.7181C68.0575 71.0089 67.4121 72.0452 66.4503 72.8271C65.4884 73.609 64.179 74 62.5221 74Z" fill="#8B3DFF"/>
<path opacity="0.5" fill-rule="evenodd" clip-rule="evenodd" d="M56.6617 20.5H40.6617C37.6242 20.5 35.1617 22.9624 35.1617 26V42C35.1617 45.0376 37.6242 47.5 40.6617 47.5H56.6617C59.6993 47.5 62.1617 45.0376 62.1617 42V26C62.1617 22.9624 59.6993 20.5 56.6617 20.5ZM40.6617 19C36.7958 19 33.6617 22.134 33.6617 26V42C33.6617 45.866 36.7958 49 40.6617 49H56.6617C60.5277 49 63.6617 45.866 63.6617 42V26C63.6617 22.134 60.5277 19 56.6617 19H40.6617Z" fill="#8B3DFF"/>
<path opacity="0.3" fill-rule="evenodd" clip-rule="evenodd" d="M56.6617 17.5H40.6617C35.9673 17.5 32.1617 21.3056 32.1617 26V42C32.1617 46.6944 35.9673 50.5 40.6617 50.5H56.6617C61.3562 50.5 65.1617 46.6944 65.1617 42V26C65.1617 21.3056 61.3562 17.5 56.6617 17.5ZM40.6617 16C35.1389 16 30.6617 20.4772 30.6617 26V42C30.6617 47.5228 35.1389 52 40.6617 52H56.6617C62.1846 52 66.6617 47.5228 66.6617 42V26C66.6617 20.4772 62.1846 16 56.6617 16H40.6617Z" fill="#8B3DFF"/>
<path opacity="0.6" d="M40.662 46.0002H56.662C58.8712 46.0002 60.662 44.2093 60.662 42.0002V38.0002L54.0763 31.4144C53.2952 30.6334 52.0289 30.6334 51.2478 31.4144L37.8336 44.8286C38.5575 45.5525 39.5575 46.0002 40.662 46.0002Z" fill="#8B3DFF"/>
<path fill-rule="evenodd" clip-rule="evenodd" d="M36.6617 26C36.6617 23.7909 38.4526 22 40.6617 22H56.6617C58.8709 22 60.6617 23.7909 60.6617 26V38L54.076 31.4142C53.2949 30.6332 52.0286 30.6332 51.2475 31.4142L37.8333 44.8284C37.1095 44.1046 36.6617 43.1046 36.6617 42V26ZM43.1617 31C44.5425 31 45.6617 29.8807 45.6617 28.5C45.6617 27.1193 44.5425 26 43.1617 26C41.781 26 40.6617 27.1193 40.6617 28.5C40.6617 29.8807 41.781 31 43.1617 31Z" fill="#8B3DFF"/>
<circle opacity="0.6" cx="43.1617" cy="28.5" r="2.5" fill="#8B3DFF"/>
</svg>
