<svg width="96" height="96" viewBox="0 0 96 96" fill="none" xmlns="http://www.w3.org/2000/svg">
<path opacity="0.3" d="M54.0005 49L66.0005 49C68.2096 49 70.0005 47.2091 70.0005 45L70.0005 29C70.0005 26.7909 68.2096 25 66.0005 25L54.0005 25C56.2096 25 58.0005 26.7909 58.0005 29L58.0005 45C58.0005 47.2091 56.2096 49 54.0005 49Z" fill="#8B3DFF"/>
<path opacity="0.7" d="M50.0005 49.0002C52.2096 49.0002 54.0005 47.2094 54.0005 45.0002L54.0005 29.0002C54.0005 26.7911 52.2096 25.0002 50.0005 25.0002L46.0005 25.0002C48.2096 25.0002 50.0005 26.7911 50.0005 29.0002L50.0005 45.0002C50.0005 47.2094 48.2096 49.0002 46.0005 49.0002L50.0005 49.0002Z" fill="#8B3DFF"/>
<path opacity="0.5" d="M54.0005 49.0002C56.2096 49.0002 58.0005 47.2094 58.0005 45.0002L58.0005 29.0002C58.0005 26.7911 56.2096 25.0002 54.0005 25.0002L50.0005 25.0002C52.2096 25.0002 54.0005 26.7911 54.0005 29.0002L54.0005 45.0002C54.0005 47.2094 52.2096 49.0002 50.0005 49.0002L54.0005 49.0002Z" fill="#8B3DFF"/>
<path opacity="0.6" d="M30.0005 49.0002H46.0005C48.2097 49.0002 50.0005 47.2093 50.0005 45.0002V41.0002L43.4148 34.4144C42.6337 33.6334 41.3674 33.6334 40.5863 34.4144L27.1721 47.8286C27.896 48.5525 28.896 49.0002 30.0005 49.0002Z" fill="#8B3DFF"/>
<path fill-rule="evenodd" clip-rule="evenodd" d="M26.0002 29C26.0002 26.7909 27.7911 25 30.0002 25H46.0002C48.2094 25 50.0002 26.7909 50.0002 29V41L43.4145 34.4142C42.6334 33.6332 41.3671 33.6332 40.586 34.4142L27.1718 47.8284C26.448 47.1046 26.0002 46.1046 26.0002 45V29ZM32.5002 34C33.881 34 35.0002 32.8807 35.0002 31.5C35.0002 30.1193 33.881 29 32.5002 29C31.1195 29 30.0002 30.1193 30.0002 31.5C30.0002 32.8807 31.1195 34 32.5002 34Z" fill="#8B3DFF"/>
<circle opacity="0.6" cx="32.5002" cy="31.5" r="2.5" fill="#8B3DFF"/>
<path opacity="0.3" d="M37.2414 57.1956L31.8521 70.8046H25.8521C24.7475 70.8046 23.8521 69.9092 23.8521 68.8046V59.1956C23.8521 58.091 24.7475 57.1956 25.8521 57.1956H37.2414Z" fill="#8B3DFF"/>
<path opacity="0.3" d="M39.8374 57.1956L45.227 70.8046H46.9497V57.1956H39.8374Z" fill="#8B3DFF"/>
<path opacity="0.3" d="M64.5747 70.8046C63.974 70.6607 63.4049 70.4372 62.8674 70.1343C61.8497 69.551 61.0461 68.7287 60.4565 67.6676C59.8732 66.6064 59.5815 65.3839 59.5815 64C59.5815 62.6161 59.8732 61.3936 60.4565 60.3324C61.0461 59.2713 61.8497 58.4521 62.8674 57.875C63.4073 57.5674 63.9791 57.341 64.5828 57.1956L53.2515 57.1956C54.0892 57.1956 54.7967 57.329 55.3738 57.5958C55.9571 57.8565 56.3946 58.2288 56.6863 58.7128C56.978 59.1907 57.1238 59.7585 57.1238 60.4163C57.1238 61.7505 56.466 62.6845 55.1504 63.2182V63.3019C56.1061 63.544 56.8166 63.969 57.2821 64.5772C57.7537 65.1854 57.9895 65.9456 57.9895 66.8578C57.9895 68.1424 57.6016 69.1229 56.8259 69.7993C56.0502 70.4695 54.8587 70.8046 53.2515 70.8046H64.5747Z" fill="#8B3DFF"/>
<path d="M45.2274 70.8046H43.1144L41.8856 67.6118H35.1928L33.9641 70.8046H31.8511L37.2407 57.1956H39.8378L45.2274 70.8046ZM38.5067 58.9921L35.8444 65.9176H41.2434L38.5811 58.9921H38.5067Z" fill="#8B3DFF"/>
<path d="M46.9497 70.8046V57.1956H53.2516C54.0893 57.1956 54.7968 57.329 55.3739 57.5958C55.9572 57.8565 56.3947 58.2288 56.6864 58.7128C56.9781 59.1907 57.1239 59.7585 57.1239 60.4163C57.1239 61.7505 56.4661 62.6845 55.1505 63.2182V63.3019C56.1062 63.544 56.8167 63.969 57.2822 64.5772C57.7538 65.1854 57.9896 65.9456 57.9896 66.8578C57.9896 68.1424 57.6017 69.1229 56.826 69.7993C56.0503 70.4695 54.8588 70.8046 53.2516 70.8046H46.9497ZM52.8606 62.8272C53.5929 62.8272 54.1576 62.6534 54.5548 62.3059C54.9581 61.9522 55.1598 61.4526 55.1598 60.8073C55.1598 60.1246 54.9705 59.6189 54.592 59.29C54.2134 58.9611 53.6363 58.7966 52.8606 58.7966H48.9231V62.8272H52.8606ZM53.3726 69.1291C54.2352 69.1291 54.8806 68.9305 55.3088 68.5333C55.7369 68.13 55.951 67.5435 55.951 66.774C55.951 66.0045 55.7369 65.4212 55.3088 65.024C54.8806 64.6269 54.2352 64.4283 53.3726 64.4283H48.9231V69.1291H53.3726Z" fill="#8B3DFF"/>
<path d="M66.2837 71C65.0301 71 63.8914 70.7114 62.8674 70.1343C61.8497 69.551 61.0461 68.7287 60.4565 67.6676C59.8732 66.6064 59.5815 65.3839 59.5815 64C59.5815 62.6161 59.8732 61.3936 60.4565 60.3324C61.0461 59.2713 61.8497 58.4521 62.8674 57.875C63.8914 57.2917 65.0301 57 66.2837 57C67.7668 57 68.9645 57.2886 69.8768 57.8657C70.7952 58.4366 71.4437 59.2061 71.8222 60.1742L70.2584 61.3191C69.9357 60.4938 69.4455 59.8732 68.7877 59.4574C68.1361 59.0355 67.3014 58.8245 66.2837 58.8245C65.3901 58.8245 64.5895 59.0324 63.8821 59.4481C63.1808 59.8639 62.6316 60.4628 62.2345 61.2447C61.8373 62.0266 61.6387 62.945 61.6387 64C61.6387 65.0674 61.8373 65.992 62.2345 66.7739C62.6378 67.5496 63.1932 68.1454 63.9007 68.5612C64.6081 68.9707 65.4118 69.1755 66.3116 69.1755C67.4845 69.1755 68.4122 68.887 69.0948 68.3098C69.7837 67.7265 70.2522 66.8639 70.5004 65.7221L72.148 66.7181C71.8191 68.0089 71.1737 69.0452 70.2119 69.8271C69.25 70.609 67.9406 71 66.2837 71Z" fill="#8B3DFF"/>
</svg>
