<svg width="96" height="96" viewBox="0 0 96 96" fill="none" xmlns="http://www.w3.org/2000/svg">
<path opacity="0.6" d="M50.1716 52.9875H66.1716C68.3807 52.9875 70.1716 51.1966 70.1716 48.9875V44.9875L63.5858 38.4017C62.8047 37.6207 61.5384 37.6207 60.7574 38.4017L47.3431 51.8159C48.067 52.5398 49.067 52.9875 50.1716 52.9875Z" fill="#8B3DFF"/>
<path fill-rule="evenodd" clip-rule="evenodd" d="M46.1713 32.9873C46.1713 30.7782 47.9621 28.9873 50.1713 28.9873H66.1713C68.3804 28.9873 70.1713 30.7782 70.1713 32.9873V44.9873L63.5855 38.4015C62.8044 37.6205 61.5381 37.6205 60.7571 38.4015L47.3428 51.8157C46.619 51.0919 46.1713 50.0919 46.1713 48.9873V32.9873ZM52.6713 37.9873C54.052 37.9873 55.1713 36.868 55.1713 35.4873C55.1713 34.1066 54.052 32.9873 52.6713 32.9873C51.2906 32.9873 50.1713 34.1066 50.1713 35.4873C50.1713 36.868 51.2906 37.9873 52.6713 37.9873Z" fill="#8B3DFF"/>
<circle opacity="0.6" cx="52.6713" cy="35.4873" r="2.5" fill="#8B3DFF"/>
<path opacity="0.7" d="M42.0354 28.1641C39.9016 28.7359 38.6352 30.9293 39.207 33.0631L43.3481 48.5179C43.8119 50.2488 45.3427 51.4089 47.0432 51.4802C46.4977 50.7965 46.1717 49.9301 46.1717 48.9875V32.9875C46.1717 30.7784 47.9626 28.9875 50.1717 28.9875H62.9616L62.3892 26.8515C61.8174 24.7176 59.6241 23.4513 57.4902 24.023L42.0354 28.1641Z" fill="#8B3DFF"/>
<path opacity="0.5" d="M52.9553 23.4514C51.8508 21.5382 49.4044 20.8827 47.4912 21.9872L33.6348 29.9872C31.7217 31.0918 31.0662 33.5382 32.1707 35.4513L40.1707 49.3078C41.2023 51.0945 43.4041 51.7843 45.249 50.968C44.3446 50.4586 43.6379 49.5997 43.348 48.5179L39.2069 33.0631C38.6351 30.9292 39.9014 28.7358 42.0353 28.1641L53.8487 24.9987L52.9553 23.4514Z" fill="#8B3DFF"/>
<path opacity="0.3" d="M43.9706 21.8156C42.4085 20.2535 39.8759 20.2535 38.3138 21.8156L27.0001 33.1293C25.438 34.6914 25.438 37.2241 27.0001 38.7862L38.3138 50.0999C39.4018 51.188 40.9608 51.5181 42.3347 51.0904C41.4535 50.7879 40.6734 50.1779 40.171 49.3076L32.171 35.4512C31.0664 33.5381 31.7219 31.0917 33.6351 29.9871L45.3681 23.2131L43.9706 21.8156Z" fill="#8B3DFF"/>
<g opacity="0.3">
<path d="M39.5254 68.2L37.4844 67.6531L37.1239 64.251L30.6591 62.5188L28.6459 65.2848L26.6049 64.7379L35.3331 52.9875L37.8417 53.6597L39.5254 68.2ZM36.091 55.0505L31.727 61.051L36.942 62.4484L36.1629 55.0698L36.091 55.0505Z" fill="#8B3DFF"/>
<path d="M41.189 68.6457L44.7113 55.5004L50.7984 57.1315C51.6076 57.3483 52.2565 57.6603 52.7449 58.0674C53.2409 58.4701 53.5671 58.943 53.7235 59.4861C53.8816 60.0231 53.8755 60.6093 53.7052 61.2447C53.3599 62.5335 52.4828 63.2653 51.0739 63.4403L51.0522 63.5213C51.9127 64.0024 52.489 64.5969 52.7812 65.3048C53.0793 66.0143 53.1103 66.8096 52.8742 67.6908C52.5418 68.9316 51.9134 69.7783 50.989 70.2309C50.0663 70.6775 48.8287 70.6928 47.2761 70.2768L41.189 68.6457ZM48.9632 62.47C49.6705 62.6596 50.261 62.6379 50.7346 62.405C51.2157 62.1677 51.5398 61.7374 51.7069 61.114C51.8835 60.4546 51.8316 59.9171 51.5511 59.5014C51.2706 59.0858 50.7557 58.7776 50.0064 58.5768L46.2031 57.5577L45.1599 61.4509L48.9632 62.47ZM47.8267 68.6897C48.6599 68.9129 49.3347 68.8882 49.8511 68.6153C50.3691 68.3365 50.7277 67.8255 50.9268 67.0822C51.126 66.3389 51.0702 65.7201 50.7594 65.2256C50.4486 64.7312 49.8765 64.3723 49.0434 64.149L44.7455 62.9974L43.5288 67.5381L47.8267 68.6897Z" fill="#8B3DFF"/>
<path d="M59.8136 73.8385C58.6028 73.514 57.5775 72.9406 56.7379 72.1181C55.9058 71.2912 55.3423 70.289 55.0475 69.1114C54.7587 67.9354 54.7934 66.6791 55.1516 65.3424C55.5098 64.0057 56.1079 62.9003 56.946 62.0263C57.7901 61.1538 58.7784 60.5706 59.9108 60.2765C61.0508 59.9781 62.2263 59.9911 63.4371 60.3155C64.8697 60.6994 65.9519 61.2881 66.6837 62.0817C67.4231 62.8709 67.8503 63.782 67.9654 64.8151L66.1585 65.5162C66.0604 64.6355 65.7475 63.9092 65.2197 63.3373C64.6995 62.7611 63.9479 62.3412 62.9649 62.0778C62.1017 61.8465 61.2747 61.8402 60.4837 62.0587C59.6987 62.2788 59.0133 62.7151 58.4273 63.3676C57.8412 64.02 57.4117 64.8558 57.1387 65.8748C56.8624 66.9058 56.8149 67.8504 56.9962 68.7084C57.185 69.5621 57.5673 70.2813 58.1431 70.866C58.7204 71.4447 59.4436 71.8505 60.3128 72.0834C61.4457 72.387 62.4165 72.3484 63.2253 71.9676C64.0416 71.5824 64.7174 70.8705 65.2527 69.8318L66.5864 71.2203C65.9346 72.382 65.043 73.216 63.9115 73.7223C62.78 74.2286 61.4141 74.2673 59.8136 73.8385Z" fill="#8B3DFF"/>
</g>
<path d="M41.0564 75.1608H38.9434L37.7146 71.968H31.0218L29.7931 75.1608H27.6801L33.0697 61.5518H35.6668L41.0564 75.1608ZM34.3356 63.3483L31.6734 70.2738H37.0723L34.4101 63.3483H34.3356Z" fill="#8B3DFF"/>
<path d="M42.7787 75.1608V61.5518H49.0805C49.9183 61.5518 50.6258 61.6852 51.2029 61.952C51.7862 62.2127 52.2237 62.585 52.5154 63.069C52.8071 63.5469 52.9529 64.1147 52.9529 64.7725C52.9529 66.1067 52.2951 67.0407 50.9795 67.5744V67.6581C51.9352 67.9002 52.6457 68.3253 53.1111 68.9334C53.5828 69.5416 53.8186 70.3018 53.8186 71.214C53.8186 72.4986 53.4307 73.4791 52.655 74.1555C51.8793 74.8257 50.6878 75.1608 49.0805 75.1608H42.7787ZM48.6896 67.1834C49.4219 67.1834 49.9866 67.0096 50.3837 66.6621C50.7871 66.3084 50.9888 65.8089 50.9888 65.1635C50.9888 64.4808 50.7995 63.9751 50.421 63.6462C50.0424 63.3173 49.4653 63.1528 48.6896 63.1528H44.7521V67.1834H48.6896ZM49.2016 73.4853C50.0641 73.4853 50.7095 73.2867 51.1377 72.8895C51.5659 72.4862 51.78 71.8997 51.78 71.1302C51.78 70.3607 51.5659 69.7774 51.1377 69.3802C50.7095 68.9831 50.0641 68.7845 49.2016 68.7845H44.7521V73.4853H49.2016Z" fill="#8B3DFF"/>
<path d="M62.1126 75.3562C60.8591 75.3562 59.7204 75.0676 58.6964 74.4905C57.6787 73.9072 56.8751 73.0849 56.2855 72.0238C55.7022 70.9626 55.4105 69.7401 55.4105 68.3562C55.4105 66.9723 55.7022 65.7498 56.2855 64.6886C56.8751 63.6275 57.6787 62.8083 58.6964 62.2312C59.7204 61.6479 60.8591 61.3562 62.1126 61.3562C63.5958 61.3562 64.7935 61.6448 65.7057 62.2219C66.6242 62.7928 67.2727 63.5623 67.6512 64.5304L66.0874 65.6754C65.7647 64.85 65.2744 64.2294 64.6166 63.8136C63.965 63.3917 63.1304 63.1807 62.1126 63.1807C61.219 63.1807 60.4185 63.3886 59.7111 63.8043C59.0098 64.2201 58.4606 64.819 58.0634 65.6009C57.6663 66.3828 57.4677 67.3012 57.4677 68.3562C57.4677 69.4236 57.6663 70.3482 58.0634 71.1301C58.4668 71.9058 59.0222 72.5016 59.7297 72.9174C60.4371 73.3269 61.2408 73.5317 62.1406 73.5317C63.3134 73.5317 64.2412 73.2432 64.9238 72.666C65.6127 72.0827 66.0812 71.2201 66.3294 70.0783L67.977 71.0743C67.6481 72.3651 67.0027 73.4014 66.0408 74.1833C65.079 74.9652 63.7696 75.3562 62.1126 75.3562Z" fill="#8B3DFF"/>
</svg>
