<svg width="96" height="96" viewBox="0 0 96 96" fill="none" xmlns="http://www.w3.org/2000/svg">
<path d="M29.5331 50.1881L32.5756 42.2732H32.6607L35.7033 50.1881H29.5331Z" fill="#8B3DFF"/>
<path fill-rule="evenodd" clip-rule="evenodd" d="M26.9692 36C24.7601 36 22.9692 37.7909 22.9692 40V56C22.9692 58.2091 24.7601 60 26.9692 60H38.2592C40.4684 60 42.2592 58.2091 42.2592 56V40C42.2592 37.7909 40.4684 36 38.2592 36H26.9692ZM37.8416 55.7732H40.2565L34.0969 40.22H31.1288L24.9692 55.7732H27.3841L28.7884 52.1243H36.4373L37.8416 55.7732Z" fill="#8B3DFF"/>
<path d="M44.2275 55.7688V40.2156H51.4297C52.3871 40.2156 53.1956 40.3681 53.8552 40.673C54.5219 40.9709 55.0219 41.3964 55.3552 41.9496C55.6885 42.4957 55.8552 43.1447 55.8552 43.8964C55.8552 45.4212 55.1034 46.4886 53.5999 47.0986V47.1943C54.6921 47.4709 55.5041 47.9567 56.036 48.6517C56.5751 49.3468 56.8446 50.2156 56.8446 51.2581C56.8446 52.7262 56.4013 53.8468 55.5148 54.6198C54.6282 55.3858 53.2665 55.7688 51.4297 55.7688H44.2275ZM50.9829 46.6517C51.8197 46.6517 52.4651 46.4532 52.919 46.056C53.38 45.6517 53.6105 45.0808 53.6105 44.3432C53.6105 43.5631 53.3942 42.9851 52.9616 42.6092C52.529 42.2333 51.8694 42.0454 50.9829 42.0454H46.4829V46.6517H50.9829ZM51.568 53.8539C52.5538 53.8539 53.2914 53.6269 53.7807 53.173C54.2701 52.712 54.5148 52.0418 54.5148 51.1624C54.5148 50.283 54.2701 49.6163 53.7807 49.1624C53.2914 48.7085 52.5538 48.4815 51.568 48.4815H46.4829V53.8539H51.568Z" fill="#8B3DFF"/>
<path d="M66.3285 55.9922C64.8959 55.9922 63.5945 55.6624 62.4243 55.0028C61.2611 54.3362 60.3427 53.3964 59.6689 52.1837C59.0023 50.9709 58.6689 49.5737 58.6689 47.9922C58.6689 46.4106 59.0023 45.0135 59.6689 43.8007C60.3427 42.5879 61.2611 41.6518 62.4243 40.9922C63.5945 40.3255 64.8959 39.9922 66.3285 39.9922C68.0236 39.9922 69.3924 40.322 70.4349 40.9815C71.4846 41.634 72.2257 42.5135 72.6583 43.6198L70.8711 44.9284C70.5023 43.9851 69.942 43.2759 69.1902 42.8007C68.4455 42.3184 67.4916 42.0773 66.3285 42.0773C65.3072 42.0773 64.3924 42.3149 63.5838 42.7901C62.7824 43.2652 62.1548 43.9496 61.7009 44.8433C61.247 45.7369 61.02 46.7865 61.02 47.9922C61.02 49.212 61.247 50.2688 61.7009 51.1624C62.1619 52.0489 62.7966 52.7298 63.6051 53.205C64.4136 53.673 65.3321 53.9071 66.3604 53.9071C67.7009 53.9071 68.7611 53.5773 69.5413 52.9177C70.3285 52.2511 70.864 51.2652 71.1477 49.9603L73.0306 51.0986C72.6548 52.5737 71.9172 53.7581 70.8179 54.6518C69.7186 55.5454 68.2221 55.9922 66.3285 55.9922Z" fill="#8B3DFF"/>
</svg>
