<svg width="96" height="96" viewBox="0 0 96 96" fill="none" xmlns="http://www.w3.org/2000/svg">
<path d="M40.2579 55.7768H37.843L36.4388 52.1279H28.7899L27.3856 55.7768H24.9707L31.1303 40.2236H34.0984L40.2579 55.7768ZM32.5771 42.2768L29.5345 50.1917H35.7047L32.6622 42.2768H32.5771Z" fill="#8B3DFF"/>
<g opacity="0.5">
<path d="M42.2266 55.7766V40.2234H49.4287C50.3861 40.2234 51.1946 40.3759 51.8542 40.6808C52.5209 40.9787 53.0209 41.4042 53.3542 41.9574C53.6876 42.5035 53.8542 43.1525 53.8542 43.9042C53.8542 45.4291 53.1024 46.4964 51.5989 47.1064V47.2021C52.6911 47.4787 53.5032 47.9645 54.0351 48.6596C54.5741 49.3546 54.8436 50.2234 54.8436 51.2659C54.8436 52.734 54.4003 53.8546 53.5138 54.6276C52.6273 55.3936 51.2656 55.7766 49.4287 55.7766H42.2266ZM48.9819 46.6596C49.8188 46.6596 50.4642 46.461 50.9181 46.0638C51.379 45.6596 51.6095 45.0886 51.6095 44.351C51.6095 43.5709 51.3932 42.9929 50.9606 42.617C50.528 42.2411 49.8684 42.0532 48.9819 42.0532H44.4819V46.6596H48.9819ZM49.567 53.8617C50.5528 53.8617 51.2904 53.6347 51.7798 53.1808C52.2691 52.7198 52.5138 52.0496 52.5138 51.1702C52.5138 50.2908 52.2691 49.6241 51.7798 49.1702C51.2904 48.7163 50.5528 48.4893 49.567 48.4893H44.4819V53.8617H49.567Z" fill="#8B3DFF"/>
<path d="M64.3275 56C62.8949 56 61.5935 55.6702 60.4233 55.0106C59.2602 54.344 58.3417 53.4043 57.668 52.1915C57.0013 50.9787 56.668 49.5816 56.668 48C56.668 46.4184 57.0013 45.0213 57.668 43.8085C58.3417 42.5957 59.2602 41.6596 60.4233 41C61.5935 40.3333 62.8949 40 64.3275 40C66.0226 40 67.3914 40.3298 68.4339 40.9894C69.4836 41.6418 70.2247 42.5213 70.6573 43.6277L68.8701 44.9362C68.5013 43.9929 67.941 43.2837 67.1892 42.8085C66.4446 42.3262 65.4907 42.0851 64.3275 42.0851C63.3063 42.0851 62.3914 42.3227 61.5829 42.7979C60.7814 43.273 60.1538 43.9574 59.6999 44.8511C59.246 45.7447 59.019 46.7943 59.019 48C59.019 49.2199 59.246 50.2766 59.6999 51.1702C60.1609 52.0567 60.7956 52.7376 61.6041 53.2128C62.4126 53.6809 63.3311 53.9149 64.3595 53.9149C65.6999 53.9149 66.7602 53.5851 67.5403 52.9255C68.3275 52.2589 68.863 51.273 69.1467 49.9681L71.0297 51.1064C70.6538 52.5816 69.9162 53.766 68.8169 54.6596C67.7176 55.5532 66.2212 56 64.3275 56Z" fill="#8B3DFF"/>
</g>
</svg>
