<svg width="96" height="96" viewBox="0 0 96 96" fill="none" xmlns="http://www.w3.org/2000/svg">
<path opacity="0.3" d="M40 61.8596C35.2176 59.0931 32 53.9224 32 48.0001C32 42.0779 35.2176 36.9071 40 34.1406V61.8596Z" fill="#8B3DFF"/>
<path opacity="0.5" d="M40 34.1405C42.3534 32.7792 45.0857 32 48 32V64C45.0857 64 42.3534 63.2208 40 61.8595V34.1405Z" fill="#8B3DFF"/>
<path opacity="0.7" d="M56 34.1405V61.8595C53.6466 63.2208 50.9143 64 48 64V32C50.9143 32 53.6466 32.7792 56 34.1405Z" fill="#8B3DFF"/>
<path d="M56 61.8596C60.7824 59.0931 64 53.9224 64 48.0001C64 42.0779 60.7824 36.9071 56 34.1406V61.8596Z" fill="#8B3DFF"/>
</svg>
