<svg width="96" height="96" viewBox="0 0 96 96" fill="none" xmlns="http://www.w3.org/2000/svg">
<circle cx="47.75" cy="47.75" r="15.5" fill="#8B3DFF" stroke="#8B3DFF"/>
<path fill-rule="evenodd" clip-rule="evenodd" d="M22.75 40.5C22.3358 40.5 22 40.1642 22 39.75C22 30.7648 29.0748 23.432 37.9577 23.0184L36.2197 21.2803C35.9268 20.9874 35.9268 20.5126 36.2197 20.2197C36.5126 19.9268 36.9874 19.9268 37.2803 20.2197L40.2803 23.2197C40.5732 23.5126 40.5732 23.9874 40.2803 24.2803L37.2803 27.2803C36.9874 27.5732 36.5126 27.5732 36.2197 27.2803C35.9268 26.9874 35.9268 26.5126 36.2197 26.2197L37.917 24.5224C29.882 24.9549 23.5 31.6072 23.5 39.75C23.5 40.1642 23.1642 40.5 22.75 40.5Z" fill="#8B3DFF"/>
<path fill-rule="evenodd" clip-rule="evenodd" d="M72.75 55C73.1642 55 73.5 55.3358 73.5 55.75C73.5 64.7352 66.4252 72.068 57.5423 72.4816L59.2803 74.2197C59.5732 74.5126 59.5732 74.9874 59.2803 75.2803C58.9874 75.5732 58.5126 75.5732 58.2197 75.2803L55.2197 72.2803C54.9268 71.9874 54.9268 71.5126 55.2197 71.2197L58.2197 68.2197C58.5126 67.9268 58.9874 67.9268 59.2803 68.2197C59.5732 68.5126 59.5732 68.9874 59.2803 69.2803L57.583 70.9776C65.618 70.5451 72 63.8928 72 55.75C72 55.3358 72.3358 55 72.75 55Z" fill="#8B3DFF"/>
</svg>
