<svg width="96" height="96" viewBox="0 0 96 96" fill="none" xmlns="http://www.w3.org/2000/svg">
<circle cx="48" cy="48.0005" r="16" fill="#8B3DFF"/>
<path d="M71.3343 35.9796L71.5216 35.0702C71.7861 33.7858 70.716 32.619 69.4136 32.7717V32.7717C68.1798 32.9164 67.1345 31.871 67.2791 30.6372L67.2945 30.506C67.4449 29.2232 66.358 28.1363 65.0752 28.2867L64.7391 28.3261C63.6098 28.4585 62.6531 27.5018 62.7855 26.3725V26.3725C62.9385 25.0676 61.66 24.061 60.4274 24.5158L60.0206 24.6659" stroke="#8B3DFF" stroke-width="1.5" stroke-linecap="round"/>
<path d="M24.6657 60.0213L24.4784 60.9308C24.2139 62.2152 25.284 63.382 26.5864 63.2293V63.2293C27.8202 63.0846 28.8655 64.1299 28.7209 65.3637L28.7055 65.495C28.5551 66.7778 29.642 67.8647 30.9248 67.7143L31.2609 67.6749C32.3902 67.5425 33.3469 68.4992 33.2145 69.6285V69.6285C33.0615 70.9333 34.34 71.94 35.5726 71.4852L35.9794 71.335" stroke="#8B3DFF" stroke-width="1.5" stroke-linecap="round"/>
</svg>
