<svg xmlns="http://www.w3.org/2000/svg" width="24" height="24" viewBox="0 0 24 24"><path fill="rgb(0, 196, 204)" fill-rule="evenodd" d="M2.544 4.402C2 5.177 2 6.272 2 8.46v7.204c0 2.308 0 3.461.601 4.262a3 3 0 0 0 .598.598c.8.6 1.954.6 4.261.6h8.955c2.307 0 3.46 0 4.261-.6.227-.17.428-.372.598-.598.601-.8.601-1.954.601-4.261v-.486c0-2.308 0-3.461-.6-4.261a3.002 3.002 0 0 0-.599-.598c-.8-.601-1.954-.601-4.261-.601h-3.743V8.46c0-2.188 0-3.283-.544-4.058a3.001 3.001 0 0 0-.734-.734c-.775-.543-1.87-.543-4.058-.543-2.189 0-3.283 0-4.058.543a3 3 0 0 0-.734.734ZM9.89 17.063a.75.75 0 0 1-.75.75H5.53a.75.75 0 0 1 0-1.5h3.61a.75.75 0 0 1 .75.75Zm-.75-5.85a.75.75 0 0 0 0-1.5H5.53a.75.75 0 0 0 0 1.5h3.61Zm.75 2.55a.75.75 0 0 1-.75.75H5.53a.75.75 0 1 1 0-1.5h3.61a.75.75 0 0 1 .75.75Zm-.75-5.85a.75.75 0 1 0 0-1.5H5.53a.75.75 0 1 0 0 1.5h3.61Zm6.086 9.15a.75.75 0 1 1-1.5 0 .75.75 0 0 1 1.5 0Zm-.75-2.531a.75.75 0 1 0 0-1.5.75.75 0 0 0 0 1.5Zm4.187 2.531a.75.75 0 1 1-1.5 0 .75.75 0 0 1 1.5 0Zm-.75-2.531a.75.75 0 1 0 0-1.5.75.75 0 0 0 0 1.5Z" clip-rule="evenodd"></path></svg>
