<svg width="24" height="24" viewBox="0 0 24 24" fill="none" xmlns="http://www.w3.org/2000/svg"><path d="M12.506 8.322v9.285c0 .21.244.324.406.19a8.467 8.467 0 0 1 5.238-1.95.747.747 0 0 0 .73-.747V5.752a.748.748 0 0 0-.722-.748 6.502 6.502 0 0 0-3.286.743 6.458 6.458 0 0 0-2.1 1.788 1.299 1.299 0 0 0-.266.787Z" fill="currentColor"></path><path d="M20.134 6.856a.272.272 0 0 0-.279.271v8.611a.971.971 0 0 1-.271.67c-.29.293-.718.294-.933.299-1.183.026-2.348.33-2.952.546a8.222 8.222 0 0 0-1.446.704s-.107.067-.903.6c1.946-1.314 5.791-.219 6.775-.234.487-.008.875-.295.875-.645V7.5c0-.348-.383-.633-.866-.645ZM11.494 8.322v9.285c0 .21-.244.324-.405.19a8.47 8.47 0 0 0-5.239-1.95.747.747 0 0 1-.729-.747V5.752c0-.403.32-.733.722-.748a6.502 6.502 0 0 1 3.285.743 6.457 6.457 0 0 1 2.1 1.788c.172.226.266.503.266.787Z" fill="currentColor"></path><path d="M3.867 6.856a.272.272 0 0 1 .278.271v8.611a.97.97 0 0 0 .271.67c.291.293.718.294.934.299 1.182.026 2.347.33 2.951.546.735.263 1.376.66 1.446.704 0 0 .107.067.903.6-1.945-1.314-5.79-.219-6.775-.234-.487-.008-.875-.295-.875-.646V7.501c0-.348.383-.633.867-.645Z" fill="currentColor"></path></svg>
