<svg width="96" height="96" viewBox="0 0 96 96" fill="none" xmlns="http://www.w3.org/2000/svg">
<path d="M64 60V49.2841C63.7504 49.3205 63.419 49.7274 62.7988 51.1267C62.8779 50.5907 62.6152 50.6463 62.2945 50.7141C62.17 50.7404 62.0366 50.7686 61.9111 50.7647C61.4715 50.751 61.1339 50.3258 61.6186 48.0446C61.2086 49.9344 61.133 50.013 60.9701 50.1826C60.8796 50.2768 60.7621 50.3991 60.5454 50.8755L59.9488 53.6318L59.5309 53.3236C59.3522 53.5857 59.3569 53.4702 59.4294 53.2221C59.4086 53.1706 59.4791 52.9106 59.5708 52.5718C59.7107 52.0557 59.9 51.3568 59.8918 50.9341C59.6797 50.8091 59.3778 51.5811 58.9945 52.5616C58.8537 52.9216 58.702 53.3097 58.5396 53.6918L58.4718 54.1005L58.1636 54.3578C58.1155 54.33 58.2502 54.0264 58.4478 53.5809C58.8525 52.6685 59.5211 51.1611 59.4247 50.208C59.1948 50.9667 57.8032 54.5956 58.233 52.6162C58.4749 52.7638 59.0006 50.8481 59.1347 50.034L58.7955 49.8289L57.8985 53.3112C57.3926 53.2157 57.0219 52.6353 56.6468 52.0479L56.6151 51.9984L56.5576 51.9087C56.1506 51.2764 55.7202 50.6969 55.0806 50.7927C55.5 49.4194 55.3783 49.2446 55.2501 49.0606C55.0932 48.8354 54.9268 48.5964 55.7311 46.1296L55.6477 46.561C56.075 46.1265 56.6281 43.017 56.2381 43.5147C56.1619 44.1222 55.8269 45.0173 55.4965 45.8999C55.0452 47.1055 54.6026 48.2879 54.8403 48.6823L53.7243 50.7911C52.2923 55.0979 52.0256 54.913 51.9235 53.9958C51.906 53.8375 51.8936 53.6572 51.881 53.4743C51.8205 52.5976 51.756 51.6611 51.1068 52.7948C51.256 52.4473 51.3875 52.0936 51.5015 51.7326C50.5865 53.4115 50.524 52.1263 50.4792 51.2055C50.4512 50.6288 50.4301 50.195 50.2109 50.7217L50.8831 48.357C49.2181 51.9641 49.0518 52.2707 48.8576 50.7756C48.8876 50.6841 48.9269 50.5754 48.97 50.4563C49.1061 50.0798 49.2804 49.598 49.3201 49.2188C48.6246 50.9667 47.9218 52.699 47.6245 52.1998L47.8757 51.4566C47.6012 51.5788 47.3283 51.6959 47.0553 51.8129C48.1615 48.289 47.584 49.206 46.9629 50.1925L46.9015 50.2898C46.2588 51.309 45.6021 52.249 46.7472 48.2969C46.1912 49.7553 45.6762 50.5145 45.2303 51.1717C45.0283 51.4695 44.8404 51.7464 44.6694 52.0579C44.7714 51.7368 44.8574 51.411 44.9268 51.0806C43.9676 53.5519 44.0687 52.3909 44.1626 51.3117C44.2173 50.6843 44.2695 50.0845 44.1096 50.2421C43.6181 51.1671 43.2975 52.4126 42.9888 53.6613C43.2928 52.1045 42.7501 52.9569 42.169 54.0264C42.0429 54.2587 41.9144 54.5019 41.7922 54.7332C41.3516 55.5672 40.9911 56.2497 41.1022 55.7344C40.979 55.5278 41.3425 54.4252 41.7353 53.2338C41.952 52.5767 42.1775 51.8926 42.3353 51.3168C42.0395 51.6259 41.5763 53.0628 41.2019 54.224C40.7685 55.5681 40.4542 56.5428 40.6568 54.9715C40.6987 54.8931 40.7429 54.8186 40.7872 54.7441C40.9185 54.5227 41.0499 54.3015 41.1193 53.9787C41.1121 53.716 41.5154 52.0979 41.9323 50.4252C42.513 48.0952 43.1203 45.6587 42.6823 46.6288L42.3969 47.9391C41.9268 48.81 42.1263 47.5338 42.2955 46.4513C42.4857 45.2345 42.6376 44.2624 41.7573 46.8598L41.0483 49.1463C41.2136 47.5865 41.0624 47.8379 40.8995 48.109C40.7417 48.3714 40.5729 48.6523 40.6692 47.3269L40.8018 46.9509C40.6421 47.1044 40.6442 46.8216 40.646 46.5775C40.6492 46.1518 40.6515 45.8435 39.7934 48.1706L39.7303 48.6745C39.4087 48.859 39.3401 48.7791 39.2222 48.6415C39.1717 48.5825 39.1121 48.513 39.0197 48.4492C38.8654 48.7962 38.508 49.3218 38.7116 48.5512C37.81 51.229 37.4694 50.2234 37.3302 49.8123C37.3113 49.7565 37.2961 49.7117 37.2837 49.6885C37.6718 49.3173 37.9461 48.2591 38.231 47.16C38.27 47.0094 38.3093 46.858 38.349 46.7075C37.3516 49.1815 37.1434 49.4249 37.5059 47.6092C36.205 51.4043 34.8067 55.4433 34.2561 55.6251C34.3247 55.4789 34.3904 55.3498 34.4538 55.2252C34.6357 54.8679 34.7989 54.5472 34.9579 53.9632C35.1677 53.1903 34.7893 53.992 34.6497 54.2875L34.642 54.304C34.7392 53.9488 34.8658 53.6325 35.0113 53.2689C35.186 52.8325 35.388 52.3279 35.599 51.6063C34.696 53.7135 34.6298 53.4243 34.5496 53.0741C34.4928 52.8264 34.4291 52.5483 34.0573 53.0662C34.4469 52.2396 34.6173 51.6155 34.8334 50.8242C34.9123 50.5352 34.9973 50.224 35.1013 49.8724C34.3581 52.0198 34.515 51.0728 34.6456 50.2842C34.7762 49.4959 34.8806 48.8659 34.0329 51.6451C34.138 49.9856 33.6199 49.831 33.1564 49.6926L33.1219 49.6823C32.6501 49.5409 32.2586 49.3742 32.6978 47.5677C32.972 46.5907 32.6404 47.1971 32.3084 47.8041C32.1983 48.0054 32.0881 48.2069 32 48.3506V60C32 62.2091 33.7909 64 36 64H60C62.2091 64 64 62.2091 64 60Z" fill="#8B3DFF"/>
<path d="M32 48.108L32.5098 46.6749C32.3031 47.1067 32.1367 47.4481 32 47.7222V48.108Z" fill="#8B3DFF"/>
<g opacity="0.6">
<path fill-rule="evenodd" clip-rule="evenodd" d="M62.7988 51.1267C63.419 49.7274 63.7504 49.3205 64 49.2841V37.3815C63.9898 37.3657 63.9803 37.349 63.9715 37.3315L64 37.3227V36.0028C63.9759 36.0503 63.9509 36.1016 63.9249 36.1569C63.9526 36.0838 63.9775 36.0194 63.9998 35.9626C63.9987 35.8433 63.9924 35.7252 63.9811 35.6085C63.8174 35.9756 63.6202 36.4479 63.4235 36.9192C62.8045 38.4017 62.1897 39.8741 62.6364 38.0311C62.8112 38.4498 63.4129 36.8633 63.9354 35.2803L63.9322 35.263C63.7031 35.692 63.5395 35.8288 63.3763 35.9653C63.0238 36.2599 62.6731 36.5531 61.6684 39.7842C61.7215 39.476 61.7257 39.3169 61.7295 39.176C61.7379 38.8553 61.7439 38.6295 62.3189 36.9555L60.7373 39.7422C60.9486 39.2554 61.4618 37.8525 61.3877 37.5101C61.4464 37.794 61.8159 37.1506 62.1523 36.5649C62.6033 35.7796 62.9948 35.098 62.4976 36.8938C62.8412 35.8862 63.1139 35.0368 63.3643 34.2566L63.4532 33.9799C63.3159 33.7458 63.1556 33.5269 62.9752 33.3263C62.43 34.4706 61.8547 35.7549 61.2967 37.0008C60.8881 37.9128 60.4888 38.8042 60.1173 39.605L60.238 37.435L59.7631 38.7805L60.7849 35.3754C60.7178 35.5306 60.6533 35.6811 60.5938 35.82C60.3577 36.3709 60.1998 36.7394 60.2701 36.4945C60.3582 36.1879 60.526 35.7405 60.7233 35.2428C60.5545 35.4981 60.4131 35.7679 60.2996 36.0523C60.6734 34.8823 61.1405 33.6037 61.6238 32.3433C61.5533 32.312 61.4817 32.2826 61.409 32.2552C60.7325 33.8178 60.1104 35.4534 59.7864 36.9399L60.0946 34.9129C58.8755 37.5766 58.8219 37.675 58.1725 38.8679C58.0105 39.1653 57.8114 39.5312 57.5481 40.0214C57.7052 39.5065 57.8821 39.0277 58.0478 38.5791C58.2621 37.9988 58.4579 37.4688 58.5683 36.9767C57.667 39.0807 57.9505 37.433 58.1718 36.1466C58.3472 35.1275 58.4835 34.3353 57.9608 35.8145C57.6428 36.2694 57.3407 37.1355 57.0491 37.9716C56.8207 38.6261 56.5988 39.2622 56.3807 39.6682C56.5133 39.2922 56.7754 38.5464 56.7402 38.4848L55.7241 40.8987C55.804 40.5405 55.9446 40.1963 56.0894 39.8416C56.2993 39.3276 56.5181 38.7919 56.5739 38.1606C56.5088 38.2747 56.4452 38.3865 56.3832 38.4956C55.4697 40.1014 54.8979 41.1063 54.9198 39.9924C54.5466 40.283 54.181 41.6711 53.8814 42.8089C53.6251 43.782 53.417 44.5721 53.2936 44.336L53.3979 43.9805C53.9584 42.0719 54.5782 39.9612 54.4169 39.6609C54.2043 40.1568 54.005 40.6778 53.8123 41.1816C53.4755 42.062 53.1588 42.8898 52.8264 43.439L53.8327 40.3927C53.7935 40.41 53.7521 40.4369 53.7126 40.4626C53.4866 40.6097 53.3203 40.718 53.9498 38.7603C53.349 40.0509 53.2993 39.8085 53.3609 39.314C52.6949 40.5535 52.0074 43.6294 51.5909 45.4932C51.4734 46.0193 51.3774 46.4487 51.3095 46.7131C51.4708 45.8033 51.4673 45.4553 51.4641 45.1432C51.4593 44.6627 51.4553 44.2675 52.0553 42.0376L52.6058 41.2364C52.8941 39.3523 52.4136 40.3812 52.0699 41.1172C51.7189 41.8686 51.5106 42.3148 52.4085 39.0441C52.5457 39.2953 53.3273 37.6831 53.7374 35.9994L52.9217 37.5505C53.0187 37.1947 53.0999 37.0441 53.1735 36.9076C53.2673 36.7336 53.3488 36.5824 53.435 36.058C53.1361 36.7255 52.4515 38.2844 52.0475 39.2953L52.1123 39.1058L51.4561 39.5441C51.588 39.3279 51.8238 38.5737 51.7689 38.4677L50.8916 40.0478C51.2153 39.3455 51.3919 38.6081 51.4219 37.8354C51.33 37.3648 50.6978 39.0525 50.1614 40.4849C49.619 41.9328 49.1744 43.1199 49.4845 41.5523C49.5003 41.5826 49.5396 41.5075 49.5795 41.4312C49.6208 41.3523 49.6629 41.2721 49.6802 41.3058L49.9221 39.9334C48.8831 43.1631 48.5526 43.313 48.2237 43.4623C47.8944 43.6117 47.5667 43.7604 46.5309 47C46.8804 45.3356 46.9744 45.1546 47.3286 44.472C47.5334 44.0774 47.8252 43.5152 48.3037 42.4016L48.5994 40.53C48.6773 40.4292 48.7148 40.4495 48.7522 40.4698C48.8079 40.5001 48.8634 40.5302 49.0526 40.1571C49.4935 37.5897 48.2755 40.4087 47.5178 42.1623C47.4648 42.285 47.4141 42.4024 47.3663 42.5125C47.4213 42.16 47.6648 41.388 47.9081 40.6167C48.3129 39.3333 48.717 38.0519 48.2509 38.7096C47.7004 39.4096 47.3374 40.8246 47.0206 42.0592C46.7758 43.0131 46.5587 43.8593 46.3041 44.1853L47.0934 40.8246C46.1984 42.6591 46.1469 41.9715 46.0953 41.2815C46.0753 41.0148 46.0553 40.7478 45.9866 40.6258C45.8028 40.9339 45.6531 41.2576 45.5366 41.5968C45.5604 40.8113 45.0295 41.7981 44.5373 42.7129C44.1108 43.5056 43.7134 44.2442 43.7312 43.729C43.9086 43.2988 44.0506 42.574 44.184 41.8928C44.2629 41.49 44.3389 41.1023 44.4174 40.7998L43.2466 42.8439C43.6551 42.1281 44.1146 40.7123 44.6046 39.2029C44.7139 38.8663 44.8248 38.5247 44.9369 38.1855C44.8035 38.2956 44.6136 38.6917 44.4396 39.0546C44.3116 39.3216 44.1922 39.5706 44.1103 39.6744C44.4309 38.9545 44.6758 38.2093 44.8442 37.4392L43.3029 40.6118C43.247 40.792 43.2439 40.9728 43.2936 41.1545C43.2551 41.1589 43.1819 41.2416 43.0989 41.3354C42.8588 41.6067 42.5367 41.9704 42.7369 40.7998C42.8557 40.4414 42.9827 40.0944 43.11 39.7466C43.2455 39.3762 43.3814 39.0049 43.508 38.6184C43.0573 40.6565 43.637 39.0708 44.1496 37.6686L44.2108 37.5013C43.9236 37.6854 43.9848 37.4927 44.1306 37.0333C44.2374 36.6967 44.3898 36.2169 44.4837 35.6374C44.1782 35.7022 43.292 38.2517 42.8756 39.8748C42.8676 39.8108 42.8605 39.7485 42.8538 39.6895C42.7833 39.0645 42.7528 38.7947 41.9248 40.561L42.7741 37.9405L42.2283 38.7572L43.4293 35.5742C43.411 34.6934 43.0616 35.7521 42.6875 36.8856C42.2981 38.0655 41.8819 39.3266 41.7844 38.5661L42.4717 36.2646C42.279 36.597 41.9809 37.36 41.7194 38.0293C41.2909 39.1261 40.9607 39.9711 41.3541 38.2564C41.073 38.8604 40.9292 39.5562 40.7989 40.1871C40.6305 41.0022 40.4844 41.709 40.0935 41.9697C40.2914 41.1375 40.3867 40.2933 40.3784 39.4372C39.9364 40.3937 39.7416 41.8837 39.8721 41.8883C39.3694 42.2746 39.7905 40.4242 40.1685 38.7625C40.5682 37.0058 40.9199 35.46 40.0811 36.9922C39.987 37.6689 39.714 38.5358 39.4672 39.3196C39.1106 40.4521 38.8085 41.4113 39.1794 41.3731C38.8643 41.9921 38.9219 41.3569 38.9799 40.7165C39.0494 39.95 39.1195 39.1763 38.5518 40.5377L39.614 37.609C39.541 37.563 39.2544 38.2147 39.0553 38.6673C39.0015 38.7897 38.954 38.8977 38.9189 38.9732L39.614 36.7043C38.8754 38.6016 38.8097 38.2514 38.7509 37.938C38.6868 37.5959 38.6308 37.2977 37.7179 40.0105C38.4806 37.7113 38.2749 38.0722 38.0055 38.5452C37.7957 38.9134 37.5472 39.3495 37.6869 38.651C38.2175 37.3259 38.4425 37.2401 38.6434 37.1635C38.8786 37.0738 39.0809 36.9967 39.702 34.959C39.7975 34.3821 39.6743 34.5654 39.5523 34.7468C39.4322 34.9255 39.3133 35.1023 39.4058 34.5493C39.6678 33.9973 40.1044 32.9982 40.3649 32.2369C40.3708 32.1466 40.3737 32.0678 40.3737 32H39.9803C39.7313 32.4304 39.3981 33.1991 39.0845 33.9228C38.8022 34.5742 38.5357 35.1891 38.3607 35.4878L39.1313 34.6198C38.5199 36.6346 38.4424 36.6814 38.3495 36.7374C38.2684 36.7864 38.1755 36.8424 37.7055 38.2212C37.891 37.1052 37.6566 37.4878 37.4331 37.8525C37.2496 38.152 37.0735 38.4394 37.1431 37.8758C37.1706 37.8866 37.2118 37.7954 37.2518 37.7067C37.2844 37.6345 37.3162 37.564 37.3393 37.5514C37.0037 37.5539 37.4803 35.2625 37.8532 33.4697C37.9718 32.8994 38.0799 32.3795 38.1481 32H37.6738C37.3531 32.6559 36.9764 33.6626 36.8085 34.5353C36.6572 34.8674 36.7095 34.8752 36.7963 34.8881C36.9826 34.9157 37.3277 34.967 36.1549 38.3041C36.8147 35.4738 36.4983 36.001 36.07 36.7535L36.042 36.8028C35.6188 37.5466 35.1097 38.4413 35.3134 36.55C35.7703 35.5077 35.95 34.6898 36.1166 33.9317C36.2601 33.2785 36.3939 32.6697 36.6868 32H36.6206C36.3052 32.397 36.0737 33.0216 35.7029 34.0221C35.6199 34.2461 35.5299 34.489 35.4304 34.7523L35.8359 32.9858C35.2563 34.4518 34.9542 35.3128 34.74 35.9233C34.3753 36.9627 34.2655 37.2758 33.4743 38.6112C33.7951 37.8867 33.9073 37.2183 34.0168 36.5665C34.116 35.9755 34.2129 35.3982 34.4609 34.8052C34.3206 34.6829 33.9845 35.2195 33.5494 36.2817L33.6468 36.0274C33.2119 36.4579 33.204 35.9912 33.1971 35.5809C33.1893 35.1185 33.1827 34.7276 32.5675 35.7731L32.3272 36.84C32.2126 37.0462 32.1038 37.2281 32 37.3887V47.7223C32.1367 47.4481 32.3031 47.1067 32.5098 46.6749L32 48.108V48.3507C32.0881 48.2069 32.1983 48.0055 32.3084 47.8042C32.6404 47.1971 32.972 46.5907 32.6978 47.5678C32.2586 49.3742 32.6501 49.5409 33.1219 49.6823L33.1564 49.6926C33.6199 49.831 34.138 49.9856 34.0329 51.6451C34.8806 48.8659 34.7762 49.4959 34.6456 50.2843C34.515 51.0728 34.3581 52.0198 35.1013 49.8724C34.9973 50.224 34.9123 50.5353 34.8334 50.8242C34.6173 51.6156 34.4469 52.2396 34.0573 53.0662C34.4291 52.5483 34.4928 52.8265 34.5496 53.0742C34.6298 53.4243 34.696 53.7135 35.599 51.6063C35.388 52.3279 35.186 52.8325 35.0113 53.269C34.8658 53.6325 34.7392 53.9489 34.642 54.304L34.6497 54.2876C34.7893 53.992 35.1677 53.1903 34.9579 53.9632C34.7989 54.5472 34.6357 54.8679 34.4538 55.2252C34.3904 55.3498 34.3247 55.4789 34.2561 55.6251C34.8067 55.4434 36.205 51.4043 37.5059 47.6092C37.1434 49.4249 37.3516 49.1815 38.349 46.7075C38.3093 46.858 38.27 47.0094 38.231 47.16C37.9461 48.2591 37.6718 49.3173 37.2837 49.6885C37.2961 49.7117 37.3113 49.7566 37.3302 49.8123C37.4694 50.2234 37.81 51.229 38.7116 48.5512C38.508 49.3219 38.8654 48.7962 39.0197 48.4492C39.1121 48.513 39.1717 48.5826 39.2222 48.6415C39.3401 48.7791 39.4087 48.8591 39.7303 48.6745L39.7934 48.1706C40.6515 45.8435 40.6492 46.1518 40.646 46.5775C40.6442 46.8217 40.6421 47.1044 40.8018 46.951L40.6692 47.3269C40.5729 48.6523 40.7417 48.3714 40.8995 48.109C41.0624 47.8379 41.2136 47.5865 41.0483 49.1463L41.7573 46.8598C42.6376 44.2624 42.4857 45.2345 42.2955 46.4513C42.1263 47.5338 41.9268 48.81 42.3969 47.9391L42.6823 46.6288C43.1203 45.6587 42.513 48.0952 41.9323 50.4252C41.5154 52.098 41.1121 53.716 41.1193 53.9788C41.0499 54.3015 40.9185 54.5228 40.7872 54.7441C40.7429 54.8186 40.6987 54.8931 40.6568 54.9716C40.4542 56.5428 40.7685 55.5681 41.2019 54.224C41.5763 53.0628 42.0395 51.626 42.3353 51.3168C42.1775 51.8926 41.952 52.5767 41.7353 53.2338C41.3425 54.4252 40.979 55.5278 41.1022 55.7344C40.9911 56.2497 41.3516 55.5673 41.7922 54.7332C41.9144 54.5019 42.0429 54.2587 42.169 54.0264C42.7501 52.957 43.2928 52.1045 42.9888 53.6613C43.2975 52.4127 43.6181 51.1671 44.1096 50.2422C44.2695 50.0845 44.2173 50.6843 44.1626 51.3117C44.0687 52.3909 43.9676 53.5519 44.9268 51.0806C44.8574 51.411 44.7714 51.7368 44.6694 52.0579C44.8404 51.7464 45.0283 51.4695 45.2303 51.1717C45.6762 50.5145 46.1912 49.7553 46.7472 48.297C45.6021 52.249 46.2588 51.309 46.9015 50.2898L46.9629 50.1925C47.584 49.206 48.1615 48.289 47.0553 51.8129C47.3283 51.6959 47.6012 51.5788 47.8757 51.4566L47.6245 52.1998C47.9218 52.699 48.6246 50.9667 49.3201 49.2188C49.2804 49.598 49.1061 50.0798 48.97 50.4563C48.9269 50.5755 48.8876 50.6841 48.8576 50.7756C49.0518 52.2708 49.2181 51.9642 50.8831 48.357L50.2109 50.7217C50.4301 50.195 50.4512 50.6288 50.4792 51.2055C50.524 52.1264 50.5865 53.4115 51.5015 51.7327C51.3875 52.0936 51.256 52.4474 51.1068 52.7949C51.756 51.6611 51.8205 52.5977 51.881 53.4743C51.8936 53.6572 51.906 53.8375 51.9235 53.9959C52.0256 54.913 52.2923 55.0979 53.7243 50.7911L54.8403 48.6823C54.6026 48.2879 55.0452 47.1055 55.4965 45.8999C55.8269 45.0173 56.1619 44.1222 56.2381 43.5147C56.6281 43.017 56.075 46.1265 55.6477 46.561L55.7311 46.1296C54.9268 48.5964 55.0932 48.8354 55.2501 49.0606C55.3783 49.2446 55.5 49.4194 55.0806 50.7927C55.7202 50.6969 56.1506 51.2764 56.5576 51.9087C56.5768 51.9386 56.596 51.9685 56.6151 51.9984C56.6253 52.0144 56.6355 52.0304 56.6458 52.0464L56.6468 52.0479C57.0219 52.6354 57.3926 53.2157 57.8985 53.3112L58.7955 49.8289L59.1347 50.034C59.0006 50.8481 58.4749 52.7638 58.233 52.6162C57.8032 54.5956 59.1948 50.9667 59.4247 50.208C59.5211 51.1611 58.8525 52.6685 58.4478 53.5809C58.2502 54.0264 58.1155 54.33 58.1636 54.3579L58.4718 54.1005L58.5396 53.6919C58.702 53.3097 58.8537 52.9216 58.9945 52.5616C59.3778 51.5812 59.6797 50.8091 59.8918 50.9341C59.9 51.3568 59.7107 52.0557 59.5708 52.5718C59.4791 52.9106 59.4086 53.1706 59.4294 53.2221C59.3569 53.4702 59.3522 53.5857 59.5309 53.3236L59.9488 53.6318L60.5454 50.8755C60.7621 50.3991 60.8796 50.2769 60.9701 50.1826C61.133 50.0131 61.2086 49.9344 61.6186 48.0447C61.1339 50.3258 61.4715 50.751 61.9111 50.7647C62.0366 50.7686 62.17 50.7404 62.2945 50.7141C62.6152 50.6463 62.8779 50.5907 62.7988 51.1267ZM39.9159 41.8511C39.9006 41.8652 39.886 41.8776 39.8721 41.8883C39.884 41.8887 39.8986 41.8768 39.9159 41.8511ZM51.3852 39.5915C51.3995 39.6163 51.4249 39.5953 51.4561 39.5441L51.3852 39.5915Z" fill="#8B3DFF"/>
<path d="M53.2087 39.6032C53.2679 39.4783 53.3222 39.3634 53.364 39.2798V39.2725C53.3838 39.126 53.4118 38.9615 53.4377 38.8093C53.5478 38.1636 53.6197 37.7415 52.8586 39.8748C52.5501 40.9939 52.9319 40.1876 53.2087 39.6032Z" fill="#8B3DFF"/>
<path d="M61.7068 34.2345C61.3908 34.9885 61.4219 34.6047 61.6037 33.7259C61.7456 33.5363 61.8057 33.6306 61.7068 34.2267V34.2345Z" fill="#8B3DFF"/>
</g>
</svg>
