<svg width="96" height="96" viewBox="0 0 96 96" fill="none" xmlns="http://www.w3.org/2000/svg">
<path opacity="0.3" fill-rule="evenodd" clip-rule="evenodd" d="M37.3288 64C34.3854 63.9975 32 61.6107 32 58.6667V45.4632C32.8424 45.4781 34.1977 45.6316 35.6 47.218C36.1623 47.8542 36.717 48.7207 37.2697 49.5839C38.243 51.1042 39.2098 52.6144 40.2 52.8385C41.4497 53.1213 42.6622 51.3555 43.8973 49.5566C44.1966 49.1208 44.4972 48.683 44.8 48.2719C46.3525 46.1642 47.8475 44.7591 49.4 45.4617C49.986 45.7268 50.5638 46.2923 51.1396 46.8558C52.0893 47.7852 53.0335 48.7093 54 48.2719C55.0242 47.8084 56.0234 45.8161 57.0306 43.8078C57.5501 42.7719 58.0717 41.7318 58.6 40.895C60.1525 38.4361 61.6475 37.7335 63.2 38.0848C63.4682 38.1455 63.7347 38.2376 64 38.3612V58.6667C64 61.6107 61.6147 63.9975 58.6712 64C58.6697 64 58.6682 64 58.6667 64H37.3333C37.3318 64 37.3303 64 37.3288 64ZM64 42.3612V58.6667C64 61.6122 61.6122 64 58.6667 64H37.3333C34.3878 64 32 61.6122 32 58.6667V49.4632C32.8424 49.4781 34.1977 49.6316 35.6 51.218C36.1623 51.8542 36.717 52.7207 37.2697 53.5839C38.243 55.1042 39.2098 56.6144 40.2 56.8385C41.4497 57.1213 42.6622 55.3555 43.8973 53.5566C44.1966 53.1208 44.4972 52.683 44.8 52.2719C46.3525 50.1642 47.8475 48.7591 49.4 49.4617C49.986 49.7268 50.5638 50.2923 51.1396 50.8558C52.0893 51.7852 53.0335 52.7093 54 52.2719C55.0242 51.8084 56.0234 49.8161 57.0306 47.8078C57.5501 46.7719 58.0717 45.7318 58.6 44.895C60.1525 42.4361 61.6475 41.7335 63.2 42.0848C63.4682 42.1455 63.7347 42.2376 64 42.3612Z" fill="#8B3DFF"/>
<path opacity="0.7" d="M64 46.3612V58.6667C64 61.6122 61.6122 64 58.6667 64H37.3333C34.3878 64 32 61.6122 32 58.6667V53.4632C32.8424 53.4781 34.1977 53.6316 35.6 55.218C36.1623 55.8542 36.717 56.7207 37.2697 57.5839C38.243 59.1042 39.2098 60.6144 40.2 60.8385C41.4497 61.1213 42.6622 59.3555 43.8973 57.5566C44.1966 57.1208 44.4972 56.683 44.8 56.2719C46.3525 54.1642 47.8475 52.7591 49.4 53.4617C49.986 53.7268 50.5638 54.2923 51.1396 54.8558C52.0893 55.7852 53.0335 56.7093 54 56.2719C55.0242 55.8084 56.0234 53.8161 57.0306 51.8078C57.5501 50.7719 58.0717 49.7318 58.6 48.895C60.1525 46.4361 61.6475 45.7335 63.2 46.0848C63.4682 46.1455 63.7347 46.2376 64 46.3612Z" fill="#8B3DFF"/>
<path opacity="0.5" fill-rule="evenodd" clip-rule="evenodd" d="M64 42.3612V58.6667C64 61.6122 61.6122 64 58.6667 64H37.3333C34.3878 64 32 61.6122 32 58.6667V49.4632C32.8424 49.4781 34.1977 49.6316 35.6 51.218C36.1623 51.8542 36.717 52.7207 37.2697 53.5839C38.243 55.1042 39.2098 56.6144 40.2 56.8385C41.4497 57.1213 42.6622 55.3555 43.8973 53.5566C44.1966 53.1208 44.4972 52.683 44.8 52.2719C46.3525 50.1642 47.8475 48.7591 49.4 49.4617C49.986 49.7268 50.5638 50.2923 51.1396 50.8558C52.0893 51.7852 53.0335 52.7093 54 52.2719C55.0242 51.8084 56.0234 49.8161 57.0306 47.8078C57.5501 46.7719 58.0717 45.7318 58.6 44.895C60.1525 42.4361 61.6475 41.7335 63.2 42.0848C63.4682 42.1455 63.7347 42.2376 64 42.3612ZM64 46.3612V58.6667C64 61.6122 61.6122 64 58.6667 64H37.3333C34.3878 64 32 61.6122 32 58.6667V53.4632C32.8424 53.4781 34.1977 53.6316 35.6 55.218C36.1623 55.8542 36.717 56.7207 37.2697 57.5839C38.243 59.1042 39.2098 60.6144 40.2 60.8385C41.4497 61.1213 42.6622 59.3555 43.8973 57.5566C44.1966 57.1208 44.4972 56.683 44.8 56.2719C46.3525 54.1642 47.8475 52.7591 49.4 53.4617C49.986 53.7268 50.5638 54.2923 51.1396 54.8558C52.0893 55.7852 53.0335 56.7093 54 56.2719C55.0242 55.8084 56.0234 53.8161 57.0306 51.8078C57.5501 50.7719 58.0717 49.7318 58.6 48.895C60.1525 46.4361 61.6475 45.7335 63.2 46.0848C63.4682 46.1455 63.7347 46.2376 64 46.3612Z" fill="#8B3DFF"/>
<path fill-rule="evenodd" clip-rule="evenodd" d="M32 37.3333C32 34.3878 34.3878 32 37.3333 32H58.6667C61.6122 32 64 34.3878 64 37.3333V38.3612C63.7347 38.2376 63.4682 38.1455 63.2 38.0848C61.6475 37.7335 60.1525 38.4361 58.6 40.895C58.0717 41.7318 57.5501 42.7719 57.0306 43.8078C56.0234 45.8161 55.0242 47.8084 54 48.2719C53.0335 48.7093 52.0893 47.7852 51.1396 46.8558C50.5638 46.2923 49.986 45.7268 49.4 45.4617C47.8475 44.7591 46.3525 46.1642 44.8 48.2719C44.4972 48.6829 44.1966 49.1208 43.8973 49.5566C42.6622 51.3555 41.4497 53.1213 40.2 52.8385C39.2098 52.6144 38.2429 51.1042 37.2697 49.5839C36.717 48.7207 36.1623 47.8542 35.6 47.218C34.1977 45.6316 32.8424 45.4781 32 45.4632V37.3333ZM40.6663 43.9997C42.5072 43.9997 43.9995 42.5074 43.9995 40.6665C43.9995 38.8255 42.5072 37.3332 40.6663 37.3332C38.8254 37.3332 37.333 38.8255 37.333 40.6665C37.333 42.5074 38.8254 43.9997 40.6663 43.9997Z" fill="#8B3DFF"/>
<circle opacity="0.6" cx="40.6663" cy="40.6665" r="3.33326" fill="#8B3DFF"/>
</svg>
