<svg width="96" height="96" viewBox="0 0 96 96" fill="none" xmlns="http://www.w3.org/2000/svg">
<path fill-rule="evenodd" clip-rule="evenodd" d="M57 63.75C57 63.9489 56.921 64.1397 56.7803 64.2803L53.7803 67.2803C53.4874 67.5732 53.0126 67.5732 52.7197 67.2803C52.4268 66.9874 52.4268 66.5126 52.7197 66.2197L54.4393 64.5L40.25 64.5C39.8358 64.5 39.5 64.1642 39.5 63.75C39.5 63.3358 39.8358 63 40.25 63L54.4393 63L52.7197 61.2803C52.4268 60.9874 52.4268 60.5126 52.7197 60.2197C53.0126 59.9268 53.4874 59.9268 53.7803 60.2197L56.7803 63.2197C56.921 63.3603 57 63.5511 57 63.75Z" fill="#8B3DFF"/>
<g opacity="0.3">
<path d="M32 28C29.7909 28 28 29.7909 28 32V48C28 50.2091 29.7909 52 32 52H44C41.7909 52 40 50.2091 40 48V32C40 29.7909 41.7909 28 44 28H32Z" fill="#8B3DFF"/>
<path d="M60 28C62.2091 28 64 29.7909 64 32V48C64 50.2091 62.2091 52 60 52H64C66.2091 52 68 50.2091 68 48V32C68 29.7909 66.2091 28 64 28H60Z" fill="#8B3DFF"/>
</g>
<path d="M40 32C40 29.7909 41.7909 28 44 28H60C62.2091 28 64 29.7909 64 32V48C64 50.2091 62.2091 52 60 52H44C41.7909 52 40 50.2091 40 48V32Z" fill="#8B3DFF"/>
</svg>
