<svg width="96" height="96" viewBox="0 0 96 96" fill="none" xmlns="http://www.w3.org/2000/svg">
<path d="M32 49.669V60C32 62.2091 33.7909 64 36 64H46.331C43.7959 57.4324 38.5676 52.2041 32 49.669Z" fill="#8B3DFF"/>
<path d="M49.669 64H60C62.2091 64 64 62.2091 64 60V49.669C57.4324 52.2041 52.2041 57.4324 49.669 64Z" fill="#8B3DFF"/>
<path d="M64 46.331V36C64 33.7909 62.2091 32 60 32H49.669C52.2041 38.5676 57.4324 43.7959 64 46.331Z" fill="#8B3DFF"/>
<path d="M46.331 32H36C33.7909 32 32 33.7909 32 36V46.331C38.5676 43.7959 43.7959 38.5676 46.331 32Z" fill="#8B3DFF"/>
<circle opacity="0.6" cx="48" cy="48" r="6" fill="#8B3DFF"/>
</svg>
