<svg width="96" height="96" viewBox="0 0 96 96" fill="none" xmlns="http://www.w3.org/2000/svg">
<path opacity="0.6" d="M37.3337 63.9996H58.6665C61.612 63.9996 63.9997 61.6118 63.9997 58.6663V53.3331L55.2189 44.5523C54.1775 43.5109 52.4891 43.5109 51.4477 44.5523L33.5625 62.4375C34.5276 63.4026 35.8609 63.9996 37.3337 63.9996Z" fill="#8B3DFF"/>
<path fill-rule="evenodd" clip-rule="evenodd" d="M32 37.3332C32 34.3878 34.3878 32 37.3332 32H58.6661C61.6115 32 63.9993 34.3878 63.9993 37.3332V53.3329L55.2184 44.552C54.1771 43.5106 52.4887 43.5106 51.4473 44.552L33.5621 62.4372C32.5969 61.4721 32 60.1388 32 58.6661V37.3332ZM40.6665 43.9997C42.5074 43.9997 43.9997 42.5074 43.9997 40.6665C43.9997 38.8256 42.5074 37.3332 40.6665 37.3332C38.8256 37.3332 37.3332 38.8256 37.3332 40.6665C37.3332 42.5074 38.8256 43.9997 40.6665 43.9997Z" fill="#8B3DFF"/>
<circle opacity="0.6" cx="40.6665" cy="40.6665" r="3.33326" fill="#8B3DFF"/>
<g opacity="0.4">
<path d="M32.0102 37C32.0034 37.1102 32 37.2214 32 37.3333V38H64V37.3333C64 37.2214 63.9966 37.1102 63.9898 37H32.0102Z" fill="white"/>
<path d="M32.5362 35H63.4638C63.2896 34.6425 63.0766 34.3073 62.8302 34H33.1698C32.9234 34.3073 32.7104 34.6425 32.5362 35Z" fill="white"/>
<path d="M64 40H32V41H64V40Z" fill="white"/>
<path d="M64 43H32V44H64V43Z" fill="white"/>
<path d="M64 46H32V47H64V46Z" fill="white"/>
<path d="M64 49H32V50H64V49Z" fill="white"/>
<path d="M64 52H32V53H64V52Z" fill="white"/>
<path d="M64 55H32V56H64V55Z" fill="white"/>
<path d="M64 58H32V58.6667C32 58.7786 32.0034 58.8898 32.0102 59H63.9898C63.9966 58.8898 64 58.7786 64 58.6667V58Z" fill="white"/>
<path d="M63.4638 61H32.5362C32.7104 61.3575 32.9234 61.6927 33.1698 62H62.8302C63.0766 61.6927 63.2896 61.3575 63.4638 61Z" fill="white"/>
</g>
<g opacity="0.5" filter="url(#filter0_i_2585_234075)">
<path d="M32 37.3333C32 34.3878 34.3878 32 37.3333 32H58.6667C61.6122 32 64 34.3878 64 37.3333V58.6667C64 61.6122 61.6122 64 58.6667 64H37.3333C34.3878 64 32 61.6122 32 58.6667V37.3333Z" fill="white" fill-opacity="0.01"/>
</g>
<defs>
<filter id="filter0_i_2585_234075" x="32" y="32" width="32" height="32" filterUnits="userSpaceOnUse" color-interpolation-filters="sRGB">
<feFlood flood-opacity="0" result="BackgroundImageFix"/>
<feBlend mode="normal" in="SourceGraphic" in2="BackgroundImageFix" result="shape"/>
<feColorMatrix in="SourceAlpha" type="matrix" values="0 0 0 0 0 0 0 0 0 0 0 0 0 0 0 0 0 0 127 0" result="hardAlpha"/>
<feOffset/>
<feGaussianBlur stdDeviation="2"/>
<feComposite in2="hardAlpha" operator="arithmetic" k2="-1" k3="1"/>
<feColorMatrix type="matrix" values="0 0 0 0 0 0 0 0 0 0 0 0 0 0 0 0 0 0 1 0"/>
<feBlend mode="normal" in2="shape" result="effect1_innerShadow_2585_234075"/>
</filter>
</defs>
</svg>
