<svg width="96" height="96" viewBox="0 0 96 96" fill="none" xmlns="http://www.w3.org/2000/svg">
<path d="M41.2286 55.5654C41.2286 55.5962 41.2273 55.6271 41.2242 55.6579C41.2212 55.6888 41.2166 55.7193 41.2107 55.7498C41.2046 55.7801 41.1972 55.8101 41.1884 55.8398C41.1795 55.8693 41.1692 55.8984 41.1574 55.9271C41.1457 55.9557 41.1325 55.9837 41.1182 56.0109C41.1037 56.0382 41.088 56.0648 41.0709 56.0905C41.0538 56.1163 41.0356 56.1412 41.0162 56.165C40.9966 56.1889 40.976 56.2119 40.9544 56.2337C40.9328 56.2557 40.91 56.2765 40.8863 56.2961C40.8625 56.3157 40.838 56.3341 40.8125 56.3513C40.787 56.3685 40.7607 56.3844 40.7336 56.3991C40.7065 56.4137 40.6788 56.4268 40.6506 56.4388C40.6222 56.4505 40.5933 56.4609 40.5639 56.47C40.5345 56.479 40.5048 56.4865 40.4748 56.4925C40.4447 56.4986 40.4145 56.503 40.3839 56.5061C40.3533 56.5092 40.3228 56.5107 40.292 56.5107C40.2615 56.5107 40.2307 56.5092 40.2003 56.5061C40.1698 56.503 40.1394 56.4986 40.1093 56.4925C40.0792 56.4865 40.0495 56.479 40.0201 56.47C39.9908 56.4609 39.962 56.4505 39.9337 56.4388C39.9053 56.4268 39.8776 56.4137 39.8506 56.3991C39.8236 56.3844 39.7972 56.3685 39.7717 56.3513C39.7462 56.3341 39.7216 56.3157 39.6979 56.2961C39.6741 56.2765 39.6515 56.2557 39.6297 56.2337C39.6081 56.2119 39.5875 56.1889 39.5681 56.165C39.5486 56.1412 39.5304 56.1163 39.5133 56.0905C39.4963 56.0648 39.4806 56.0382 39.466 56.0109C39.4515 55.9837 39.4385 55.9557 39.4267 55.9271C39.415 55.8984 39.4047 55.8693 39.3958 55.8398C39.3868 55.8101 39.3794 55.7801 39.3735 55.7498C39.3674 55.7193 39.363 55.6888 39.36 55.6579C39.357 55.6271 39.3554 55.5962 39.3554 55.5654C39.3554 55.5344 39.357 55.5035 39.36 55.4726C39.363 55.4418 39.3674 55.4113 39.3735 55.3809C39.3794 55.3504 39.3868 55.3204 39.3958 55.2909C39.4047 55.2613 39.415 55.2321 39.4267 55.2035C39.4385 55.1749 39.4515 55.1469 39.466 55.1196C39.4806 55.0924 39.4963 55.0658 39.5133 55.04C39.5304 55.0143 39.5486 54.9894 39.5681 54.9656C39.5875 54.9417 39.6081 54.9187 39.6297 54.8969C39.6515 54.8749 39.6741 54.8542 39.6979 54.8345C39.7216 54.8149 39.7462 54.7965 39.7717 54.7793C39.7972 54.762 39.8236 54.7462 39.8506 54.7315C39.8776 54.717 39.9053 54.7037 39.9337 54.692C39.962 54.68 39.9908 54.6697 40.0201 54.6606C40.0495 54.6516 40.0792 54.6441 40.1093 54.6381C40.1394 54.632 40.1698 54.6276 40.2003 54.6245C40.2307 54.6214 40.2615 54.6199 40.292 54.6199C40.3228 54.6199 40.3533 54.6214 40.3839 54.6245C40.4145 54.6276 40.4447 54.632 40.4748 54.6381C40.5048 54.6441 40.5345 54.6516 40.5639 54.6606C40.5933 54.6697 40.6222 54.68 40.6506 54.692C40.6788 54.7037 40.7065 54.717 40.7336 54.7315C40.7607 54.7462 40.787 54.762 40.8125 54.7793C40.838 54.7965 40.8625 54.8149 40.8863 54.8345C40.91 54.8542 40.9328 54.8749 40.9544 54.8969C40.976 54.9187 40.9966 54.9417 41.0162 54.9656C41.0356 54.9894 41.0538 55.0143 41.0709 55.04C41.088 55.0658 41.1037 55.0924 41.1182 55.1196C41.1325 55.1469 41.1457 55.1749 41.1574 55.2035C41.1692 55.2321 41.1795 55.2613 41.1884 55.2909C41.1972 55.3204 41.2046 55.3504 41.2107 55.3809C41.2166 55.4113 41.2212 55.4418 41.2242 55.4726C41.2273 55.5035 41.2286 55.5344 41.2286 55.5654Z" fill="#8B3DFF"/>
<path fill-rule="evenodd" clip-rule="evenodd" d="M44.526 34.4111C44.5358 34.1065 44.5014 33.8072 44.4231 33.5129C44.4042 33.4408 44.382 33.37 44.3569 33.3C44.3318 33.2297 44.3037 33.1611 44.2726 33.0935C44.2415 33.026 44.2075 32.9598 44.1704 32.8952C44.1337 32.8306 44.094 32.7677 44.0516 32.7066C44.0091 32.6455 43.9643 32.5864 43.9167 32.5291C43.8692 32.4718 43.8192 32.417 43.7668 32.364C43.7143 32.3113 43.6598 32.2608 43.603 32.2127C43.5463 32.1646 43.4874 32.1192 43.4266 32.0762C43.3892 32.0498 43.3512 32.0244 43.3125 32H60C62.2091 32 64 33.7909 64 36V38.9671C63.9768 38.9421 63.9532 38.9174 63.9293 38.893C63.8572 38.8198 63.7822 38.7497 63.7041 38.683C63.6261 38.6162 63.5451 38.5532 63.4615 38.4936C63.3779 38.434 63.2921 38.3781 63.2037 38.326C63.1153 38.2742 63.025 38.2262 62.9325 38.182C62.84 38.1381 62.7456 38.098 62.6497 38.0624C62.5539 38.0267 62.4565 37.9952 62.3577 37.9682C62.2589 37.9409 62.1593 37.9184 62.0586 37.9C61.9579 37.8816 61.8565 37.8677 61.7547 37.8584C61.6529 37.849 61.5508 37.8437 61.4486 37.8434C61.3464 37.843 61.2442 37.8471 61.1421 37.8557C59.1629 38.0312 58.0751 40.0712 57.4052 41.7294C57.3669 41.3867 57.306 41.0481 57.2228 40.7136C57.115 40.2347 56.9434 39.7798 56.7078 39.3497C56.4727 38.9196 56.1825 38.5311 55.8381 38.1839C55.5353 37.8906 55.1968 37.6476 54.8231 37.4549C54.4493 37.2621 54.0558 37.1279 53.6427 37.0521C53.5424 37.0345 53.4417 37.0214 53.3403 37.0127C53.2392 37.0041 53.1378 37 53.036 37C52.9342 37.0004 52.8328 37.0049 52.7313 37.0139C52.6303 37.0229 52.5296 37.0364 52.4293 37.0544C52.329 37.0724 52.2301 37.0945 52.1317 37.1211C52.0336 37.1477 51.9366 37.1785 51.8412 37.2137C51.7453 37.2486 51.6517 37.288 51.5595 37.3311C51.467 37.3746 51.3771 37.4219 51.2891 37.4729C51.2006 37.5242 51.1148 37.579 51.0316 37.6379C50.948 37.6967 50.8674 37.759 50.7893 37.8246C50.7113 37.8906 50.6363 37.9596 50.5642 38.032C50.4917 38.1044 50.423 38.1797 50.3573 38.2581C50.2919 38.3365 50.2294 38.4175 50.1707 38.5015C50.1124 38.5851 50.0574 38.6713 50.0062 38.7602C49.9549 38.8487 49.9073 38.9395 49.8639 39.0325C49.8204 39.1251 49.781 39.2196 49.7457 39.316C49.0673 41.2033 50.4494 43.0651 51.655 44.381C52.112 44.8786 52.6035 45.3391 53.1296 45.7617C52.5233 45.4831 51.8999 45.2499 51.2597 45.0627C49.5778 44.5764 47.301 44.1687 45.9331 45.629C45.864 45.704 45.7986 45.7823 45.7365 45.8633C45.6741 45.9443 45.6158 46.028 45.5608 46.1142C45.5058 46.2005 45.4545 46.289 45.407 46.3793C45.3594 46.4701 45.3159 46.5627 45.2766 46.6572C45.2372 46.7517 45.2019 46.8477 45.1707 46.9452C45.1395 47.0427 45.1123 47.1413 45.0897 47.2411C45.0667 47.3412 45.0484 47.4417 45.0343 47.5433C45.0198 47.6449 45.0102 47.7469 45.005 47.8493C44.9994 47.9517 44.9987 48.0541 45.002 48.1564C45.0053 48.2588 45.0131 48.3608 45.0254 48.4628C45.0373 48.5644 45.054 48.6657 45.0748 48.7658C45.0956 48.8663 45.1205 48.9653 45.1499 49.0635C45.1792 49.1618 45.2127 49.2585 45.2506 49.3538C45.2881 49.4487 45.3297 49.5424 45.3754 49.6339C45.4211 49.7254 45.4705 49.8146 45.524 49.902C45.5771 49.9894 45.634 50.0741 45.6945 50.1563C45.9472 50.4964 46.2429 50.7923 46.5818 51.0443C46.921 51.2962 47.2888 51.4935 47.6852 51.6364C48.1478 51.7931 48.6229 51.882 49.1108 51.903C49.5982 51.9236 50.0793 51.8752 50.5534 51.7579C51.5863 51.4984 52.5545 51.0844 53.4577 50.5155C53.0914 51.0431 52.7652 51.5951 52.4794 52.1711C51.6803 53.7727 50.8674 55.9488 52.0392 57.5729C52.0997 57.655 52.164 57.7341 52.2316 57.8106C52.2992 57.8868 52.3698 57.9603 52.4434 58.0304C52.5173 58.1009 52.5939 58.1676 52.6734 58.2314C52.7529 58.2948 52.835 58.3548 52.9197 58.4114C53.0044 58.4676 53.0914 58.5205 53.1805 58.5692C53.2697 58.618 53.3607 58.663 53.454 58.7039C53.5469 58.7447 53.6416 58.7815 53.7374 58.8141C53.8337 58.8467 53.931 58.8752 54.0298 58.8996C54.1283 58.9236 54.2279 58.9435 54.3282 58.9589C54.4281 58.9746 54.5292 58.9855 54.6302 58.9922C54.7317 58.999 54.8327 59.0012 54.9341 58.9994C55.0356 58.9971 55.137 58.9907 55.2377 58.9795C55.3387 58.9686 55.4387 58.9536 55.5383 58.9337C55.6378 58.9142 55.7367 58.8902 55.834 58.8617C55.9317 58.8336 56.0276 58.801 56.1223 58.7646C56.217 58.7279 56.3103 58.6874 56.4013 58.6424C56.7769 58.4541 57.118 58.2156 57.4245 57.9265C57.731 57.6374 57.99 57.31 58.2014 56.9448C58.4381 56.5132 58.6105 56.0568 58.7182 55.5753C58.8259 55.0942 58.865 54.6074 58.8349 54.1151C58.7765 53.0808 58.5633 52.08 58.1958 51.1129C58.7368 51.8944 59.3777 52.5814 60.1189 53.1727C60.5001 53.4791 60.9158 53.7258 61.3661 53.913C61.8168 54.1001 62.2842 54.2201 62.7683 54.2733C63.1826 54.3098 63.593 54.2853 64 54.2003V60C64 62.2091 62.2091 64 60 64H36C33.7909 64 32 62.2091 32 60V41.5618C32.3215 41.6652 32.6514 41.724 32.9896 41.7385C33.3442 41.7533 33.6941 41.7185 34.0389 41.6339C34.79 41.4469 35.4942 41.1486 36.151 40.7387C35.8846 41.1189 35.6474 41.5166 35.4396 41.9317C34.8584 43.0857 34.2672 44.6537 35.1194 45.824C35.1634 45.8831 35.2102 45.9402 35.2594 45.9953C35.3085 46.0501 35.3599 46.1031 35.4134 46.1536C35.4672 46.2044 35.5228 46.2525 35.5806 46.2984C35.6385 46.3441 35.6982 46.3873 35.7598 46.4281C35.8214 46.4687 35.8846 46.5068 35.9495 46.5419C36.0143 46.577 36.0805 46.6094 36.1483 46.6389C36.2159 46.6684 36.2848 46.6948 36.3545 46.7183C36.4245 46.7418 36.4953 46.7624 36.5672 46.7799C36.6388 46.7972 36.7112 46.8116 36.7841 46.8226C36.8568 46.834 36.9303 46.8418 37.0038 46.8467C37.0776 46.8516 37.1511 46.8532 37.2248 46.8518C37.2986 46.8502 37.3724 46.8456 37.4456 46.8375C37.5191 46.8297 37.5918 46.8189 37.6642 46.8045C37.7366 46.7905 37.8085 46.7732 37.8793 46.7527C37.9503 46.7324 38.02 46.7089 38.089 46.6827C38.1579 46.6562 38.2257 46.627 38.2919 46.5946C38.5651 46.4589 38.8131 46.2871 39.036 46.0788C39.2589 45.8704 39.4473 45.6346 39.601 45.3714C39.7731 45.0604 39.8985 44.7315 39.9769 44.3846C40.0552 44.0379 40.0836 43.6872 40.0617 43.3324C40.0193 42.5872 39.8642 41.866 39.597 41.1691C39.9904 41.7323 40.4565 42.2273 40.9955 42.6534C41.2728 42.8741 41.5751 43.0519 41.9026 43.1868C42.2304 43.3216 42.5703 43.4081 42.9224 43.4464C43.2261 43.4729 43.5268 43.4548 43.8251 43.3924C44.1234 43.33 44.4063 43.2257 44.6738 43.0795C44.7384 43.0441 44.8016 43.0057 44.863 42.9649C44.9243 42.9239 44.984 42.8804 45.0416 42.8342C45.0991 42.7879 45.1548 42.7396 45.208 42.6885C45.2615 42.6377 45.3126 42.5845 45.3615 42.5291C45.4101 42.4737 45.4566 42.4164 45.5004 42.357C45.5442 42.2975 45.5855 42.2365 45.6241 42.1735C45.6625 42.1105 45.6982 42.046 45.7311 41.98C45.7641 41.9141 45.7941 41.8466 45.8214 41.7779C45.8484 41.7093 45.8725 41.6396 45.8935 41.5688C45.9146 41.4983 45.9327 41.4267 45.9476 41.3542C45.9624 41.2821 45.9741 41.2091 45.9827 41.1359C45.9914 41.0627 45.9965 40.9889 45.9989 40.9152C46.0011 40.8414 46 40.7676 45.9957 40.6941C45.9916 40.6204 45.9841 40.5469 45.9735 40.4739C45.963 40.401 45.9492 40.3285 45.9324 40.2567C45.9157 40.1848 45.8957 40.1137 45.8727 40.0435C45.4077 38.6733 43.7849 38.2534 42.5084 38.0618C42.1542 38.0096 41.798 37.9772 41.44 37.9637C42.0545 37.7194 42.6222 37.393 43.1426 36.985C43.4217 36.7678 43.6654 36.516 43.8735 36.2295C44.0813 35.9434 44.2456 35.6337 44.3661 35.3008C44.4628 35.0123 44.5163 34.7156 44.526 34.4111ZM44.0144 52.5852C44.0634 52.7708 44.0849 52.9597 44.0788 53.1518C44.0727 53.3439 44.0393 53.531 43.9788 53.7131C43.9035 53.9231 43.8008 54.1184 43.6709 54.2989C43.5409 54.4796 43.3886 54.6385 43.2141 54.7755C42.8889 55.0329 42.534 55.2388 42.15 55.3929C42.3738 55.4014 42.5964 55.4219 42.8178 55.4548C43.6155 55.5756 44.6298 55.8405 44.9205 56.7048C44.9348 56.7492 44.9473 56.794 44.9578 56.8393C44.9683 56.8847 44.9769 56.9304 44.9835 56.9764C44.99 57.0224 44.9948 57.0688 44.9973 57.1153C45 57.1617 45.0007 57.2082 44.9993 57.2547C44.9978 57.3013 44.9946 57.3478 44.9892 57.394C44.9838 57.4402 44.9765 57.4862 44.9672 57.5317C44.9579 57.5774 44.9466 57.6226 44.9335 57.667C44.9203 57.7117 44.9053 57.7557 44.8884 57.799C44.8713 57.8423 44.8526 57.8849 44.832 57.9265C44.8114 57.9681 44.7891 58.0088 44.7651 58.0485C44.7409 58.0882 44.7151 58.1268 44.6877 58.1642C44.6604 58.2017 44.6313 58.2379 44.6009 58.2728C44.5704 58.3078 44.5385 58.3413 44.505 58.3734C44.4718 58.4056 44.437 58.4361 44.401 58.4653C44.365 58.4944 44.3277 58.5219 44.2894 58.5478C44.251 58.5735 44.2115 58.5977 44.1711 58.62C44.004 58.7123 43.8271 58.778 43.6407 58.8174C43.4543 58.8568 43.2663 58.8682 43.0765 58.8515C42.8564 58.8273 42.644 58.7728 42.4391 58.6877C42.2345 58.6027 42.0455 58.4905 41.8722 58.3512C41.5353 58.0824 41.244 57.7702 40.9981 57.4149C41.1651 57.8545 41.2621 58.3095 41.2886 58.7796C41.3023 59.0034 41.2845 59.2246 41.2355 59.4433C41.1866 59.6622 41.1082 59.8696 41.0006 60.0658C40.9045 60.2318 40.7868 60.3806 40.6475 60.5121C40.5082 60.6435 40.3532 60.7519 40.1824 60.8374C40.141 60.8579 40.0987 60.8763 40.0556 60.893C40.0125 60.9095 39.969 60.9244 39.9245 60.9372C39.8803 60.9501 39.8354 60.961 39.7901 60.9699C39.7449 60.9789 39.6994 60.9857 39.6535 60.9907C39.6077 60.9958 39.5616 60.9987 39.5155 60.9997C39.4694 61.0006 39.4235 60.9995 39.3774 60.9965C39.3314 60.9934 39.2855 60.9885 39.2401 60.9813C39.1945 60.9743 39.1492 60.9653 39.1045 60.9544C39.0596 60.9433 39.0153 60.9303 38.9716 60.9155C38.928 60.9007 38.8849 60.884 38.8427 60.8654C38.8003 60.8468 38.7589 60.8264 38.7184 60.8042C38.6779 60.782 38.6384 60.758 38.5999 60.7324C38.5614 60.7067 38.524 60.6794 38.4879 60.6506C38.4518 60.6216 38.417 60.5913 38.3834 60.5593C38.3499 60.5274 38.3178 60.494 38.2871 60.4594C38.2564 60.4246 38.2272 60.3886 38.1996 60.3513C37.667 59.6131 38.0365 58.624 38.3997 57.896C38.5296 57.6341 38.6779 57.3832 38.8444 57.1434C38.4339 57.402 37.9938 57.5902 37.5243 57.7081C37.3088 57.7615 37.0901 57.7835 36.8685 57.7741C36.6468 57.7645 36.4308 57.7241 36.2205 57.6529C36.0404 57.588 35.8732 57.4983 35.719 57.3838C35.565 57.2692 35.4305 57.1347 35.3157 56.9801C35.2882 56.9428 35.2623 56.9043 35.2382 56.8646C35.2139 56.8248 35.1914 56.7843 35.1706 56.7427C35.1499 56.7011 35.1309 56.6585 35.1139 56.6154C35.0967 56.5721 35.0815 56.5281 35.0681 56.4834C35.0548 56.4388 35.0435 56.3938 35.034 56.3481C35.0246 56.3026 35.017 56.2566 35.0115 56.2104C35.006 56.164 35.0024 56.1176 35.0009 56.0711C34.9994 56.0246 34.9997 55.978 35.0023 55.9315C35.0046 55.885 35.009 55.8386 35.0156 55.7924C35.022 55.7462 35.0303 55.7005 35.0408 55.655C35.0511 55.6097 35.0634 55.5649 35.0776 55.5205C35.0918 55.4762 35.1078 55.4326 35.1257 55.3896C35.1436 55.3467 35.1634 55.3046 35.185 55.2633C35.2066 55.2223 35.2299 55.182 35.2549 55.1428C35.2799 55.1036 35.3064 55.0656 35.3348 55.0288C35.363 54.992 35.3927 54.9564 35.4241 54.9223C36.0459 54.2585 37.0808 54.4438 37.8453 54.6649C38.1363 54.7499 38.4197 54.856 38.6953 54.9826C38.4562 54.7905 38.2327 54.5812 38.025 54.355C37.477 53.7569 36.8488 52.9106 37.1571 52.0527C37.1732 52.0089 37.1911 51.9659 37.2108 51.9238C37.2306 51.8816 37.2522 51.8403 37.2755 51.8001C37.2988 51.7597 37.3238 51.7205 37.3503 51.6825C37.377 51.6443 37.4054 51.6075 37.4351 51.5719C37.465 51.5362 37.4963 51.502 37.5292 51.4691C37.5619 51.4362 37.5961 51.4048 37.6315 51.3748C37.667 51.345 37.7036 51.3167 37.7416 51.2899C37.7795 51.2632 37.8185 51.2383 37.8587 51.2149C37.8987 51.1918 37.9396 51.1703 37.9816 51.1505C38.0235 51.1309 38.066 51.113 38.1096 51.0972C38.153 51.0811 38.1971 51.0672 38.2417 51.0551C38.2864 51.043 38.3314 51.0329 38.3769 51.0247C38.4225 51.0165 38.4683 51.0104 38.5142 51.0063C38.5603 51.0022 38.6065 51.0002 38.6527 51C38.699 51 38.7451 51.0019 38.791 51.0058C38.8371 51.0097 38.8829 51.0157 38.9285 51.0237C39.1163 51.0581 39.2951 51.1191 39.465 51.2068C39.6349 51.2944 39.7888 51.4048 39.9264 51.5381C40.083 51.696 40.2148 51.8725 40.3217 52.0681C40.4288 52.2636 40.5068 52.4703 40.5558 52.688C40.5936 52.84 40.6213 52.9939 40.6387 53.1497C40.9432 52.396 41.4377 51.4687 42.3373 51.389C42.3837 51.385 42.4302 51.3832 42.4766 51.3833C42.5231 51.3835 42.5695 51.3859 42.6158 51.3902C42.6621 51.3944 42.7082 51.4007 42.7539 51.4091C42.7997 51.4174 42.8449 51.4277 42.8899 51.4401C42.9348 51.4524 42.979 51.4667 43.0226 51.4829C43.0662 51.4991 43.1091 51.5173 43.1511 51.5373C43.1932 51.5574 43.2342 51.5792 43.2744 51.6027C43.3146 51.6264 43.3536 51.6518 43.3916 51.6789C43.4296 51.706 43.4664 51.7346 43.5019 51.765C43.5373 51.7953 43.5715 51.8272 43.6042 51.8604C43.637 51.8938 43.6682 51.9284 43.698 51.9646C43.7277 52.0007 43.7557 52.038 43.7822 52.0766C43.8087 52.1151 43.8336 52.1548 43.8565 52.1955C43.8797 52.2363 43.9009 52.278 43.9204 52.3207C43.9398 52.3633 43.9573 52.4066 43.9731 52.4509C43.9888 52.495 44.0026 52.5397 44.0144 52.5852Z" fill="#8B3DFF"/>
<path d="M39.022 34.4078C39.3734 33.5458 39.8831 32.5406 40.6803 32H38.0218C38.2121 32.2115 38.3765 32.4425 38.5148 32.6931C38.6861 33.003 38.8109 33.3308 38.8893 33.6758C38.9498 33.9169 38.9941 34.1609 39.022 34.4078Z" fill="#8B3DFF"/>
<path d="M33.3611 32.9939C33.1177 34.2404 34.0332 35.446 34.84 36.3184C35.1724 36.677 35.5298 37.0088 35.9125 37.3133C35.4715 37.1126 35.0181 36.9445 34.5525 36.8097C33.7822 36.589 32.8403 36.3908 32 36.537V36C32 34.802 32.5267 33.727 33.3611 32.9939Z" fill="#8B3DFF"/>
<path d="M64 44.3606C63.7311 44.7158 63.4213 45.0309 63.0711 45.3061C62.3555 45.8723 61.5749 46.3253 60.73 46.6643C61.2223 46.6831 61.712 46.7281 62.1991 46.8005C62.7726 46.8873 63.3969 47.008 64 47.1975V44.3606Z" fill="#8B3DFF"/>
<path opacity="0.6" d="M39.9588 38.3838C39.9637 38.3349 39.9659 38.286 39.9659 38.2371C39.9659 38.1879 39.9637 38.139 39.9588 38.0901C39.954 38.0412 39.9467 37.9928 39.9372 37.9447C39.9275 37.8964 39.9156 37.8488 39.9016 37.8021C39.8872 37.7551 39.8707 37.7089 39.8518 37.6635C39.8332 37.6181 39.8121 37.5738 39.7891 37.5305C39.7659 37.4873 39.7408 37.4451 39.7135 37.4043C39.6862 37.3635 39.657 37.3241 39.6259 37.2863C39.5946 37.2484 39.5616 37.2119 39.527 37.1774C39.4925 37.1425 39.456 37.1098 39.4182 37.0785C39.3801 37.0474 39.3409 37.0182 39.3001 36.9909C39.2593 36.9636 39.2171 36.9385 39.1739 36.9153C39.1304 36.8923 39.0861 36.8712 39.0409 36.8526C38.9956 36.8337 38.9493 36.8172 38.9023 36.8029C38.8553 36.7885 38.8078 36.7767 38.7597 36.7672C38.7116 36.7575 38.6632 36.7504 38.6143 36.7456C38.5654 36.7407 38.5165 36.7383 38.4673 36.7383C38.4184 36.7383 38.3692 36.7407 38.3206 36.7456C38.2717 36.7504 38.223 36.7575 38.1749 36.7672C38.1268 36.7767 38.0793 36.7885 38.0323 36.8029C37.9853 36.8172 37.9393 36.8337 37.8939 36.8526C37.8485 36.8712 37.8042 36.8923 37.761 36.9153C37.7178 36.9385 37.6756 36.9636 37.6348 36.9909C37.594 37.0182 37.5546 37.0474 37.5167 37.0785C37.4786 37.1098 37.4424 37.1425 37.4076 37.1774C37.373 37.2119 37.34 37.2484 37.3089 37.2863C37.2779 37.3241 37.2487 37.3635 37.2214 37.4043C37.1941 37.4451 37.169 37.4873 37.1457 37.5305C37.1225 37.5738 37.1017 37.6181 37.0828 37.6635C37.0641 37.7089 37.0476 37.7551 37.0333 37.8021C37.019 37.8488 37.0071 37.8964 36.9977 37.9447C36.9879 37.9928 36.9809 38.0412 36.976 38.0901C36.9712 38.139 36.9688 38.1879 36.9688 38.2371C36.9688 38.286 36.9712 38.3349 36.976 38.3838C36.9809 38.4327 36.9879 38.4811 36.9977 38.5295C37.0071 38.5776 37.019 38.6251 37.0333 38.6721C37.0476 38.7189 37.0641 38.7651 37.0828 38.8105C37.1017 38.8559 37.1225 38.9002 37.1457 38.9434C37.169 38.9867 37.1941 39.0288 37.2214 39.0696C37.2487 39.1104 37.2779 39.1499 37.3089 39.1877C37.34 39.2255 37.373 39.262 37.4076 39.2966C37.4424 39.3314 37.4786 39.3644 37.5167 39.3955C37.5546 39.4265 37.594 39.4557 37.6348 39.483C37.6756 39.5103 37.7178 39.5354 37.761 39.5587C37.8042 39.5819 37.8485 39.6027 37.8939 39.6216C37.9393 39.6403 37.9853 39.6568 38.0323 39.6711C38.0793 39.6854 38.1268 39.6973 38.1749 39.7067C38.223 39.7165 38.2717 39.7235 38.3206 39.7284C38.3692 39.7332 38.4184 39.7357 38.4673 39.7357C38.5165 39.7357 38.5654 39.7332 38.6143 39.7284C38.6632 39.7235 38.7116 39.7165 38.7597 39.7067C38.8078 39.6973 38.8553 39.6854 38.9023 39.6711C38.9493 39.6568 38.9956 39.6403 39.0409 39.6216C39.0861 39.6027 39.1304 39.5819 39.1739 39.5587C39.2171 39.5354 39.2593 39.5103 39.3001 39.483C39.3409 39.4557 39.3801 39.4265 39.4182 39.3955C39.456 39.3644 39.4925 39.3314 39.527 39.2966C39.5616 39.262 39.5946 39.2255 39.6259 39.1877C39.657 39.1499 39.6862 39.1104 39.7135 39.0696C39.7408 39.0288 39.7659 38.9867 39.7891 38.9434C39.8121 38.9002 39.8332 38.8559 39.8518 38.8105C39.8707 38.7651 39.8872 38.7189 39.9016 38.6721C39.9156 38.6251 39.9275 38.5776 39.9372 38.5295C39.9467 38.4811 39.954 38.4327 39.9588 38.3838Z" fill="#8B3DFF"/>
<path opacity="0.6" d="M58.7031 47.044C58.7031 47.1118 58.7001 47.1797 58.6934 47.2476C58.6867 47.3155 58.6767 47.3826 58.6637 47.4497C58.6503 47.5164 58.6339 47.5824 58.6146 47.6477C58.5949 47.7126 58.5723 47.7767 58.5463 47.8397C58.5206 47.9027 58.4917 47.9642 58.4601 48.0242C58.4281 48.0842 58.3936 48.1427 58.356 48.1993C58.3185 48.2559 58.2784 48.3107 58.2357 48.3632C58.1926 48.4157 58.1472 48.4663 58.0997 48.5143C58.0521 48.5627 58.002 48.6084 57.95 48.6516C57.8976 48.6947 57.8437 48.7352 57.7876 48.7731C57.7315 48.8109 57.6735 48.8458 57.6141 48.878C57.5543 48.9103 57.4933 48.9392 57.4313 48.9654C57.3689 48.9913 57.3054 49.0142 57.2407 49.034C57.1761 49.0539 57.1107 49.0704 57.0445 49.0835C56.9784 49.097 56.9119 49.1068 56.8447 49.1135C56.7774 49.1203 56.7102 49.1237 56.6425 49.1237C56.5753 49.1237 56.5077 49.1203 56.4408 49.1135C56.3736 49.1068 56.3067 49.097 56.2405 49.0835C56.1744 49.0704 56.109 49.0539 56.0444 49.034C55.9797 49.0142 55.9166 48.9913 55.8542 48.9654C55.7917 48.9392 55.7308 48.9103 55.6714 48.878C55.6119 48.8458 55.554 48.8109 55.4979 48.7731C55.4418 48.7352 55.3875 48.6947 55.3355 48.6516C55.2831 48.6084 55.2333 48.5627 55.1854 48.5143C55.1378 48.4663 55.0925 48.4157 55.0498 48.3632C55.0071 48.3107 54.9669 48.2559 54.9294 48.1993C54.8919 48.1427 54.8573 48.0842 54.8254 48.0242C54.7934 47.9642 54.7648 47.9027 54.7388 47.8397C54.7132 47.7767 54.6905 47.7126 54.6708 47.6477C54.6511 47.5824 54.6348 47.5164 54.6218 47.4497C54.6084 47.3826 54.5987 47.3155 54.5921 47.2476C54.5854 47.1797 54.582 47.1118 54.582 47.044C54.582 46.9757 54.5854 46.9078 54.5921 46.84C54.5987 46.7721 54.6084 46.705 54.6218 46.6382C54.6348 46.5711 54.6511 46.5051 54.6708 46.4402C54.6905 46.375 54.7132 46.3108 54.7388 46.2478C54.7648 46.1848 54.7934 46.1233 54.8254 46.0633C54.8573 46.0033 54.8919 45.9448 54.9294 45.8882C54.9669 45.8316 55.0071 45.7769 55.0498 45.7244C55.0925 45.6719 55.1378 45.6212 55.1854 45.5732C55.2333 45.5249 55.2831 45.4795 55.3355 45.436C55.3875 45.3929 55.4418 45.3524 55.4979 45.3145C55.554 45.2766 55.6119 45.2417 55.6714 45.2095C55.7308 45.1776 55.7917 45.1484 55.8542 45.1225C55.9166 45.0962 55.9797 45.0734 56.0444 45.0535C56.109 45.0336 56.1744 45.0171 56.2405 45.004C56.3067 44.9905 56.3736 44.9807 56.4408 44.974C56.5077 44.9672 56.5753 44.9639 56.6425 44.9639C56.7102 44.9639 56.7774 44.9672 56.8447 44.974C56.9119 44.9807 56.9784 44.9905 57.0445 45.004C57.1107 45.0171 57.1761 45.0336 57.2407 45.0535C57.3054 45.0734 57.3689 45.0962 57.4313 45.1225C57.4933 45.1484 57.5543 45.1776 57.6141 45.2095C57.6735 45.2417 57.7315 45.2766 57.7876 45.3145C57.8437 45.3524 57.8976 45.3929 57.95 45.436C58.002 45.4795 58.0521 45.5249 58.0997 45.5732C58.1472 45.6212 58.1926 45.6719 58.2357 45.7244C58.2784 45.7769 58.3185 45.8316 58.356 45.8882C58.3936 45.9448 58.4281 46.0033 58.4601 46.0633C58.4917 46.1233 58.5206 46.1848 58.5463 46.2478C58.5723 46.3108 58.5949 46.375 58.6146 46.4402C58.6339 46.5051 58.6503 46.5711 58.6637 46.6382C58.6767 46.705 58.6867 46.7721 58.6934 46.84C58.7001 46.9078 58.7031 46.9757 58.7031 47.044Z" fill="#8B3DFF"/>
<path opacity="0.6" fill-rule="evenodd" clip-rule="evenodd" d="M44.0788 53.1518C44.0849 52.9597 44.0634 52.7708 44.0144 52.5852C44.0026 52.5397 43.9888 52.495 43.9731 52.4509C43.9573 52.4066 43.9398 52.3633 43.9204 52.3207C43.9009 52.278 43.8797 52.2363 43.8565 52.1955C43.8336 52.1548 43.8087 52.1151 43.7822 52.0766C43.7557 52.038 43.7277 52.0007 43.698 51.9646C43.6682 51.9284 43.637 51.8938 43.6042 51.8604C43.5715 51.8272 43.5373 51.7953 43.5019 51.765C43.4664 51.7346 43.4296 51.706 43.3916 51.6789C43.3536 51.6518 43.3146 51.6264 43.2744 51.6027C43.2342 51.5792 43.1932 51.5574 43.1511 51.5373C43.1091 51.5173 43.0662 51.4991 43.0226 51.4829C42.979 51.4667 42.9348 51.4524 42.8899 51.4401C42.845 51.4277 42.7997 51.4174 42.7539 51.4091C42.7082 51.4007 42.6621 51.3944 42.6158 51.3902C42.5695 51.3859 42.5231 51.3835 42.4766 51.3833C42.4302 51.3832 42.3837 51.3851 42.3373 51.389C41.4377 51.4687 40.9432 52.396 40.6387 53.1497C40.6213 52.9939 40.5936 52.84 40.5558 52.688C40.5068 52.4703 40.4288 52.2636 40.3217 52.068C40.2148 51.8725 40.083 51.696 39.9264 51.5381C39.7888 51.4048 39.6349 51.2944 39.465 51.2068C39.2951 51.1191 39.1163 51.0581 38.9285 51.0237C38.8829 51.0157 38.8371 51.0097 38.791 51.0058C38.7451 51.0019 38.699 51 38.6527 51C38.6065 51.0002 38.5603 51.0022 38.5142 51.0063C38.4683 51.0104 38.4225 51.0165 38.3769 51.0247C38.3314 51.0329 38.2864 51.043 38.2417 51.0551C38.1971 51.0672 38.153 51.0811 38.1096 51.0972C38.066 51.113 38.0235 51.1309 37.9816 51.1505C37.9396 51.1703 37.8987 51.1918 37.8587 51.2149C37.8185 51.2383 37.7795 51.2632 37.7416 51.2899C37.7036 51.3167 37.667 51.345 37.6315 51.3748C37.5961 51.4048 37.5619 51.4362 37.5292 51.4691C37.4963 51.502 37.465 51.5362 37.4351 51.5719C37.4054 51.6075 37.377 51.6443 37.3503 51.6825C37.3238 51.7205 37.2988 51.7597 37.2755 51.8001C37.2522 51.8403 37.2306 51.8816 37.2108 51.9238C37.1911 51.9659 37.1732 52.0089 37.1571 52.0527C36.8488 52.9106 37.477 53.7569 38.025 54.355C38.2327 54.5812 38.4562 54.7905 38.6953 54.9826C38.4197 54.856 38.1363 54.7499 37.8453 54.6649C37.0808 54.4438 36.0459 54.2585 35.4241 54.9223C35.3927 54.9564 35.363 54.992 35.3348 55.0288C35.3064 55.0656 35.2799 55.1036 35.2549 55.1428C35.2299 55.182 35.2066 55.2223 35.185 55.2633C35.1634 55.3046 35.1436 55.3467 35.1257 55.3896C35.1078 55.4326 35.0918 55.4762 35.0776 55.5205C35.0634 55.5649 35.0511 55.6097 35.0408 55.655C35.0303 55.7005 35.022 55.7462 35.0156 55.7924C35.009 55.8386 35.0046 55.885 35.0023 55.9315C34.9997 55.978 34.9994 56.0246 35.0009 56.0711C35.0024 56.1176 35.006 56.164 35.0116 56.2104C35.017 56.2566 35.0246 56.3026 35.034 56.3481C35.0435 56.3938 35.0548 56.4388 35.0681 56.4834C35.0815 56.5281 35.0967 56.5721 35.1139 56.6154C35.1309 56.6585 35.1499 56.7011 35.1706 56.7427C35.1914 56.7843 35.2139 56.8248 35.2382 56.8646C35.2623 56.9043 35.2882 56.9428 35.3157 56.9801C35.4305 57.1347 35.565 57.2692 35.719 57.3838C35.8732 57.4983 36.0404 57.588 36.2205 57.6529C36.4308 57.7241 36.6468 57.7645 36.8685 57.7741C37.0901 57.7835 37.3088 57.7615 37.5243 57.7081C37.9938 57.5902 38.4339 57.402 38.8444 57.1434C38.6779 57.3832 38.5296 57.6341 38.3997 57.896C38.0365 58.624 37.667 59.6131 38.1996 60.3513C38.2272 60.3886 38.2564 60.4246 38.2871 60.4594C38.3178 60.494 38.3499 60.5274 38.3834 60.5593C38.417 60.5913 38.4518 60.6216 38.4879 60.6506C38.524 60.6794 38.5614 60.7067 38.5999 60.7324C38.6384 60.758 38.6779 60.782 38.7184 60.8042C38.7589 60.8264 38.8003 60.8468 38.8427 60.8654C38.8849 60.884 38.928 60.9007 38.9716 60.9155C39.0153 60.9303 39.0596 60.9433 39.1045 60.9544C39.1492 60.9653 39.1945 60.9743 39.2401 60.9813C39.2855 60.9885 39.3314 60.9934 39.3774 60.9965C39.4235 60.9995 39.4694 61.0006 39.5155 60.9997C39.5616 60.9987 39.6077 60.9958 39.6535 60.9907C39.6994 60.9857 39.7449 60.9789 39.7901 60.9699C39.8354 60.961 39.8803 60.9501 39.9245 60.9372C39.969 60.9244 40.0125 60.9095 40.0556 60.893C40.0987 60.8763 40.141 60.8579 40.1824 60.8374C40.3532 60.7519 40.5082 60.6435 40.6475 60.512C40.7868 60.3806 40.9045 60.2318 41.0006 60.0658C41.1082 59.8696 41.1866 59.6622 41.2355 59.4433C41.2845 59.2246 41.3023 59.0034 41.2886 58.7796C41.2621 58.3095 41.1651 57.8545 40.9981 57.4149C41.244 57.7702 41.5353 58.0824 41.8722 58.3512C42.0455 58.4905 42.2345 58.6027 42.4391 58.6877C42.644 58.7728 42.8564 58.8273 43.0765 58.8515C43.2663 58.8682 43.4543 58.8568 43.6407 58.8174C43.8271 58.778 44.004 58.7123 44.1711 58.62C44.2115 58.5977 44.251 58.5735 44.2894 58.5478C44.3277 58.5219 44.365 58.4944 44.401 58.4653C44.437 58.4361 44.4718 58.4056 44.505 58.3734C44.5385 58.3413 44.5704 58.3078 44.6009 58.2728C44.6313 58.2379 44.6604 58.2017 44.6877 58.1642C44.7151 58.1268 44.7409 58.0882 44.7651 58.0485C44.7891 58.0088 44.8114 57.9681 44.832 57.9265C44.8526 57.8849 44.8713 57.8423 44.8884 57.799C44.9053 57.7557 44.9203 57.7117 44.9335 57.667C44.9466 57.6226 44.9579 57.5774 44.9672 57.5317C44.9765 57.4862 44.9838 57.4402 44.9892 57.394C44.9946 57.3478 44.9978 57.3013 44.9993 57.2547C45.0007 57.2082 45 57.1617 44.9973 57.1153C44.9948 57.0688 44.99 57.0224 44.9835 56.9764C44.9769 56.9304 44.9683 56.8847 44.9578 56.8393C44.9473 56.794 44.9348 56.7492 44.9205 56.7048C44.6298 55.8405 43.6155 55.5756 42.8178 55.4548C42.5964 55.4219 42.3738 55.4014 42.15 55.3929C42.534 55.2388 42.8889 55.0329 43.2141 54.7755C43.3886 54.6385 43.5409 54.4796 43.6709 54.2989C43.8008 54.1184 43.9035 53.9231 43.9788 53.7131C44.0393 53.531 44.0727 53.3439 44.0788 53.1518ZM41.2242 55.6579C41.2273 55.6271 41.2286 55.5962 41.2286 55.5654C41.2286 55.5344 41.2273 55.5035 41.2242 55.4726C41.2212 55.4418 41.2166 55.4113 41.2107 55.3809C41.2046 55.3504 41.1972 55.3204 41.1884 55.2909C41.1795 55.2613 41.1692 55.2321 41.1574 55.2035C41.1457 55.1749 41.1325 55.1469 41.1182 55.1196C41.1037 55.0924 41.088 55.0658 41.0709 55.04C41.0538 55.0143 41.0356 54.9894 41.0162 54.9656C40.9966 54.9417 40.976 54.9187 40.9544 54.8969C40.9328 54.8749 40.91 54.8543 40.8863 54.8345C40.8625 54.8149 40.838 54.7965 40.8125 54.7793C40.787 54.762 40.7607 54.7462 40.7336 54.7315C40.7065 54.717 40.6788 54.7037 40.6506 54.692C40.6222 54.68 40.5933 54.6697 40.5639 54.6606C40.5345 54.6516 40.5048 54.6441 40.4748 54.6381C40.4447 54.632 40.4145 54.6276 40.3839 54.6245C40.3533 54.6214 40.3228 54.6199 40.292 54.6199C40.2615 54.6199 40.2307 54.6214 40.2003 54.6245C40.1698 54.6276 40.1394 54.632 40.1093 54.6381C40.0792 54.6441 40.0495 54.6516 40.0201 54.6606C39.9908 54.6697 39.962 54.68 39.9337 54.692C39.9053 54.7037 39.8776 54.717 39.8506 54.7315C39.8236 54.7462 39.7972 54.762 39.7717 54.7793C39.7462 54.7965 39.7216 54.8149 39.6979 54.8345C39.6741 54.8543 39.6515 54.8749 39.6297 54.8969C39.6081 54.9187 39.5875 54.9417 39.5681 54.9656C39.5486 54.9894 39.5304 55.0143 39.5133 55.04C39.4963 55.0658 39.4806 55.0924 39.466 55.1196C39.4515 55.1469 39.4385 55.1749 39.4267 55.2035C39.415 55.2321 39.4047 55.2613 39.3958 55.2909C39.3868 55.3204 39.3794 55.3504 39.3735 55.3809C39.3674 55.4113 39.363 55.4418 39.36 55.4726C39.357 55.5035 39.3554 55.5344 39.3554 55.5654C39.3554 55.5962 39.357 55.6271 39.36 55.6579C39.363 55.6888 39.3674 55.7193 39.3735 55.7498C39.3794 55.7801 39.3868 55.8101 39.3958 55.8398C39.4047 55.8693 39.415 55.8984 39.4267 55.9271C39.4385 55.9557 39.4515 55.9837 39.466 56.0109C39.4806 56.0382 39.4963 56.0648 39.5133 56.0905C39.5304 56.1163 39.5486 56.1412 39.5681 56.165C39.5875 56.1889 39.6081 56.2119 39.6297 56.2337C39.6515 56.2557 39.6741 56.2765 39.6979 56.2961C39.7216 56.3157 39.7462 56.3341 39.7717 56.3513C39.7972 56.3685 39.8236 56.3844 39.8506 56.3991C39.8776 56.4137 39.9053 56.4268 39.9337 56.4388C39.962 56.4505 39.9908 56.4609 40.0201 56.47C40.0495 56.479 40.0792 56.4865 40.1093 56.4925C40.1394 56.4986 40.1698 56.503 40.2003 56.5061C40.2307 56.5092 40.2615 56.5107 40.292 56.5107C40.3228 56.5107 40.3533 56.5092 40.3839 56.5061C40.4145 56.503 40.4447 56.4986 40.4748 56.4925C40.5048 56.4865 40.5345 56.479 40.5639 56.47C40.5933 56.4609 40.6222 56.4505 40.6506 56.4388C40.6788 56.4268 40.7065 56.4137 40.7336 56.3991C40.7607 56.3844 40.787 56.3685 40.8125 56.3513C40.838 56.3341 40.8625 56.3157 40.8863 56.2961C40.91 56.2765 40.9328 56.2557 40.9544 56.2337C40.976 56.2119 40.9966 56.1889 41.0162 56.165C41.0356 56.1412 41.0538 56.1163 41.0709 56.0905C41.088 56.0648 41.1037 56.0382 41.1182 56.0109C41.1325 55.9837 41.1457 55.9557 41.1574 55.9271C41.1692 55.8984 41.1795 55.8693 41.1884 55.8398C41.1972 55.8101 41.2046 55.7801 41.2107 55.7498C41.2166 55.7193 41.2212 55.6888 41.2242 55.6579Z" fill="#8B3DFF"/>
</svg>
