<svg width="96" height="96" viewBox="0 0 96 96" fill="none" xmlns="http://www.w3.org/2000/svg">
<path opacity="0.3" fill-rule="evenodd" clip-rule="evenodd" d="M72.2197 42.0483C72.5126 41.7554 72.9874 41.7554 73.2803 42.0483C76.6974 45.4654 76.6974 51.0056 73.2803 54.4227C72.9874 54.7155 72.5126 54.7155 72.2197 54.4227C71.9268 54.1298 71.9268 53.6549 72.2197 53.362C75.051 50.5307 75.051 45.9402 72.2197 43.1089C71.9268 42.8161 71.9268 42.3412 72.2197 42.0483Z" fill="#8B3DFF"/>
<path opacity="0.5" fill-rule="evenodd" clip-rule="evenodd" d="M75.0478 39.2197C75.3407 38.9268 75.8156 38.9268 76.1085 39.2197C81.0876 44.1989 81.0876 52.2717 76.1085 57.2509C75.8156 57.5438 75.3407 57.5438 75.0478 57.2509C74.7549 56.958 74.7549 56.4831 75.0478 56.1902C79.4412 51.7968 79.4412 44.6737 75.0478 40.2803C74.7549 39.9874 74.7549 39.5126 75.0478 39.2197Z" fill="#8B3DFF"/>
<path opacity="0.3" fill-rule="evenodd" clip-rule="evenodd" d="M23.6232 54.4223C23.3303 54.7152 22.8554 54.7152 22.5625 54.4223C19.1454 51.0052 19.1454 45.465 22.5625 42.0479C22.8554 41.755 23.3303 41.755 23.6232 42.0479C23.9161 42.3408 23.9161 42.8157 23.6232 43.1086C20.7919 45.9399 20.7919 50.5303 23.6232 53.3616C23.9161 53.6545 23.9161 54.1294 23.6232 54.4223Z" fill="#8B3DFF"/>
<path opacity="0.5" fill-rule="evenodd" clip-rule="evenodd" d="M20.795 57.2509C20.5021 57.5438 20.0273 57.5438 19.7344 57.2509C14.7552 52.2717 14.7552 44.1989 19.7344 39.2197C20.0273 38.9268 20.5021 38.9268 20.795 39.2197C21.0879 39.5126 21.0879 39.9875 20.795 40.2803C16.4016 44.6737 16.4016 51.7969 20.795 56.1903C21.0879 56.4831 21.0879 56.958 20.795 57.2509Z" fill="#8B3DFF"/>
<path fill-rule="evenodd" clip-rule="evenodd" d="M36 32C33.7909 32 32 33.7909 32 36V60C32 62.2091 33.7909 64 36 64H60C62.2091 64 64 62.2091 64 60V36C64 33.7909 62.2091 32 60 32H36ZM39 36C37.3431 36 36 37.3431 36 39V57C36 58.6569 37.3431 60 39 60H57C58.6569 60 60 58.6569 60 57V39C60 37.3431 58.6569 36 57 36H39Z" fill="#8B3DFF"/>
<path opacity="0.7" fill-rule="evenodd" clip-rule="evenodd" d="M39 36C37.3431 36 36 37.3431 36 39V57C36 58.6569 37.3431 60 39 60H57C58.6569 60 60 58.6569 60 57V39C60 37.3431 58.6569 36 57 36H39ZM42 40C40.8954 40 40 40.8954 40 42V54C40 55.1046 40.8954 56 42 56H54C55.1046 56 56 55.1046 56 54V42C56 40.8954 55.1046 40 54 40H42Z" fill="#8B3DFF"/>
<path opacity="0.3" d="M44 45C44 44.4477 44.4477 44 45 44H51C51.5523 44 52 44.4477 52 45V51C52 51.5523 51.5523 52 51 52H45C44.4477 52 44 51.5523 44 51V45Z" fill="#8B3DFF"/>
<path opacity="0.5" fill-rule="evenodd" clip-rule="evenodd" d="M42 40C40.8954 40 40 40.8954 40 42V54C40 55.1046 40.8954 56 42 56H54C55.1046 56 56 55.1046 56 54V42C56 40.8954 55.1046 40 54 40H42ZM45 44C44.4477 44 44 44.4477 44 45V51C44 51.5523 44.4477 52 45 52H51C51.5523 52 52 51.5523 52 51V45C52 44.4477 51.5523 44 51 44H45Z" fill="#8B3DFF"/>
</svg>
