<svg width="96" height="96" viewBox="0 0 96 96" fill="none" xmlns="http://www.w3.org/2000/svg">
<path d="M28.25 28C28.25 25.7909 30.0409 24 32.25 24H48.25C50.4591 24 52.25 25.7909 52.25 28V44C52.25 46.2091 50.4591 48 48.25 48H32.25C30.0409 48 28.25 46.2091 28.25 44V28Z" fill="#8B3DFF"/>
<path opacity="0.3" d="M28.25 68C28.25 70.2091 30.0409 72 32.25 72L48.25 72C50.4591 72 52.25 70.2091 52.25 68L52.25 60C52.25 62.2091 50.4591 64 48.25 64L32.25 64C30.0409 64 28.25 62.2091 28.25 60L28.25 68Z" fill="#8B3DFF"/>
<path opacity="0.5" d="M28.25 60C28.25 62.2091 30.0409 64 32.25 64L48.25 64C50.4591 64 52.25 62.2091 52.25 60L52.25 52C52.25 54.2091 50.4591 56 48.25 56L32.25 56C30.0409 56 28.25 54.2091 28.25 52L28.25 60Z" fill="#8B3DFF"/>
<path opacity="0.7" d="M28.25 52C28.25 54.2091 30.0409 56 32.25 56L48.25 56C50.4591 56 52.25 54.2091 52.25 52L52.25 44C52.25 46.2091 50.4591 48 48.25 48L32.25 48C30.0409 48 28.25 46.2091 28.25 44L28.25 52Z" fill="#8B3DFF"/>
<path fill-rule="evenodd" clip-rule="evenodd" d="M64 39.25C64.1989 39.25 64.3897 39.329 64.5303 39.4697L67.5303 42.4697C67.8232 42.7626 67.8232 43.2374 67.5303 43.5303C67.2374 43.8232 66.7626 43.8232 66.4697 43.5303L64.75 41.8107V56C64.75 56.4142 64.4142 56.75 64 56.75C63.5858 56.75 63.25 56.4142 63.25 56L63.25 41.8107L61.5303 43.5303C61.2374 43.8232 60.7626 43.8232 60.4697 43.5303C60.1768 43.2374 60.1768 42.7626 60.4697 42.4697L63.4697 39.4697C63.6103 39.329 63.8011 39.25 64 39.25Z" fill="#8B3DFF"/>
</svg>
