<svg width="96" height="96" viewBox="0 0 96 96" fill="none" xmlns="http://www.w3.org/2000/svg">
<path d="M42.1099 48.3468C42.1732 48.2513 42.2411 48.1489 42.3187 48.0386C41.7866 47.7252 41.5618 47.9282 41.342 48.1395C41.1006 48.3719 40.8593 48.6052 40.6182 48.8382L40.6098 48.8464C39.9902 49.4453 39.3703 50.0445 38.7435 50.6353C38.7315 50.6466 38.7194 50.6584 38.707 50.6704C38.5606 50.8128 38.3821 50.9863 38.083 50.6872C38.3314 49.7207 38.9089 48.8846 39.5034 48.0712C41.2437 45.693 43.002 43.3286 44.7602 40.9658C45.0105 40.6289 45.2897 40.31 45.5834 40.0104C47.9579 37.5867 49.9287 34.8525 51.7538 32H60C62.2091 32 64 33.7909 64 36V39.5498C63.9281 39.6137 63.8563 39.6775 63.7844 39.7413C61.6936 41.5982 59.6009 43.4568 57.3838 45.1473C52.8507 48.6048 48.3349 52.0742 44.0059 55.7885C43.9 55.8801 43.7682 55.9402 43.6125 56.0112C43.5342 56.0469 43.4498 56.0854 43.3597 56.1319C43.6598 54.9352 43.7428 54.7868 44.4921 53.8731C44.8202 53.4735 45.1446 53.0707 45.4688 52.6681C45.8603 52.1819 46.2522 51.6951 46.6506 51.2144C47.724 49.9192 48.8002 48.6284 49.8907 47.3488C50.3586 46.7998 50.8363 46.2584 51.3139 45.7171C52.1872 44.7273 53.0606 43.7374 53.8755 42.6999C54.2343 42.2431 54.5899 41.7838 54.9455 41.3245C56.6129 39.1712 58.2795 37.0188 60.2627 35.1353C60.606 34.8093 60.8833 34.404 61.15 34.0051C61.2509 33.8533 61.3117 33.673 61.378 33.4762C61.4096 33.3827 61.4425 33.2849 61.4815 33.1852C61.3709 33.1408 61.2738 33.0958 61.185 33.0546C61.0133 32.975 60.8726 32.9097 60.7261 32.8911C60.0069 32.8028 59.4629 33.1779 58.9922 33.6663C58.7856 33.8796 58.59 34.1064 58.3945 34.3329C58.0368 34.7474 57.6795 35.1614 57.2564 35.4925C55.8795 36.5709 54.6561 37.7241 53.7426 39.2716C53.2823 40.052 52.6491 40.7287 52.0161 41.4052C51.7383 41.7021 51.4605 41.999 51.1973 42.3046C50.3009 43.3431 49.4034 44.3807 48.506 45.4183L48.499 45.4264C46.7265 47.4756 44.954 49.5249 43.1891 51.5814C41.026 54.1006 39.4292 56.9825 37.8323 59.8645C37.3299 60.7712 36.8275 61.6779 36.3075 62.5734C36.0472 63.0218 36.0083 63.5113 36.0627 64H36C33.7909 64 32 62.2091 32 60V45.0635C32.1249 44.9665 32.2396 44.8529 32.354 44.7396C32.411 44.6832 32.468 44.6268 32.526 44.5726C32.8354 44.2825 33.1467 43.9939 33.4579 43.7053C34.2017 43.0155 34.946 42.3252 35.6678 41.6125C38.2862 39.0231 41.2419 36.8697 44.246 34.7731C44.6009 34.5253 44.9532 34.2734 45.3055 34.0215C45.8793 33.6114 46.4532 33.2011 47.0382 32.8083C47.247 32.6677 47.4857 32.5712 47.7747 32.4542C47.9221 32.3946 48.0825 32.3296 48.2588 32.2509C48.1448 33.0019 47.7988 33.4311 47.4716 33.837C47.4334 33.8845 47.3954 33.9316 47.3581 33.9789C46.8299 34.6468 46.2938 35.3087 45.7577 35.9705C44.8933 37.0376 44.029 38.1046 43.1981 39.197C41.4143 41.5414 39.6588 43.9115 37.9601 46.3179C37.0953 47.5422 36.3418 48.8509 35.6135 50.1644C35.1436 51.0097 34.9034 51.9541 34.8952 52.9424C34.8906 53.5918 35.1166 54.1219 35.6804 54.469C36.0112 54.672 36.3563 54.7177 36.6762 54.45C36.7661 54.373 36.8438 54.2809 36.9213 54.189C36.9605 54.1425 36.9996 54.0961 37.0402 54.0517C37.4732 53.5728 37.9071 53.0935 38.3405 52.6147C39.4796 51.3562 40.619 50.0974 41.7531 48.8346C41.8798 48.6936 41.9861 48.5334 42.1099 48.3468Z" fill="#8B3DFF"/>
<path d="M32 38.7803C32.2171 38.4506 32.4346 38.1212 32.6521 37.7917C33.0944 37.1218 33.5368 36.4517 33.9762 35.7794C34.0239 35.7064 34.073 35.634 34.1226 35.561C34.4022 35.1487 34.6945 34.7177 34.8167 34.0553C34.6957 34.0909 34.589 34.1162 34.4939 34.1388C34.319 34.1803 34.1836 34.2125 34.0711 34.2822C33.386 34.712 32.7034 35.1454 32.0218 35.5802C32.0074 35.7182 32 35.8582 32 36V38.7803Z" fill="#8B3DFF"/>
<path d="M39.8511 32C39.8341 32.0255 39.8169 32.051 39.7998 32.0766C39.7284 32.1829 39.657 32.2893 39.5901 32.3977C39.2654 32.9216 38.9403 33.4452 38.6151 33.969L38.614 33.9706C38.2455 34.5643 37.8767 35.1581 37.5083 35.753C37.9916 36.1098 38.2977 35.8842 38.5893 35.6692C38.6275 35.641 38.6656 35.613 38.7037 35.5865C39.0715 35.3308 39.4346 35.0677 39.7976 34.8047C40.5039 34.2929 41.2098 33.7814 41.9492 33.3249C42.6751 32.8758 43.4061 32.4346 44.141 32H39.8511Z" fill="#8B3DFF"/>
<path d="M45.0924 32C44.94 32.0821 44.7901 32.17 44.6419 32.26C44.3227 32.4546 44.0819 32.7063 44.1329 33.1226C44.5396 32.9293 44.9463 32.7357 45.3528 32.5421L45.3603 32.5385C45.7372 32.359 46.1146 32.1792 46.4916 32H45.0924Z" fill="#8B3DFF"/>
<path d="M39.164 64H45.9085C45.9846 63.7819 46.0876 63.565 46.2242 63.3485C46.505 62.9038 46.7847 62.4583 47.0644 62.0129C48.99 58.9457 50.9153 55.8792 53.2104 53.067C54.0059 52.0915 54.7772 51.094 55.5478 50.0973C55.6945 49.9076 55.8412 49.7179 55.988 49.5283C56.0996 49.3835 56.1895 49.2216 56.295 49.0316C56.3498 48.9328 56.4091 48.826 56.4776 48.7105L56.2011 48.669C55.9834 48.6363 55.8178 48.6114 55.6526 48.5857C55.7636 48.4833 55.8709 48.3753 55.9781 48.2672C56.2106 48.033 56.443 47.7988 56.7127 47.623C57.7437 46.9486 58.5984 46.0811 59.4531 45.2135C59.8139 44.8472 60.175 44.4808 60.5491 44.129L60.5638 44.1152C60.7561 43.9355 61.0119 43.6964 60.7027 43.3839C60.6632 43.3894 60.6218 43.3908 60.581 43.3923C60.4928 43.3953 60.4075 43.3983 60.3512 43.4413C58.0154 45.1927 55.6852 46.9545 53.3567 48.7188C53.1201 48.8982 52.8842 49.0886 52.681 49.3044C52.5247 49.4701 52.3638 49.6806 52.6339 49.8947L55.7107 48.5311C55.5066 48.6986 55.3029 48.8665 55.0992 49.0343C54.7057 49.3585 54.3125 49.6825 53.9178 50.0029C50.188 53.0305 46.6451 56.2687 43.217 59.6332C42.1714 60.6594 41.1899 61.7516 40.2081 62.8442C39.8611 63.2304 39.514 63.6166 39.164 64Z" fill="#8B3DFF"/>
<path d="M50.0234 64H59.6319C59.7087 63.6291 59.8435 63.265 60.0197 62.9067C60.2669 62.4016 60.5328 61.9065 60.7903 61.4271C60.8874 61.2462 60.9835 61.0673 61.0767 60.8912C60.8219 60.5414 60.5889 60.6607 60.3955 60.78C60.0511 60.996 59.7105 61.2182 59.37 61.4404C58.8576 61.7748 58.3449 62.1093 57.8195 62.4222C57.3126 62.7236 56.7759 63.0106 56.2148 63.1746C55.5885 63.3559 54.9498 62.9551 54.8784 62.302C54.8208 61.7817 54.8466 61.2518 54.8733 60.7064C54.885 60.4661 54.8969 60.2225 54.9018 59.9757C54.8679 59.983 54.8276 59.9871 54.7843 59.9915C54.6824 60.0018 54.5647 60.0138 54.4791 60.0732C52.9982 61.0997 51.6139 62.2437 50.3976 63.5871C50.273 63.7249 50.1483 63.8625 50.0234 64Z" fill="#8B3DFF"/>
<path d="M64 57.247V44.6806C62.2508 46.6297 60.5071 48.5838 58.8179 50.5849C57.5531 52.0854 56.3903 53.6745 55.2281 55.2628C54.7573 55.9063 54.286 56.5503 53.8086 57.1876C53.7758 57.2318 53.7815 57.3053 53.7899 57.4135C53.7947 57.4749 53.8004 57.5475 53.8004 57.6322C53.8747 57.602 53.9476 57.5765 54.0181 57.5519C54.1647 57.5007 54.3011 57.453 54.4177 57.3744C55.3584 56.7408 56.2953 56.1023 57.2324 55.4638C57.9788 54.9552 58.7261 54.446 59.4748 53.9396C59.9698 53.6035 60.4731 53.2746 60.9919 52.9787C61.3823 52.7564 61.7679 52.7637 62.1574 53.0688C62.4077 53.2654 62.6848 53.4273 62.9786 53.599C63.1082 53.6747 63.241 53.7524 63.3763 53.8357C63.0089 54.6109 62.3941 55.1882 61.7814 55.7635C61.0997 56.4036 60.4206 57.0413 60.0875 57.9465C60.4139 58.1933 60.6511 58.0716 60.8648 57.962C60.9087 57.9394 60.9521 57.9172 60.9946 57.899C61.3513 57.7486 61.7003 57.5806 62.0492 57.4126C62.2943 57.2946 62.5394 57.1766 62.7872 57.0647C63.1984 56.8807 63.5697 56.919 63.9537 57.2122C63.9691 57.2239 63.9845 57.2355 64 57.247Z" fill="#8B3DFF"/>
</svg>
