<svg width="96" height="96" viewBox="0 0 96 96" fill="none" xmlns="http://www.w3.org/2000/svg">
<path fill-rule="evenodd" clip-rule="evenodd" d="M47.8318 32.4173C47.9803 32.413 48.1116 32.2731 48.1072 32.1197C48.106 32.0769 48.0954 32.0363 48.0775 32H60C62.2092 32 64 33.7909 64 36V47.2253C63.9587 47.2034 63.9118 47.1916 63.863 47.1931C63.7097 47.1974 63.5915 47.3242 63.5963 47.4776C63.6006 47.6305 63.7318 47.7531 63.8804 47.7487C63.9224 47.7475 63.9633 47.7343 64 47.7129V60C64 62.2091 62.2092 64 60 64H50.7895C50.8131 63.9603 50.8271 63.916 50.8271 63.8716C50.8271 63.7182 50.7003 63.5919 50.5518 63.5919C50.3989 63.5919 50.272 63.7139 50.272 63.8673C50.272 63.9149 50.2845 63.9602 50.3066 64H36C33.7908 64 32 62.2091 32 60V50.4412C32.0386 50.4639 32.0814 50.4774 32.1241 50.4774C32.2727 50.4774 32.4039 50.3505 32.4039 50.2019C32.4039 50.0485 32.2862 49.9265 32.1328 49.9221C32.085 49.9207 32.0397 49.9316 32 49.952V36C32 34.0385 33.4117 32.4069 35.2746 32.0656C35.2886 32.0808 35.3093 32.0893 35.3342 32.0893C35.3732 32.0893 35.3978 32.072 35.4096 32.0433C35.6023 32.0148 35.7994 32 36 32H47.5674C47.5463 32.0394 47.5342 32.0833 47.5342 32.1284C47.5342 32.2905 47.6746 32.4217 47.8318 32.4173ZM49.8345 32.181C49.6642 32.181 49.5417 32.3078 49.5417 32.4742C49.5417 32.6445 49.6772 32.7801 49.8475 32.7714C49.9965 32.767 50.1321 32.6315 50.1364 32.4829C50.1407 32.3165 50.0052 32.181 49.8345 32.181ZM51.868 33.1298C51.7016 33.1298 51.5748 33.0077 51.5748 32.8413C51.5748 32.6711 51.706 32.535 51.8767 32.5398C52.0296 32.5442 52.1695 32.6884 52.1695 32.8413C52.1652 33.0034 52.0339 33.1298 51.868 33.1298ZM43.1005 33.4317C43.1005 33.2479 43.236 33.1124 43.4193 33.1124C43.5987 33.1124 43.7429 33.2523 43.7473 33.4274C43.7516 33.6024 43.59 33.764 43.4149 33.7597C43.2404 33.7553 43.1005 33.6111 43.1005 33.4317ZM45.8118 33.8036C45.8161 33.6024 45.641 33.423 45.4355 33.423C45.2344 33.423 45.068 33.5846 45.068 33.7901C45.068 33.9912 45.23 34.162 45.4312 34.1663C45.628 34.1707 45.8069 34.0004 45.8118 33.8036ZM47.4686 34.5469C47.6963 34.5512 47.8757 34.3761 47.8757 34.149C47.8801 33.9305 47.6963 33.738 47.4778 33.7336C47.2545 33.7288 47.0577 33.9213 47.0577 34.1446C47.0577 34.3588 47.2458 34.5469 47.4686 34.5469ZM49.4891 34.9275C49.7207 34.9275 49.9131 34.7307 49.9088 34.4987C49.9045 34.2715 49.7163 34.0833 49.4891 34.0833C49.2663 34.0833 49.056 34.2932 49.0652 34.516C49.0739 34.7437 49.262 34.9275 49.4891 34.9275ZM51.5135 35.2772C51.282 35.2815 51.0852 35.0891 51.0852 34.8527C51.0852 34.6255 51.269 34.4374 51.5005 34.433C51.7147 34.4244 51.925 34.6255 51.9293 34.844C51.938 35.0717 51.7455 35.2728 51.5135 35.2772ZM43.4941 35.4518C43.4941 35.2115 43.3103 35.0278 43.0739 35.0278C42.8337 35.0278 42.6369 35.2202 42.6413 35.4609C42.6456 35.6838 42.8511 35.8849 43.0739 35.8806C43.306 35.8762 43.4941 35.6881 43.4941 35.4518ZM44.6087 35.815C44.6087 36.0817 44.8234 36.2915 45.0901 36.2915C45.3568 36.2915 45.5753 36.0774 45.5753 35.8106C45.571 35.5482 45.3433 35.3206 45.0814 35.3254C44.819 35.3297 44.6087 35.5482 44.6087 35.815ZM47.1015 36.6721C47.3943 36.6765 47.6176 36.4579 47.6176 36.1647C47.6176 35.8849 47.3943 35.6486 47.1188 35.6442C46.8348 35.6355 46.5897 35.8806 46.5897 36.1647C46.5897 36.4401 46.826 36.6721 47.1015 36.6721ZM49.1216 35.9901C49.4105 35.9852 49.6642 36.239 49.6599 36.5235C49.6599 36.8163 49.4192 37.057 49.1259 37.0613C48.8418 37.0657 48.5881 36.812 48.5881 36.5279C48.5881 36.2303 48.8288 35.9901 49.1216 35.9901ZM44.1452 37.8307C44.1452 38.15 44.4033 38.4124 44.7226 38.4124C45.0463 38.4124 45.313 38.1544 45.313 37.8394C45.3173 37.5205 45.0419 37.2447 44.7226 37.2447C44.4076 37.2447 44.1452 37.507 44.1452 37.8307ZM46.7475 38.8147C46.4016 38.8147 46.1219 38.5349 46.1219 38.1896C46.1219 37.8485 46.3973 37.5683 46.7339 37.564C47.0755 37.5596 47.377 37.8572 47.3726 38.2026C47.3682 38.5393 47.0885 38.8147 46.7475 38.8147ZM48.785 39.1866C49.1308 39.1822 49.4149 38.889 49.4149 38.5393C49.4149 38.1765 49.1308 37.9006 48.7632 37.905C48.4179 37.905 48.1246 38.2026 48.129 38.5436C48.1338 38.8933 48.4352 39.1909 48.785 39.1866ZM45.0549 39.8426C45.0549 39.475 44.7443 39.1779 44.3729 39.1779C43.9966 39.1779 43.7039 39.475 43.7039 39.8556C43.7082 40.2183 44.0053 40.5203 44.3685 40.5246C44.7399 40.5289 45.0549 40.214 45.0549 39.8426ZM47.1188 40.214C47.1232 39.8247 46.7909 39.488 46.4016 39.488C45.995 39.488 45.6713 39.816 45.6757 40.2183C45.6805 40.6032 46.008 40.9312 46.3929 40.9312C46.7865 40.9312 47.1145 40.6076 47.1188 40.214ZM48.4135 41.3161C48.8331 41.3161 49.1568 40.9925 49.1568 40.5728C49.1568 40.157 48.8288 39.8247 48.4135 39.8247C48.0112 39.8204 47.661 40.1706 47.6653 40.5728C47.6653 40.9881 47.9977 41.3161 48.4135 41.3161ZM44.7708 41.8757C44.7665 41.4517 44.4341 41.1237 44.0096 41.1237C43.603 41.1237 43.2577 41.4647 43.2534 41.8713C43.249 42.2823 43.603 42.6411 44.0183 42.6411C44.4298 42.6411 44.7751 42.2914 44.7708 41.8757ZM46.0303 41.4165C45.5798 41.4208 45.2214 41.784 45.2214 42.2345C45.2214 42.6759 45.5928 43.0434 46.0389 43.0434C46.4673 43.0478 46.8478 42.6715 46.8522 42.2389C46.8565 41.7884 46.4808 41.4121 46.0303 41.4165ZM47.2241 42.5842C47.2241 43.0564 47.5911 43.4283 48.0547 43.4327C48.5225 43.437 48.9075 43.0608 48.9118 42.5929C48.9205 42.1467 48.5269 41.7444 48.0768 41.7401C47.6177 41.7314 47.2241 42.1207 47.2241 42.5842ZM45.6805 43.3584C46.1831 43.3584 46.5723 43.7472 46.5723 44.2502C46.5723 44.749 46.1744 45.1469 45.6805 45.1469C45.2034 45.1469 44.7925 44.7355 44.7881 44.2546C44.7881 43.7563 45.1818 43.3584 45.6805 43.3584ZM47.6962 45.5492C48.208 45.5579 48.632 45.1378 48.6364 44.6265C48.658 44.1017 48.2037 43.6772 47.7136 43.6685C47.3027 43.6642 46.7778 43.9879 46.7648 44.5913C46.7518 45.1074 47.1801 45.54 47.6962 45.5492ZM44.3729 46.2751C44.3729 45.7417 44.7838 45.3302 45.3173 45.3302C45.8551 45.3302 46.2795 45.7547 46.2752 46.2838C46.2704 46.7994 45.8334 47.2326 45.3173 47.2283C44.7881 47.2283 44.3772 46.8086 44.3729 46.2751ZM47.2675 47.6523C47.7358 47.823 47.9934 48.151 48.0286 48.6801C48.2341 48.2036 48.5838 47.9846 49.0825 47.9716C48.8028 47.8669 48.5838 47.6918 48.4569 47.4207C48.3257 47.141 48.3257 46.8607 48.4526 46.5766C48.6672 46.1087 49.1829 45.8772 49.6729 46.0258C50.1495 46.17 50.4466 46.6552 50.368 47.1627C50.3068 47.5562 49.9484 48.0458 49.2441 48.0024C49.5152 48.0897 49.7429 48.2383 49.8914 48.4877C50.04 48.737 50.0709 49.0081 49.9966 49.2835C49.8698 49.7427 49.4409 50.0577 48.934 50.0268C48.4396 49.9965 48.0942 49.6419 47.9717 49.0125C47.8405 49.3096 47.6437 49.5242 47.3422 49.6289C47.1146 49.7119 46.8874 49.7162 46.6597 49.6332C46.1393 49.4451 45.9208 48.9555 45.9647 48.575C46.0303 47.9981 46.3843 47.6918 47.0533 47.6132C46.4456 47.3242 46.1962 46.839 46.3713 46.3055C46.5372 45.8116 47.0403 45.5183 47.5391 45.6191C48.0768 45.7325 48.3957 46.2052 48.361 46.6948C48.3171 47.2543 47.8535 47.6744 47.2675 47.6523ZM44.001 48.2909C44.001 47.7574 44.4297 47.3334 44.9633 47.3334C45.4924 47.3334 45.9337 47.7661 45.9207 48.2952C45.912 48.8417 45.4967 49.2483 44.9546 49.2527C44.4254 49.2618 44.001 48.8243 44.001 48.2909ZM46.6163 51.6403C47.1454 51.6494 47.5824 51.2119 47.5867 50.6872C47.5911 50.1494 47.1671 49.7254 46.6336 49.7162C46.2227 49.7075 45.6757 50.0182 45.6627 50.6828C45.654 51.1946 46.1002 51.636 46.6163 51.6403ZM47.692 51.0152C47.6876 51.5486 48.1116 51.9683 48.6494 51.9683C49.1785 51.9683 49.5943 51.553 49.5943 51.0195C49.5943 50.4904 49.1785 50.0707 48.6494 50.0664C48.1338 50.0664 47.692 50.4991 47.692 51.0152ZM51.037 48.4351C51.5531 48.4394 51.9684 48.8596 51.9641 49.3708C51.9597 49.887 51.527 50.3153 51.0109 50.3066C50.4162 50.2936 50.0709 49.7818 50.0882 49.3492C50.1099 48.833 50.5122 48.4308 51.037 48.4351ZM51.3781 48.2822C50.8711 48.2778 50.451 47.8577 50.4558 47.3551C50.4558 46.839 50.8928 46.4107 51.4045 46.415C51.9163 46.4194 52.3273 46.8434 52.3229 47.3638C52.3143 47.8799 51.8985 48.2865 51.3781 48.2822ZM48.7892 44.9632C48.7892 45.4836 49.2007 45.8989 49.7163 45.8989C50.1755 45.9119 50.639 45.5536 50.6569 44.9718C50.6655 44.4601 50.2237 44.0274 49.712 44.0317C49.205 44.0361 48.7892 44.4557 48.7892 44.9632ZM44.613 49.4017C45.1074 49.4017 45.5228 49.8127 45.5228 50.3066C45.5228 50.7967 45.1557 51.2337 44.6044 51.2293C44.0839 51.225 43.7082 50.8314 43.6995 50.3201C43.686 49.8127 44.1104 49.4017 44.613 49.4017ZM51.5661 51.3914C51.5661 50.8883 51.1768 50.4991 50.6743 50.4991C50.1755 50.4991 49.7819 50.8926 49.7819 51.3914C49.7819 51.868 50.1934 52.2789 50.6699 52.2833C51.1682 52.2876 51.5661 51.8896 51.5661 51.3914ZM51.7455 46.196C52.2351 46.1917 52.6114 45.8116 52.6114 45.3172C52.607 44.832 52.2178 44.4384 51.7369 44.4384C51.2646 44.4384 50.858 44.845 50.858 45.3172C50.858 45.8073 51.2516 46.196 51.7455 46.196ZM47.1498 52.6855C47.1498 53.1664 46.7562 53.5644 46.2753 53.56C45.8026 53.56 45.4003 53.1621 45.409 52.6899C45.4182 52.2046 45.7896 51.8284 46.2796 51.8197C46.7518 51.811 47.1498 52.2133 47.1498 52.6855ZM42.0726 47.9233C42.0682 48.4047 42.4661 48.8026 42.947 48.8026C43.4149 48.7983 43.8129 48.396 43.8129 47.9277C43.8085 47.4598 43.4193 47.071 42.9514 47.0662C42.4749 47.0619 42.0769 47.4511 42.0726 47.9233ZM44.163 45.9163C44.163 46.4015 43.7825 46.7734 43.2929 46.7734C42.8245 46.7691 42.4315 46.3755 42.4401 45.9119C42.4445 45.4354 42.8424 45.0418 43.319 45.0505C43.8129 45.0591 44.1848 45.4836 44.163 45.9163ZM47.4295 53.0618C47.4382 53.56 47.8622 53.9362 48.2953 53.9146C48.7762 53.9146 49.1437 53.5427 49.1568 53.0574C49.1698 52.6156 48.7936 52.1873 48.2953 52.1873C47.8187 52.1873 47.4252 52.5895 47.4295 53.0618ZM52.2134 49.7119C52.2134 49.244 52.5897 48.8769 53.0532 48.8769C53.5168 48.8769 53.906 49.2618 53.9012 49.7254C53.9012 50.1754 53.5032 50.569 53.0532 50.569C52.5941 50.5646 52.2134 50.1754 52.2134 49.7119ZM53.4116 48.5403C52.9437 48.5403 52.5674 48.1597 52.5674 47.6918C52.5674 47.3156 52.8564 46.8607 53.4159 46.8564C53.9011 46.8564 54.2469 47.2239 54.2557 47.6961C54.2557 48.1597 53.8664 48.5403 53.4116 48.5403ZM49.2354 42.9339C49.2484 43.4939 49.6989 43.791 50.0839 43.7824C50.5474 43.778 50.9188 43.4018 50.9188 42.9426C50.9236 42.5582 50.626 42.1033 50.0665 42.099C49.616 42.0946 49.2267 42.4878 49.2354 42.9339ZM41.7619 49.9612C41.7619 49.489 42.1295 49.1306 42.6017 49.135C43.0609 49.1393 43.4327 49.5151 43.4284 49.9699C43.4241 50.4291 43.0392 50.814 42.58 50.8054C42.0856 50.7923 41.7402 50.3722 41.7619 49.9612ZM44.2547 51.5139C43.7825 51.5139 43.4193 51.8766 43.4193 52.3488C43.4193 52.808 43.7868 53.1799 44.2416 53.1799C44.7009 53.1799 45.0858 52.7993 45.0858 52.3401C45.0901 51.8853 44.7139 51.5139 44.2547 51.5139ZM42.8381 43.9005C42.8381 43.4457 43.2051 43.0738 43.6513 43.0695C44.0975 43.0695 44.4776 43.4413 44.4776 43.8875C44.4819 44.3332 44.1105 44.7051 43.66 44.7094C43.1921 44.7138 42.8381 44.3641 42.8381 43.9005ZM50.3154 54.229C50.7659 54.229 51.1334 53.8576 51.1334 53.4028C51.1334 52.9392 50.7789 52.5895 50.3197 52.5895C49.8654 52.5895 49.4935 52.9609 49.4935 53.4071C49.4935 53.8533 49.8697 54.229 50.3154 54.229ZM52.7122 50.9366C53.1578 50.9409 53.5123 51.308 53.508 51.7585C53.5032 52.2046 53.1361 52.5674 52.6899 52.5674C52.2486 52.5674 51.8637 52.1786 51.8724 51.7368C51.8854 51.2863 52.2529 50.9322 52.7122 50.9366ZM53.7699 46.4806C53.3199 46.4806 52.9697 46.1304 52.9697 45.6848C52.9697 45.2473 53.3373 44.8754 53.7656 44.8754C54.2031 44.8802 54.5658 45.2429 54.575 45.6804C54.5793 46.1131 54.2074 46.4806 53.7699 46.4806ZM52.1039 44.1017C52.5501 44.1017 52.8998 43.752 52.8998 43.3015C52.8998 42.8683 52.5414 42.5013 52.1126 42.4969C51.6756 42.4926 51.295 42.864 51.295 43.3058C51.295 43.7385 51.6669 44.1017 52.1039 44.1017ZM42.9996 51.9904C42.9953 52.4231 42.6586 52.7555 42.2211 52.7555C41.7971 52.7555 41.4474 52.4014 41.4518 51.9774C41.4561 51.5616 41.8232 51.1989 42.239 51.2076C42.663 51.2119 43.004 51.5573 42.9996 51.9904ZM45.9034 55.4798C46.3273 55.4884 46.6776 55.1474 46.6862 54.7321C46.6949 54.2903 46.3495 53.9362 45.9164 53.9362C45.5098 53.9362 45.1422 54.2946 45.1422 54.7061C45.1422 55.1257 45.4837 55.4754 45.9034 55.4798ZM40.9227 46.813C41.3423 46.813 41.692 47.154 41.692 47.578C41.692 48.0111 41.351 48.3565 40.9227 48.3608C40.5161 48.3651 40.1442 48.0024 40.1486 47.591C40.1616 47.0971 40.5421 46.813 40.9227 46.813ZM47.9456 54.3038C47.5168 54.2995 47.1671 54.6448 47.1671 55.0732C47.1671 55.4933 47.5081 55.8386 47.9321 55.843C48.3392 55.8473 48.7019 55.4884 48.7062 55.0775C48.7106 54.6622 48.3609 54.3081 47.9456 54.3038ZM41.2854 46.3359C40.8571 46.3359 40.5117 45.9862 40.5161 45.5579C40.5204 45.1421 40.8745 44.7924 41.2897 44.7968C41.7012 44.8011 42.0596 45.1643 42.0552 45.5709C42.0509 45.9905 41.7056 46.3359 41.2854 46.3359ZM52.3359 54.5223C51.9115 54.5223 51.5792 54.1943 51.5748 53.7747C51.5705 53.3589 51.9163 53.0092 52.3229 53.0092C52.7382 53.0092 53.0923 53.3632 53.088 53.779C53.088 54.1813 52.7469 54.5223 52.3359 54.5223ZM43.1573 54.3646C43.1617 54.7847 43.4849 55.104 43.905 55.104C44.3203 55.104 44.6483 54.7717 44.6483 54.3559C44.6483 53.9536 44.2986 53.6082 43.8963 53.6126C43.4805 53.6169 43.1573 53.9493 43.1573 54.3646ZM55.0906 49.3361C55.5021 49.3405 55.8344 49.6815 55.8253 50.0924C55.8166 50.4904 55.4755 50.8314 55.0776 50.8271C54.658 50.8271 54.33 50.4904 54.3343 50.0664C54.3387 49.6506 54.6666 49.3361 55.0906 49.3361ZM55.423 48.8026C55.012 48.8026 54.684 48.4746 54.684 48.068C54.684 47.6523 55.012 47.3199 55.4273 47.3156C55.8209 47.3112 56.1711 47.6566 56.1711 48.0545C56.1711 48.4703 55.8387 48.8026 55.423 48.8026ZM39.8205 49.6115C39.8248 50.0182 40.1528 50.3418 40.5638 50.3418C40.9796 50.3418 41.312 50.0008 41.3076 49.5898C41.3032 49.1919 40.9531 48.8504 40.5594 48.8547C40.1442 48.8639 39.8162 49.1962 39.8205 49.6115ZM50.4336 41.6615C50.0226 41.6615 49.6946 41.3378 49.6903 40.9312C49.686 40.5159 50.014 40.1836 50.4293 40.1749C50.8229 40.1706 51.1725 40.5116 51.1769 40.9095C51.1813 41.3205 50.8489 41.6615 50.4336 41.6615ZM54.1158 42.9252C53.7092 42.9252 53.3769 43.2576 53.3769 43.6642C53.3769 44.0665 53.7222 44.4118 54.1158 44.4075C54.5138 44.4031 54.8548 44.0665 54.8591 43.6642C54.8635 43.2706 54.5181 42.9252 54.1158 42.9252ZM49.2137 55.4363C49.2094 55.0428 49.5417 54.7061 49.9396 54.6974C50.3419 54.6926 50.6829 55.0206 50.6873 55.4277C50.6916 55.83 50.3549 56.171 49.957 56.171C49.5504 56.1753 49.218 55.843 49.2137 55.4363ZM41.6133 44.2719C42.02 44.2811 42.3566 43.9618 42.3701 43.5508C42.3832 43.1573 42.0638 42.8157 41.6616 42.7984C41.2593 42.781 40.9139 43.1047 40.8961 43.5113C40.8831 43.9092 41.2111 44.2633 41.6133 44.2719ZM53.989 52.0995C53.9846 51.7059 54.3126 51.3735 54.7018 51.3692C55.1041 51.3649 55.4408 51.6929 55.4408 52.0908C55.4408 52.4887 55.1041 52.8211 54.7105 52.8211C54.3213 52.8254 53.989 52.4974 53.989 52.0995ZM51.7499 41.2809C51.7499 40.8873 52.0692 40.5728 52.4628 40.5728C52.8607 40.5728 53.1931 40.9008 53.18 41.2939C53.1622 41.6967 52.8694 41.9851 52.4714 41.9982C52.0779 42.0112 51.7499 41.6789 51.7499 41.2809ZM55.0732 46.0258C55.0602 46.4194 55.3926 46.743 55.7905 46.743C56.1841 46.743 56.4991 46.4237 56.4991 46.0301C56.4991 45.6365 56.1711 45.2998 55.7775 45.3172C55.3708 45.3346 55.0863 45.6322 55.0732 46.0258ZM40.9096 51.6142C40.914 51.9905 40.599 52.3098 40.2228 52.3141C39.8378 52.3185 39.519 51.9991 39.519 51.6142C39.519 51.2472 39.8427 50.9235 40.2141 50.9192C40.586 50.9143 40.9053 51.238 40.9096 51.6142ZM41.8628 54.6926C42.2433 54.6974 42.5579 54.3824 42.5627 54.0062C42.567 53.63 42.2563 53.3068 41.8801 53.302C41.5131 53.2933 41.1807 53.6126 41.1721 53.9845C41.1586 54.3651 41.4778 54.6882 41.8628 54.6926ZM51.9771 56.4637C51.61 56.4637 51.2994 56.1579 51.2951 55.7904C51.2908 55.4142 51.61 55.0953 51.9863 55.0953C52.3577 55.0953 52.664 55.4098 52.664 55.786C52.664 56.1666 52.3577 56.4681 51.9771 56.4637ZM42.007 42.2036C42.3745 42.1993 42.6804 41.8887 42.6804 41.5216C42.6804 41.1454 42.3788 40.8396 42.0026 40.8352C41.6264 40.8309 41.3119 41.1411 41.3119 41.5129C41.3119 41.8887 41.6312 42.208 42.007 42.2036ZM54.3647 54.7847C53.989 54.7847 53.6957 54.4914 53.6957 54.1113C53.6957 53.7394 54.002 53.4332 54.3695 53.438C54.7366 53.4423 55.0428 53.7481 55.0428 54.1157C55.0428 54.4828 54.7366 54.7847 54.3647 54.7847ZM39.9213 45.2125C39.9169 45.5753 39.615 45.8729 39.2523 45.8729C38.889 45.868 38.5833 45.5622 38.5833 45.2077C38.5876 44.8406 38.9021 44.53 39.2653 44.5387C39.6237 44.5387 39.9256 44.8493 39.9213 45.2125ZM39.5711 47.2239C39.5759 46.8607 39.2783 46.5592 38.9156 46.5549C38.5524 46.5506 38.2418 46.8477 38.233 47.2065C38.2244 47.5693 38.535 47.8842 38.9021 47.8886C39.2609 47.8929 39.5668 47.5866 39.5711 47.2239ZM45.5537 56.0745C45.9164 56.0745 46.2184 56.3721 46.2227 56.7348C46.2227 57.098 45.9251 57.4082 45.5667 57.4082C45.2036 57.4125 44.889 57.1024 44.889 56.7348C44.8847 56.3851 45.1905 56.0788 45.5537 56.0745ZM47.5955 57.7627C47.9543 57.7584 48.2515 57.4477 48.2515 57.0845C48.2515 56.7218 47.95 56.4199 47.5825 56.429C47.2197 56.429 46.9091 56.7392 46.9135 57.0937C46.9178 57.4564 47.2328 57.7671 47.5955 57.7627ZM54.4786 40.9751C54.8591 40.9751 55.1389 41.2549 55.1345 41.6354C55.1345 42.0025 54.8374 42.3001 54.4698 42.2958C54.1158 42.2914 53.8139 41.9895 53.8139 41.6354C53.8139 41.2679 54.1115 40.9751 54.4786 40.9751ZM56.1489 43.3584C55.7731 43.3584 55.4929 43.6382 55.4929 44.0187C55.4929 44.3858 55.7905 44.679 56.1576 44.679C56.5121 44.6742 56.8135 44.3728 56.8135 44.0187C56.8135 43.6512 56.5208 43.3584 56.1489 43.3584ZM43.5418 55.7291C43.892 55.7335 44.1891 56.0311 44.1848 56.3808C44.1848 56.7348 43.892 57.0281 43.5418 57.0324C43.1878 57.0368 42.8859 56.7348 42.8815 56.3808C42.8815 56.0267 43.1835 55.7248 43.5418 55.7291ZM37.9008 49.2396C37.9008 49.6028 38.1854 49.8783 38.5481 49.8783C38.9065 49.8783 39.1954 49.585 39.191 49.231C39.1867 48.8813 38.8891 48.588 38.5394 48.588C38.1854 48.588 37.9008 48.8769 37.9008 49.2396ZM57.089 49.804C57.4391 49.804 57.7319 50.0881 57.7363 50.4334C57.7407 50.7836 57.4435 51.0851 57.0938 51.0894C56.7523 51.0938 56.4552 50.801 56.4509 50.4556C56.4509 50.0881 56.7263 49.804 57.089 49.804ZM49.603 58.0907C49.2398 58.0907 48.96 57.8105 48.9644 57.4434C48.9644 57.0937 49.2571 56.8004 49.603 56.8048C49.9527 56.8091 50.2498 57.1067 50.2498 57.4564C50.2455 57.8061 49.9527 58.0907 49.603 58.0907ZM57.4696 49.0559C57.8149 49.0472 58.0995 48.7544 58.0952 48.4047C58.0909 48.0458 57.8063 47.7661 57.4479 47.7747C57.0982 47.7791 56.8049 48.0767 56.8136 48.4177C56.8179 48.7674 57.1242 49.0607 57.4696 49.0559ZM50.1538 38.8846C50.1581 38.5479 50.4557 38.2595 50.7925 38.2595C51.1465 38.2595 51.4528 38.5745 51.4393 38.9242C51.4263 39.2739 51.1335 39.5493 50.7833 39.545C50.4206 39.5363 50.1495 39.2522 50.1538 38.8846ZM39.6237 42.549C39.2697 42.549 38.9856 42.8293 38.9813 43.1833C38.9764 43.5243 39.274 43.8263 39.6194 43.8306C39.9604 43.8306 40.2537 43.5374 40.2623 43.192C40.2667 42.851 39.9647 42.549 39.6237 42.549ZM39.8514 53.0266C40.2011 53.0266 40.4765 53.3068 40.4765 53.6522C40.4765 54.0019 40.1924 54.2859 39.8514 54.2816C39.5104 54.2773 39.2214 53.9888 39.2214 53.6522C39.2171 53.3111 39.5012 53.0266 39.8514 53.0266ZM56.7349 51.8371C56.3895 51.8371 56.1098 52.113 56.1055 52.4583C56.1055 52.8037 56.3895 53.0922 56.7263 53.0922C57.0673 53.0878 57.3562 52.795 57.3562 52.4583C57.3562 52.1217 57.0716 51.8414 56.7349 51.8371ZM57.7932 47.0054C58.1429 47.0054 58.4096 46.743 58.4139 46.3972C58.4188 46.0562 58.1429 45.7807 57.8062 45.7764C57.4825 45.7721 57.1941 46.0562 57.1854 46.3798C57.1768 46.7165 57.4565 47.0011 57.7932 47.0054ZM53.4246 39.2478C53.4246 39.5975 53.1622 39.8643 52.8125 39.8643C52.4715 39.8643 52.1918 39.5888 52.1918 39.2522C52.1918 38.9285 52.4758 38.6396 52.7995 38.6353C53.1405 38.6309 53.4203 38.9068 53.4246 39.2478ZM54.002 56.757C54.3386 56.757 54.6097 56.4854 54.6097 56.1488C54.6097 55.8078 54.3256 55.528 53.989 55.5323C53.6696 55.5367 53.3898 55.8208 53.3855 56.1401C53.3812 56.4768 53.6609 56.757 54.002 56.757ZM42.1251 56.0132C42.1251 56.3456 41.8497 56.6215 41.5173 56.6258C41.1981 56.6258 40.9139 56.3456 40.9096 56.0267C40.9053 55.6944 41.1807 55.4098 41.513 55.4098C41.8453 55.4055 42.1251 55.6852 42.1251 56.0132ZM38.181 51.881C38.5133 51.881 38.7888 51.6012 38.7888 51.2689C38.7888 50.9365 38.5085 50.6568 38.1761 50.6655C37.853 50.6655 37.5728 50.9496 37.5728 51.2689C37.5728 51.6012 37.8482 51.881 38.181 51.881ZM41.7402 39.4967C41.7445 39.1644 42.0243 38.889 42.3566 38.8933C42.689 38.8976 42.9648 39.1779 42.9605 39.5102C42.9557 39.8334 42.6716 40.1136 42.3523 40.1093C42.0113 40.1049 41.7358 39.8291 41.7402 39.4967ZM39.9647 41.7444C40.2884 41.7488 40.5594 41.4821 40.5594 41.1584C40.5594 40.8352 40.2971 40.5637 39.9739 40.555C39.6502 40.5507 39.37 40.8261 39.37 41.1541C39.37 41.4734 39.6415 41.7444 39.9647 41.7444ZM56.4947 42.5886C56.171 42.5886 55.9043 42.3218 55.9043 41.9982C55.9043 41.6745 56.1754 41.4034 56.4947 41.4034C56.8179 41.4034 57.0981 41.6832 57.0938 42.0069C57.0889 42.3218 56.8179 42.5886 56.4947 42.5886ZM51.6187 57.207C51.295 57.2114 51.0283 57.4781 51.0283 57.8018C51.0283 58.1254 51.2994 58.3965 51.6187 58.3965C51.9467 58.3965 52.2221 58.1168 52.2178 57.7931C52.2134 57.4738 51.9424 57.207 51.6187 57.207ZM56.3896 53.8967C56.7089 53.8967 56.9669 54.1635 56.9626 54.4828C56.9583 54.8064 56.6959 55.0688 56.3809 55.0645C56.0616 55.0601 55.7905 54.7847 55.7949 54.4654C55.7992 54.1504 56.0659 53.8924 56.3896 53.8967ZM54.8417 40.1836C54.5181 40.1836 54.2731 39.9342 54.2731 39.6149C54.2731 39.2999 54.5355 39.0424 54.8461 39.0467C55.1432 39.051 55.4099 39.3221 55.4099 39.6149C55.4143 39.9255 55.1562 40.1836 54.8417 40.1836ZM58.1651 44.941C58.4888 44.941 58.7333 44.6964 58.7333 44.3728C58.7333 44.0578 58.4752 43.7997 58.1651 43.7997C57.8675 43.8041 57.5964 44.0708 57.5964 44.3684C57.592 44.6834 57.8501 44.941 58.1651 44.941ZM37.4286 46.8699C37.4286 47.1844 37.1792 47.4337 36.8734 47.4337C36.5671 47.4294 36.3134 47.1713 36.3134 46.8651C36.3134 46.5636 36.5627 46.3185 36.869 46.3142C37.1884 46.3142 37.4286 46.5549 37.4286 46.8699ZM37.8004 44.832C37.7961 44.5257 37.5467 44.2855 37.2404 44.2855C36.9216 44.2855 36.6809 44.5257 36.6852 44.845C36.6852 45.1556 36.9303 45.4002 37.2318 45.4045C37.5424 45.4045 37.8047 45.1421 37.8004 44.832ZM47.2241 58.5673C47.539 58.5673 47.7879 58.8166 47.7879 59.1268C47.7836 59.4331 47.5255 59.6868 47.2197 59.6868C46.9177 59.6868 46.6727 59.4374 46.6727 59.1311C46.6684 58.8075 46.9047 58.5673 47.2241 58.5673ZM45.1948 59.3149C45.5142 59.3192 45.7592 59.079 45.7592 58.7641C45.7635 58.4491 45.5142 58.1954 45.2079 58.1954C44.902 58.1954 44.644 58.4534 44.644 58.7597C44.644 59.0655 44.889 59.3105 45.1948 59.3149ZM40.0438 55.6679C40.0438 55.9742 39.8075 56.2057 39.5012 56.2057C39.1954 56.2057 38.9547 55.9612 38.9547 55.6635C38.959 55.3708 39.2127 55.117 39.5055 55.117C39.8031 55.1214 40.0438 55.3664 40.0438 55.6679ZM36.5236 48.3478C36.2173 48.3521 35.981 48.5836 35.9854 48.8943C35.9897 49.2006 36.2347 49.4408 36.5323 49.4321C36.8251 49.4278 37.0745 49.174 37.0745 48.8813C37.0745 48.5836 36.8294 48.3478 36.5236 48.3478ZM43.1747 58.9387C42.8685 58.9387 42.6326 58.7072 42.6326 58.3965C42.6326 58.0907 42.8728 57.8457 43.1704 57.85C43.4632 57.85 43.7169 58.1037 43.7169 58.3965C43.7213 58.6941 43.4806 58.9343 43.1747 58.9387ZM37.293 53.2889C37.293 53.5952 37.5294 53.8268 37.8352 53.8268C38.1415 53.8268 38.3821 53.5822 38.3821 53.2846C38.3773 52.9875 38.1241 52.7381 37.8309 52.7381C37.5294 52.7381 37.293 52.9831 37.293 53.2889ZM37.595 42.2866C37.3017 42.2914 37.0659 42.536 37.0659 42.8293C37.0659 43.109 37.3104 43.3584 37.5906 43.3584C37.8878 43.3627 38.1371 43.1133 38.1371 42.8157C38.1371 42.5316 37.8834 42.2823 37.595 42.2866ZM59.1139 51.3258C58.8211 51.3258 58.5804 51.0851 58.576 50.7923C58.5717 50.5034 58.8254 50.2497 59.1096 50.2545C59.4023 50.2545 59.643 50.4947 59.6473 50.788C59.6517 51.0721 59.3979 51.3258 59.1139 51.3258ZM59.4722 49.3096C59.7568 49.3139 60.0105 49.065 60.0105 48.7761C60.0105 48.4833 59.7698 48.2426 59.4814 48.2339C59.1924 48.2339 58.9388 48.4833 58.9388 48.7674C58.9388 49.0607 59.1794 49.3052 59.4722 49.3096ZM49.2397 60.0061C48.947 60.0061 48.7063 59.7654 48.7063 59.4678C48.7063 59.1794 48.9556 58.93 49.2441 58.93C49.5374 58.9343 49.7776 59.175 49.7819 59.4678C49.7819 59.7567 49.5287 60.0061 49.2397 60.0061ZM51.68 36.8993C51.6843 36.5935 51.4658 36.3615 51.1595 36.3615C50.8624 36.3615 50.6217 36.5978 50.6217 36.8906C50.6217 37.1704 50.8711 37.4197 51.1508 37.4197C51.4393 37.4197 51.6757 37.1882 51.68 36.8993ZM40.3279 39.6631C40.0347 39.6631 39.7945 39.4225 39.7988 39.1297C39.8032 38.8499 40.0526 38.6049 40.3323 38.6049C40.6207 38.6092 40.8571 38.8412 40.8571 39.1297C40.8571 39.4355 40.6338 39.6631 40.3279 39.6631ZM53.6388 57.6402C53.333 57.6402 53.1102 57.8674 53.1145 58.1737C53.1145 58.4621 53.3503 58.6941 53.6436 58.6985C53.9234 58.6985 54.1679 58.4534 54.1727 58.1737C54.1727 57.8804 53.9364 57.6402 53.6388 57.6402ZM56.0176 57.0194C55.7249 57.0194 55.4929 56.7831 55.4972 56.4903C55.4972 56.2014 55.7422 55.9655 56.0312 55.9698C56.3022 55.9742 56.5511 56.2235 56.5511 56.4946C56.5468 56.7831 56.3066 57.0194 56.0176 57.0194ZM43.2316 37.4636C43.2316 37.1704 42.9953 36.9388 42.7025 36.9432C42.4136 36.9475 42.1777 37.1882 42.1777 37.4767C42.182 37.7477 42.4357 37.9971 42.7068 37.9928C42.9996 37.9928 43.236 37.7521 43.2316 37.4636ZM59.2846 52.808C59.2846 53.0878 59.0482 53.3285 58.7685 53.3285C58.4796 53.3285 58.2393 53.0878 58.2437 52.7993C58.2437 52.5283 58.4844 52.2876 58.7554 52.2833C59.0352 52.2833 59.2803 52.5196 59.2846 52.808ZM36.6722 50.91C36.6722 51.1859 36.4402 51.4174 36.1647 51.4131C35.8893 51.4131 35.653 51.1816 35.653 50.9057C35.653 50.6259 35.8937 50.39 36.1735 50.39C36.4445 50.3987 36.6722 50.6346 36.6722 50.91ZM52.6596 37.236C52.6596 37.507 52.8954 37.7434 53.1709 37.7434C53.4511 37.7434 53.6827 37.5162 53.6783 37.236C53.6827 36.9605 53.4511 36.7247 53.1801 36.7203C52.8998 36.7203 52.6596 36.9562 52.6596 37.236ZM59.0223 42.3479C59.0223 42.6281 58.7946 42.8553 58.5148 42.8553C58.2394 42.8553 58.0031 42.6238 58.0031 42.3522C58.0031 42.0724 58.2438 41.8322 58.5192 41.8366C58.7946 41.8322 59.0223 42.0681 59.0223 42.3479ZM40.6429 58.0555C40.6472 58.3309 40.8831 58.5542 41.1628 58.5542C41.4388 58.5542 41.666 58.3222 41.6616 58.0425C41.6616 57.7671 41.4252 57.5307 41.1542 57.535C40.8745 57.535 40.6385 57.7757 40.6429 58.0555ZM56.8618 39.4707C57.1416 39.4707 57.3693 39.6978 57.3693 39.9781C57.3693 40.2535 57.1373 40.4894 56.8661 40.4937C56.5864 40.4937 56.3457 40.2579 56.35 39.9781C56.35 39.7027 56.5821 39.4707 56.8618 39.4707ZM59.328 46.7517C59.328 47.0315 59.5557 47.263 59.8311 47.263C60.1108 47.2678 60.3429 47.0401 60.3472 46.7604C60.3516 46.485 60.1152 46.2399 59.8354 46.2399C59.5643 46.2399 59.3323 46.4763 59.328 46.7517ZM51.7672 59.831C51.7672 60.1108 51.553 60.3293 51.2733 60.3293C50.9935 60.3293 50.7702 60.1064 50.7702 59.8354C50.7702 59.5686 51.0022 59.3366 51.269 59.3323C51.54 59.3279 51.7672 59.5556 51.7672 59.831ZM37.9577 41.2988C38.2158 41.2988 38.4429 41.0668 38.4429 40.8044C38.4429 40.5376 38.2244 40.3148 37.9577 40.3061C37.6909 40.3061 37.4503 40.5376 37.4551 40.8C37.4594 41.0711 37.6866 41.2988 37.9577 41.2988ZM58.4097 54.3602C58.6721 54.3646 58.8824 54.5792 58.8824 54.8459C58.8776 55.1127 58.6591 55.3268 58.401 55.3225C58.1343 55.3182 57.9114 55.0862 57.9201 54.8238C57.9201 54.5662 58.1386 54.3602 58.4097 54.3602ZM37.4724 55.773C37.2057 55.773 37.0045 55.5719 37.0045 55.3095C37.0045 55.0514 37.2187 54.8329 37.4681 54.8373C37.7218 54.8373 37.9359 55.0514 37.9403 55.3095C37.9446 55.554 37.7305 55.773 37.4724 55.773ZM55.1958 38.0627C55.4582 38.0627 55.6594 37.8616 55.6594 37.5948C55.6594 37.3368 55.4409 37.1226 55.1958 37.127C54.9377 37.1313 54.7236 37.3455 54.7236 37.5992C54.7192 37.8485 54.9377 38.0627 55.1958 38.0627ZM60.1808 44.2589C60.4475 44.2589 60.6487 44.4557 60.6487 44.7225C60.6487 44.9805 60.4388 45.199 60.1851 45.199C59.9314 45.199 59.7173 44.9849 59.7086 44.7311C59.7086 44.4731 59.9227 44.2589 60.1808 44.2589ZM36.2656 52.9219C36.2656 52.6682 36.0645 52.4714 35.8107 52.4757C35.5657 52.4757 35.3516 52.6899 35.3602 52.9305C35.3646 53.1756 35.5787 53.3811 35.8194 53.3811C36.0601 53.3811 36.2656 53.1664 36.2656 52.9219ZM40.6949 37.5683C40.4504 37.5683 40.2358 37.3628 40.2358 37.1226C40.2358 36.8819 40.446 36.6678 40.6863 36.6634C40.9269 36.6591 41.1368 36.8689 41.1411 37.1134C41.1454 37.3672 40.9487 37.5683 40.6949 37.5683ZM44.3903 60.7755C44.3859 61.0161 44.6001 61.226 44.8452 61.226C45.0945 61.226 45.2957 61.0291 45.2957 60.7755C45.2957 60.5304 45.0858 60.3163 44.8452 60.3206C44.6044 60.3249 44.3947 60.5304 44.3903 60.7755ZM56.1185 58.5277C56.1185 58.7727 55.9087 58.9869 55.668 58.9826C55.4273 58.9826 55.2131 58.7727 55.2131 58.5277C55.2088 58.2875 55.423 58.0772 55.668 58.0772C55.9217 58.0772 56.1229 58.274 56.1185 58.5277ZM39.5977 57.6793C39.5933 57.4391 39.3792 57.2336 39.1342 57.2336C38.8804 57.2379 38.6837 57.4391 38.6923 57.6928C38.6967 57.933 38.8978 58.1385 39.1342 58.1428C39.3792 58.1428 39.5977 57.9286 39.5977 57.6793ZM34.8615 46.0605C35.0978 46.0648 35.3033 46.2708 35.3033 46.511C35.299 46.7604 35.0891 46.9615 34.8441 46.9572C34.6125 46.9529 34.4114 46.7473 34.4114 46.5154C34.4114 46.266 34.6169 46.0605 34.8615 46.0605ZM46.8608 61.5844C47.0972 61.5887 47.307 61.3788 47.307 61.143C47.307 60.8979 47.1015 60.6881 46.8565 60.6881C46.6163 60.6925 46.4108 60.9023 46.4152 61.1386C46.4195 61.3832 46.6163 61.58 46.8608 61.5844ZM35.203 44.941C34.9623 44.9323 34.7655 44.7181 34.7742 44.4823C34.7829 44.2329 35.0018 44.0361 35.2464 44.0491C35.4827 44.0621 35.6752 44.2676 35.6665 44.504C35.6573 44.749 35.4476 44.9501 35.203 44.941ZM52.8521 60.1807C52.8521 60.4258 53.0488 60.6182 53.2934 60.6182C53.5385 60.6182 53.7352 60.4214 53.7309 60.172C53.7309 59.9449 53.5211 59.7394 53.2934 59.7394C53.0488 59.7394 52.8521 59.9357 52.8521 60.1807ZM38.3209 39.2256C38.0715 39.23 37.8791 39.0375 37.8748 38.793C37.8748 38.5479 38.0672 38.3511 38.3118 38.3468C38.5394 38.3425 38.7492 38.5479 38.7536 38.78C38.7579 39.0202 38.5654 39.2213 38.3209 39.2256ZM58.4405 40.3322C58.4448 40.5637 58.6503 40.7605 58.8823 40.7605C59.1182 40.7605 59.315 40.5593 59.3107 40.3278C59.3063 40.0958 59.1052 39.8947 58.8732 39.8947C58.646 39.8947 58.4362 40.1049 58.4405 40.3322ZM34.0748 48.5224C34.0748 48.2865 34.2759 48.0897 34.5118 48.0941C34.7438 48.0984 34.9449 48.2996 34.9449 48.5316C34.9449 48.7587 34.7308 48.9686 34.5075 48.9642C34.2716 48.9599 34.0748 48.7587 34.0748 48.5224ZM42.8245 60.8676C43.0565 60.8628 43.2577 60.6616 43.2577 60.4301C43.262 60.1937 43.0652 59.9926 42.8245 59.9969C42.5886 59.9969 42.3918 60.1981 42.3875 60.4301C42.3875 60.6573 42.5974 60.8676 42.8245 60.8676ZM48.4704 61.4883C48.4704 61.252 48.6537 61.0687 48.8901 61.0687C49.1259 61.0687 49.314 61.252 49.3228 61.4883C49.3276 61.7155 49.1172 61.9254 48.8901 61.921C48.6537 61.9123 48.4704 61.7199 48.4704 61.4883ZM35.5657 42.8813C35.3298 42.8813 35.1461 42.6981 35.1461 42.4574C35.1461 42.221 35.3342 42.0334 35.5657 42.0291C35.7886 42.0247 35.9945 42.2258 35.9988 42.4487C36.0032 42.6894 35.8064 42.8857 35.5657 42.8813ZM58.0556 57.2813C58.2963 57.2813 58.4752 57.098 58.4752 56.8573C58.4709 56.6215 58.2828 56.429 58.0556 56.429C57.8328 56.429 57.6273 56.6302 57.6229 56.853C57.6181 57.0894 57.8149 57.2813 58.0556 57.2813ZM61.0684 49.1215C61.0732 48.89 61.2651 48.7018 61.5015 48.7062C61.7287 48.7105 61.9125 48.903 61.9125 49.1306C61.9125 49.3491 61.7113 49.5503 61.4928 49.5503C61.2608 49.5459 61.0684 49.3535 61.0684 49.1215ZM61.5627 51.1681C61.5714 50.9366 61.379 50.7397 61.1474 50.7354C60.9154 50.731 60.723 50.9235 60.7186 51.1594C60.7186 51.3827 60.9024 51.5703 61.1339 51.5795C61.3486 51.5839 61.554 51.3871 61.5627 51.1681ZM57.2072 38.3555C56.9713 38.3555 56.7962 38.1765 56.8005 37.9402C56.8005 37.713 56.98 37.5336 57.2028 37.5292C57.4305 37.5292 57.6182 37.7173 57.623 37.9445C57.6273 38.1717 57.4435 38.3555 57.2072 38.3555ZM60.1412 42.7111C60.1412 42.947 60.3207 43.122 60.557 43.1177C60.7798 43.1134 60.9636 42.9339 60.968 42.7111C60.968 42.4834 60.7798 42.2958 60.5527 42.2914C60.325 42.2914 60.1412 42.4791 60.1412 42.7111ZM60.7756 52.7642C60.9984 52.7642 61.1865 52.9479 61.1909 53.1621C61.1909 53.3854 60.9984 53.5779 60.7756 53.5779C60.5614 53.5779 60.3733 53.3854 60.3733 53.1664C60.3733 52.9436 60.5484 52.7642 60.7756 52.7642ZM53.9233 35.2202C53.919 35.4474 53.7352 35.6269 53.5124 35.6182C53.3021 35.6138 53.1144 35.417 53.1231 35.2072C53.1318 34.9882 53.3112 34.818 53.5297 34.818C53.7439 34.818 53.9233 35.0017 53.9233 35.2202ZM61.8599 47.5037C62.0745 47.5037 62.2535 47.3242 62.2535 47.1057C62.2491 46.8786 62.0654 46.6991 61.8425 46.6991C61.6327 46.7078 61.4489 46.9003 61.4532 47.1101C61.4619 47.3334 61.6414 47.5037 61.8599 47.5037ZM41.2067 60.0625C41.2067 60.2902 41.0229 60.474 40.8001 60.4696C40.5903 60.4648 40.4022 60.2728 40.4065 60.0625C40.4108 59.844 40.5859 59.6689 40.8088 59.6646C41.0229 59.6646 41.2067 59.844 41.2067 60.0625ZM33.7468 50.5516C33.7424 50.7701 33.9214 50.9539 34.136 50.9583C34.3632 50.9626 34.547 50.7836 34.5513 50.556C34.5513 50.3461 34.3589 50.1537 34.149 50.1537C33.9301 50.1537 33.7511 50.3331 33.7468 50.5516ZM35.8369 54.9593C35.8325 55.1783 35.6622 55.3442 35.4476 55.3442C35.2421 55.3442 35.0675 55.1696 35.0675 54.9641C35.0675 54.7495 35.2551 54.5662 35.4698 54.5705C35.6709 54.5749 35.8412 54.7538 35.8369 54.9593ZM35.5483 40.4373C35.544 40.6515 35.71 40.8217 35.9289 40.8261C36.1344 40.8309 36.3134 40.6602 36.322 40.459C36.3268 40.2448 36.1431 40.0567 35.9289 40.0567C35.723 40.0567 35.5483 40.2313 35.5483 40.4373ZM37.1271 57.7231C36.9081 57.7231 36.7378 57.5572 36.7378 57.3383C36.7335 57.1284 36.9167 56.9446 37.1271 56.949C37.3369 56.9538 37.5158 57.1328 37.5115 57.3426C37.5071 57.5481 37.3325 57.7231 37.1271 57.7231ZM50.9188 61.4666C50.7003 61.4618 50.53 61.6282 50.5257 61.8467C50.5209 62.0522 50.6916 62.2317 50.8971 62.2403C51.1113 62.2447 51.2994 62.0614 51.2994 61.8467C51.2994 61.6456 51.1248 61.4666 50.9188 61.4666ZM60.0453 55.1826C60.0453 54.9771 60.2117 54.8151 60.4172 54.8151C60.6183 54.8151 60.7886 54.9858 60.7886 55.1826C60.7929 55.3794 60.6183 55.554 60.4215 55.5584C60.2204 55.5675 60.0453 55.3925 60.0453 55.1826ZM41.0317 34.7393C41.242 34.735 41.3992 34.8922 41.4036 35.1021C41.4036 35.3032 41.2333 35.4739 41.0365 35.4696C40.8484 35.4696 40.6733 35.2945 40.6777 35.1021C40.6733 34.9053 40.8397 34.7437 41.0317 34.7393ZM38.6489 37.1226C38.85 37.1226 39.0203 36.9562 39.0203 36.7551C39.0203 36.5496 38.863 36.3923 38.6489 36.3923C38.4564 36.3967 38.2944 36.5583 38.29 36.7551C38.2857 36.9432 38.4608 37.1183 38.6489 37.1226ZM62.5641 45.0857C62.5641 45.2868 62.3933 45.4571 62.1922 45.4527C62.0046 45.4484 61.8295 45.2733 61.8338 45.0857C61.8381 44.8889 62.0002 44.7225 62.1922 44.7225C62.4025 44.7225 62.5641 44.8802 62.5641 45.0857ZM57.6885 58.5103C57.4782 58.5147 57.321 58.6719 57.3253 58.8822C57.3253 59.079 57.4917 59.2406 57.6885 59.2363C57.8848 59.2406 58.0643 59.0569 58.0556 58.8644C58.0469 58.6676 57.8848 58.5103 57.6885 58.5103ZM55.5542 35.9418C55.353 35.9418 55.1871 35.7711 55.1915 35.5699C55.1958 35.3818 55.3709 35.2115 55.5585 35.2115C55.7553 35.2159 55.9174 35.3775 55.9218 35.5743C55.9174 35.7841 55.7596 35.9418 55.5542 35.9418ZM54.9464 60.5348C54.942 60.7451 55.0949 60.9023 55.3052 60.9066C55.5063 60.911 55.6766 60.7407 55.6766 60.5396C55.6766 60.3515 55.502 60.1764 55.3139 60.1764C55.1171 60.1807 54.9507 60.3428 54.9464 60.5348ZM33.7902 52.9262C33.5977 52.9262 33.4405 52.7733 33.4361 52.5809C33.4361 52.3927 33.6021 52.2263 33.7858 52.2263C33.9739 52.2307 34.136 52.3971 34.136 52.5852C34.1312 52.7598 33.9696 52.9219 33.7902 52.9262ZM38.7752 59.3545C38.5833 59.3588 38.4299 59.5161 38.4299 59.7085C38.4299 59.8923 38.5919 60.0539 38.7709 60.0539C38.959 60.0539 39.1254 59.8923 39.1298 59.7042C39.1298 59.5204 38.9633 59.3545 38.7752 59.3545ZM61.2305 40.6949C61.2261 40.8873 61.0775 41.032 60.8807 41.0272C60.697 41.0229 60.5484 40.87 60.5484 40.6905C60.5484 40.5072 60.71 40.3495 60.8937 40.3495C61.0862 40.3452 61.2348 40.5029 61.2305 40.6949ZM58.8997 38.3073C58.8997 38.4954 59.0569 38.6487 59.2451 38.6444C59.4375 38.6444 59.5817 38.4954 59.5774 38.2986C59.5774 38.1153 59.4245 37.9662 59.2451 37.9662C59.0613 37.9662 58.8997 38.124 58.8997 38.3073ZM36.2873 38.7578C36.1035 38.7578 35.955 38.6005 35.9593 38.4211C35.9637 38.2373 36.1209 38.0844 36.296 38.0931C36.4754 38.0974 36.6284 38.2552 36.624 38.4341C36.6284 38.6092 36.4711 38.7578 36.2873 38.7578ZM52.9264 61.882C52.7469 61.8776 52.5941 62.0262 52.5941 62.2099C52.5941 62.3937 52.7469 62.551 52.922 62.5466C53.101 62.5466 53.2543 62.3937 53.2587 62.2143C53.2631 62.0392 53.1101 61.8863 52.9264 61.882ZM44.4997 62.4637C44.6835 62.4637 44.832 62.6165 44.8277 62.8003C44.8234 62.9836 44.6656 63.137 44.491 63.1283C44.3116 63.124 44.1587 62.9662 44.1587 62.7868C44.163 62.6122 44.3159 62.4588 44.4997 62.4637ZM33.1608 46.1348C33.1564 45.9558 33.0165 45.8203 32.8328 45.8246C32.6577 45.829 32.5134 45.9732 32.5134 46.1483C32.5134 46.3185 32.6664 46.4719 32.8371 46.4719C33.0165 46.4719 33.1651 46.3185 33.1608 46.1348ZM60.0713 57.5394C60.2551 57.5394 60.3906 57.4038 60.3906 57.2206C60.3863 57.0455 60.2464 56.8969 60.0761 56.8925C59.901 56.8882 59.739 57.0498 59.7433 57.2249C59.7481 57.3995 59.8923 57.5394 60.0713 57.5394ZM33.5104 44.1364C33.506 44.3159 33.3662 44.4514 33.1868 44.4514C33.0078 44.4471 32.8631 44.3072 32.8631 44.1277C32.8631 43.9575 33.0165 43.8041 33.1868 43.8041C33.3618 43.7997 33.5104 43.9531 33.5104 44.1364ZM46.8348 63.1587C46.8348 62.9793 46.6992 62.8394 46.5198 62.8351C46.336 62.8351 46.1831 62.9793 46.1874 63.1587C46.1874 63.3295 46.3403 63.4824 46.5111 63.4824C46.6862 63.478 46.8304 63.3381 46.8348 63.1587ZM32.4695 48.4963C32.3036 48.492 32.1594 48.3478 32.1594 48.177C32.1594 48.0111 32.3079 47.8621 32.4739 47.8621C32.6447 47.8621 32.7888 48.0068 32.7932 48.1727C32.7932 48.3478 32.6447 48.4963 32.4695 48.4963ZM42.7811 62.4637C42.7855 62.2886 42.6412 62.1357 42.4662 62.1313C42.2959 62.1265 42.1512 62.2712 42.1469 62.4415C42.1425 62.6079 42.2867 62.7608 42.4531 62.7651C42.6234 62.7695 42.7725 62.6296 42.7811 62.4637ZM48.5404 63.2156C48.7106 63.22 48.8375 63.3555 48.8332 63.5263C48.8289 63.6922 48.6846 63.8277 48.5225 63.8277C48.3653 63.8234 48.2167 63.6748 48.2211 63.5171C48.2211 63.3512 48.3696 63.2113 48.5404 63.2156ZM33.2437 42.1163C33.2437 42.2779 33.3835 42.4178 33.55 42.4178C33.7202 42.4178 33.8514 42.2866 33.8558 42.1207C33.8558 41.9499 33.7115 41.8014 33.5456 41.8057C33.3879 41.8101 33.2437 41.9591 33.2437 42.1163ZM62.5728 42.7593C62.7348 42.7636 62.8747 42.9122 62.8747 43.0695C62.8704 43.2402 62.7213 43.3758 62.551 43.3714C62.3803 43.3627 62.2534 43.2272 62.2621 43.0564C62.267 42.8949 62.4112 42.755 62.5728 42.7593ZM57.2684 35.9245C57.2641 36.0947 57.3909 36.2303 57.5617 36.2346C57.732 36.239 57.8806 36.0947 57.8806 35.9288C57.8806 35.7711 57.732 35.6225 57.5747 35.6225C57.4127 35.6182 57.2728 35.7581 57.2684 35.9245ZM63.5042 49.1919C63.3383 49.1919 63.2158 49.3183 63.2158 49.4847C63.2158 49.6554 63.3513 49.791 63.5172 49.7818C63.6663 49.7775 63.8018 49.6419 63.8062 49.4933C63.8105 49.3274 63.6749 49.1919 63.5042 49.1919ZM34.7959 56.9668C34.7959 56.8004 34.9271 56.6779 35.0935 56.6823C35.2551 56.6866 35.3863 56.8134 35.3863 56.9755C35.3863 57.1284 35.2464 57.2726 35.0935 57.2726C34.9271 57.2726 34.7959 57.1371 34.7959 56.9668ZM63.1588 51.7937C62.9924 51.7937 62.866 51.6711 62.866 51.5004C62.866 51.3301 63.0016 51.1946 63.1675 51.1989C63.316 51.2033 63.4516 51.3388 63.4559 51.4874C63.4651 51.6581 63.3295 51.7937 63.1588 51.7937ZM33.4275 54.885C33.5891 54.885 33.7246 54.7495 33.7246 54.5923C33.7203 54.4393 33.5891 54.3081 33.4362 54.3081C33.2789 54.3081 33.1477 54.4393 33.1477 54.5923C33.1477 54.7451 33.2789 54.8807 33.4275 54.885ZM63.0845 53.534C63.0889 53.6869 62.9577 53.8224 62.8047 53.8224C62.6514 53.8268 62.5159 53.6956 62.5115 53.5427C62.5071 53.3854 62.6427 53.2455 62.8004 53.2455C62.949 53.2455 63.0802 53.3811 63.0845 53.534ZM36.7552 59.0655C36.9081 59.0612 37.0436 59.188 37.048 59.3458C37.0524 59.4987 36.9216 59.6385 36.7726 59.6429C36.6154 59.6472 36.4755 59.5161 36.4711 59.3545C36.4668 59.2054 36.6023 59.0699 36.7552 59.0655ZM40.4461 62.3585C40.599 62.3585 40.7258 62.236 40.7258 62.0831C40.7258 61.9432 40.586 61.8033 40.4461 61.8033C40.2971 61.8077 40.1702 61.9345 40.1702 62.0831C40.1702 62.2317 40.2927 62.3585 40.4461 62.3585ZM54.1636 33.2002C54.1636 33.3531 54.0367 33.4756 53.8839 33.4756C53.7309 33.4756 53.6084 33.3487 53.6084 33.2002C53.6084 33.0511 53.7353 32.9243 53.8839 32.9199C54.028 32.9199 54.1679 33.0598 54.1636 33.2002ZM57.3297 61.169C57.4826 61.1647 57.6051 61.0378 57.6008 60.8849C57.5964 60.7364 57.4652 60.6095 57.3167 60.6139C57.1768 60.6139 57.0413 60.7581 57.0456 60.8979C57.0499 61.0509 57.1812 61.1734 57.3297 61.169ZM39.3 34.735C39.3 34.5951 39.1602 34.4547 39.0203 34.4591C38.8717 34.4639 38.7449 34.5903 38.7449 34.7393C38.7492 34.8922 38.8717 35.0148 39.0246 35.0148C39.1732 35.0104 39.3 34.8836 39.3 34.735ZM34.1751 40.0915C34.1751 40.2448 34.0656 40.3539 33.9127 40.3582C33.7684 40.3582 33.6459 40.2405 33.6416 40.0958C33.6416 39.9559 33.7641 39.8247 33.9083 39.8247C34.0526 39.8247 34.1751 39.9472 34.1751 40.0915ZM54.9464 62.8264C55.0906 62.8264 55.2131 62.7039 55.2131 62.5596C55.2131 62.4198 55.0863 62.2929 54.9464 62.2972C54.8065 62.2972 54.684 62.4198 54.684 62.564C54.684 62.7169 54.7935 62.8264 54.9464 62.8264ZM36.9037 36.4097C36.9037 36.5626 36.7904 36.6721 36.637 36.6721C36.4928 36.6721 36.3703 36.5496 36.3703 36.4054C36.3703 36.2655 36.5015 36.1386 36.6414 36.1386C36.7856 36.143 36.9081 36.2655 36.9037 36.4097ZM41.1499 33.0598C41.1455 33.2002 41.255 33.3222 41.3949 33.3265C41.5305 33.3309 41.6573 33.2132 41.6616 33.0733C41.6616 32.9378 41.5478 32.8196 41.4036 32.8152C41.2724 32.8152 41.1542 32.9286 41.1499 33.0598ZM59.713 58.9826C59.8528 58.9869 59.9623 59.1094 59.958 59.2493C59.9537 59.3805 59.8355 59.4943 59.7043 59.4943C59.5601 59.4943 59.4419 59.3762 59.4462 59.2363C59.4506 59.0964 59.5775 58.9782 59.713 58.9826ZM61.2608 38.9285C61.3964 38.9242 61.5145 38.8017 61.5145 38.6661C61.5145 38.5262 61.392 38.4124 61.2478 38.4167C61.1166 38.4211 61.0027 38.5393 61.0027 38.6705C61.0076 38.8147 61.121 38.9329 61.2608 38.9285ZM62.4503 55.2965C62.5858 55.3008 62.7084 55.4229 62.704 55.5584C62.704 55.6987 62.5815 55.8121 62.4373 55.8077C62.3061 55.8034 62.1923 55.6896 62.1923 55.554C62.1923 55.4098 62.3104 55.2917 62.4503 55.2965ZM62.9181 41.2852C63.058 41.2852 63.1718 41.1762 63.1718 41.0407C63.1718 40.9138 63.0628 40.8 62.936 40.7957C62.8047 40.7914 62.6823 40.9095 62.6823 41.0407C62.6823 41.1676 62.7913 41.2809 62.9181 41.2852ZM55.9 33.7944C55.7731 33.7944 55.6636 33.6811 55.6593 33.5542C55.6593 33.423 55.7775 33.3048 55.9087 33.3092C56.0355 33.3135 56.1489 33.4274 56.1489 33.5542C56.1489 33.6854 56.0355 33.7944 55.9 33.7944ZM59.5948 36.5366C59.726 36.5322 59.8354 36.4184 59.8354 36.2915C59.8354 36.156 59.7216 36.0465 59.5861 36.0508C59.4592 36.0508 59.3454 36.1647 59.3454 36.2915C59.3411 36.4227 59.4636 36.5409 59.5948 36.5366ZM38.4256 61.9692C38.2944 61.9649 38.1897 61.8554 38.1984 61.7199C38.2027 61.593 38.3117 61.497 38.4386 61.5014C38.5654 61.5057 38.6663 61.6109 38.6619 61.7377C38.6576 61.8598 38.5438 61.9736 38.4256 61.9692ZM34.2538 38.2812C34.3719 38.2856 34.4771 38.1896 34.4814 38.067C34.4858 37.9532 34.3936 37.8529 34.2759 37.8437C34.1491 37.8351 34.0483 37.9228 34.0439 38.0497C34.0396 38.1717 34.136 38.2769 34.2538 38.2812ZM34.9493 58.9956C34.9449 59.1094 34.8441 59.2011 34.726 59.1924C34.6126 59.188 34.534 59.0964 34.5383 58.9826C34.5427 58.8731 34.6343 58.7814 34.7394 58.7814C34.8528 58.7858 34.9536 58.8866 34.9493 58.9956ZM33.0734 56.8178C33.1868 56.8178 33.2746 56.7305 33.2746 56.6166C33.2789 56.5033 33.1912 56.4068 33.0822 56.4025C32.9727 56.3982 32.8675 56.4946 32.8632 56.608C32.8588 56.7218 32.9553 56.8178 33.0734 56.8178ZM62.2931 57.5746C62.2931 57.6884 62.1879 57.7801 62.0746 57.7757C61.9608 57.7714 61.8777 57.6793 61.8821 57.5659C61.8865 57.4564 61.9781 57.3604 62.0833 57.3604C62.1923 57.3604 62.2974 57.4608 62.2931 57.5746ZM58.1213 33.9348C58.1343 33.8296 58.0557 33.7336 57.9505 33.7245C57.8458 33.7115 57.7494 33.7901 57.7407 33.8996C57.7363 34.0004 57.8193 34.0964 57.9244 34.105C58.0209 34.1137 58.1125 34.0351 58.1213 33.9348ZM56.8049 62.9224C56.8093 62.8264 56.8835 62.7521 56.9843 62.7521C57.0803 62.7521 57.1594 62.8351 57.1546 62.9315C57.1546 63.0232 57.0673 63.1061 56.9756 63.1018C56.8792 63.0975 56.8005 63.0188 56.8049 62.9224ZM59.1838 61.252C59.1838 61.3485 59.2625 61.4271 59.3589 61.4271C59.4506 61.4314 59.5336 61.3528 59.5336 61.252C59.5336 61.1603 59.4506 61.0774 59.3589 61.0774C59.2668 61.0774 59.1838 61.156 59.1838 61.252ZM36.3876 61.5453C36.2916 61.5409 36.2173 61.4618 36.2217 61.3615C36.226 61.2655 36.309 61.1907 36.4055 61.1907C36.4971 61.1951 36.5801 61.2785 36.5757 61.3745C36.567 61.471 36.4841 61.5496 36.3876 61.5453ZM36.8338 34.3718C36.8338 34.4726 36.9081 34.5512 37.0045 34.5512C37.0962 34.5512 37.1791 34.4726 37.1835 34.3805C37.1883 34.2888 37.1049 34.2015 37.0132 34.2015C36.9167 34.1972 36.8338 34.2758 36.8338 34.3718ZM39.3878 32.8939C39.287 32.8939 39.2127 32.8196 39.2127 32.7188C39.2127 32.6228 39.2913 32.5442 39.3878 32.5442C39.4794 32.5442 39.5624 32.6271 39.5624 32.7188C39.5624 32.8152 39.4838 32.8939 39.3878 32.8939ZM63.2592 39.1779C63.3513 39.1866 63.4299 39.1123 63.4342 39.0245C63.4342 38.9372 63.3687 38.8672 63.2813 38.8629C63.1935 38.8586 63.1149 38.9372 63.1149 39.0245C63.1149 39.1031 63.1805 39.1687 63.2592 39.1779ZM61.5975 36.484C61.6896 36.4796 61.7639 36.5539 61.7639 36.6456C61.7639 36.729 61.6896 36.8033 61.6067 36.799C61.5232 36.799 61.4489 36.729 61.4489 36.6456C61.4446 36.5583 61.5102 36.4883 61.5975 36.484ZM34.4684 36.0291C34.4592 36.1212 34.5339 36.1999 34.6213 36.2042C34.7086 36.2042 34.7785 36.1386 34.7828 36.0508C34.7872 35.9635 34.7086 35.8849 34.6213 35.8849C34.5427 35.8849 34.4771 35.9505 34.4684 36.0291ZM61.7243 59.4461C61.7986 59.4461 61.8642 59.5117 61.8599 59.586C61.8599 59.6602 61.7943 59.7215 61.72 59.7215C61.6971 59.7215 61.675 59.7157 61.6556 59.7054C61.6273 59.6903 61.6044 59.6655 61.5927 59.6351C61.5864 59.6187 61.5834 59.6007 61.5844 59.5816C61.5887 59.5117 61.65 59.4504 61.7243 59.4461ZM59.8138 34.2628C59.8138 34.3371 59.8793 34.3983 59.9536 34.3983C60.0279 34.3983 60.0935 34.3327 60.0892 34.258C60.0892 34.1837 60.0236 34.1224 59.9493 34.1224C59.8702 34.1224 59.809 34.188 59.8138 34.2628ZM32.7232 58.5277C32.7802 58.5277 32.8327 58.5803 32.8327 58.6415C32.8327 58.6521 32.8314 58.6624 32.829 58.6722L32.8276 58.6768L32.8268 58.6795C32.826 58.6821 32.8251 58.6846 32.8242 58.6871C32.8229 58.6904 32.8214 58.6936 32.8198 58.6968C32.8025 58.7313 32.769 58.7554 32.7276 58.7554C32.662 58.7554 32.605 58.7028 32.6099 58.6372C32.6142 58.5759 32.6663 58.5277 32.7232 58.5277ZM34.3849 61.1208C34.4462 61.1165 34.4944 61.0639 34.4901 61.0031C34.4901 60.963 34.4676 60.9286 34.4337 60.9107C34.4234 60.9053 34.4121 60.9014 34.4001 60.8994C34.3911 60.8978 34.3816 60.8973 34.3719 60.8979C34.3438 60.8979 34.3168 60.9107 34.2966 60.9305C34.2759 60.9509 34.2624 60.9786 34.2624 61.0074C34.2624 61.0731 34.3193 61.1252 34.3849 61.1208ZM32.2467 37.8264C32.1855 37.8264 32.1329 37.7786 32.1329 37.7217C32.1329 37.6604 32.1811 37.6078 32.238 37.6035C32.3036 37.5992 32.3605 37.6561 32.3605 37.7217C32.3562 37.7738 32.308 37.8264 32.2467 37.8264ZM37.949 63.7578C37.9533 63.8147 38.0059 63.8629 38.0671 63.8629C38.1284 63.8629 38.1761 63.8147 38.1761 63.7534C38.1761 63.6965 38.124 63.644 38.0671 63.6396C38.0015 63.6353 37.9446 63.6922 37.949 63.7578ZM63.8365 59.9492C63.8278 59.9969 63.8018 60.0278 63.7492 60.0278C63.6966 60.0235 63.6749 59.9883 63.6793 59.9405C63.682 59.9128 63.6934 59.892 63.7136 59.8805C63.7253 59.8737 63.7401 59.8701 63.7579 59.8701C63.7815 59.8701 63.7998 59.8775 63.8129 59.8907C63.8264 59.9045 63.8343 59.9246 63.8365 59.9492ZM32.2819 60.666C32.2819 60.7142 32.3167 60.7407 32.3693 60.7407C32.4175 60.7315 32.4435 60.7012 32.4391 60.6529C32.4348 60.6095 32.404 60.583 32.3605 60.583C32.3123 60.583 32.2819 60.6139 32.2819 60.666ZM63.5568 37.0044C63.5612 36.9562 63.5828 36.9215 63.6354 36.9215C63.653 36.9215 63.6681 36.9255 63.6803 36.9331C63.7017 36.9464 63.7141 36.9709 63.7141 37.0044C63.7141 37.0483 63.6837 37.0744 63.6441 37.0787C63.6302 37.0812 63.6177 37.0808 63.6068 37.0776L63.6033 37.0764L63.6004 37.0752L63.5967 37.0735C63.5938 37.072 63.5911 37.0703 63.5884 37.0683C63.5722 37.056 63.5614 37.0345 63.5568 37.0044ZM61.3746 61.5409C61.322 61.5409 61.3003 61.5757 61.296 61.6239C61.3003 61.6765 61.3307 61.7025 61.3833 61.6982C61.4018 61.6962 61.4183 61.6894 61.4306 61.6783C61.4446 61.6656 61.4532 61.6473 61.4532 61.6239C61.4532 61.5713 61.4229 61.5409 61.3746 61.5409ZM32.6007 35.6008C32.6533 35.6052 32.6885 35.6269 32.6885 35.6794C32.6885 35.7277 32.6576 35.7581 32.605 35.7581C32.5616 35.7581 32.5351 35.7277 32.5308 35.6881C32.522 35.6399 32.5529 35.6095 32.6007 35.6008ZM34.0266 62.9619C33.974 62.9619 33.9523 62.9971 33.9479 63.0492C33.9492 63.0564 33.951 63.0631 33.9532 63.0693C33.957 63.0796 33.962 63.0885 33.9683 63.0958C33.9836 63.1136 34.0062 63.1221 34.0352 63.1192C34.0748 63.1148 34.1052 63.0888 34.1052 63.0449C34.1052 62.9928 34.0748 62.9619 34.0266 62.9619ZM59.0743 63.2769C59.0656 63.3295 59.0352 63.3555 58.987 63.3512C58.9431 63.3468 58.9171 63.3203 58.9171 63.2769C58.9171 63.2243 58.9479 63.1939 58.9957 63.1939C59.017 63.1959 59.0341 63.2029 59.0468 63.2143C59.0569 63.2235 59.0644 63.2357 59.069 63.2502C59.0717 63.2584 59.0734 63.2673 59.0743 63.2769ZM61.9694 34.7041C62.0219 34.7041 62.048 34.6694 62.048 34.6168C62.0393 34.5686 62.0132 34.5382 61.9607 34.5469C61.9409 34.5504 61.9241 34.5576 61.9118 34.5685C61.9101 34.57 61.9085 34.5716 61.907 34.5732L61.9034 34.5773L61.901 34.5806L61.8986 34.5844C61.896 34.5888 61.8939 34.5936 61.8924 34.5987C61.8905 34.6049 61.8894 34.6118 61.8892 34.6191C61.8891 34.6252 61.8896 34.6317 61.8907 34.6385C61.8951 34.6824 61.9255 34.7041 61.9694 34.7041ZM36.1021 63.4479C36.0981 63.4518 36.0936 63.4553 36.0887 63.4581C36.0839 63.461 36.0786 63.4633 36.0728 63.4651C36.0637 63.4679 36.0535 63.4694 36.0423 63.4694C36.021 63.4672 36.0027 63.4597 35.9896 63.4476C35.976 63.4349 35.968 63.4172 35.968 63.3951C35.968 63.3425 35.9945 63.3116 36.0466 63.3116C36.0992 63.3073 36.1209 63.3425 36.1257 63.3907C36.1248 63.4014 36.1227 63.411 36.1196 63.4196C36.1174 63.4255 36.1147 63.431 36.1116 63.4359C36.1088 63.4403 36.1056 63.4443 36.1021 63.4479ZM61.0027 63.7139C61.0554 63.7182 61.0862 63.6879 61.0906 63.6353C61.0906 63.6159 61.0862 63.5994 61.0773 63.5865C61.0641 63.5676 61.0411 63.5566 61.0076 63.5566C60.9637 63.5566 60.9328 63.5827 60.9285 63.6266C60.9266 63.6475 60.9313 63.6659 60.9412 63.6804C60.9541 63.6992 60.9757 63.7115 61.0027 63.7139ZM60.3776 32.2422C60.3776 32.1897 60.3429 32.1679 60.2947 32.1636C60.277 32.1665 60.2622 32.1719 60.2507 32.1797C60.24 32.1868 60.2321 32.1959 60.2269 32.2068C60.2243 32.2125 60.2224 32.2186 60.2213 32.2252C60.2204 32.2301 60.22 32.2353 60.2199 32.2408C60.2199 32.244 60.2201 32.2474 60.2204 32.2509C60.2247 32.2948 60.2551 32.3209 60.299 32.3209C60.3472 32.3209 60.3776 32.2948 60.3776 32.2422ZM37.4329 32.3517C37.4329 32.3995 37.4068 32.4347 37.3542 32.4347C37.3104 32.4347 37.28 32.413 37.2712 32.3691C37.2626 32.3165 37.293 32.2861 37.3412 32.2774C37.3938 32.2731 37.4242 32.3035 37.4329 32.3517ZM34.92 34.0865C34.9277 34.0934 34.9371 34.0989 34.9479 34.1031C34.955 34.1058 34.9627 34.1079 34.9709 34.1094C34.989 34.1078 35.0045 34.1031 35.0171 34.0954C35.0219 34.0925 35.0262 34.0892 35.0301 34.0854C35.0343 34.0814 35.038 34.0768 35.0411 34.0717C35.0481 34.0605 35.0525 34.0469 35.054 34.0308C35.0583 33.9869 35.0322 33.9565 34.9883 33.9521C34.9362 33.9478 34.9011 33.9695 34.8967 34.0221C34.8954 34.0361 34.8971 34.0486 34.9013 34.0596C34.9053 34.07 34.9117 34.079 34.92 34.0865Z" fill="#8B3DFF"/>
</svg>
