<svg width="96" height="96" viewBox="0 0 96 96" fill="none" xmlns="http://www.w3.org/2000/svg">
<path opacity="0.3" d="M48 32H60C62.2091 32 64 33.7909 64 36V60C64 62.2091 62.2091 64 60 64H48V32Z" fill="#8B3DFF"/>
<path d="M32 36C32 33.7909 33.7909 32 36 32H48V64H36C33.7909 64 32 62.2091 32 60V36Z" fill="#8B3DFF"/>
<path fill-rule="evenodd" clip-rule="evenodd" d="M48 28C48.4142 28 48.75 28.3358 48.75 28.75L48.75 67.25C48.75 67.6642 48.4142 68 48 68C47.5858 68 47.25 67.6642 47.25 67.25L47.25 28.75C47.25 28.3358 47.5858 28 48 28Z" fill="#8B3DFF"/>
</svg>
