<svg width="72" height="72" viewBox="0 0 72 72" fill="none" xmlns="http://www.w3.org/2000/svg">
<rect width="72" height="72" rx="36" fill="#F3E6FF"/>
<g filter="url(#filter0_dd_4891_772)">
<rect x="9.5625" y="28.094" width="51.6383" height="29.5076" transform="rotate(-7.02962 9.5625 28.094)" fill="white"/>
</g>
<g filter="url(#filter1_d_4891_772)">
<rect x="9.5625" y="19.5244" width="52.875" height="30.375" fill="#992BFF"/>
</g>
<path d="M36.7599 40.6051C36.7599 40.5285 36.7599 40.4522 36.7599 40.3755C36.7599 40.2482 36.7599 40.1212 36.7599 39.9939C36.7595 39.7682 36.7525 39.5434 36.7418 39.3181C36.7399 39.2945 36.7379 39.2714 36.7355 39.2478C36.7194 39.1401 36.7029 39.0324 36.6864 38.9246C36.6813 38.8924 36.6766 38.8598 36.6719 38.8276C36.6479 38.7234 36.62 38.62 36.5929 38.5166C36.5822 38.4742 36.5661 38.4321 36.5528 38.3904C36.5394 38.3496 36.5264 38.3087 36.5131 38.2674C36.4812 38.1872 36.4494 38.107 36.4175 38.0268C36.3943 37.9694 36.3676 37.914 36.3429 37.8574C36.3138 37.7914 36.2894 37.7234 36.2658 37.655C36.2497 37.6086 36.2348 37.5618 36.2206 37.515C36.0355 37.2257 35.7902 36.9718 35.4619 36.7701C34.9698 36.4317 34.3833 36.2072 33.7795 36.3008C33.2646 36.342 32.7465 36.3499 32.2351 36.4226C31.7146 36.5142 31.1949 36.6074 30.6651 36.6223C30.204 36.6475 29.7417 36.6958 29.2794 36.6982C29.2334 36.6954 29.1874 36.6931 29.1414 36.6907C28.9767 36.6813 28.812 36.673 28.6473 36.6656C28.6371 36.6644 28.6265 36.6636 28.6163 36.6624C28.5388 36.6494 28.4618 36.6345 28.3847 36.6184C29.3321 36.4258 30.2582 36.1164 31.1379 35.7261C31.7669 35.4721 32.4045 35.1702 32.9717 34.7803C32.9902 34.7724 33.0087 34.7638 33.0267 34.754C33.7048 34.4587 34.1455 33.866 34.5523 33.2744C35.1997 32.4265 35.6011 31.4237 35.8122 30.3828C35.9804 29.6725 36.0237 28.9449 36.0024 28.2169C36.0064 27.3029 35.9989 26.378 35.809 25.4798C35.5382 24.2974 34.5881 23.067 33.2571 23.6484C32.4886 24.0411 32.0825 25.31 31.6859 26.06C31.2975 26.8324 31.0035 27.6461 30.7138 28.4594C30.2786 29.36 29.9512 30.3089 29.4925 31.1985C28.972 32.2189 28.3332 33.1808 27.5569 34.0248C27.0667 34.5629 26.5431 35.1412 25.8729 35.436C26.5899 34.5893 27.1669 33.6458 27.6913 32.6714C28.4504 31.5967 29.0333 30.4009 29.5172 29.1717C29.8529 28.5746 30.1678 27.9672 30.428 27.3332C30.7653 26.413 30.8097 25.0662 30.2071 24.2293C30.1666 24.1433 30.119 24.0603 30.0644 23.9825C29.9241 23.7293 29.7377 23.5049 29.5039 23.3347C29.0231 23.0689 28.4217 23.2906 27.9622 23.5108C27.5545 23.7187 27.1622 23.9829 26.878 24.3453C26.7432 24.4786 26.6198 24.6252 26.5101 24.7848C25.1913 26.4873 25.2652 28.7401 24.8827 30.7625C24.6582 31.9166 24.1515 32.9843 23.5014 33.9568C23.5128 33.7205 23.5552 33.4855 23.6091 33.2543C23.6256 33.1568 23.6429 33.0593 23.6606 32.9619C23.9951 31.7488 24.2789 30.5223 24.4133 29.2688C24.4951 28.7861 24.5081 28.2947 24.4511 27.8077C24.4027 27.3646 24.3497 26.9051 24.2526 26.4578C24.1755 25.3654 23.5191 24.341 22.6016 23.7561C22.0548 23.431 21.4046 23.3201 20.7804 23.2568C20.4938 23.2565 20.1817 23.1971 19.9187 23.3374C19.46 23.6114 19.392 24.1896 19.4105 24.6763C19.4085 25.2015 19.4179 25.7793 19.4455 26.3874C19.4352 26.6708 19.4341 26.9546 19.4419 27.2389C19.4376 27.3721 19.4364 27.505 19.438 27.6378C19.4384 27.6599 19.4384 27.6815 19.4388 27.7031C19.4443 27.9956 19.4635 28.2872 19.4958 28.5773C19.5732 29.6509 19.734 30.7959 19.9663 31.8443C20.1117 32.6034 20.3138 33.3561 20.6365 34.0602C20.8228 34.4332 21.0308 34.8849 21.2981 35.2697C20.3213 34.7017 19.7033 33.5739 19.4211 32.5039C18.9922 30.812 18.6054 29.1072 18.2792 27.3925C18.048 26.2538 17.9136 24.8103 17.0519 23.9605C16.7288 23.6342 16.2811 23.4951 15.829 23.5053C14.6427 23.3272 14.5971 25.4165 14.5774 26.2259C14.5055 27.0482 14.7244 27.8352 14.9843 28.6056C15.0244 28.8474 15.0747 29.0872 15.1368 29.3238C15.364 30.518 15.761 31.6776 16.3381 32.7555C16.7119 33.5248 17.1246 34.2787 17.7119 34.9092C18.2658 35.5433 19.0296 35.9265 19.6951 36.4262C20.0544 36.6986 20.4168 36.9718 20.7977 37.2147C19.9816 37.269 19.4969 37.1078 18.7237 36.7347C18.559 36.6679 18.399 36.5909 18.2442 36.5048C17.888 36.2583 17.5567 35.9737 17.2469 35.6706C17.1337 35.5633 17.0276 35.4505 16.9273 35.3338C16.798 35.1482 16.6856 34.9497 16.5936 34.7382C16.1871 33.8353 15.8569 32.899 15.4575 31.9921C15.2779 31.5518 15.114 31.1057 14.945 30.6615C14.8274 30.301 14.6391 29.928 14.1942 30.095C13.6316 30.542 13.6548 31.3962 13.6242 32.0558C13.6273 32.5369 13.6065 33.02 13.6391 33.5004C13.6281 33.8373 13.6297 34.1745 13.6442 34.5114C13.7118 35.605 14.0291 36.6868 14.6317 37.6074C15.305 38.7572 16.7673 39.0327 17.9989 39.0701C18.5071 39.0874 19.0107 39.0213 19.5017 38.8995C19.4749 38.9223 19.4474 38.9443 19.4183 38.9647C18.8291 39.3523 18.0944 39.4306 17.4057 39.4671C17.0594 39.4699 16.7127 39.4695 16.3664 39.4691C16.1738 39.4691 15.9808 39.4687 15.7877 39.4691C15.0641 39.3802 14.649 39.839 14.4823 40.4994C14.2213 41.3394 14.1297 42.214 14.1529 43.091C14.1037 43.5387 14.2975 43.9609 14.6832 44.1999C15.1262 44.5466 15.6926 44.63 16.2402 44.6095C16.7862 44.6634 17.2972 44.435 17.7206 44.1056C19.3432 42.9817 19.969 41.0104 21.1271 39.4883C21.1271 39.8689 21.1495 40.26 21.0147 40.6232C20.7344 41.3449 20.2603 41.9699 19.9254 42.6657C19.629 43.229 19.4113 43.8485 19.4234 44.4924C19.2961 45.7137 20.8366 45.7644 21.7077 45.7357C21.8299 45.7318 21.9722 45.733 22.1263 45.7346C23.023 45.742 24.3155 45.7495 24.3839 44.7451C24.4428 43.9676 24.3504 43.196 24.115 42.453C23.909 41.668 23.7089 40.8787 23.4066 40.1244C23.4133 40.1354 23.4196 40.1464 23.4263 40.1574C23.6955 40.646 23.9062 41.1637 24.1653 41.6574C24.4055 42.0961 24.6606 42.5269 24.9039 42.9637C25.2699 43.5572 25.4538 44.2612 25.9432 44.7738C26.2813 45.1508 26.7538 45.3497 27.1984 45.5695C27.5903 45.7825 28.0282 45.8765 28.4606 45.9696C29.0821 46.1033 29.7161 46.1846 30.3518 46.2035C30.4335 46.2082 30.5149 46.2106 30.5959 46.2106C31.3368 46.2106 32.0393 46.0062 32.6836 45.6253C34.5079 44.5926 31.8361 43.3693 30.9178 42.9212C30.4736 42.7026 30.0243 42.4943 29.5848 42.2671C28.816 41.8029 28.0813 41.2852 27.3187 40.8111C26.9016 40.5446 26.4751 40.2926 26.0576 40.0265C25.6968 39.8166 25.3737 39.5501 25.1417 39.2053C26.025 39.6137 26.8705 40.0965 27.742 40.5281C28.8871 41.0969 30.0601 41.6134 31.1714 42.2474C32.0979 42.8241 32.9906 43.4542 33.9415 43.9924C34.1451 44.1103 34.3546 44.218 34.5661 44.3218C34.6184 44.3304 34.6714 44.3363 34.7237 44.3434C34.7713 44.3434 34.8184 44.3438 34.866 44.3438C34.8664 44.3438 34.8672 44.3438 34.868 44.3438C34.9148 44.3438 34.9611 44.3434 35.0079 44.3426C35.074 44.3261 35.1396 44.3068 35.2041 44.2848C35.3008 44.2498 35.3955 44.2094 35.4883 44.1645C35.4898 44.1638 35.4914 44.163 35.493 44.1622C35.4942 44.1618 35.4953 44.161 35.4965 44.1606C35.5979 44.1083 35.6966 44.0509 35.7917 43.9884C35.811 43.9751 35.8299 43.9613 35.8487 43.9476C35.89 43.9094 35.9301 43.8705 35.9682 43.8288C35.9965 43.795 36.0237 43.7608 36.0496 43.7251C36.0807 43.6755 36.1086 43.624 36.1353 43.5718C36.1809 43.4778 36.2178 43.3811 36.2552 43.284C36.2827 43.2019 36.3098 43.1197 36.3362 43.0372C36.3708 42.9275 36.4026 42.8178 36.4329 42.7066C36.4447 42.6629 36.4561 42.6189 36.4671 42.5745C36.4698 42.5651 36.4722 42.5552 36.4745 42.5454C36.4785 42.5289 36.4828 42.5124 36.4867 42.4955C36.4867 42.4951 36.4867 42.4947 36.4867 42.4943C36.515 42.376 36.5414 42.2573 36.5673 42.1382C36.6003 41.9731 36.633 41.808 36.6648 41.6429C36.7049 41.4337 36.7403 41.2234 36.7568 41.0112C36.7642 40.8756 36.7599 40.7407 36.7599 40.6051ZM23.3433 38.6338C23.1723 38.7599 22.9935 38.8751 22.8052 38.9742C22.7156 39.0284 22.6114 39.0131 22.5116 39.0131C22.3618 39.0241 22.2183 38.9962 22.1004 38.8987C22.0174 38.8445 21.8917 38.7584 21.8284 38.664C21.7199 38.5202 21.7167 38.3456 21.7258 38.1735C21.727 38.0433 21.723 37.912 21.7454 37.7831C21.8079 37.5504 21.9832 37.3672 22.0776 37.1471C22.2333 36.8696 22.3634 36.5779 22.5391 36.3122C22.6983 36.0948 22.9043 35.9238 23.133 35.7862C23.5265 35.6541 23.9452 35.6644 24.3587 35.6699C24.4825 35.7351 24.5981 35.8133 24.6932 35.9195C24.7152 36.3578 24.5541 36.7803 24.3945 37.1821C24.1657 37.7355 23.8437 38.2859 23.3433 38.6338Z" fill="#F59C2F"/>
<path d="M54.6495 41.6071C55.142 41.6071 55.5413 42.0069 55.5413 42.4999C55.5413 42.9931 55.142 43.3928 54.6495 43.3928H41.0664C40.574 43.3928 40.1746 42.9931 40.1746 42.4999C40.1746 42.0069 40.574 41.6071 41.0664 41.6071H54.6495ZM54.6495 38.9199C55.142 38.9201 55.5413 39.3197 55.5413 39.8128C55.5413 40.306 55.142 40.7057 54.6495 40.7057H41.0664C40.574 40.7057 40.1746 40.306 40.1746 39.8128C40.1746 39.3197 40.574 38.9201 41.0664 38.9199H54.6495ZM47.4977 28.792C47.9903 28.792 48.3895 29.1917 48.3896 29.6847C48.3896 30.1779 47.9903 30.5777 47.4977 30.5777H41.0664C40.574 30.5777 40.1746 30.1779 40.1746 29.6847C40.1746 29.1917 40.574 28.792 41.0664 28.792H47.4977ZM54.6495 26.0308C55.142 26.0308 55.5413 26.4305 55.5413 26.9237C55.5413 27.4168 55.142 27.8165 54.6495 27.8166H41.0664C40.574 27.8166 40.1746 27.4168 40.1746 26.9237C40.1746 26.4305 40.574 26.0308 41.0664 26.0308H54.6495Z" fill="#E6CAFF"/>
<defs>
<filter id="filter0_dd_4891_772" x="8.43055" y="20.6425" width="59.8561" height="40.6001" filterUnits="userSpaceOnUse" color-interpolation-filters="sRGB">
<feFlood flood-opacity="0" result="BackgroundImageFix"/>
<feColorMatrix in="SourceAlpha" type="matrix" values="0 0 0 0 0 0 0 0 0 0 0 0 0 0 0 0 0 0 127 0" result="hardAlpha"/>
<feOffset dx="3.09021" dy="3.09021"/>
<feGaussianBlur stdDeviation="0.386277"/>
<feColorMatrix type="matrix" values="0 0 0 0 0.25098 0 0 0 0 0.341176 0 0 0 0 0.427451 0 0 0 0.3 0"/>
<feBlend mode="normal" in2="BackgroundImageFix" result="effect1_dropShadow_4891_772"/>
<feColorMatrix in="SourceAlpha" type="matrix" values="0 0 0 0 0 0 0 0 0 0 0 0 0 0 0 0 0 0 127 0" result="hardAlpha"/>
<feOffset/>
<feGaussianBlur stdDeviation="0.565973"/>
<feComposite in2="hardAlpha" operator="out"/>
<feColorMatrix type="matrix" values="0 0 0 0 0 0 0 0 0 0 0 0 0 0 0 0 0 0 0.25 0"/>
<feBlend mode="normal" in2="effect1_dropShadow_4891_772" result="effect2_dropShadow_4891_772"/>
<feBlend mode="normal" in="SourceGraphic" in2="effect2_dropShadow_4891_772" result="shape"/>
</filter>
<filter id="filter1_d_4891_772" x="8.43055" y="19.5244" width="55.1389" height="32.6389" filterUnits="userSpaceOnUse" color-interpolation-filters="sRGB">
<feFlood flood-opacity="0" result="BackgroundImageFix"/>
<feColorMatrix in="SourceAlpha" type="matrix" values="0 0 0 0 0 0 0 0 0 0 0 0 0 0 0 0 0 0 127 0" result="hardAlpha"/>
<feOffset dy="1.13195"/>
<feGaussianBlur stdDeviation="0.565973"/>
<feComposite in2="hardAlpha" operator="out"/>
<feColorMatrix type="matrix" values="0 0 0 0 0 0 0 0 0 0 0 0 0 0 0 0 0 0 0.1 0"/>
<feBlend mode="normal" in2="BackgroundImageFix" result="effect1_dropShadow_4891_772"/>
<feBlend mode="normal" in="SourceGraphic" in2="effect1_dropShadow_4891_772" result="shape"/>
</filter>
</defs>
</svg>
