<svg width="73" height="72" viewBox="0 0 73 72" fill="none" xmlns="http://www.w3.org/2000/svg">
<rect x="0.44458" width="72" height="72" rx="36" fill="#F3E6FF"/>
<g filter="url(#filter0_dd_4891_787)">
<rect x="11.1322" y="17.2744" width="50.625" height="37.125" fill="white"/>
</g>
<path d="M15.6322 45.3994C15.6322 44.7781 16.1359 44.2744 16.7572 44.2744H56.1322C56.7535 44.2744 57.2572 44.7781 57.2572 45.3994C57.2572 46.0207 56.7535 46.5244 56.1322 46.5244H16.7572C16.1359 46.5244 15.6322 46.0207 15.6322 45.3994Z" fill="#D6ABFF"/>
<path d="M22.2922 48.9994C22.2922 48.378 22.7959 47.8744 23.4172 47.8744H49.9213C50.5426 47.8744 51.0463 48.378 51.0463 48.9994C51.0463 49.6207 50.5426 50.1244 49.9213 50.1244H23.4172C22.7959 50.1244 22.2922 49.6207 22.2922 48.9994Z" fill="#D6ABFF"/>
<path d="M22.391 28.9223L22.391 39.7784C22.391 39.8423 22.3976 39.9052 22.4103 39.9676C22.423 40.03 22.4413 40.0909 22.4662 40.1493C22.4911 40.2082 22.5216 40.2641 22.5577 40.317C22.5937 40.37 22.6344 40.4189 22.6801 40.4638C22.7258 40.5093 22.7756 40.5492 22.8295 40.5846C22.8833 40.6201 22.9402 40.65 23.0002 40.674C23.0596 40.6985 23.1216 40.7169 23.1851 40.7294C23.2481 40.7419 23.3126 40.7484 23.3771 40.7484L38.791 40.7484C43.825 40.7484 44.7592 37.38 45.9531 32.5838C47.0448 28.1934 48.2676 24.3597 53.5963 22.3692C53.8726 22.2674 53.7924 21.865 53.5008 21.865L48.5476 21.865C44.4209 21.865 41.074 25.156 41.074 29.2144L41.074 31.0007C41.074 33.0421 40.5635 33.757 39.933 33.757C39.617 33.757 39.3295 33.5792 39.1253 33.1444C38.921 32.7101 38.791 32.0216 38.791 31.0012L38.791 27.785C38.791 27.5913 38.7813 27.3981 38.762 27.2049C38.7427 27.0122 38.7138 26.8205 38.6757 26.6303C38.6371 26.4401 38.5893 26.2523 38.5319 26.0666C38.4745 25.8809 38.4085 25.6987 38.3328 25.5195C38.2576 25.3402 38.1732 25.1655 38.0803 24.9943C37.9873 24.8235 37.8862 24.6573 37.7765 24.496C37.6673 24.3347 37.5499 24.1795 37.4249 24.0292C37.2994 23.8794 37.1674 23.7362 37.0282 23.5989C36.8885 23.4616 36.7427 23.3318 36.5902 23.209C36.4378 23.0856 36.2798 22.9703 36.1158 22.8625C35.9517 22.7551 35.783 22.6553 35.6087 22.5639C35.435 22.4726 35.2572 22.3897 35.0748 22.3158C34.8924 22.2414 34.707 22.176 34.5185 22.1201C34.3301 22.0637 34.139 22.0168 33.9455 21.9788C33.7519 21.9409 33.5574 21.9124 33.3608 21.8934C33.1647 21.8745 32.9681 21.865 32.7709 21.865L23.8216 21.865C23.4142 21.865 23.2567 22.3817 23.593 22.6019C26.0864 24.2334 31.6477 28.4525 32.3782 34.0176C32.4199 34.3261 32.0089 34.4794 31.8347 34.2178C30.5971 32.3761 27.5688 28.6487 23.1155 28.2753C23.0698 28.2708 23.024 28.2713 22.9783 28.2768C22.9326 28.2818 22.8879 28.2918 22.8442 28.3062C22.8005 28.3207 22.7588 28.3392 22.7192 28.3621C22.6796 28.3851 22.6425 28.4116 22.6085 28.442C22.5744 28.4725 22.544 28.5059 22.517 28.5429C22.4901 28.5793 22.4672 28.6183 22.4484 28.6597C22.4296 28.7011 22.4154 28.7441 22.4058 28.788C22.3961 28.8324 22.3915 28.8769 22.391 28.9223Z" fill="#C92675"/>
<defs>
<filter id="filter0_dd_4891_787" x="10.0003" y="16.1425" width="55.6197" height="42.1197" filterUnits="userSpaceOnUse" color-interpolation-filters="sRGB">
<feFlood flood-opacity="0" result="BackgroundImageFix"/>
<feColorMatrix in="SourceAlpha" type="matrix" values="0 0 0 0 0 0 0 0 0 0 0 0 0 0 0 0 0 0 127 0" result="hardAlpha"/>
<feOffset dx="3.09021" dy="3.09021"/>
<feGaussianBlur stdDeviation="0.386277"/>
<feColorMatrix type="matrix" values="0 0 0 0 0.25098 0 0 0 0 0.341176 0 0 0 0 0.427451 0 0 0 0.3 0"/>
<feBlend mode="normal" in2="BackgroundImageFix" result="effect1_dropShadow_4891_787"/>
<feColorMatrix in="SourceAlpha" type="matrix" values="0 0 0 0 0 0 0 0 0 0 0 0 0 0 0 0 0 0 127 0" result="hardAlpha"/>
<feOffset/>
<feGaussianBlur stdDeviation="0.565973"/>
<feComposite in2="hardAlpha" operator="out"/>
<feColorMatrix type="matrix" values="0 0 0 0 0 0 0 0 0 0 0 0 0 0 0 0 0 0 0.25 0"/>
<feBlend mode="normal" in2="effect1_dropShadow_4891_787" result="effect2_dropShadow_4891_787"/>
<feBlend mode="normal" in="SourceGraphic" in2="effect2_dropShadow_4891_787" result="shape"/>
</filter>
</defs>
</svg>
