<svg width="72" height="72" viewBox="0 0 72 72" fill="none" xmlns="http://www.w3.org/2000/svg">
<path d="M0.00292969 36.0015C0.00292969 16.1184 16.1214 0 36.0044 0C55.8875 0 72.006 16.1184 72.006 36.0015C72.006 55.8846 55.8875 72.003 36.0044 72.003C16.1214 72.003 0.00292969 55.8846 0.00292969 36.0015Z" fill="#E0F7F9"/>
<g filter="url(#filter0_dd_4939_32781)">
<path fill-rule="evenodd" clip-rule="evenodd" d="M54.7881 9.57171V62.3671C54.7881 62.4769 54.6985 62.566 54.5882 62.566H17.5149C17.4045 62.566 17.3149 62.4769 17.3149 62.3671V9.57171C17.3149 9.46192 17.4045 9.37284 17.5149 9.37284H54.5882C54.6985 9.37284 54.7881 9.46192 54.7881 9.57171Z" fill="white"/>
</g>
<path fill-rule="evenodd" clip-rule="evenodd" d="M49.0287 46.3565C49.3787 46.3565 49.7154 46.4956 49.9636 46.7432C50.2117 46.9909 50.3491 47.3267 50.3491 47.6769C50.3491 48.0271 50.2117 48.363 49.9636 48.6107C49.7154 48.8583 49.3787 48.9974 49.0287 48.9974C44.2434 48.9974 27.836 48.9974 23.0507 48.9974C22.7007 48.9974 22.364 48.8583 22.1203 48.6107C21.8722 48.363 21.7304 48.0272 21.7304 47.677C21.7304 47.3268 21.8722 46.9909 22.1203 46.7432C22.364 46.4956 22.7007 46.3565 23.0507 46.3565C27.836 46.3565 44.2434 46.3565 49.0287 46.3565Z" fill="#E9E9E9"/>
<path fill-rule="evenodd" clip-rule="evenodd" d="M49.0283 50.7291C49.3783 50.7291 49.7151 50.8682 49.9632 51.1158C50.2113 51.3635 50.3487 51.6993 50.3487 52.0495C50.3487 52.3997 50.2113 52.7356 49.9632 52.9833C49.7151 53.2309 49.3783 53.37 49.0283 53.37C44.243 53.37 27.8356 53.37 23.0504 53.37C22.7003 53.37 22.3636 53.2309 22.1199 52.9833C21.8718 52.7356 21.73 52.3998 21.73 52.0496C21.73 51.6994 21.8718 51.3635 22.1199 51.1158C22.3636 50.8682 22.7003 50.7291 23.0504 50.7291C27.8356 50.7291 44.243 50.7291 49.0283 50.7291Z" fill="#E9E9E9"/>
<path fill-rule="evenodd" clip-rule="evenodd" d="M41.9419 55.1016C42.292 55.1016 42.6287 55.2407 42.8754 55.4884C43.1254 55.736 43.262 56.0719 43.262 56.4221C43.262 56.7723 43.1254 57.1082 42.8754 57.3558C42.6287 57.6034 42.292 57.7425 41.9419 57.7425C38.0916 57.7425 26.9005 57.7425 23.0501 57.7425C22.7001 57.7425 22.3667 57.6034 22.1167 57.3558C21.87 57.1082 21.73 56.7723 21.73 56.4221C21.73 56.0719 21.87 55.736 22.1167 55.4884C22.3667 55.2407 22.7001 55.1016 23.0501 55.1016C26.9005 55.1016 38.0916 55.1016 41.9419 55.1016Z" fill="#E9E9E9"/>
<path d="M28.7573 40.4035L22.6891 40.8952C22.3145 40.9255 22.0239 41.2597 22.0167 41.6658L21.999 42.6897L50.5877 42.612H50.6178L50.597 32.6494C50.596 32.0205 49.9495 31.6469 49.467 31.9968L44.0473 35.9268C43.7132 36.1687 43.3002 36.2508 42.909 36.1507L37.0317 34.6577C36.6114 34.5508 36.1694 34.652 35.8249 34.9333L29.5242 40.0896C29.3021 40.2719 29.0354 40.3799 28.7573 40.4035Z" fill="#306D7F"/>
<path d="M49.4375 26.0993C49.9179 25.7258 50.5877 26.0978 50.5879 26.7389V32.5241C50.5082 31.9728 49.9163 31.6708 49.4668 31.9967L44.0469 35.9264C43.7128 36.1682 43.3002 36.251 42.9092 36.151L37.0312 34.6579C36.6112 34.5512 36.1696 34.6522 35.8252 34.9333L29.5244 40.0895C29.3025 40.2717 29.0357 40.3803 28.7578 40.404L22.6895 40.8952C22.3149 40.9256 22.0239 41.2596 22.0166 41.6657L21.999 42.6881V38.9919C21.999 38.6397 22.2149 38.3287 22.5283 38.2331L28.9902 36.2585C29.1384 36.2134 29.2797 36.1428 29.4072 36.0495L35.9658 31.2575C36.19 31.0932 36.4519 31.0012 36.7207 30.9899L43.0889 30.7165C43.372 30.704 43.6467 30.6013 43.877 30.4225L49.4375 26.0993Z" fill="#F59C2F"/>
<path d="M54.7908 9.35972H17.2878V20.9493H54.7908V9.35972Z" fill="#13A3B5"/>
<path d="M23.5057 18.0237C23.5041 18.2203 23.4732 18.4064 23.4732 18.4064C23.4561 18.5109 23.3552 18.5957 23.2492 18.5949L20.3456 18.5701C20.2396 18.5692 20.1535 18.4817 20.1546 18.3757L20.1795 15.4547C20.1804 15.3487 20.2296 15.254 20.289 15.2442C20.3004 15.2423 20.3189 15.2402 20.3419 15.2381C20.3515 15.235 20.3613 15.2324 20.3713 15.2306C20.3713 15.2306 20.3969 15.2266 20.5075 15.2184C20.5841 15.2128 20.662 15.21 20.7404 15.2107C20.8188 15.2114 20.8966 15.2154 20.973 15.2224C22.4036 15.3529 23.5183 16.5618 23.5057 18.0237ZM26.9332 15.2734L23.9657 15.2481C23.8597 15.2472 23.7722 15.3331 23.7713 15.4391L23.746 18.4064C23.745 18.5123 23.831 18.5998 23.937 18.6006L26.9045 18.6261C27.0104 18.627 27.0979 18.5411 27.0987 18.4351L27.1242 15.4678C27.1251 15.3618 27.0392 15.2743 26.9332 15.2734ZM23.9704 14.9928L26.874 15.0176C26.9798 15.0184 27.0807 14.9337 27.098 14.8291C27.098 14.8291 27.1289 14.6432 27.1305 14.4465C27.1431 12.9845 26.0284 11.7757 24.5978 11.6451C24.5212 11.6381 24.4436 11.6343 24.3652 11.6336C24.2868 11.6329 24.2091 11.6355 24.1323 11.6411C24.0216 11.6493 23.9961 11.6535 23.9961 11.6535C23.8915 11.6706 23.8052 11.7715 23.8043 11.8774L23.7794 14.7984C23.7785 14.9044 23.8644 14.9919 23.9704 14.9928ZM23.3698 11.6585L20.4025 11.6332C20.2965 11.6324 20.209 11.7183 20.2082 11.8243L20.1828 14.7916C20.1818 14.8976 20.2679 14.9849 20.3737 14.9858L23.3412 15.0113C23.4472 15.0122 23.5347 14.9262 23.5356 14.8202L23.5611 11.8529C23.5619 11.7469 23.476 11.6594 23.3698 11.6585Z" fill="#99E7EB"/>
<defs>
<filter id="filter0_dd_4939_32781" x="16.3843" y="8.44217" width="41.5798" height="57.2997" filterUnits="userSpaceOnUse" color-interpolation-filters="sRGB">
<feFlood flood-opacity="0" result="BackgroundImageFix"/>
<feColorMatrix in="SourceAlpha" type="matrix" values="0 0 0 0 0 0 0 0 0 0 0 0 0 0 0 0 0 0 127 0" result="hardAlpha"/>
<feOffset dx="2.54074" dy="2.54074"/>
<feGaussianBlur stdDeviation="0.317593"/>
<feColorMatrix type="matrix" values="0 0 0 0 0.25098 0 0 0 0 0.341176 0 0 0 0 0.427451 0 0 0 0.3 0"/>
<feBlend mode="normal" in2="BackgroundImageFix" result="effect1_dropShadow_4939_32781"/>
<feColorMatrix in="SourceAlpha" type="matrix" values="0 0 0 0 0 0 0 0 0 0 0 0 0 0 0 0 0 0 127 0" result="hardAlpha"/>
<feOffset/>
<feGaussianBlur stdDeviation="0.465338"/>
<feComposite in2="hardAlpha" operator="out"/>
<feColorMatrix type="matrix" values="0 0 0 0 0 0 0 0 0 0 0 0 0 0 0 0 0 0 0.25 0"/>
<feBlend mode="normal" in2="effect1_dropShadow_4939_32781" result="effect2_dropShadow_4939_32781"/>
<feBlend mode="normal" in="SourceGraphic" in2="effect2_dropShadow_4939_32781" result="shape"/>
</filter>
</defs>
</svg>
