<svg width="72" height="72" viewBox="0 0 72 72" fill="none" xmlns="http://www.w3.org/2000/svg">
<path d="M0 36C0 16.1178 16.1178 0 36 0C55.8823 0 72 16.1178 72 36C72 55.8823 55.8823 72 36 72C16.1178 72 0 55.8823 0 36Z" fill="#FAE3E4"/>
<g filter="url(#filter0_dd_4813_98414)">
<path d="M21.5741 10.8914C21.5741 8.41784 23.5793 6.4126 26.0529 6.4126H44.9355C47.4091 6.4126 49.4143 8.41784 49.4143 10.8914V60.9001C49.4143 63.3737 47.4091 65.3789 44.9355 65.3789H26.0529C23.5793 65.3789 21.5741 63.3737 21.5741 60.9001V10.8914Z" fill="white"/>
</g>
<path d="M22.7444 17.2274H48.1425V48.96H22.7444V17.2274Z" fill="#FF3B4B"/>
<path d="M40.5293 26.8174C40.9663 26.8174 41.3211 27.1715 41.3213 27.6084C41.3213 28.0455 40.9664 28.4004 40.5293 28.4004H26.4551C26.0179 28.4004 25.6631 28.0455 25.6631 27.6084C25.6633 27.1715 26.0181 26.8174 26.4551 26.8174H40.5293Z" fill="#A3201D"/>
<path d="M43.9541 24.1836C44.3909 24.1838 44.7449 24.5378 44.7451 24.9746C44.7451 25.4116 44.3911 25.7664 43.9541 25.7666H26.4551C26.0179 25.7666 25.6631 25.4117 25.6631 24.9746C25.6633 24.5377 26.0181 24.1836 26.4551 24.1836H43.9541Z" fill="#A3201D"/>
<path d="M43.9541 21.5498C44.3909 21.55 44.7449 21.904 44.7451 22.3408C44.7451 22.7778 44.3911 23.1326 43.9541 23.1328H26.4551C26.0179 23.1328 25.6631 22.7779 25.6631 22.3408C25.6633 21.9039 26.0181 21.5498 26.4551 21.5498H43.9541Z" fill="#A3201D"/>
<path d="M30.7754 40.6895L31.0566 40.9902L32.4609 42.4844L33.0225 43.0859L33.1631 43.2344L34.1465 44.2852L35.2695 45.4844L36.3926 44.2852L37.376 43.2344L37.5195 43.083L38.7832 41.7373L39.4854 40.9873L39.7666 40.6875L40.8867 39.4902H45.3828C45.3828 39.7429 45.3606 39.9931 45.3213 40.2402C45.2792 40.4929 45.218 40.746 45.1338 40.9902C45.0468 41.2459 44.9369 41.496 44.8076 41.7402C44.67 41.9987 44.5099 42.2458 44.3301 42.4902C44.3076 42.5239 44.2822 42.5521 44.2568 42.583C44.0828 42.8103 43.8891 43.0295 43.6758 43.2402C43.5044 43.4115 43.3245 43.5742 43.1309 43.7314C43.024 43.8185 42.9143 43.9031 42.8047 43.9873C42.5577 44.1727 42.2906 44.3499 42.0098 44.5156C41.8835 44.5913 41.754 44.6642 41.6221 44.7344C41.3863 44.8634 41.1421 44.9843 40.8867 45.0967C40.5722 45.2372 40.2431 45.3665 39.9033 45.4844C39.8558 45.5012 39.8112 45.5181 39.7637 45.5322C39.4015 45.6529 39.0272 45.7598 38.6396 45.8496C38.2747 45.9367 37.8985 46.0093 37.5166 46.0654C37.1488 46.1215 36.7751 46.1642 36.3906 46.1924C36.0226 46.2205 35.6457 46.2344 35.2666 46.2344C34.8876 46.2344 34.5113 46.2205 34.1436 46.1924C33.7615 46.1642 33.3874 46.1217 33.0195 46.0684C32.6349 46.0095 32.2586 45.9395 31.8936 45.8496C31.5061 45.7599 31.1327 45.6528 30.7705 45.5322C30.7228 45.5154 30.6776 45.5012 30.6299 45.4844C30.2901 45.3692 29.961 45.24 29.6465 45.0967C29.3911 44.9843 29.1469 44.8635 28.9111 44.7344C28.7792 44.6642 28.6497 44.5913 28.5234 44.5156C28.2426 44.3499 27.9756 44.1725 27.7285 43.9844C27.6161 43.9001 27.5061 43.8157 27.4023 43.7285C27.2113 43.5713 27.0288 43.4057 26.8574 43.2373C26.6498 43.024 26.4564 42.8048 26.2822 42.5801C26.257 42.5492 26.2343 42.5183 26.2119 42.4873C26.0293 42.243 25.8692 41.9957 25.7344 41.7373C25.6053 41.4929 25.498 41.2428 25.4082 40.9873C25.3268 40.7431 25.2628 40.4929 25.2207 40.2373C25.1814 39.9931 25.1582 39.7429 25.1582 39.4902H29.6523L30.7754 40.6895Z" fill="#F59C2F"/>
<path d="M30.7754 33.9492L31.0566 34.25L31.7588 34.9971L31.8994 35.1455L32.4609 35.7441L33.0225 36.3447L33.1631 36.4941L33.8652 37.2441L34.1465 37.5439L34.5674 37.9941L35.2695 38.7432L35.9717 37.9941L36.3926 37.5439L36.6738 37.2441L37.376 36.4941L37.5195 36.3418L38.6426 35.1455L38.7832 34.9971L39.7666 33.9463L40.8867 32.75H45.3828C45.3828 33.0029 45.3606 33.2528 45.3213 33.5C45.2792 33.7527 45.218 34.0058 45.1338 34.25C45.0468 34.5055 44.9369 34.7556 44.8076 35C44.67 35.2582 44.5099 35.5058 44.3301 35.75C44.3077 35.7836 44.2821 35.8111 44.2568 35.8418C44.0829 36.0692 43.8891 36.2885 43.6758 36.499C43.5044 36.6704 43.3246 36.8339 43.1309 36.9912C43.024 37.0784 42.9143 37.1629 42.8047 37.2471C42.5577 37.4322 42.2905 37.6088 42.0098 37.7744C41.8834 37.8503 41.7541 37.9239 41.6221 37.9941C41.3864 38.1233 41.142 38.2441 40.8867 38.3564C40.5722 38.4968 40.243 38.6253 39.9033 38.7432C39.8558 38.76 39.8112 38.7771 39.7637 38.791C39.4015 38.9119 39.0272 39.0185 38.6396 39.1084C38.2746 39.1954 37.8985 39.2689 37.5166 39.3252C37.1489 39.3813 36.7751 39.423 36.3906 39.4512C36.0226 39.4791 35.6457 39.4932 35.2666 39.4932C34.8876 39.4932 34.5114 39.4791 34.1436 39.4512C33.7615 39.423 33.3874 39.3815 33.0195 39.3281C32.6348 39.2691 32.2586 39.1982 31.8936 39.1084C31.5061 39.0185 31.1328 38.9118 30.7705 38.791C30.7227 38.7743 30.6776 38.7601 30.6299 38.7432C30.2902 38.628 29.961 38.4997 29.6465 38.3564C29.3911 38.2441 29.1468 38.1233 28.9111 37.9941C28.7791 37.9239 28.6498 37.8503 28.5234 37.7744C28.2427 37.6087 27.9755 37.4322 27.7285 37.2441C27.6161 37.1599 27.5061 37.0753 27.4023 36.9883C27.2113 36.8311 27.0288 36.6655 26.8574 36.4971C26.6499 36.2838 26.4563 36.0643 26.2822 35.8398C26.2571 35.809 26.2343 35.7779 26.2119 35.7471C26.0293 35.5029 25.8692 35.2554 25.7344 34.9971C25.6052 34.7528 25.4952 34.5026 25.4082 34.2471C25.3267 34.0027 25.2628 33.7527 25.2207 33.5C25.1813 33.2528 25.1582 33.0029 25.1582 32.75H29.6523L30.7754 33.9492Z" fill="#F59C2F"/>
<path d="M27.4198 9.66919C28.8815 9.66919 30.0666 10.8617 30.0666 12.332C30.0666 13.6596 29.0991 14.7611 27.8341 14.9603V13.1015H28.45L28.5681 12.332H27.8341V11.8316C27.8341 11.6214 27.9374 11.4161 28.2656 11.4161H28.5988V10.7608C28.5988 10.7608 28.2951 10.708 28.0062 10.708C27.4014 10.7092 27.0068 11.078 27.0068 11.7443V12.332H26.3356V13.1015H27.0068V14.9603C25.7418 14.7611 24.7743 13.6609 24.7743 12.332C24.7743 10.8617 25.9594 9.66919 27.4198 9.66919Z" fill="#007BFF"/>
<path d="M44.5098 51.9951C45.0968 51.9951 45.5732 52.4714 45.5732 53.0586C45.5732 53.6458 45.0969 54.123 44.5098 54.123H26.4785C25.8913 54.1229 25.415 53.6457 25.415 53.0586C25.4151 52.4715 25.8913 51.9953 26.4785 51.9951H44.5098Z" fill="#ECF0F3"/>
<path d="M42.6445 11.251C43.2316 11.251 43.7089 11.7273 43.709 12.3145C43.709 12.9016 43.2316 13.3789 42.6445 13.3789H32.5371C31.9498 13.3788 31.4736 12.9016 31.4736 12.3145C31.4738 11.7274 31.9499 11.2511 32.5371 11.251H42.6445Z" fill="#ECF0F3"/>
<defs>
<filter id="filter0_dd_4813_98414" x="20.4422" y="5.28065" width="32.8349" height="63.9611" filterUnits="userSpaceOnUse" color-interpolation-filters="sRGB">
<feFlood flood-opacity="0" result="BackgroundImageFix"/>
<feColorMatrix in="SourceAlpha" type="matrix" values="0 0 0 0 0 0 0 0 0 0 0 0 0 0 0 0 0 0 127 0" result="hardAlpha"/>
<feOffset dx="3.09021" dy="3.09021"/>
<feGaussianBlur stdDeviation="0.386277"/>
<feColorMatrix type="matrix" values="0 0 0 0 0.25098 0 0 0 0 0.341176 0 0 0 0 0.427451 0 0 0 0.3 0"/>
<feBlend mode="normal" in2="BackgroundImageFix" result="effect1_dropShadow_4813_98414"/>
<feColorMatrix in="SourceAlpha" type="matrix" values="0 0 0 0 0 0 0 0 0 0 0 0 0 0 0 0 0 0 127 0" result="hardAlpha"/>
<feOffset/>
<feGaussianBlur stdDeviation="0.565973"/>
<feComposite in2="hardAlpha" operator="out"/>
<feColorMatrix type="matrix" values="0 0 0 0 0 0 0 0 0 0 0 0 0 0 0 0 0 0 0.25 0"/>
<feBlend mode="normal" in2="effect1_dropShadow_4813_98414" result="effect2_dropShadow_4813_98414"/>
<feBlend mode="normal" in="SourceGraphic" in2="effect2_dropShadow_4813_98414" result="shape"/>
</filter>
</defs>
</svg>
