<svg width="72" height="72" viewBox="0 0 72 72" fill="none" xmlns="http://www.w3.org/2000/svg">
<path d="M0 36.0015C0 16.1184 16.1184 0 36.0015 0C55.8846 0 72.003 16.1184 72.003 36.0015C72.003 55.8846 55.8846 72.003 36.0015 72.003C16.1184 72.003 0 55.8846 0 36.0015Z" fill="#FAE3E4"/>
<g filter="url(#filter0_dd_4845_7628)">
<rect x="9.82507" y="15.8745" width="52.3525" height="40.2538" rx="2.26389" fill="white"/>
</g>
<path d="M16.0231 18.7249C17.4847 18.7249 18.6698 19.9173 18.6698 21.3876C18.6698 22.7153 17.7023 23.8168 16.4373 24.016V22.1572H17.0532L17.1713 21.3876H16.4373V20.8873C16.4373 20.6771 16.5406 20.4718 16.8688 20.4718H17.202V19.8165C17.202 19.8165 16.8983 19.7637 16.6095 19.7637C16.0046 19.7649 15.61 20.1337 15.61 20.8V21.3876H14.9388V22.1572H15.61V24.016C14.345 23.8168 13.3775 22.7165 13.3775 21.3876C13.3775 19.9173 14.5626 18.7249 16.0231 18.7249Z" fill="#007BFF"/>
<path d="M59.0664 28.2974V39.0533C59.0664 40.0289 58.2744 40.8208 57.2988 40.8208H14.6713C13.6957 40.8208 12.9037 40.0289 12.9037 39.0533V28.2974C12.9037 27.3219 13.6957 26.5297 14.6713 26.5297H57.2988C58.2744 26.5297 59.0664 27.3219 59.0664 28.2974Z" fill="#A3201D"/>
<path d="M56.1232 29.4653C56.1232 29.6337 56.1083 29.8 56.0821 29.9645C56.054 30.1328 56.0129 30.3011 55.9568 30.4638C55.8989 30.6339 55.826 30.8003 55.7399 30.963C55.6483 31.1349 55.5418 31.2995 55.4221 31.4621C55.4071 31.4846 55.3903 31.5032 55.3735 31.5238C55.2576 31.6753 55.1286 31.8211 54.9865 31.9613C54.8724 32.0754 54.7528 32.1838 54.6238 32.2885C54.5527 32.3465 54.4798 32.4026 54.4068 32.4587C54.2424 32.582 54.0647 32.6998 53.8778 32.8101C53.7936 32.8607 53.7077 32.9092 53.6198 32.956C53.4628 33.042 53.3 33.1224 53.13 33.1972C52.9206 33.2906 52.7018 33.3767 52.4756 33.4552C52.4438 33.4664 52.4139 33.4776 52.382 33.4869C52.1409 33.5673 51.8923 33.6384 51.6343 33.6982C51.3912 33.7562 51.1407 33.8048 50.8863 33.8422C50.6414 33.8796 50.3928 33.9076 50.1367 33.9263C49.8917 33.945 49.6412 33.9544 49.3888 33.9544C49.1364 33.9544 48.8859 33.945 48.641 33.9263C48.3867 33.9076 48.138 33.8796 47.8931 33.8441C47.6369 33.8048 47.3864 33.758 47.1434 33.6982C46.8854 33.6384 46.6368 33.5673 46.3956 33.4869C46.3637 33.4757 46.3338 33.4664 46.302 33.4552C46.0758 33.3785 45.857 33.2926 45.6477 33.1972C45.4776 33.1224 45.3148 33.042 45.1579 32.956C45.0699 32.9092 44.984 32.8607 44.8999 32.8101C44.7129 32.6998 44.5352 32.582 44.3708 32.4567C44.2959 32.4007 44.223 32.3446 44.1539 32.2867C44.0267 32.182 43.9052 32.0716 43.7911 31.9595C43.6528 31.8174 43.5238 31.6715 43.4078 31.522C43.3911 31.5014 43.3761 31.4808 43.3612 31.4603C43.2396 31.2976 43.1331 31.1331 43.0433 30.961C42.9573 30.7984 42.8844 30.632 42.8264 30.4619C42.7722 30.2992 42.7292 30.1328 42.7012 29.9645C42.675 29.8 42.66 29.6337 42.66 29.4653H45.6514L46.3992 30.2637L46.5862 30.4638L47.0536 30.961L47.1471 31.0602L47.5211 31.4584L47.8949 31.8585L47.9885 31.9576L48.4559 32.4567L48.6428 32.6568L49.3906 33.4552L50.1385 32.6568L50.3255 32.4567L50.7929 31.9576L50.8883 31.8566L51.6361 31.0602L51.7296 30.961L52.197 30.4619L52.384 30.2618L53.13 29.4653H56.1232Z" fill="#FF3B4B"/>
<path d="M56.1232 33.9524C56.1232 34.1206 56.1083 34.287 56.0821 34.4516C56.054 34.6199 56.0129 34.7881 55.9568 34.9507C55.8989 35.1209 55.826 35.2873 55.7399 35.4499C55.6483 35.622 55.5418 35.7864 55.4221 35.9492C55.4071 35.9716 55.3903 35.9903 55.3735 36.0109C55.2576 36.1622 55.1286 36.3081 54.9865 36.4484C54.8724 36.5624 54.7528 36.6709 54.6238 36.7756C54.5527 36.8335 54.4798 36.8896 54.4068 36.9456C54.2424 37.0691 54.0647 37.1869 53.8778 37.2972C53.7936 37.3476 53.7077 37.3962 53.6198 37.443C53.4628 37.529 53.3 37.6093 53.13 37.6841C52.9206 37.7777 52.7018 37.8636 52.4756 37.9421C52.4438 37.9534 52.4139 37.9645 52.382 37.974C52.1409 38.0543 51.8923 38.1254 51.6343 38.1852C51.3912 38.2432 51.1407 38.2918 50.8863 38.3292C50.6414 38.3665 50.3928 38.3946 50.1367 38.4133C49.8917 38.432 49.6412 38.4413 49.3888 38.4413C49.1364 38.4413 48.8859 38.432 48.641 38.4133C48.3867 38.3946 48.138 38.3665 47.8931 38.331C47.6369 38.2918 47.3864 38.2451 47.1434 38.1852C46.8854 38.1254 46.6368 38.0543 46.3956 37.974C46.3637 37.9627 46.3338 37.9534 46.302 37.9421C46.0758 37.8655 45.857 37.7795 45.6477 37.6841C45.4776 37.6093 45.3148 37.529 45.1579 37.443C45.0699 37.3962 44.984 37.3476 44.8999 37.2972C44.7129 37.1869 44.5352 37.0691 44.3708 36.9438C44.2959 36.8877 44.223 36.8316 44.1539 36.7736C44.0267 36.6689 43.9052 36.5586 43.7911 36.4464C43.6528 36.3044 43.5238 36.1585 43.4078 36.0089C43.3911 35.9883 43.3761 35.9679 43.3612 35.9472C43.2396 35.7846 43.1331 35.6201 43.0433 35.4481C42.9573 35.2854 42.8862 35.119 42.8264 34.9489C42.7722 34.7863 42.7292 34.6199 42.7012 34.4497C42.675 34.287 42.66 34.1206 42.66 33.9524H45.6514L46.3992 34.7506L46.5862 34.9507L47.0536 35.4481L47.1471 35.5472L47.5211 35.9454L47.8949 36.3455L47.9885 36.4446L48.6428 37.1439L49.3906 37.9421L50.1385 37.1439L50.7929 36.4446L50.8883 36.3436L51.6361 35.5472L51.7296 35.4481L52.384 34.7488L53.13 33.9524H56.1232Z" fill="#FF3B4B"/>
<path d="M15.3172 30.1383C15.3172 29.7222 15.6546 29.3848 16.0707 29.3848H32.7294C33.1456 29.3848 33.4829 29.7222 33.4829 30.1383C33.4829 30.5545 33.1456 30.8918 32.7294 30.8918H16.0707C15.6546 30.8918 15.3172 30.5545 15.3172 30.1383Z" fill="#F59C2F"/>
<path d="M15.3172 32.6542C15.3172 32.238 15.6546 31.9007 16.0707 31.9007H29.4696C29.8857 31.9007 30.2231 32.238 30.2231 32.6542C30.2231 33.0703 29.8857 33.4077 29.4696 33.4077H16.0707C15.6546 33.4077 15.3172 33.0703 15.3172 32.6542Z" fill="#F59C2F"/>
<path fill-rule="evenodd" clip-rule="evenodd" d="M21.3924 21.2563C21.3924 21.8079 21.8402 22.2558 22.3919 22.2558H58.0644C58.6161 22.2558 59.0639 21.8079 59.0639 21.2563C59.0639 20.7046 58.6161 20.2567 58.0644 20.2567H22.3919C21.8402 20.2567 21.3924 20.7046 21.3924 21.2563Z" fill="#EBEBEB"/>
<path fill-rule="evenodd" clip-rule="evenodd" d="M12.9036 51.6066C12.9036 52.1582 13.3515 52.6061 13.9031 52.6061H49.5757C50.1273 52.6061 50.5752 52.1582 50.5752 51.6066C50.5752 51.0549 50.1273 50.607 49.5757 50.607H13.9031C13.3515 50.607 12.9036 51.0549 12.9036 51.6066Z" fill="#EBEBEB"/>
<circle cx="21.1092" cy="40.7499" r="5.19988" fill="#EBEBEB"/>
<defs>
<filter id="filter0_dd_4845_7628" x="8.69313" y="14.7426" width="57.3473" height="45.2485" filterUnits="userSpaceOnUse" color-interpolation-filters="sRGB">
<feFlood flood-opacity="0" result="BackgroundImageFix"/>
<feColorMatrix in="SourceAlpha" type="matrix" values="0 0 0 0 0 0 0 0 0 0 0 0 0 0 0 0 0 0 127 0" result="hardAlpha"/>
<feOffset dx="3.09021" dy="3.09021"/>
<feGaussianBlur stdDeviation="0.386277"/>
<feColorMatrix type="matrix" values="0 0 0 0 0.25098 0 0 0 0 0.341176 0 0 0 0 0.427451 0 0 0 0.3 0"/>
<feBlend mode="normal" in2="BackgroundImageFix" result="effect1_dropShadow_4845_7628"/>
<feColorMatrix in="SourceAlpha" type="matrix" values="0 0 0 0 0 0 0 0 0 0 0 0 0 0 0 0 0 0 127 0" result="hardAlpha"/>
<feOffset/>
<feGaussianBlur stdDeviation="0.565973"/>
<feComposite in2="hardAlpha" operator="out"/>
<feColorMatrix type="matrix" values="0 0 0 0 0 0 0 0 0 0 0 0 0 0 0 0 0 0 0.25 0"/>
<feBlend mode="normal" in2="effect1_dropShadow_4845_7628" result="effect2_dropShadow_4845_7628"/>
<feBlend mode="normal" in="SourceGraphic" in2="effect2_dropShadow_4845_7628" result="shape"/>
</filter>
</defs>
</svg>
