<svg width="73" height="72" viewBox="0 0 73 72" fill="none" xmlns="http://www.w3.org/2000/svg">
<path d="M0.0090332 36.0044C0.0090332 16.1214 16.1275 0.00292969 36.0105 0.00292969C55.8936 0.00292969 72.0121 16.1214 72.0121 36.0044C72.0121 55.8875 55.8936 72.006 36.0105 72.006C16.1275 72.006 0.0090332 55.8875 0.0090332 36.0044Z" fill="#F3E6FF"/>
<g filter="url(#filter0_dd_4869_10523)">
<path fill-rule="evenodd" clip-rule="evenodd" d="M53.287 9.33877L53.287 60.3218C53.287 60.4279 53.201 60.5139 53.095 60.5139L17.4845 60.5139C17.3785 60.5139 17.2925 60.4279 17.2925 60.3218L17.2925 9.33877C17.2925 9.23275 17.3785 9.14673 17.4845 9.14673L53.095 9.14673C53.201 9.14673 53.287 9.23275 53.287 9.33877Z" fill="#D6ABFF"/>
</g>
<rect x="17.2206" y="9.10693" width="36.1102" height="14.4472" fill="#470890"/>
<path d="M22.8873 12.0327L20.3856 16.3689L22.645 16.3757L20.3808 20.2999H22.922L23.9843 18.4583L25.0467 20.2999H27.2594V20.6286L28.6501 18.2177L25.0821 12.0327H22.8873ZM23.061 16.1366L23.9851 14.535L26.0404 18.0978H24.0544L22.9924 16.2562L23.061 16.1366Z" fill="#D6ABFF"/>
<path fill-rule="evenodd" clip-rule="evenodd" d="M47.3549 28.2449C47.6751 28.2449 47.9831 28.379 48.2101 28.6177C48.4371 28.8564 48.5627 29.1802 48.5627 29.5178C48.5627 29.8553 48.4371 30.1792 48.2101 30.4179C47.9831 30.6566 47.6751 30.7907 47.3549 30.7907C42.9774 30.7907 27.602 30.7907 23.2245 30.7907C22.9043 30.7907 22.5963 30.6566 22.3734 30.4179C22.1464 30.1792 22.0167 29.8554 22.0167 29.5178C22.0167 29.1802 22.1464 28.8564 22.3734 28.6177C22.5963 28.379 22.9043 28.2449 23.2245 28.2449C27.602 28.2449 42.9774 28.2449 47.3549 28.2449Z" fill="#992BFF"/>
<path fill-rule="evenodd" clip-rule="evenodd" d="M47.3545 32.46C47.6747 32.46 47.9828 32.5941 48.2098 32.8329C48.4367 33.0716 48.5624 33.3953 48.5624 33.7329C48.5624 34.0705 48.4367 34.3943 48.2098 34.633C47.9828 34.8717 47.6747 35.0058 47.3545 35.0058C42.9771 35.0058 27.6017 35.0058 23.2242 35.0058C22.904 35.0058 22.596 34.8717 22.373 34.633C22.1461 34.3943 22.0164 34.0705 22.0164 33.733C22.0164 33.3954 22.1461 33.0716 22.373 32.8329C22.596 32.5941 22.904 32.46 23.2242 32.46C27.6017 32.46 42.9771 32.46 47.3545 32.46Z" fill="#992BFF"/>
<path fill-rule="evenodd" clip-rule="evenodd" d="M36.4779 36.675C36.7981 36.675 37.1061 36.8091 37.3318 37.0478C37.5605 37.2865 37.6855 37.6103 37.6855 37.9479C37.6855 38.2854 37.5605 38.6093 37.3318 38.848C37.1061 39.0867 36.7981 39.2208 36.4779 39.2208C32.9557 39.2208 26.7462 39.2208 23.224 39.2208C22.9038 39.2208 22.5988 39.0867 22.3701 38.848C22.1444 38.6093 22.0164 38.2855 22.0164 37.9479C22.0164 37.6104 22.1444 37.2865 22.3701 37.0478C22.5988 36.8091 22.9038 36.675 23.224 36.675C26.7462 36.675 32.9557 36.675 36.4779 36.675Z" fill="#992BFF"/>
<path d="M41.519 42.1025C42.0991 41.5472 43.0135 41.5472 43.5936 42.1025L44.148 42.6332C44.4782 42.9494 44.9346 43.0976 45.3875 43.036L46.148 42.9325C46.9437 42.8242 47.6835 43.3617 47.8264 44.1519L47.9629 44.9071C48.0443 45.357 48.3263 45.7452 48.729 45.9615L49.4051 46.3248C50.1124 46.7049 50.395 47.5746 50.0461 48.2978L49.7127 48.9891C49.5141 49.4008 49.5141 49.8807 49.7127 50.2924L50.0461 50.9837C50.395 51.7069 50.1124 52.5766 49.4051 52.9567L48.729 53.32C48.3263 53.5363 48.0443 53.9245 47.9629 54.3744L47.8264 55.1296C47.6835 55.9198 46.9437 56.4573 46.148 56.349L45.3875 56.2455C44.9346 56.1839 44.4782 56.3321 44.148 56.6483L43.5936 57.179C43.0135 57.7343 42.0991 57.7343 41.519 57.179L40.9646 56.6483C40.6344 56.3321 40.178 56.1839 39.7251 56.2455L38.9646 56.349C38.169 56.4573 37.4291 55.9198 37.2863 55.1296L37.1497 54.3744C37.0684 53.9245 36.7863 53.5363 36.3836 53.32L35.7075 52.9567C35.0002 52.5766 34.7176 51.7069 35.0665 50.9837L35.3999 50.2924C35.5985 49.8807 35.5985 49.4008 35.3999 48.9891L35.0665 48.2978C34.7176 47.5746 35.0002 46.7049 35.7076 46.3248L36.3836 45.9615C36.7863 45.7452 37.0684 45.357 37.1497 44.9071L37.2863 44.1519C37.4291 43.3617 38.169 42.8242 38.9646 42.9325L39.7251 43.036C40.1781 43.0976 40.6344 42.9494 40.9646 42.6332L41.519 42.1025Z" fill="white"/>
<defs>
<filter id="filter0_dd_4869_10523" x="16.1605" y="8.01478" width="40.9892" height="56.3619" filterUnits="userSpaceOnUse" color-interpolation-filters="sRGB">
<feFlood flood-opacity="0" result="BackgroundImageFix"/>
<feColorMatrix in="SourceAlpha" type="matrix" values="0 0 0 0 0 0 0 0 0 0 0 0 0 0 0 0 0 0 127 0" result="hardAlpha"/>
<feOffset dx="3.09021" dy="3.09021"/>
<feGaussianBlur stdDeviation="0.386277"/>
<feColorMatrix type="matrix" values="0 0 0 0 0.25098 0 0 0 0 0.341176 0 0 0 0 0.427451 0 0 0 0.3 0"/>
<feBlend mode="normal" in2="BackgroundImageFix" result="effect1_dropShadow_4869_10523"/>
<feColorMatrix in="SourceAlpha" type="matrix" values="0 0 0 0 0 0 0 0 0 0 0 0 0 0 0 0 0 0 127 0" result="hardAlpha"/>
<feOffset/>
<feGaussianBlur stdDeviation="0.565973"/>
<feComposite in2="hardAlpha" operator="out"/>
<feColorMatrix type="matrix" values="0 0 0 0 0 0 0 0 0 0 0 0 0 0 0 0 0 0 0.25 0"/>
<feBlend mode="normal" in2="effect1_dropShadow_4869_10523" result="effect2_dropShadow_4869_10523"/>
<feBlend mode="normal" in="SourceGraphic" in2="effect2_dropShadow_4869_10523" result="shape"/>
</filter>
</defs>
</svg>
