<svg width="72" height="72" viewBox="0 0 72 72" fill="none" xmlns="http://www.w3.org/2000/svg">
<path d="M0.00292969 36.0015C0.00292969 16.1184 16.1214 0 36.0044 0C55.8875 0 72.006 16.1184 72.006 36.0015C72.006 55.8846 55.8875 72.003 36.0044 72.003C16.1214 72.003 0.00292969 55.8846 0.00292969 36.0015Z" fill="#F3E6FF"/>
<g filter="url(#filter0_dd_4869_9082)">
<path fill-rule="evenodd" clip-rule="evenodd" d="M54.3787 9.09953L54.3787 62.0296C54.3787 62.1397 54.2894 62.229 54.1793 62.229L17.2089 62.229C17.0988 62.229 17.0095 62.1397 17.0095 62.0296L17.0095 9.09953C17.0095 8.98945 17.0988 8.90015 17.2089 8.90015L54.1793 8.90015C54.2894 8.90015 54.3787 8.98945 54.3787 9.09953Z" fill="#470890"/>
</g>
<mask id="mask0_4869_9082" style="mask-type:luminance" maskUnits="userSpaceOnUse" x="35" y="13" width="16" height="44">
<path d="M35.9017 13.0234H50.5663V56.9768H35.9017V13.0234Z" fill="white"/>
</mask>
<g mask="url(#mask0_4869_9082)">
<path d="M49.0042 30.0416C49.0022 30.0336 48.9958 30.0203 48.9982 30.0182C49.0826 29.9402 49.0991 29.9074 49.1206 29.7625C49.0991 29.7487 49.0756 29.7334 49.0547 29.7196C49.0532 29.7079 49.0492 29.6989 49.0512 29.692C49.0946 29.5323 49.1345 29.371 49.184 29.2135C49.2224 29.0888 49.1849 28.9498 49.2543 28.831C49.2628 28.8162 49.2409 28.7838 49.2419 28.7594C49.2424 28.7302 49.2513 28.7005 49.2583 28.6719C49.2603 28.6644 49.2733 28.6591 49.2728 28.6533C49.2693 28.5732 49.2643 28.4931 49.2593 28.413C49.2563 28.3631 49.2548 28.3133 49.2493 28.2634C49.2399 28.1722 49.2174 28.0814 49.2194 27.9907C49.2239 27.8242 49.1455 27.6778 49.1265 27.5223C49.0986 27.2963 49.0332 27.0884 48.9453 26.8868C48.8859 26.7484 48.8031 26.6221 48.7007 26.5123C48.5974 26.4014 48.5125 26.2598 48.3907 26.1813C48.2559 26.0937 48.1786 25.9664 48.0832 25.8481C47.9998 25.7447 47.904 25.6524 47.8206 25.5489C47.7193 25.4232 47.6249 25.2911 47.5281 25.1612C47.5106 25.1378 47.4971 25.1108 47.4787 25.088C47.2905 24.8492 47.2066 24.5644 47.1477 24.2657C47.1208 24.1283 47.1083 23.9909 47.1038 23.8525C47.1023 23.8106 47.1213 23.7681 47.1337 23.7124C47.1297 23.7071 47.1153 23.6875 47.1108 23.6822C47.1427 23.5904 47.1707 23.5098 47.2051 23.4116C47.1722 23.4217 47.1552 23.427 47.1382 23.4323C47.1322 23.374 47.1322 23.374 47.2011 23.3496C47.2131 23.2838 47.2256 23.2148 47.2386 23.1411C47.2216 23.1411 47.2066 23.1411 47.1916 23.1411C47.1921 23.1337 47.1916 23.122 47.1941 23.1215C47.2341 23.1103 47.273 23.0981 47.2755 23.0435C47.28 22.9591 47.3264 22.896 47.3684 22.8308L47.3664 22.8329C47.3858 22.7777 47.3858 22.7777 47.3589 22.7013C47.3953 22.6748 47.4333 22.6478 47.4897 22.6074C47.4432 22.5947 47.4163 22.5873 47.3798 22.5772C47.4298 22.4027 47.5351 22.2658 47.6364 22.1258C47.6988 22.0404 47.7602 21.9534 47.8211 21.8664C47.8711 21.7953 47.9135 21.7162 47.9709 21.6526C48.0727 21.5396 48.1301 21.3974 48.2085 21.269C48.238 21.2208 48.2734 21.1762 48.2974 21.1258C48.3498 21.0155 48.3683 20.8919 48.4157 20.7794C48.4456 20.7073 48.4781 20.6351 48.502 20.5603C48.526 20.4855 48.5575 20.407 48.556 20.3306C48.554 20.2431 48.6209 20.1683 48.5859 20.0792C48.5834 20.0718 48.5829 20.0585 48.5874 20.0542C48.6583 19.9779 48.6258 19.8808 48.6333 19.7927C48.6373 19.7434 48.6323 19.6935 48.6283 19.6437C48.6214 19.5529 48.5834 19.4686 48.5969 19.3715C48.6049 19.3132 48.5784 19.2463 48.558 19.1869C48.5 19.0203 48.4446 18.8543 48.3703 18.6925C48.2015 18.3244 47.9539 18.0135 47.7532 17.6697C47.6669 17.5217 47.5476 17.3966 47.4497 17.2565C47.3469 17.1096 47.251 16.9573 47.1537 16.8067C47.1043 16.7297 47.0569 16.6507 47.0119 16.5706C46.986 16.525 46.949 16.5213 46.9076 16.5276C46.8043 16.5446 46.7009 16.5616 46.5981 16.5796C46.3076 16.6305 46.015 16.6656 45.7205 16.6507C45.4135 16.6348 45.1055 16.6162 44.8154 16.4873C44.7495 16.4581 44.6772 16.4438 44.6063 16.4311C44.4166 16.3977 44.2523 16.3054 44.0946 16.195C44.0616 16.1717 44.0222 16.1589 43.9903 16.1345C43.9229 16.0836 43.854 16.0369 43.8036 15.96C43.7701 15.9096 43.6982 15.8895 43.6538 15.8444C43.4411 15.6311 43.204 15.4455 43.0208 15.2004C42.9384 15.0906 42.8601 14.9776 42.7812 14.8651C42.7153 14.7723 42.6419 14.6895 42.5386 14.6439C42.5201 14.6354 42.5026 14.6221 42.4842 14.62C42.277 14.594 42.0703 14.5516 41.8607 14.5744C41.6535 14.5967 41.4493 14.6338 41.2506 14.7091C40.8478 14.8614 40.4879 15.1091 40.0925 15.2768C39.9996 15.316 39.9028 15.3431 39.808 15.3765C39.7321 15.4025 39.6577 15.4332 39.5808 15.4561C39.3911 15.5134 39.1994 15.5595 38.9997 15.5515C38.9443 15.5494 38.8889 15.5622 38.8335 15.5691C38.6433 15.5924 38.4546 15.568 38.2649 15.5558C38.0558 15.542 37.8506 15.5155 37.6474 15.4667C37.5001 15.4311 37.3499 15.3988 37.2186 15.3102C37.1921 15.2927 37.1597 15.2837 37.1292 15.2736C36.9321 15.2062 36.7548 15.1033 36.5966 14.959C36.5117 14.8816 36.4089 14.8259 36.3245 14.7479C36.2192 14.6497 36.1179 14.5452 36.0285 14.4312C35.9626 14.3474 35.9187 14.2439 35.9292 14.1251C35.9561 14.1086 35.9831 14.0922 36.0175 14.0715C36.024 14.0811 36.032 14.0911 36.037 14.1023C36.0869 14.2094 36.1708 14.28 36.2631 14.3421C36.5102 14.5092 36.7808 14.6121 37.0618 14.6911C37.3978 14.7855 37.7393 14.8381 38.0842 14.8587C38.2504 14.8688 38.4187 14.8402 38.5854 14.8285C38.6483 14.8237 38.7117 14.8243 38.7731 14.8126C38.9413 14.7808 39.1076 14.7282 39.2773 14.7145C39.3996 14.7049 39.5029 14.6588 39.6143 14.6184C39.8434 14.5346 40.0531 14.4105 40.2682 14.297C40.4539 14.1988 40.6346 14.0869 40.8268 14.0047C40.9696 13.9437 41.1124 13.8874 41.2471 13.8057C41.2786 13.7866 41.326 13.793 41.3645 13.7559C41.3949 13.7267 41.4513 13.7256 41.4972 13.7193C41.5347 13.7145 41.5751 13.7288 41.6106 13.7193C41.6894 13.6981 41.7653 13.6641 41.8442 13.6408C41.8741 13.6323 41.9076 13.636 41.94 13.6365C42.0389 13.6376 42.1377 13.6402 42.2366 13.6413C42.2565 13.6418 42.277 13.6349 42.296 13.6392C42.4497 13.671 42.604 13.7002 42.7562 13.7394C42.8895 13.7744 42.9973 13.8561 43.1062 13.9495C43.2849 14.1033 43.4017 14.3049 43.5435 14.4879C43.6733 14.655 43.81 14.8184 43.9578 14.967C44.2144 15.2253 44.5184 15.3924 44.8619 15.4921C45.0645 15.551 45.2712 15.5701 45.4754 15.6009C45.6716 15.6301 45.8737 15.6184 46.0729 15.5961C46.2002 15.5813 46.328 15.5722 46.4553 15.5579C46.5237 15.5505 46.5916 15.5383 46.6265 15.4762C46.6171 15.3749 46.6066 15.2821 46.6006 15.1887C46.5956 15.1192 46.6056 15.0465 46.5926 14.9792C46.5686 14.8566 46.5701 14.7447 46.647 14.6412C46.661 14.6227 46.661 14.5845 46.655 14.558C46.6216 14.4057 46.6585 14.2789 46.7703 14.1643C46.7843 14.1495 46.7863 14.1208 46.7923 14.098C46.8142 14.0174 46.8212 13.9278 46.9061 13.8853C46.9595 13.9129 46.9595 13.9129 46.98 13.8583C46.9525 13.8689 46.9286 13.8784 46.9046 13.8874C46.9201 13.8508 46.9286 13.8073 46.9525 13.7776C47.0334 13.6784 47.1198 13.5835 47.2121 13.4779C47.2326 13.5161 47.2461 13.5405 47.2595 13.5654C47.283 13.5591 47.306 13.5527 47.3389 13.5437C47.3294 13.5209 47.3214 13.5007 47.3099 13.4726C47.3674 13.4105 47.4357 13.367 47.5251 13.3448C47.6249 13.3198 47.7213 13.2753 47.8151 13.2302C47.9015 13.1893 47.9964 13.1755 48.0767 13.1087C48.1236 13.07 48.2075 13.071 48.2744 13.0737C48.3737 13.0769 48.4671 13.036 48.5709 13.0509C48.7032 13.0689 48.826 13.1108 48.9483 13.1601C49.1265 13.2318 49.2783 13.3554 49.4181 13.4864C49.5673 13.6264 49.6742 13.8047 49.6707 14.0312C49.6697 14.0768 49.6577 14.1235 49.6462 14.1686C49.6232 14.2572 49.5948 14.3447 49.5723 14.4338C49.5663 14.4566 49.5648 14.4911 49.5768 14.5081C49.6377 14.5956 49.5953 14.6842 49.5853 14.7818C49.5678 14.7808 49.5499 14.7792 49.5324 14.7781C49.5279 14.785 49.5189 14.7946 49.5204 14.7977C49.5783 14.9144 49.5164 14.9945 49.448 15.0736C49.4405 15.0826 49.4261 15.0874 49.4226 15.0975C49.3068 15.4195 49.0626 15.6141 48.8115 15.8041C48.6862 15.8985 48.5445 15.9568 48.4102 16.0311C48.2669 16.1107 48.1202 16.1733 47.9684 16.2295C47.874 16.265 47.8641 16.3054 47.926 16.3934C48.1107 16.6565 48.3004 16.9159 48.4851 17.1791C48.6184 17.369 48.7496 17.5605 48.8774 17.7552C48.9598 17.8809 49.0412 18.0082 49.1116 18.1424C49.2344 18.3763 49.3392 18.6214 49.3801 18.8872C49.4226 19.1641 49.4475 19.4442 49.4311 19.7264C49.4216 19.8829 49.4161 20.0394 49.4031 20.1959C49.3981 20.2542 49.3806 20.3115 49.3642 20.3683C49.3462 20.4309 49.3237 20.4903 49.3252 20.5603C49.3262 20.6219 49.3038 20.6834 49.2908 20.7449C49.2893 20.7529 49.2773 20.7598 49.2783 20.7661C49.3112 20.9592 49.2179 21.1232 49.1585 21.2903C49.0936 21.4738 48.9972 21.6452 48.9129 21.8207C48.9024 21.8436 48.8874 21.8664 48.8695 21.8812C48.7646 21.9661 48.7092 22.0823 48.6588 22.2085C48.6243 22.2955 48.555 22.3671 48.4975 22.4425C48.3792 22.5958 48.2704 22.7554 48.1756 22.9263C48.1461 22.9798 48.1072 23.0255 48.0947 23.0907C48.0892 23.1204 48.0513 23.1427 48.0318 23.1644C48.0203 23.218 48.0098 23.2705 47.9978 23.3225C47.9719 23.4387 47.925 23.5543 47.9245 23.6705C47.924 23.8084 47.9504 23.9511 47.9884 24.0843C48.0672 24.3644 48.212 24.6111 48.3752 24.8434C48.4376 24.932 48.512 25.0105 48.5854 25.0885C48.7182 25.2291 48.8545 25.3654 48.9888 25.5044C49.0831 25.6025 49.177 25.7012 49.2698 25.8004C49.4096 25.9495 49.5299 26.1134 49.6213 26.3012C49.6632 26.3882 49.7281 26.464 49.7595 26.5542C49.8229 26.733 49.8833 26.9149 49.9218 27.1011C49.9737 27.3499 50.0111 27.603 50.0396 27.8565C50.0571 28.0162 50.0461 28.1791 50.0481 28.3409C50.0496 28.43 50.0546 28.5191 50.0521 28.6082C50.0456 28.839 50.0191 29.066 49.9492 29.2872C49.9223 29.3742 49.9183 29.4681 49.8624 29.5456C49.8494 29.5631 49.8514 29.6103 49.8649 29.6289C49.9143 29.6952 49.8983 29.7636 49.8848 29.8347C49.8289 30.1317 49.7026 30.398 49.5668 30.6606C49.5319 30.728 49.5134 30.8123 49.4635 30.8617C49.4131 30.9115 49.4001 30.9704 49.3726 31.0277C49.2558 31.2707 49.2573 31.5296 49.2803 31.7884C49.2988 31.9916 49.3312 32.1942 49.3682 32.3953C49.4281 32.7194 49.5589 33.0165 49.7246 33.2913C49.8099 33.4324 49.9382 33.5454 50.0506 33.6669C50.1175 33.7395 50.2198 33.792 50.2532 33.8775C50.2837 33.9554 50.3491 33.9958 50.3745 34.0695C50.401 34.1453 50.43 34.2201 50.4579 34.2955C50.5248 34.4758 50.5652 34.6567 50.5483 34.8567C50.5343 35.0164 50.5597 35.1787 50.5003 35.3352C50.4709 35.4132 50.4554 35.497 50.4315 35.5856C50.4559 35.5872 50.4694 35.5882 50.4854 35.5893C50.4839 35.6015 50.4844 35.6148 50.4799 35.6254C50.417 35.7649 50.3546 35.9049 50.2892 36.0434C50.2752 36.0731 50.2517 36.0991 50.2283 36.1219C50.1205 36.2291 50.0056 36.3283 49.9043 36.4418C49.755 36.6084 49.6227 36.7892 49.5549 37.0136C49.5379 37.0699 49.5124 37.124 49.4855 37.1765C49.3687 37.4057 49.3412 37.6624 49.2948 37.9117C49.2419 38.1945 49.2653 38.4794 49.3068 38.7621C49.3152 38.8205 49.3347 38.8719 49.3866 38.9122C49.4331 38.9483 49.4705 39.004 49.4635 39.0804C49.445 39.0804 49.4276 39.0804 49.3971 39.0804C49.4146 39.1106 49.4241 39.1472 49.446 39.16C49.5434 39.2162 49.5539 39.2417 49.5479 39.3456C49.5449 39.4013 49.5608 39.4613 49.5798 39.5148C49.6178 39.6225 49.6657 39.726 49.7061 39.8331C49.7326 39.9037 49.7505 39.978 49.778 40.048C49.804 40.1127 49.8219 40.1817 49.8788 40.2305C49.9003 40.249 49.9093 40.2904 49.9148 40.3233C49.9567 40.5885 50.0006 40.8532 50.0346 41.1195C50.0486 41.2283 50.0396 41.3402 50.0416 41.4506C50.0446 41.6203 50.0491 41.7901 50.0506 41.9598C50.0516 42.032 50.0511 42.1052 50.0426 42.1773C50.0006 42.546 49.9347 42.9088 49.809 43.2584C49.7086 43.538 49.5773 43.7995 49.4066 44.034C49.2923 44.1915 49.147 44.3236 49.0132 44.4647C48.823 44.6663 48.6204 44.8568 48.4426 45.07C48.2659 45.2822 48.1202 45.5188 48.0218 45.7893C47.9379 46.0196 47.9015 46.2466 47.9469 46.4875C47.9574 46.5442 47.9694 46.6026 47.9924 46.6546C48.0568 46.7999 48.1276 46.9421 48.1955 47.0864C48.211 47.1193 48.225 47.1532 48.239 47.1872C48.244 47.1988 48.2445 47.2163 48.2524 47.2216C48.3448 47.2821 48.3837 47.3903 48.4526 47.4715C48.4951 47.5219 48.52 47.5956 48.5614 47.6296C48.6558 47.707 48.7072 47.8126 48.7641 47.9118C48.846 48.0534 48.9503 48.1829 48.9868 48.3542C49.0007 48.4189 49.0547 48.473 49.0876 48.534C49.0991 48.5558 49.1016 48.5828 49.1086 48.6072C49.0946 48.621 49.0811 48.6354 49.0671 48.6492C49.0731 48.6545 49.0791 48.6592 49.0846 48.6645C49.0921 48.6444 49.0991 48.6248 49.1061 48.6046C49.1211 48.6279 49.1445 48.6492 49.15 48.6751C49.1785 48.8147 49.2314 48.9499 49.2114 49.0985C49.2084 49.1218 49.2399 49.1499 49.2653 49.1929C49.2648 49.2136 49.1984 49.2693 49.2853 49.3006C49.2678 49.4661 49.4156 49.5992 49.3677 49.7716C49.3632 49.787 49.3657 49.8072 49.3707 49.8226C49.4535 50.0825 49.4296 50.3525 49.435 50.6188C49.4385 50.8103 49.4091 51.0008 49.3482 51.1838C49.3297 51.2395 49.3132 51.2968 49.2998 51.3546C49.2069 51.7434 48.9982 52.0649 48.7731 52.3768C48.6828 52.502 48.5984 52.632 48.508 52.7572C48.3767 52.9391 48.2405 53.1174 48.1092 53.3004C48.0388 53.3985 47.9729 53.5009 47.9095 53.6049C47.8711 53.6691 47.8825 53.7004 47.9519 53.7322C48.0583 53.781 48.1711 53.8155 48.2719 53.8738C48.4956 54.0033 48.7417 54.086 48.9373 54.2749C49.0701 54.4033 49.2244 54.5072 49.3397 54.6584C49.4126 54.7544 49.461 54.8547 49.4645 54.9873C49.468 55.1125 49.5054 55.2372 49.5339 55.3602C49.5693 55.513 49.6183 55.6626 49.6472 55.8164C49.6827 56.009 49.6717 56.1883 49.5364 56.3528C49.3517 56.5777 49.1355 56.748 48.8749 56.8498C48.7292 56.9071 48.5784 56.9633 48.4187 56.9549C48.3388 56.9506 48.2589 56.9294 48.1801 56.9114C47.908 56.8493 47.6539 56.7379 47.4033 56.6095C47.28 56.5464 47.1896 56.4477 47.0838 56.3671C47.0648 56.3522 47.0608 56.3156 47.0504 56.2891C47.0673 56.2907 47.0843 56.2928 47.1013 56.2949C47.0968 56.2822 47.0923 56.2695 47.0878 56.2567C47.0758 56.2684 47.0643 56.2801 47.0524 56.2912C46.98 56.2477 46.9181 56.1952 46.9031 56.0997C46.8991 56.0737 46.8911 56.0414 46.8741 56.0271C46.8147 55.9772 46.7738 55.9247 46.7908 55.8366C46.7953 55.8133 46.7733 55.7846 46.7578 55.7422C46.7449 55.7777 46.7389 55.7942 46.7294 55.8218C46.643 55.5655 46.5821 55.3151 46.5661 55.0488C46.5572 54.9008 46.5791 54.7645 46.6081 54.6255C46.625 54.5449 46.632 54.4722 46.5447 54.4303C46.5327 54.4245 46.5282 54.4033 46.5187 54.3905C46.4918 54.3555 46.4918 54.3555 46.4518 54.3985C46.4094 54.3762 46.37 54.3385 46.33 54.3375C46.1144 54.3322 45.8982 54.3253 45.6836 54.3391C45.3745 54.3592 45.0675 54.4043 44.771 54.5062C44.5628 54.5778 44.3741 54.6902 44.1899 54.8133C43.9953 54.9433 43.8395 55.1194 43.6857 55.2961C43.5969 55.399 43.522 55.5167 43.4471 55.6329C43.3343 55.8069 43.1925 55.9538 43.0423 56.0859C42.9444 56.1724 42.8116 56.226 42.6863 56.2631C42.4228 56.3422 42.1527 56.3639 41.8811 56.3002C41.8731 56.2981 41.8642 56.2965 41.8572 56.2992C41.7603 56.3331 41.6735 56.2642 41.5761 56.2716C41.4728 56.279 41.3769 56.2223 41.2821 56.1793C41.2167 56.1496 41.1538 56.1114 41.0859 56.0886C40.8118 55.9973 40.5657 55.843 40.3131 55.704C40.0855 55.5793 39.8604 55.4488 39.6302 55.3295C39.5564 55.2913 39.4685 55.2854 39.3886 55.2594C39.2838 55.225 39.1735 55.2223 39.0676 55.1889C39.0222 55.174 38.9673 55.1974 38.9189 55.1894C38.8086 55.1703 38.7002 55.13 38.5899 55.1215C38.3957 55.1072 38.201 55.0801 38.0053 55.1194C37.903 55.1396 37.7972 55.1401 37.6933 55.1512C37.2036 55.2032 36.7369 55.338 36.3081 55.5984C36.2227 55.6504 36.1523 55.731 36.0749 55.7984C36.0455 55.8239 36.0155 55.8493 35.9766 55.8833C35.9396 55.7905 35.9327 55.7151 35.9731 55.6366C36.054 55.4801 36.1673 55.3544 36.2971 55.2446C36.4094 55.1491 36.5187 55.0478 36.64 54.9666C36.7888 54.8669 36.9445 54.7746 37.1058 54.6998C37.266 54.625 37.4357 54.573 37.6035 54.5168C37.6324 54.5072 37.6704 54.5258 37.7183 54.5332C37.6948 54.5788 37.6794 54.6086 37.6584 54.6494C37.7687 54.6574 37.8656 54.6648 37.9369 54.5688C37.9924 54.6038 38.0483 54.5979 38.1042 54.5746C38.0982 54.504 38.0533 54.5338 38.0223 54.5311C37.9879 54.5284 37.9469 54.5125 37.9389 54.5714C37.9125 54.547 37.8865 54.5221 37.8411 54.4802C37.9479 54.4494 38.0328 54.4144 38.1212 54.4022C38.3643 54.3698 38.6089 54.3529 38.854 54.3942C38.9838 54.416 39.1171 54.4139 39.2459 54.4393C39.6332 54.5162 40.0101 54.6266 40.3596 54.8324C40.5762 54.9603 40.8004 55.0775 41.03 55.1751C41.371 55.3199 41.7244 55.4223 42.0978 55.3958C42.2301 55.3868 42.3624 55.3708 42.4917 55.3411C42.5955 55.3173 42.6749 55.2451 42.7398 55.1507C42.8461 54.9963 42.9519 54.8393 43.0752 54.7003C43.2125 54.546 43.3693 54.4107 43.5165 54.2664C43.5395 54.2436 43.5575 54.2144 43.5794 54.1905C43.6044 54.1635 43.6283 54.1221 43.6583 54.1163C43.7417 54.0988 43.7786 54.0282 43.834 53.9752C43.9468 53.8669 44.0731 53.7773 44.2204 53.7264C44.2274 53.7831 44.2189 53.834 44.1705 53.8691C44.163 53.868 44.155 53.8638 44.1485 53.8653C44.1335 53.8685 44.1191 53.8744 44.1041 53.8791C44.1176 53.8887 44.1305 53.9041 44.145 53.9057C44.1565 53.9073 44.1695 53.8919 44.1815 53.8839C44.2434 53.885 44.2873 53.851 44.3352 53.807C44.2963 53.772 44.2643 53.7439 44.2324 53.7152C44.3197 53.6181 44.4415 53.5948 44.5529 53.5534C44.6542 53.5152 44.76 53.4876 44.8654 53.4643C45.1105 53.4097 45.3516 53.3195 45.6037 53.3237C45.8433 53.3274 46.0869 53.3068 46.321 53.389C46.3305 53.3922 46.343 53.3853 46.3545 53.3837C46.5022 53.3656 46.6435 53.4054 46.7863 53.4378C46.8482 53.4516 46.9141 53.4484 46.989 53.4537C47.0359 53.3784 47.0908 53.3052 47.1307 53.224C47.248 52.9858 47.4033 52.7763 47.5541 52.563C47.6549 52.4198 47.7562 52.2771 47.8566 52.1333C47.9459 52.005 48.0413 51.8803 48.1202 51.745C48.238 51.5424 48.3498 51.335 48.4526 51.1238C48.4961 51.0347 48.5065 50.9286 48.5385 50.8331C48.5984 50.6522 48.6094 50.4629 48.6338 50.2761C48.6363 50.257 48.6253 50.2358 48.6189 50.2162C48.6139 50.2003 48.5964 50.1817 48.5999 50.1711C48.6423 50.057 48.5824 49.9483 48.5869 49.8358C48.5894 49.7807 48.5729 49.7244 48.5619 49.6698C48.557 49.6449 48.536 49.6215 48.5375 49.5982C48.5435 49.4783 48.4906 49.3796 48.4461 49.2767C48.4297 49.2385 48.4097 49.1945 48.4127 49.1552C48.4222 49.0369 48.3518 48.959 48.3094 48.8635C48.2684 48.7701 48.199 48.7022 48.1581 48.6141C48.1117 48.5155 48.0568 48.4242 47.9973 48.3346C47.9399 48.2476 47.8835 48.1595 47.8241 48.0736C47.7877 48.0205 47.7467 47.9696 47.7203 47.898C47.7443 47.9028 47.7677 47.907 47.7992 47.9134C47.7832 47.8402 47.7333 47.82 47.6784 47.8052C47.6659 47.7983 47.6534 47.7908 47.6409 47.7834C47.5231 47.7208 47.4892 47.6036 47.4642 47.4795C47.4812 47.4688 47.4981 47.4582 47.5151 47.4476C47.5061 47.4906 47.4971 47.5336 47.577 47.5638C47.5471 47.5107 47.5301 47.4805 47.5126 47.4503C47.5041 47.4322 47.4952 47.4137 47.4867 47.3956C47.4812 47.3972 47.4757 47.3988 47.4702 47.4004C47.4687 47.4275 47.4677 47.4545 47.4662 47.4816C47.4422 47.4365 47.4183 47.3919 47.3943 47.3468C47.4023 47.3246 47.4108 47.3028 47.4188 47.2805C47.4088 47.2052 47.3429 47.2052 47.2955 47.1797C47.3494 47.1373 47.3604 47.0842 47.3234 47.0333C47.2785 46.9718 47.253 46.9049 47.25 46.8259C47.2451 46.7203 47.2421 46.7203 47.1537 46.6763C47.1677 46.6668 47.1797 46.6583 47.2051 46.6408C47.1198 46.6217 47.1148 46.5575 47.0988 46.4869C47.0334 46.1968 47.0509 45.9124 47.1392 45.6334C47.1996 45.4414 47.2705 45.253 47.3464 45.0668C47.3763 44.9942 47.4342 44.9353 47.4757 44.8674C47.6319 44.6117 47.8246 44.3905 48.0303 44.1799C48.0982 44.1104 48.1531 44.0266 48.2145 43.9496C48.2325 43.9268 48.2489 43.9003 48.2714 43.8855C48.4401 43.773 48.557 43.6048 48.6962 43.46C48.822 43.329 48.9169 43.1805 48.9938 43.016C49.0252 42.9492 49.0482 42.8754 49.0661 42.8028C49.123 42.5688 49.176 42.3333 49.2304 42.0988C49.1954 41.9747 49.2603 41.8585 49.2543 41.737C49.2523 41.6962 49.2414 41.6559 49.2379 41.615C49.2319 41.5524 49.2269 41.4888 49.2249 41.4256C49.2209 41.3068 49.2189 41.1874 49.2169 41.0686C49.2159 40.9975 49.1949 40.9265 49.2424 40.858C49.2638 40.8278 49.2683 40.7816 49.2179 40.7503C49.1914 40.7344 49.181 40.6899 49.1605 40.6538C49.1884 40.6485 49.2064 40.6453 49.2329 40.6405C49.2254 40.5991 49.2189 40.5588 49.2099 40.5196C49.2064 40.5031 49.1959 40.4883 49.1924 40.4718C49.181 40.4193 49.0941 40.4734 49.1016 40.4018C49.1061 40.3599 49.127 40.3206 49.0881 40.2835C49.0796 40.2761 49.0896 40.2485 49.0876 40.231C49.0851 40.2092 49.0856 40.1795 49.0731 40.1684C49.0172 40.1185 48.9523 40.0772 48.9558 39.9849C48.859 39.9143 48.846 39.7918 48.7986 39.691C48.7252 39.535 48.6573 39.3748 48.5974 39.2125C48.557 39.1021 48.5365 38.9838 48.5035 38.8703C48.4831 38.7992 48.4866 38.7372 48.553 38.6831C48.52 38.6555 48.4941 38.6337 48.4626 38.6083C48.4771 38.587 48.499 38.569 48.5025 38.5483C48.509 38.5085 48.518 38.4603 48.503 38.4274C48.4376 38.2847 48.4232 38.1542 48.4576 38.0025C48.4726 37.9372 48.4761 37.8677 48.4796 37.7998C48.4881 37.6433 48.501 37.4884 48.543 37.3367C48.5894 37.1659 48.6243 36.9919 48.6678 36.8205C48.6803 36.7723 48.7037 36.7267 48.7242 36.6805C48.7681 36.5808 48.818 36.4842 48.8575 36.3824C48.9219 36.2158 49.0342 36.0885 49.148 35.9617C49.2588 35.8386 49.3712 35.7166 49.485 35.5962C49.5359 35.5426 49.5638 35.4832 49.5683 35.4058C49.5803 35.2148 49.6103 35.0249 49.6093 34.8344C49.6093 34.7135 49.5683 34.5925 49.5434 34.4721C49.5404 34.4567 49.5279 34.4419 49.5174 34.4297C49.4341 34.3315 49.3502 34.2345 49.2658 34.1369C49.163 34.0175 49.0532 33.904 48.9588 33.7772C48.9024 33.7019 48.868 33.6074 48.8275 33.5199C48.7911 33.4414 48.7556 33.3618 48.7257 33.2801C48.6842 33.1661 48.6488 33.0494 48.6109 32.9332C48.6034 32.9093 48.5984 32.8849 48.5914 32.8611C48.5165 32.6059 48.4766 32.3454 48.4596 32.0786C48.4536 31.981 48.4806 31.8802 48.4337 31.7794C48.4112 31.7311 48.4297 31.6367 48.4631 31.59C48.517 31.5163 48.5225 31.4367 48.5365 31.3545C48.5455 31.3046 48.5614 31.2558 48.5729 31.2065C48.5854 31.1556 48.5854 31.1078 48.55 31.0627C48.535 31.0436 48.524 31.007 48.531 30.9853C48.5934 30.7948 48.6603 30.6065 48.7292 30.4081C48.846 30.4511 48.8919 30.3811 48.9244 30.2951C48.9478 30.232 48.9658 30.1668 48.9863 30.1026C48.9923 30.0824 48.9982 30.0617 49.0042 30.0416ZM40.5707 14.8057C40.5313 14.8237 40.5033 14.8513 40.4914 14.9017C40.5682 14.9038 40.5932 14.8731 40.5687 14.8036C40.5957 14.8083 40.6226 14.8137 40.6676 14.8221C40.6212 14.7383 40.5952 14.7633 40.5707 14.8057ZM44.772 16.3064C44.7755 16.3886 44.7755 16.3886 44.8639 16.3886C44.8469 16.3611 44.8304 16.3335 44.8139 16.3064C44.8808 16.2947 44.8843 16.3605 44.9128 16.404C44.9812 16.3298 45.0116 16.4051 45.0526 16.4486C45.081 16.4162 45.106 16.3876 45.1394 16.3499C45.0231 16.2879 44.9133 16.2703 44.7975 16.2894L44.7865 16.291C44.781 16.2682 44.7755 16.2454 44.7705 16.2231C44.6352 16.2518 44.6352 16.2518 44.6437 16.3393C44.6856 16.3239 44.7141 16.2507 44.772 16.3064ZM45.5288 53.5651C45.5822 53.6277 45.6162 53.6314 45.6571 53.5778C45.709 53.6468 45.7794 53.6166 45.8428 53.6134C45.8508 53.6128 45.8568 53.572 45.8633 53.5502C45.8727 53.6229 45.9277 53.6219 45.9731 53.616C46.0759 53.6022 46.1838 53.6123 46.2761 53.546C46.326 53.6887 46.4154 53.555 46.4833 53.5831C46.4758 53.5635 46.4658 53.5513 46.4538 53.5439C46.3974 53.5094 46.339 53.5412 46.2821 53.5391C46.2586 53.5009 46.2322 53.4871 46.1833 53.4903C46.1029 53.4961 46.0205 53.4797 45.9391 53.4733C45.9082 53.4707 45.8772 53.4659 45.8463 53.467C45.8039 53.4686 45.7609 53.4823 45.7195 53.477C45.6571 53.4696 45.6396 53.4993 45.6411 53.5571C45.6246 53.5285 45.6082 53.4998 45.5792 53.45C45.5523 53.5158 45.5418 53.5418 45.5308 53.5677C45.425 53.5311 45.4105 53.5386 45.3925 53.6558C45.4399 53.6139 45.5203 53.6638 45.5288 53.5651ZM40.4769 55.0844C40.5093 55.1035 40.5358 55.1385 40.5812 55.1316C40.5573 55.0584 40.5573 55.0584 40.4759 55.0865C40.4235 54.9825 40.412 54.9762 40.2612 54.9868C40.3331 55.0191 40.405 55.052 40.4769 55.0844ZM36.7449 55.2547C36.5432 55.3162 36.364 55.4191 36.2037 55.5581C36.2082 55.5671 36.2127 55.5761 36.2172 55.5852C36.3989 55.4817 36.5806 55.3788 36.7618 55.2759C36.8147 55.2552 36.8672 55.234 36.9201 55.2133C36.8512 55.1958 36.7933 55.209 36.7449 55.2547ZM48.212 54.0579C48.215 54.034 48.2185 54.0102 48.2215 53.9868C48.1032 53.964 48.1032 53.964 48.0982 54.0553C48.1371 54.0553 48.1756 54.0553 48.214 54.0553C48.225 54.0675 48.2335 54.0839 48.2465 54.0908C48.3453 54.1423 48.4272 54.2202 48.5445 54.2441C48.6268 54.2611 48.6997 54.3433 48.7706 54.4048C48.825 54.4515 48.8759 54.4775 48.9418 54.4383C48.9518 54.5051 48.9518 54.5051 49.0207 54.5189C48.9938 54.4929 48.9668 54.4664 48.9393 54.4404C48.7706 54.321 48.6024 54.2017 48.4327 54.0839C48.4167 54.0728 48.3957 54.0664 48.3762 54.0648C48.3218 54.0606 48.2669 54.0595 48.212 54.0579ZM48.6718 55.1847C48.6463 55.1719 48.6174 55.1645 48.5964 55.1459C48.3113 54.8961 47.9774 54.7566 47.6249 54.6595C47.6095 54.6552 47.5945 54.6478 47.5785 54.6452C47.4996 54.6329 47.4662 54.651 47.4507 54.7359C47.4273 54.8653 47.4168 54.9969 47.3958 55.1274C47.3733 55.2642 47.4203 55.3899 47.4717 55.5029C47.5326 55.6371 47.6484 55.7363 47.7682 55.8122C47.932 55.9151 48.1102 55.9777 48.3064 55.9432C48.3258 55.9395 48.3473 55.9422 48.3663 55.9485C48.4436 55.974 48.5165 55.9591 48.5874 55.9225C48.6518 55.8891 48.7172 55.8584 48.7811 55.8239C48.9259 55.7448 48.9533 55.6594 48.8834 55.5066C48.9334 55.4706 48.9438 55.425 48.9074 55.3703C48.8819 55.3321 48.863 55.286 48.831 55.2557C48.7871 55.2144 48.7437 55.156 48.6698 55.1868L48.6718 55.1847ZM47.3853 14.8709C47.3923 14.9447 47.3993 15.0338 47.4103 15.1224C47.4158 15.168 47.4248 15.2142 47.4392 15.2577C47.4677 15.3452 47.5096 15.3765 47.592 15.3653C47.6504 15.3574 47.7103 15.3425 47.7647 15.3181C47.8785 15.2656 47.9889 15.2046 48.1002 15.1473C48.3463 15.02 48.5864 14.8847 48.7496 14.6391C48.7906 14.5776 48.8205 14.5065 48.8675 14.4519C48.9134 14.3978 48.9513 14.3585 48.9049 14.2795C48.8695 14.219 48.847 14.1569 48.7671 14.1569C48.7526 14.1569 48.7377 14.1452 48.7227 14.1389C48.5849 14.0805 48.4546 14.011 48.2949 14.0158C48.1641 14.0195 48.0403 14.0365 47.9195 14.0837C47.606 14.2063 47.3903 14.4545 47.3853 14.8709ZM39.2214 15.4073C39.2154 15.3494 39.2014 15.324 39.1575 15.3341C39.0527 15.3585 38.9473 15.3664 38.839 15.3638C38.6553 15.36 38.4736 15.3993 38.2874 15.368C38.1546 15.3457 38.0168 15.3542 37.8815 15.3505C37.8471 15.3494 37.8057 15.3409 37.8002 15.4073C37.9135 15.4428 38.0278 15.4752 38.1476 15.4821C38.2694 15.4895 38.3932 15.4842 38.5135 15.5033C38.6323 15.5224 38.7447 15.481 38.8625 15.4836C38.9798 15.4863 39.0981 15.4359 39.2214 15.4073ZM45.3661 53.5465C45.2647 53.538 45.1749 53.4908 45.088 53.5561C45.08 53.5624 45.06 53.5471 45.0456 53.5465C45.0161 53.5455 44.9857 53.5444 44.9567 53.5497C44.9298 53.5545 44.9048 53.5768 44.8788 53.5762C44.7006 53.5736 44.5539 53.6717 44.3991 53.7433C44.3821 53.7508 44.3756 53.7847 44.3512 53.8319C44.6956 53.764 45.0111 53.7014 45.3371 53.6367C45.3431 53.6187 45.3531 53.5874 45.3661 53.5465ZM41.944 14.3877C41.8981 14.3394 41.8617 14.2922 41.7958 14.3421C41.7828 14.3521 41.7573 14.3442 41.7379 14.3442C41.6805 14.3442 41.6171 14.3521 41.5691 14.3691C41.4294 14.4184 41.2806 14.4418 41.1483 14.5182C41.054 14.5723 40.9536 14.6142 40.8568 14.6641C40.8343 14.6757 40.8168 14.6985 40.7969 14.7155C40.8014 14.7277 40.8054 14.7394 40.8093 14.7511C40.8977 14.7229 40.9821 14.6773 41.0714 14.654C41.1673 14.629 41.2566 14.5781 41.3515 14.5463C41.4468 14.5139 41.5447 14.4901 41.642 14.4646C41.7379 14.4386 41.8347 14.4153 41.944 14.3877ZM41.9266 55.6085C41.9251 55.599 41.9236 55.5894 41.9221 55.5804C41.8487 55.5544 41.7758 55.5284 41.7024 55.5024C41.6989 55.5013 41.6929 55.5008 41.6909 55.5029C41.622 55.5724 41.5701 55.5077 41.5087 55.4828C41.332 55.4122 41.1528 55.3491 40.9736 55.2844C40.9521 55.2764 40.9272 55.2748 40.9047 55.2785C40.8952 55.2801 40.8847 55.3014 40.8817 55.3151C40.8797 55.3258 40.8897 55.3496 40.8927 55.3491C40.9337 55.3438 40.9771 55.3417 40.9901 55.3921C41.0085 55.4647 41.052 55.4006 41.0834 55.4165C41.1887 55.469 41.2996 55.5104 41.4084 55.5555C41.4339 55.5661 41.4593 55.5767 41.4863 55.582C41.5387 55.5926 41.5916 55.599 41.669 55.6112C41.7234 55.5883 41.7229 55.5915 41.8297 55.6212C41.8587 55.6297 41.8941 55.6133 41.9266 55.6085ZM48.554 13.8943C48.523 13.7999 48.4646 13.7591 48.3842 13.7442C48.2435 13.7177 48.1107 13.7553 47.9799 13.8031C47.9255 13.8232 47.8875 13.8625 47.8706 13.9474C47.9285 13.9299 47.9734 13.9203 48.0158 13.9033C48.1531 13.8492 48.2914 13.8747 48.4242 13.9097C48.4731 13.9224 48.5035 13.9166 48.554 13.8943ZM48.1816 56.1056C48.1801 56.1178 48.1786 56.1294 48.1771 56.1416C48.2599 56.1628 48.3433 56.1841 48.4337 56.2069C48.4561 56.1894 48.4836 56.1644 48.5145 56.1453C48.5445 56.1268 48.5859 56.122 48.5809 56.0631C48.5425 56.0297 48.4975 56.018 48.4561 56.0578C48.4077 56.104 48.3503 56.1024 48.2924 56.105C48.2559 56.1072 48.2185 56.1056 48.1816 56.1056ZM47.7737 16.0269C47.7877 16.0953 47.7957 16.1398 47.8506 16.1356C47.9285 16.1303 47.9889 16.0698 48.0138 15.9653C47.9325 15.986 47.8576 16.0051 47.7737 16.0269ZM39.9043 15.1563C39.808 15.2317 39.7001 15.2295 39.6043 15.2189C39.5708 15.2614 39.5459 15.2932 39.5209 15.325C39.6827 15.3351 39.8619 15.264 39.9043 15.1563ZM36.673 14.6789C36.5976 14.5956 36.4523 14.5192 36.3705 14.5192C36.4658 14.6094 36.5661 14.6513 36.673 14.6789ZM39.2878 15.3473C39.3232 15.3913 39.3232 15.3913 39.489 15.3245C39.451 15.3054 39.4186 15.289 39.3951 15.2773C39.3537 15.3043 39.3207 15.3256 39.2878 15.3473ZM48.3423 15.917C48.3852 15.8773 48.4177 15.8476 48.4621 15.8062C48.3243 15.8263 48.3238 15.8263 48.3423 15.917ZM46.6785 53.6288C46.6805 53.6181 46.6825 53.6081 46.6849 53.5975C46.645 53.5985 46.6051 53.546 46.5472 53.6203C46.6021 53.624 46.64 53.6261 46.6785 53.6288ZM39.2224 54.5688C39.1805 54.5688 39.1505 54.5682 39.1206 54.5698C39.1186 54.5698 39.1166 54.5836 39.1141 54.5937C39.1505 54.6308 39.1839 54.6452 39.2224 54.5688ZM39.4625 54.6563C39.4635 54.6457 39.4645 54.6351 39.466 54.625C39.4316 54.625 39.3986 54.5841 39.3432 54.6425C39.3951 54.6483 39.4291 54.6526 39.4625 54.6563ZM36.2726 14.4619C36.2427 14.3909 36.2427 14.3909 36.1808 14.3898C36.2112 14.4137 36.2417 14.4375 36.2726 14.4619ZM47.9664 53.9858C47.9789 53.9815 47.9909 53.9773 48.0033 53.9736C47.9969 53.9502 47.9904 53.9274 47.9839 53.9041C47.9704 53.9083 47.9569 53.9126 47.9434 53.9168C47.9509 53.9396 47.9589 53.9624 47.9664 53.9858ZM39.0297 54.5841C39.0317 54.5714 39.0332 54.5587 39.0352 54.546C38.9977 54.5396 38.9598 54.5168 38.9024 54.5672C38.9578 54.5746 38.9938 54.5794 39.0297 54.5841ZM46.4309 16.3881C46.4324 16.4003 46.4339 16.4125 46.4353 16.4252C46.4558 16.4194 46.4758 16.4136 46.4963 16.4083C46.4943 16.3998 46.4928 16.3908 46.4913 16.3823C46.4708 16.3844 46.4508 16.386 46.4309 16.3881ZM42.0119 14.341C42.0544 14.4068 42.0544 14.4068 42.0888 14.3505C42.0613 14.3474 42.0364 14.3442 42.0119 14.341ZM47.9599 56.0891C47.931 56.0727 47.9185 56.0594 47.9065 56.0599C47.8955 56.0605 47.8855 56.0764 47.875 56.0854C47.8855 56.0949 47.8955 56.1098 47.9075 56.1125C47.918 56.1146 47.9315 56.1024 47.9599 56.0891ZM48.8325 14.6895C48.7741 14.6895 48.7741 14.6895 48.8026 14.7468C48.8135 14.7261 48.8225 14.7086 48.8325 14.6895ZM40.692 14.7839C40.698 14.7924 40.704 14.8009 40.7105 14.8089C40.726 14.794 40.743 14.7802 40.7559 14.7633C40.7584 14.7606 40.7469 14.7447 40.7415 14.7351C40.725 14.7516 40.7085 14.7675 40.692 14.7839ZM48.1636 15.9086C48.197 15.9383 48.23 15.9685 48.2669 15.8948C48.2225 15.9006 48.193 15.9043 48.1636 15.9086ZM40.6456 55.1831C40.6781 55.1968 40.6955 55.2043 40.713 55.2117C40.727 55.217 40.741 55.2218 40.7609 55.2292C40.744 55.1512 40.708 55.1502 40.6456 55.1831ZM40.1624 54.9311C40.1699 54.921 40.1774 54.9104 40.1848 54.9003C40.1669 54.8849 40.1489 54.8695 40.1304 54.8542C40.1224 54.8658 40.114 54.8775 40.1055 54.8897C40.1244 54.9035 40.1434 54.9173 40.1624 54.9311ZM45.379 16.3802C45.3745 16.3913 45.3706 16.4019 45.3661 16.413C45.384 16.4183 45.402 16.4242 45.4205 16.4279C45.423 16.4284 45.428 16.4146 45.4315 16.4077C45.414 16.3982 45.3965 16.3892 45.379 16.3802ZM45.6561 16.4221C45.6721 16.4666 45.6905 16.5038 45.7544 16.456C45.7095 16.4406 45.6826 16.4311 45.6561 16.4221ZM45.8658 16.4348C45.8658 16.4406 45.8653 16.447 45.8653 16.4534C45.8817 16.4544 45.8982 16.456 45.9147 16.4565C45.9152 16.4565 45.9157 16.4422 45.9162 16.4348C45.8997 16.4348 45.8827 16.4348 45.8658 16.4348ZM46.8412 16.352C46.8412 16.3441 46.8412 16.3361 46.8412 16.3282C46.8217 16.3282 46.8028 16.3282 46.7838 16.3282C46.7843 16.3361 46.7843 16.351 46.7848 16.351C46.8038 16.3526 46.8222 16.352 46.8412 16.352ZM47.7867 22.1162C47.7952 22.0992 47.8047 22.0886 47.8037 22.0796C47.8032 22.0701 47.7922 22.0621 47.7857 22.0531C47.7792 22.0621 47.7682 22.0706 47.7672 22.0801C47.7667 22.0892 47.7772 22.0992 47.7867 22.1162ZM47.1562 13.6938C47.1632 13.688 47.1707 13.6821 47.1782 13.6763C47.1652 13.6593 47.1527 13.6424 47.1402 13.6254C47.1327 13.6328 47.1178 13.6461 47.1188 13.6471C47.1297 13.6636 47.1432 13.6784 47.1562 13.6938ZM48.0283 56.113C48.0203 56.1199 48.0123 56.1268 48.0048 56.1331C48.0208 56.1528 48.0373 56.1719 48.0538 56.1915C48.0607 56.1857 48.0672 56.1798 48.0742 56.174C48.0588 56.1538 48.0433 56.1331 48.0283 56.113ZM45.5952 16.4523C45.5353 16.3897 45.5353 16.3897 45.5183 16.4576C45.5393 16.456 45.5578 16.455 45.5952 16.4523ZM47.7952 53.9152C47.8087 53.9195 47.8216 53.9237 47.8346 53.9279C47.8381 53.9035 47.8421 53.8797 47.8441 53.8558C47.8446 53.8547 47.8246 53.8489 47.8236 53.851C47.8131 53.8717 47.8047 53.8935 47.7952 53.9152ZM39.9932 54.8176C39.9897 54.8075 39.9857 54.7963 39.9822 54.7857C39.9732 54.7905 39.9647 54.7953 39.9557 54.8001C39.9612 54.8096 39.9657 54.8202 39.9722 54.8287C39.9732 54.8298 39.9837 54.8229 39.9932 54.8176Z" fill="white"/>
</g>
<mask id="mask1_4869_9082" style="mask-type:luminance" maskUnits="userSpaceOnUse" x="20" y="13" width="16" height="44">
<path d="M20.6941 13.0234H35.3906V56.9768H20.6941V13.0234Z" fill="white"/>
</mask>
<g mask="url(#mask1_4869_9082)">
<path d="M22.8232 20.8427C22.8187 20.8745 22.8077 20.9074 22.8112 20.9382C22.8172 20.9859 22.8566 20.9504 22.8736 20.9599C22.8941 20.9716 22.9016 21.0071 22.917 21.0305C22.9739 21.1159 23.0044 21.2092 22.9954 21.3153L22.9974 21.3127C22.9699 21.2893 22.943 21.266 22.9155 21.2421C22.91 21.2442 22.9045 21.2464 22.8991 21.2485C22.9165 21.2946 22.929 21.344 22.952 21.3864C23.0034 21.4819 23.0598 21.5742 23.1137 21.6681C23.1397 21.7127 23.1392 21.7127 23.2195 21.7132C23.2106 21.6792 23.2021 21.6495 23.1941 21.6193L23.1916 21.6214C23.2924 21.6442 23.3334 21.7376 23.3888 21.8124C23.4602 21.9084 23.5285 22.0071 23.5959 22.1068C23.6209 22.1434 23.6409 22.1848 23.6618 22.2251C23.6833 22.2665 23.7033 22.3094 23.7292 22.3636C23.6838 22.3445 23.6444 22.328 23.6054 22.3121C23.6209 22.2819 23.6384 22.2495 23.5929 22.2325C23.583 22.2288 23.559 22.2405 23.5555 22.2506C23.541 22.2919 23.5605 22.3132 23.5999 22.3163C23.6708 22.4452 23.7412 22.5742 23.8131 22.702C23.8186 22.7121 23.8316 22.7168 23.8415 22.7237L23.8396 22.7216C23.845 22.746 23.851 22.7699 23.8565 22.7938C23.8925 22.7885 23.9284 22.781 23.9644 22.7794C23.9703 22.7794 23.9773 22.8049 23.9853 22.8214C23.9459 22.8214 23.9149 22.8214 23.8665 22.8214C23.8925 22.8723 23.9104 22.9391 23.9304 22.9397C24.0068 22.9423 23.9294 23.0245 23.9863 23.0404C24.0218 23.0505 24.0467 23.1009 24.0857 23.1428C24.0138 23.1778 24.0043 23.2155 24.0253 23.2887C24.0642 23.4229 24.0657 23.5699 24.1066 23.7041C24.1755 23.9295 24.1141 24.1417 24.0737 24.3576C24.0302 24.5889 23.9439 24.8069 23.8291 25.0048C23.7033 25.2207 23.561 25.4276 23.3853 25.6058C23.2784 25.7141 23.1811 25.8339 23.0868 25.9549C22.9814 26.0902 22.8411 26.1819 22.7248 26.3013C22.5411 26.4907 22.3624 26.6928 22.2551 26.9426C22.1812 27.1145 22.1453 27.3055 22.0973 27.4896C22.0729 27.5829 22.0539 27.6789 22.0429 27.775C22.026 27.9187 21.974 28.0609 22.019 28.2094C22.0265 28.2349 22.0175 28.2683 22.0095 28.2964C21.9735 28.428 21.969 28.5574 22.008 28.6911C22.018 28.725 21.9865 28.7728 21.9715 28.8253C22.0245 28.8725 22.0494 28.9341 21.994 29.0136C21.979 29.0354 21.992 29.0778 21.992 29.1091C22.018 29.1346 22.0449 29.1611 22.0814 29.1966C22.0464 29.2136 22.027 29.2232 22.0035 29.2348C22.0279 29.2905 21.9725 29.3855 22.0854 29.3913C22.0429 29.5186 22.0544 29.6263 22.1697 29.7075C22.0983 29.7494 22.1113 29.8078 22.1343 29.8629C22.2206 30.0719 22.3085 30.2804 22.3989 30.4873C22.4123 30.5181 22.4438 30.5403 22.4672 30.5663L22.4662 30.5653C22.4667 30.63 22.4652 30.6926 22.5506 30.7048C22.5995 30.7117 22.621 30.7557 22.5876 30.7987C22.5596 30.8348 22.5716 30.8608 22.5846 30.8905C22.648 31.0369 22.6759 31.1939 22.7059 31.3509C22.7218 31.4358 22.7223 31.5292 22.7867 31.5716C22.7927 31.6506 22.7902 31.7143 22.8037 31.7742C22.8382 31.9275 22.7967 32.075 22.7862 32.2251C22.7773 32.3594 22.7408 32.4819 22.7049 32.6076C22.6764 32.7095 22.6534 32.8129 22.6255 32.9148C22.5945 33.0283 22.5641 33.1423 22.5281 33.2543C22.4348 33.5492 22.286 33.8076 22.0779 34.0282C21.9646 34.1487 21.8552 34.2744 21.7464 34.3996C21.7254 34.4234 21.7095 34.4553 21.7005 34.4866C21.6461 34.6706 21.6271 34.86 21.6346 35.0526C21.6361 35.0998 21.6381 35.147 21.6411 35.1937C21.6516 35.3831 21.677 35.556 21.8358 35.6897C21.9695 35.8032 22.0799 35.9491 22.1937 36.0876C22.303 36.2202 22.3654 36.3814 22.4363 36.5401C22.5371 36.7644 22.61 36.9973 22.6694 37.2355C22.7388 37.5114 22.7837 37.7909 22.7827 38.0795C22.7822 38.1676 22.7782 38.2636 22.8147 38.3516C22.8247 38.375 22.8207 38.4227 22.8057 38.4355C22.6939 38.5309 22.7034 38.6773 22.6689 38.8025C22.6215 38.9765 22.5761 39.1495 22.4887 39.307C22.4832 39.3176 22.4832 39.3314 22.4807 39.3436C22.4872 39.3489 22.4947 39.359 22.4982 39.3574C22.5087 39.3532 22.5172 39.3447 22.5346 39.332C22.5531 39.367 22.5721 39.403 22.5486 39.4434C22.4812 39.559 22.4687 39.7065 22.3669 39.802C22.3609 39.8073 22.3539 39.8168 22.3549 39.8232C22.3794 39.9643 22.2411 40.0433 22.2441 40.1839C22.1962 40.159 22.1503 40.1176 22.1203 40.2041C22.1448 40.2242 22.1712 40.246 22.1962 40.2661C22.1762 40.3245 22.1612 40.3775 22.1398 40.4274C22.1308 40.4481 22.1123 40.4682 22.0933 40.4799C22.0274 40.5186 22.0135 40.5531 22.0429 40.62C22.0559 40.6486 22.0679 40.6778 22.0799 40.7048C22.0389 40.7324 22.009 40.7526 21.9586 40.7865C22.008 40.8014 22.0304 40.8078 22.0604 40.8173C22.0459 40.8348 22.0409 40.8475 22.0324 40.8512C21.9725 40.8735 21.9641 40.8905 21.99 40.942C22.0394 41.038 22.0369 41.0741 21.968 41.151C22.017 41.1897 22.0225 41.2316 22 41.2995C21.974 41.3791 21.979 41.473 21.98 41.5605C21.984 41.8093 22.0025 42.0581 22.0549 42.3C22.0993 42.5048 22.1273 42.718 22.2366 42.9015C22.2426 42.9127 22.2481 42.9249 22.2506 42.9371C22.2805 43.1005 22.3649 43.2336 22.4613 43.3599C22.4962 43.406 22.5366 43.4469 22.5746 43.4904C22.6684 43.5986 22.7618 43.7073 22.8566 43.814C22.8726 43.832 22.8971 43.841 22.918 43.8538C22.9385 43.8665 22.964 43.8739 22.9789 43.892C23.0543 43.9843 23.1242 44.0813 23.2011 44.172C23.274 44.2575 23.3513 44.3386 23.4292 44.4187C23.551 44.5439 23.6548 44.684 23.7422 44.8383C23.7502 44.8526 23.7582 44.8686 23.7697 44.8802C23.9094 45.0203 23.9693 45.2065 24.0282 45.3916C24.0707 45.5237 24.1011 45.66 24.1331 45.7953C24.1416 45.8319 24.1331 45.8722 24.1406 45.9088C24.1585 45.999 24.1331 46.0897 24.1665 46.182C24.2005 46.2754 24.16 46.3783 24.1051 46.4489C24.0547 46.5146 24.0757 46.5767 24.0941 46.6213C24.1111 46.6626 24.1101 46.6918 24.1016 46.7268C24.0901 46.773 24.0752 46.8175 24.0587 46.8748C24.0557 46.8743 24.0422 46.8716 24.0287 46.8732C24.0133 46.8754 23.9978 46.8807 23.9948 46.8817C23.9529 46.9719 23.9159 47.0515 23.8785 47.1321C23.902 47.1475 23.9214 47.1608 23.9519 47.1814C23.9154 47.1814 23.8895 47.1814 23.864 47.1814C23.8021 47.2891 23.7472 47.3979 23.6808 47.4981C23.6099 47.6042 23.528 47.7018 23.4517 47.8037C23.4317 47.8302 23.4142 47.8589 23.3958 47.887C23.3433 47.965 23.2904 48.0424 23.2395 48.1215C23.2131 48.1623 23.1906 48.2053 23.1661 48.2472C23.1187 48.2764 23.0977 48.3214 23.0932 48.3771L23.0952 48.3745C22.9849 48.4753 22.9425 48.6222 22.8721 48.7501C22.8342 48.8196 22.8102 48.8981 22.7852 48.9745C22.7743 49.0079 22.7758 49.0455 22.7718 49.0816C22.7703 49.0975 22.7733 49.1156 22.7668 49.1278C22.7383 49.1824 22.6744 49.3633 22.6809 49.3973C22.6839 49.4153 22.7039 49.4291 22.7163 49.4455C22.6889 49.4583 22.6619 49.4705 22.626 49.4869C22.65 49.5193 22.6689 49.5447 22.6879 49.5697C22.623 49.637 22.6225 49.6392 22.6614 49.7506C22.6245 49.81 22.6849 49.8842 22.6475 49.9346C22.5751 50.0312 22.602 50.1463 22.6145 50.2381C22.6315 50.3585 22.6255 50.48 22.645 50.5998C22.6954 50.9112 22.8022 51.1977 22.9565 51.4645C23.0408 51.6093 23.1332 51.7489 23.228 51.8863C23.4472 52.2019 23.6748 52.5112 23.89 52.83C23.9968 52.9886 24.0852 53.161 24.1775 53.3297C24.2429 53.4475 24.2858 53.4777 24.4061 53.4528C24.4641 53.4411 24.5185 53.4034 24.5789 53.4443C24.5844 53.448 24.6013 53.4384 24.6103 53.4315C24.7022 53.3615 24.8085 53.3748 24.9113 53.3721C24.9233 53.3716 24.9373 53.3806 24.9473 53.3764C25.118 53.3117 25.2942 53.4002 25.4654 53.3536C25.6282 53.3095 25.7839 53.3488 25.9417 53.3886C26.0151 53.4066 26.0924 53.4082 26.1683 53.4135C26.3905 53.4294 26.6066 53.4687 26.7988 53.6002C26.8218 53.6161 26.8492 53.6262 26.8752 53.6368C26.9571 53.6703 27.0439 53.6941 27.1213 53.7371C27.3285 53.8522 27.5067 54.0098 27.6719 54.1848C27.7089 54.2235 27.7448 54.2633 27.7817 54.3021C27.9485 54.4755 28.1207 54.6432 28.2789 54.824C28.3743 54.9328 28.4497 55.0617 28.5315 55.1832C28.6044 55.2903 28.6998 55.3455 28.8251 55.3529C28.9609 55.3609 29.0961 55.3853 29.2324 55.3917C29.5514 55.406 29.8574 55.3338 30.1475 55.1975C30.415 55.0718 30.6771 54.9317 30.9397 54.7933C31.2402 54.6352 31.5577 54.5286 31.8847 54.4591C32.0794 54.4182 32.2805 54.4018 32.4797 54.3965C32.6864 54.3906 32.8936 54.4097 33.1002 54.4219C33.1492 54.4251 33.1966 54.4453 33.2435 54.4575C33.2335 54.5265 33.1976 54.5169 33.1666 54.5137C33.0633 54.5036 32.9595 54.4883 32.8556 54.4803C32.6909 54.4676 32.5262 54.4654 32.3634 54.5042C32.307 54.518 32.2486 54.5227 32.1927 54.5312C32.1957 54.6225 32.2506 54.6166 32.2935 54.615C32.4403 54.6097 32.5871 54.6007 32.7338 54.5901C32.8147 54.5848 32.8961 54.5604 32.9759 54.5668C33.0808 54.5753 33.1846 54.6055 33.2889 54.6251C33.4736 54.6612 33.6608 54.6856 33.8425 54.7339C34.0482 54.7885 34.2494 54.8644 34.4521 54.9312C34.4636 54.9349 34.473 54.9439 34.4845 54.9471C34.7451 55.0262 34.9363 55.2134 35.1235 55.407C35.2119 55.4983 35.2733 55.6076 35.3117 55.7312C35.3387 55.8182 35.3257 55.8442 35.2383 55.8802C34.9767 55.5503 34.6088 55.423 34.2419 55.2978C33.9963 55.214 33.7447 55.1604 33.4871 55.137C33.2675 55.1169 33.0478 55.0957 32.8272 55.1105C32.7318 55.1169 32.6315 55.1094 32.5426 55.1392C32.4188 55.1811 32.29 55.146 32.1692 55.1858C32.0549 55.224 31.9386 55.2447 31.8203 55.2606C31.7953 55.2643 31.7739 55.2925 31.7479 55.302C31.4059 55.4277 31.0939 55.6214 30.7695 55.7874C30.7315 55.8065 30.6856 55.8076 30.6462 55.8245C30.5838 55.8511 30.5229 55.8813 30.4635 55.9142C30.2952 56.0075 30.1325 56.1136 29.9593 56.1937C29.837 56.25 29.7022 56.2813 29.5699 56.3062C29.3892 56.3402 29.2045 56.3587 29.0203 56.3343C28.8021 56.3062 28.582 56.2935 28.3738 56.199C28.2091 56.1237 28.0808 56.0049 27.9694 55.8627C27.8436 55.702 27.7288 55.5317 27.604 55.3699C27.5306 55.2739 27.4498 55.1848 27.3694 55.0957C27.301 55.0193 27.2371 54.9323 27.1552 54.876C27.004 54.7726 26.8437 54.6845 26.6835 54.597C26.4434 54.466 26.1798 54.4363 25.9167 54.3986C25.5418 54.345 25.1704 54.3742 24.798 54.4166C24.7316 54.4246 24.6587 54.4235 24.6233 54.5142C24.6837 54.7042 24.6947 54.9068 24.6827 55.111C24.6777 55.2012 24.6587 55.284 24.5978 55.3556C24.5629 55.3964 24.5469 55.4558 24.5235 55.5047C24.5879 55.5954 24.5879 55.5954 24.5235 55.6749C24.517 55.6829 24.509 55.6977 24.512 55.7036C24.5504 55.7778 24.4875 55.7985 24.4461 55.8389C24.4885 55.8829 24.4715 55.9274 24.4446 55.9731C24.3148 56.1959 24.157 56.3937 23.9589 56.5492C23.893 56.6001 23.8101 56.6314 23.7307 56.6558C23.6668 56.6759 23.6074 56.7019 23.5465 56.729C23.2625 56.8547 22.9719 56.9332 22.6579 56.9019C22.3929 56.8754 22.1707 56.7635 21.9586 56.6001C21.8527 56.5189 21.7689 56.4213 21.6845 56.3216C21.5897 56.2091 21.5507 56.0707 21.5722 55.92C21.5961 55.7572 21.6231 55.5954 21.6825 55.4405C21.7075 55.3752 21.7125 55.3009 21.7214 55.2299C21.7349 55.1275 21.7509 55.0267 21.7968 54.9333C21.8168 54.8925 21.8213 54.8426 21.8437 54.8044C21.8997 54.7116 21.9511 54.6108 22.024 54.5349C22.2371 54.3121 22.4822 54.1318 22.7473 53.9859C22.905 53.8994 23.0708 53.8299 23.2345 53.7562C23.3578 53.7005 23.3678 53.6729 23.2879 53.5562C23.1422 53.3424 23.0034 53.1228 22.8461 52.9191C22.6365 52.648 22.4438 52.3642 22.2636 52.0714C22.1358 51.865 22.0319 51.6438 21.966 51.4041C21.9516 51.3515 21.9306 51.3001 21.9111 51.2486C21.8507 51.0921 21.8462 50.9245 21.8203 50.7611C21.7783 50.5017 21.8253 50.245 21.8263 49.9871C21.8263 49.958 21.8313 49.9267 21.8422 49.9002C21.8682 49.8376 21.8717 49.7739 21.8752 49.7049C21.8787 49.6238 21.8927 49.5415 21.9386 49.4641C21.9835 49.3872 22.004 49.2933 22.0309 49.2047C22.0829 49.0344 22.1328 48.8631 22.1822 48.6917C22.2122 48.5877 22.2341 48.4811 22.2691 48.3793C22.2895 48.3188 22.3215 48.2599 22.3509 48.2053C22.4553 48.0106 22.5711 47.8217 22.6934 47.6393C22.8536 47.4005 23.0288 47.173 23.1876 46.9337C23.2385 46.8563 23.2665 46.7587 23.2914 46.6664C23.3423 46.4759 23.3498 46.2876 23.3109 46.0865C23.266 45.8568 23.1951 45.6415 23.0808 45.4484C22.964 45.2516 22.8217 45.0712 22.6819 44.8914C22.619 44.8107 22.5361 44.7481 22.4618 44.6776C22.3424 44.5646 22.2147 44.4612 22.1058 44.3381C21.9685 44.1842 21.8388 44.0209 21.7204 43.85C21.6361 43.728 21.5602 43.5933 21.5073 43.4527C21.3845 43.1265 21.2866 42.7923 21.2552 42.4379C21.2357 42.2172 21.2028 41.9981 21.2058 41.7753C21.2083 41.5844 21.1998 41.3929 21.2118 41.2024C21.2237 41.012 21.2537 40.8221 21.2806 40.6327C21.2871 40.5881 21.3081 40.543 21.3321 40.5054C21.3695 40.447 21.3775 40.3924 21.3331 40.3261C21.3635 40.3102 21.3905 40.2969 21.4179 40.2826C21.4309 40.2401 21.369 40.1919 21.4284 40.1574C21.4339 40.1542 21.4409 40.1399 21.4389 40.1367C21.3905 40.0598 21.4554 40.0014 21.4653 39.9346C21.4728 39.8837 21.4888 39.8508 21.5287 39.82C21.5582 39.7972 21.5817 39.7574 21.5941 39.7203C21.6396 39.5866 21.7214 39.4646 21.7 39.3091C21.6895 39.2338 21.7199 39.2025 21.8098 39.1617C21.7918 39.0699 21.8148 38.9925 21.8662 38.9086C21.9351 38.7962 21.971 38.6625 21.9655 38.5219C21.9556 38.2874 21.9596 38.0519 21.9336 37.8196C21.9136 37.6392 21.8712 37.4578 21.8133 37.287C21.6955 36.9353 21.5372 36.6053 21.2737 36.3464C21.2357 36.3098 21.1878 36.2838 21.1528 36.2446C21.0994 36.1841 21.042 36.121 21.0465 36.0287C21.051 35.9385 20.9806 35.9077 20.9297 35.8732C20.8813 35.8409 20.8528 35.8022 20.8324 35.7507C20.7969 35.6648 20.7605 35.5788 20.7285 35.4913C20.7155 35.4563 20.7066 35.4165 20.7081 35.3794C20.7155 35.1422 20.6956 34.9056 20.6946 34.6696C20.6941 34.486 20.7685 34.3216 20.8553 34.1656C20.8753 34.1296 20.9013 34.1014 20.8893 34.0505C20.8838 34.0256 20.9062 33.9853 20.9267 33.9635C21.0835 33.798 21.2482 33.6405 21.3995 33.4702C21.5233 33.3307 21.6221 33.1705 21.682 32.9864C21.694 32.9498 21.7065 32.9137 21.7229 32.8792C21.8183 32.675 21.8712 32.4559 21.9176 32.2358C21.9441 32.1084 21.9541 31.9774 21.966 31.8474C21.9755 31.7413 21.978 31.6347 21.9815 31.5286C21.9825 31.4904 21.9835 31.4512 21.9755 31.4146C21.9296 31.2072 21.8907 30.9976 21.7908 30.8093C21.7848 30.7982 21.7838 30.7769 21.7769 30.7753C21.68 30.7472 21.682 30.6475 21.6461 30.5754C21.6271 30.5372 21.6066 30.5006 21.6501 30.4613C21.66 30.4523 21.654 30.4146 21.6461 30.3939C21.5517 30.1404 21.4658 29.8836 21.4025 29.6189C21.396 29.5903 21.3875 29.5558 21.368 29.5383C21.2732 29.4523 21.2776 29.3362 21.2747 29.221C21.2737 29.1834 21.2742 29.1447 21.2657 29.1086C21.2073 28.8587 21.1798 28.6078 21.2063 28.3489C21.2197 28.219 21.2023 28.0853 21.2033 27.9532C21.2038 27.8816 21.2078 27.8089 21.2197 27.7389C21.2796 27.3872 21.3306 27.0339 21.4349 26.6928C21.5083 26.4546 21.6261 26.2435 21.7689 26.0461C21.9091 25.8536 22.0624 25.6764 22.2401 25.5204C22.3854 25.3936 22.5242 25.2573 22.6554 25.1146C22.7618 24.999 22.8511 24.8669 22.9495 24.7433C23.0967 24.5576 23.1916 24.3396 23.2635 24.1147C23.3279 23.9141 23.3718 23.7041 23.3154 23.4882C23.3019 23.4362 23.2954 23.3815 23.2904 23.3274C23.2864 23.2855 23.2994 23.2388 23.24 23.2288C23.2325 23.2272 23.223 23.2017 23.225 23.189C23.2365 23.1131 23.1981 23.0611 23.1606 23.0038C22.9854 22.7344 22.8052 22.4702 22.6045 22.2214C22.5686 22.1768 22.5501 22.1174 22.5217 22.066C22.4982 22.024 22.4877 21.9763 22.4308 21.9567C22.3809 21.9397 22.3789 21.9036 22.3849 21.7832C22.2456 21.7222 22.2276 21.579 22.1962 21.4479C22.1757 21.3641 22.1707 21.2766 22.1557 21.171C22.1293 21.2034 22.1203 21.2145 22.1038 21.2347C22.0908 21.2129 22.0759 21.1954 22.0684 21.1753C22.0519 21.1281 22.0424 21.0777 22.024 21.0315C22.0035 20.9806 21.981 20.9382 22.012 20.8761C22.0299 20.8395 22.0279 20.7721 21.9546 20.7626C21.9431 20.761 21.9256 20.7307 21.9266 20.7143C21.9296 20.6559 21.9391 20.5976 21.9456 20.5408C21.9316 20.5233 21.9026 20.5042 21.8977 20.4798C21.8068 20.0103 21.7853 19.5361 21.8402 19.0608C21.8592 18.8937 21.9216 18.7324 21.9616 18.568C22.002 18.4003 22.0784 18.2502 22.1592 18.1033C22.2316 17.9707 22.314 17.8433 22.3949 17.7166C22.5127 17.533 22.6295 17.3489 22.7538 17.1707C22.8746 16.9967 23.0069 16.8317 23.1287 16.6583C23.2076 16.5469 23.2765 16.427 23.3593 16.2954C23.3104 16.2684 23.2745 16.2455 23.2365 16.227C23.0164 16.1177 22.7887 16.0227 22.5771 15.897C22.3245 15.7464 22.0993 15.557 21.9281 15.2981C21.8682 15.2079 21.8278 15.1087 21.7769 15.0159C21.7394 14.9475 21.7394 14.8546 21.7299 14.7713C21.7229 14.7151 21.7224 14.6584 21.6735 14.6117C21.671 14.6424 21.669 14.6727 21.667 14.7045C21.6615 14.7013 21.6525 14.6992 21.6516 14.695C21.6421 14.6451 21.6231 14.5942 21.6261 14.5454C21.6351 14.4027 21.6056 14.2669 21.5832 14.1284C21.5477 13.9109 21.6176 13.7242 21.7609 13.5709C21.9311 13.3884 22.1203 13.2314 22.3514 13.1433C22.5356 13.0728 22.7263 13.0648 22.921 13.0738C23.0992 13.0823 23.2515 13.1725 23.4162 13.2208C23.532 13.2547 23.6379 13.3178 23.7597 13.3348C23.8121 13.3417 23.8645 13.3719 23.9109 13.4016C23.9384 13.4192 23.9544 13.4568 23.9778 13.4892C23.9983 13.4924 24.0352 13.4855 24.0542 13.5024C24.0986 13.5417 24.1351 13.5921 24.1725 13.6398C24.176 13.6441 24.164 13.6621 24.159 13.6738C24.1356 13.6563 24.1126 13.6388 24.0802 13.6144C24.0682 13.7024 24.1211 13.6924 24.158 13.7008C24.2644 13.6658 24.3038 13.7576 24.3383 13.8255C24.3607 13.869 24.3852 13.9051 24.4116 13.9438C24.4396 13.9846 24.5035 14.0244 24.4631 14.0971C24.4601 14.1019 24.479 14.1199 24.488 14.1321C24.5424 14.208 24.5844 14.2875 24.5864 14.3878C24.5874 14.4287 24.5998 14.4716 24.6153 14.5093C24.6727 14.6499 24.6672 14.7995 24.6772 14.9464C24.6782 14.9676 24.6562 14.9904 24.6428 15.0175C24.6917 15.1628 24.6068 15.3114 24.6128 15.4668C24.6463 15.5124 24.6802 15.5575 24.7206 15.6122C24.7371 15.5984 24.7551 15.583 24.7731 15.5681C24.793 15.6095 24.835 15.6339 24.8789 15.6143C24.9578 15.5787 25.0257 15.6047 25.104 15.6175C25.2323 15.6376 25.3681 15.6631 25.5014 15.6244C25.5548 15.6084 25.6117 15.6058 25.6671 15.6005C25.9711 15.5708 26.2712 15.5241 26.5647 15.4265C26.8677 15.3252 27.1123 15.1331 27.3429 14.9119C27.5726 14.6912 27.7498 14.4239 27.9425 14.1698C28.0199 14.0679 28.1057 13.9687 28.2016 13.8876C28.2715 13.8282 28.3613 13.791 28.4472 13.7603C28.6419 13.6902 28.8425 13.6515 29.0492 13.6515C29.1401 13.6515 29.2314 13.6361 29.3218 13.6398C29.3817 13.6425 29.4406 13.6738 29.501 13.6802C29.6228 13.6924 29.7401 13.7311 29.8619 13.7438C29.8954 13.747 29.9358 13.7656 29.9578 13.7916C30.0042 13.8462 30.0621 13.8632 30.124 13.8828C30.3047 13.9411 30.4834 14.0181 30.6372 14.1279C30.748 14.2064 30.8763 14.2191 30.9841 14.296C31.0934 14.3735 31.2202 14.4223 31.3391 14.4854C31.399 14.5172 31.4569 14.5544 31.5173 14.5851C31.7788 14.7188 32.0624 14.7713 32.3439 14.8302C32.3674 14.8355 32.3919 14.8339 32.4158 14.8355C32.5007 14.8398 32.5821 14.8212 32.6714 14.8562C32.7558 14.8896 32.8596 14.8716 32.9545 14.869C33.4337 14.8557 33.9079 14.8042 34.3657 14.643C34.6028 14.5592 34.8295 14.4493 35.0371 14.3003C35.0831 14.2669 35.1305 14.2276 35.1599 14.1793C35.1939 14.122 35.2373 14.1162 35.2897 14.1178C35.3357 14.1761 35.3172 14.2356 35.2937 14.2966C35.2238 14.4775 35.093 14.6037 34.9553 14.7225C34.8075 14.8499 34.6468 14.9549 34.4705 15.0318C34.3977 15.0631 34.3198 15.0896 34.2973 15.2021C34.2289 15.1262 34.167 15.1575 34.0976 15.1782C33.6424 15.3103 33.1766 15.3665 32.7054 15.3665C32.5496 15.3665 32.3939 15.3565 32.2386 15.3527C32.1652 15.3512 32.0923 15.3527 31.992 15.3527C32.028 15.3867 32.0409 15.41 32.0584 15.4148C32.1947 15.4514 32.3285 15.496 32.4732 15.4912C32.5666 15.488 32.6604 15.5198 32.7568 15.5103C32.8761 15.4981 32.9964 15.4907 33.1167 15.4864C33.1676 15.4848 33.2185 15.4965 33.27 15.5023L33.268 15.5002C33.2101 15.5156 33.1531 15.5379 33.0942 15.5448C32.9904 15.5575 32.8861 15.566 32.7817 15.5676C32.644 15.5702 32.5037 15.548 32.3684 15.5671C32.2127 15.5888 32.0719 15.5214 31.9216 15.5188C31.8632 15.5177 31.8048 15.4912 31.7479 15.4721C31.5457 15.4042 31.3326 15.3745 31.1404 15.2705C30.8593 15.1188 30.5773 14.9697 30.2927 14.8255C30.1994 14.7777 30.098 14.7485 30.0017 14.7077C29.9707 14.6944 29.9438 14.6695 29.9148 14.6499C29.9053 14.6435 29.8959 14.6313 29.8864 14.6324C29.7421 14.6424 29.6043 14.6127 29.4685 14.5623C29.4381 14.5512 29.3992 14.5682 29.3637 14.5692C29.2369 14.574 29.1086 14.5687 28.9828 14.5825C28.7777 14.6048 28.5949 14.6626 28.4701 14.8705C28.2879 15.174 28.0493 15.4286 27.7882 15.6588C27.7178 15.7214 27.6574 15.7957 27.5871 15.8578C27.5112 15.9246 27.4378 15.9946 27.3634 16.0631C27.2785 16.141 27.1682 16.1893 27.0669 16.2461C26.99 16.2896 26.9106 16.3278 26.8308 16.3644C26.7724 16.3914 26.7125 16.4142 26.6516 16.4339C26.379 16.5209 26.0969 16.5548 25.8174 16.6026C25.6696 16.6275 25.5184 16.6206 25.3681 16.6084C25.3132 16.6041 25.2558 16.6068 25.2009 16.6163C25.11 16.6328 25.0227 16.627 24.9373 16.5893C24.9303 16.5866 24.9223 16.5776 24.9168 16.5792C24.7341 16.6423 24.5639 16.541 24.3862 16.5336C24.2754 16.5288 24.2669 16.5198 24.2115 16.6222C24.0857 16.8556 23.9329 17.0683 23.7781 17.2805C23.6778 17.4184 23.59 17.567 23.4936 17.7081C23.4013 17.8423 23.3104 17.9781 23.2096 18.1049C22.9535 18.4258 22.7733 18.7839 22.6804 19.1955C22.6445 19.3531 22.6245 19.5128 22.629 19.6687C22.6355 19.8852 22.645 20.1064 22.7009 20.317C22.7203 20.3891 22.6949 20.4708 22.7503 20.5371C22.7643 20.5536 22.7393 20.6066 22.7323 20.6427C22.6954 20.744 22.7648 20.7907 22.8232 20.8427ZM22.4702 14.7178C22.4817 14.73 22.4932 14.7422 22.5047 14.7544C22.5067 14.7873 22.5137 14.8095 22.5536 14.8111C22.5866 14.8127 22.6275 14.8175 22.6505 14.8387C22.7603 14.9379 22.8746 15.027 23.0094 15.0859C23.1327 15.14 23.253 15.2032 23.3773 15.2546C23.4547 15.2864 23.537 15.3029 23.6169 15.3262C23.7517 15.366 23.7936 15.3501 23.8221 15.2085C23.8475 15.0801 23.86 14.9464 23.8595 14.8154C23.859 14.6843 23.846 14.5496 23.7562 14.4435C23.7297 14.4122 23.6893 14.391 23.6703 14.356C23.577 14.1852 23.4212 14.113 23.2565 14.0563C23.1811 14.0303 23.0957 13.9862 23.0259 14.0027C22.9395 14.0228 22.8636 14.0228 22.7802 14.0043C22.7538 13.9984 22.7198 14.0228 22.6909 14.0377C22.612 14.0775 22.5381 14.1252 22.4628 14.1708C22.4033 14.2074 22.3609 14.2451 22.3464 14.2796C22.3859 14.4027 22.4173 14.5008 22.4478 14.5995C22.4498 14.6058 22.4423 14.6154 22.4393 14.6228C22.4173 14.626 22.3959 14.6292 22.3714 14.6324C22.3894 14.6695 22.4009 14.7008 22.4198 14.7257C22.4253 14.7326 22.4528 14.7209 22.4702 14.7178ZM30.6017 14.8164C30.6432 14.8631 30.6916 14.8812 30.768 14.8769C30.717 14.8514 30.6681 14.827 30.6197 14.8032C30.5079 14.722 30.3936 14.6467 30.2568 14.6212C30.2513 14.5798 30.2543 14.5363 30.1919 14.5374C30.1544 14.5385 30.115 14.5215 30.0801 14.5045C29.9398 14.4366 29.7925 14.3958 29.6433 14.3618C29.6243 14.3576 29.6013 14.3432 29.5869 14.3501C29.5095 14.3878 29.4341 14.365 29.3562 14.3533C29.3163 14.347 29.2714 14.356 29.2564 14.4074C29.3173 14.4106 29.3722 14.4096 29.4256 14.4175C29.5958 14.4435 29.7611 14.4886 29.9213 14.5581C29.9677 14.5783 30.0306 14.5676 30.0686 14.5968C30.126 14.6414 30.1824 14.6414 30.2448 14.635C30.2718 14.6621 30.2982 14.7125 30.3257 14.7125C30.4075 14.7135 30.4605 14.774 30.5283 14.8021C30.5513 14.8111 30.5773 14.8117 30.6017 14.8164ZM26.5522 53.7217C26.4988 53.6506 26.4464 53.6427 26.3495 53.6909C26.4015 53.7095 26.4534 53.7297 26.5063 53.7445C26.5183 53.7482 26.5352 53.7329 26.5497 53.7265C26.6256 53.8167 26.7279 53.8204 26.8158 53.736C26.709 53.6501 26.669 53.648 26.5522 53.7217ZM23.2884 56.1142C23.261 56.0744 23.2215 56.0648 23.1836 56.085C23.1082 56.1243 23.0348 56.1221 22.958 56.0945C22.917 56.0797 22.915 56.1174 22.9045 56.1423C22.8791 56.1349 22.8531 56.128 22.8247 56.1195C22.8317 56.19 22.8317 56.19 22.8801 56.224C22.8881 56.1943 22.8951 56.1672 22.9025 56.1396C22.9909 56.1831 23.0833 56.207 23.1806 56.1959C23.2285 56.1906 23.2874 56.1906 23.2864 56.1115C23.3698 56.1322 23.4097 56.0675 23.4557 56.015C23.3898 56.0282 23.3024 56.0012 23.2884 56.1142ZM25.6766 16.4243C25.6497 16.4031 25.6227 16.3819 25.5848 16.3516C25.5763 16.3543 25.5533 16.3665 25.5313 16.3649C25.3846 16.3543 25.2378 16.3437 25.0915 16.3267C24.9992 16.3161 24.9153 16.3522 24.8285 16.3638C24.7446 16.3745 24.6537 16.3325 24.5469 16.3522C24.5659 16.3787 24.5749 16.4057 24.5899 16.4095C24.6108 16.4153 24.6378 16.3957 24.6587 16.4015C24.8869 16.4699 25.1205 16.5044 25.3561 16.5187C25.4425 16.5246 25.5298 16.5166 25.6157 16.5049C25.6417 16.5012 25.6631 16.4646 25.6866 16.4429C25.6961 16.4609 25.7051 16.4784 25.7146 16.4959C25.7964 16.4646 25.7964 16.4646 25.768 16.3559C25.739 16.3527 25.7096 16.349 25.6706 16.3437C25.6731 16.3771 25.6751 16.4004 25.6766 16.4243ZM22.32 55.6352C22.3799 55.7789 22.5042 55.832 22.629 55.8903C22.7558 55.9503 22.8941 55.9396 23.0234 55.9773C23.0363 55.981 23.0533 55.9694 23.0683 55.9651C23.1267 55.9497 23.1851 55.9317 23.244 55.919C23.3608 55.8946 23.4642 55.8426 23.5505 55.755C23.7687 55.5338 23.8775 55.2654 23.846 54.9423C23.8376 54.8543 23.8116 54.7683 23.7941 54.6814C23.7791 54.6044 23.7432 54.5859 23.6653 54.6018C23.59 54.6177 23.5151 54.631 23.4562 54.6898C23.2984 54.6824 23.1836 54.7975 23.0503 54.8575C22.9385 54.9079 22.8347 54.9837 22.7358 55.0606C22.6664 55.1142 22.611 55.1874 22.4922 55.1636C22.5401 55.2325 22.5431 55.2792 22.4892 55.3195C22.4722 55.3317 22.4662 55.3609 22.4548 55.3821C22.4118 55.4627 22.3689 55.5434 22.32 55.6352ZM24.3932 53.614C24.4256 53.6432 24.4481 53.6793 24.476 53.6856C24.52 53.6957 24.5684 53.6872 24.6143 53.6841C24.8539 53.6671 25.0935 53.6474 25.3332 53.6321C25.5738 53.6167 25.8129 53.6427 26.0515 53.6713C26.0949 53.6766 26.1394 53.6814 26.1833 53.6782C26.2018 53.6766 26.2192 53.6554 26.2482 53.6358C26.2053 53.5944 26.1703 53.561 26.1359 53.5281C26.077 53.5801 26.037 53.4968 25.9801 53.5037C25.9167 53.5116 25.8483 53.5042 25.7864 53.4857C25.6417 53.4432 25.4949 53.4512 25.3491 53.4554C25.2139 53.4586 25.0791 53.475 24.9443 53.4904C24.8305 53.5032 24.7171 53.5228 24.6038 53.5403C24.5884 53.5429 24.5744 53.5541 24.5589 53.5589C24.512 53.5753 24.4646 53.5907 24.3932 53.614ZM25.8259 16.4148C25.8983 16.5023 25.9821 16.489 26.066 16.4731C26.1044 16.4662 26.1424 16.4519 26.1808 16.4439C26.2467 16.4302 26.3136 16.4217 26.3785 16.4047C26.4399 16.3888 26.5028 16.34 26.5582 16.35C26.658 16.3676 26.6491 16.2524 26.7125 16.236C26.7164 16.2355 26.7204 16.2349 26.7244 16.2344C26.7898 16.2933 26.7948 16.2917 26.8677 16.1755C26.8173 16.1718 26.7744 16.1575 26.7374 16.1681C26.4723 16.2434 26.2043 16.3012 25.9317 16.3304C25.8703 16.3373 25.8513 16.3654 25.8259 16.4148ZM22.1388 54.5938C22.1448 54.6028 22.1503 54.6119 22.1562 54.6209C22.1927 54.6018 22.2331 54.5885 22.2646 54.5625C22.4553 54.4097 22.6749 54.3095 22.8771 54.1774C22.9999 54.0968 23.1422 54.049 23.2755 53.9859C23.2944 53.9769 23.3109 53.9615 23.3379 53.9429C23.269 53.9074 23.2215 53.9275 23.1731 53.9567C23.1362 53.9785 23.0972 54.014 23.0598 54.0135C22.9664 54.0129 22.8856 54.0586 22.8117 54.0989C22.6485 54.1875 22.4937 54.2957 22.3409 54.4044C22.2671 54.457 22.2057 54.5302 22.1388 54.5938ZM23.4716 13.9953C23.4766 13.9852 23.4816 13.9751 23.4866 13.9645C23.4656 13.9533 23.4397 13.947 23.4247 13.93C23.3109 13.8022 23.1566 13.7682 23.0069 13.7449C22.8816 13.7258 22.7533 13.7518 22.6924 13.9051C22.7613 13.9274 22.7603 13.9258 22.8202 13.8987C22.8456 13.887 22.8736 13.8785 22.9006 13.8775C23.0024 13.8727 23.1042 13.8695 23.2056 13.8706C23.2265 13.8706 23.2465 13.8913 23.268 13.9008C23.3354 13.9327 23.4037 13.964 23.4716 13.9953ZM30.3581 55.3036C30.2887 55.2585 30.2553 55.2654 30.2243 55.302C30.2114 55.3169 30.1979 55.3349 30.1809 55.3413C30.1105 55.3667 30.0381 55.3869 29.9672 55.4113C29.8669 55.4458 29.7671 55.4824 29.6672 55.5184C29.7371 55.5688 29.7965 55.5927 29.8704 55.5444C29.9323 55.5036 30.0102 55.4914 30.0771 55.4585C30.1659 55.4145 30.2513 55.3625 30.3581 55.3036ZM31.392 15.2276C31.4743 15.3034 31.5777 15.3018 31.6695 15.3305C31.8477 15.3856 31.8812 15.3862 31.9506 15.3554C31.5872 15.1899 31.4773 15.1628 31.392 15.2276ZM34.2614 14.7894C34.2649 14.7979 34.2679 14.8058 34.2714 14.8143C34.4551 14.756 34.6333 14.6843 34.7975 14.5772C34.794 14.5671 34.79 14.557 34.786 14.547C34.6113 14.6281 34.4366 14.7087 34.2614 14.7894ZM22.1677 15.3878C22.2351 15.4891 22.329 15.5342 22.4153 15.618C22.3994 15.4949 22.28 15.3872 22.1677 15.3878ZM22.8067 15.836C22.7338 15.7045 22.7338 15.7045 22.6739 15.7458C22.7178 15.7755 22.7623 15.8058 22.8067 15.836ZM31.0465 15.0239C31.1019 15.1448 31.1139 15.1485 31.1773 15.0854C31.1404 15.0679 31.1064 15.052 31.0465 15.0239ZM26.9431 16.1485C26.9466 16.157 26.9501 16.1654 26.9536 16.1739C26.99 16.1564 27.026 16.1394 27.0624 16.1225C27.003 16.0827 26.9755 16.1219 26.9431 16.1485ZM31.7169 54.6532C31.68 54.6532 31.6426 54.6532 31.5961 54.6532C31.6386 54.7641 31.6795 54.6649 31.7169 54.6532ZM32.019 54.5731C32.0624 54.6394 32.0953 54.6256 32.1283 54.5944C32.1323 54.5901 32.1308 54.58 32.1333 54.5636C32.1013 54.5662 32.0714 54.5689 32.019 54.5731ZM31.2472 15.1013C31.2352 15.1087 31.2232 15.1162 31.2108 15.1231C31.2272 15.1464 31.2437 15.1697 31.2597 15.1931C31.2687 15.1867 31.2777 15.1803 31.2866 15.174C31.2737 15.1501 31.2602 15.1257 31.2472 15.1013ZM22.7583 56.18C22.7538 56.093 22.7538 56.093 22.6884 56.0967C22.7094 56.1216 22.7253 56.1412 22.7583 56.18ZM31.9556 54.6596C31.9301 54.5901 31.9301 54.5901 31.8737 54.614C31.8967 54.6267 31.9166 54.6379 31.9556 54.6596ZM29.1545 14.4101C29.1615 14.3989 29.1685 14.3878 29.1755 14.3767C29.156 14.3618 29.1366 14.3464 29.1176 14.3316C29.1101 14.3448 29.0951 14.3682 29.0976 14.3698C29.1146 14.3857 29.1351 14.3974 29.1545 14.4101ZM24.2853 13.8961C24.2798 13.791 24.2798 13.791 24.206 13.7942C24.2294 13.8244 24.2504 13.851 24.2853 13.8961ZM23.4262 16.1082C23.4177 16.0737 23.4217 16.0371 23.3743 16.0413C23.3683 16.0418 23.3593 16.0514 23.3588 16.0572C23.3568 16.1018 23.3823 16.1119 23.4262 16.1082ZM22.3719 14.6085C22.3824 14.5544 22.3929 14.5194 22.3499 14.4976C22.3444 14.4955 22.332 14.4997 22.329 14.505C22.306 14.5454 22.323 14.5724 22.3719 14.6085ZM20.7525 35.4584C20.7625 35.3979 20.7625 35.3979 20.7165 35.3682C20.7285 35.3985 20.7405 35.4282 20.7525 35.4584ZM23.4197 21.9477C23.4092 21.954 23.3983 21.9599 23.3878 21.9662C23.4027 21.9896 23.4172 22.0134 23.4317 22.0373C23.4387 22.0331 23.4462 22.0288 23.4532 22.0246C23.4417 21.9991 23.4307 21.9731 23.4197 21.9477ZM24.3013 56.0961C24.3063 56.0224 24.3063 56.0224 24.2509 56.0203C24.2679 56.0463 24.2813 56.0664 24.3013 56.0961ZM31.5417 54.7439C31.5547 54.7418 31.5677 54.7397 31.5812 54.7376C31.5752 54.7148 31.5697 54.6914 31.5622 54.6691C31.5617 54.6676 31.5342 54.6739 31.5342 54.676C31.5347 54.6989 31.5387 54.7211 31.5417 54.7439ZM23.3633 53.9297C23.3733 53.9275 23.3833 53.9249 23.3933 53.9228C23.3883 53.901 23.3833 53.8787 23.3778 53.857C23.3708 53.858 23.3633 53.8596 23.3563 53.8612C23.3583 53.884 23.3608 53.9069 23.3633 53.9297ZM24.484 16.3532C24.4626 16.3394 24.4516 16.3304 24.4396 16.3256C24.4351 16.3241 24.4271 16.3331 24.4211 16.3368C24.4286 16.3485 24.4351 16.3622 24.4451 16.3702C24.4491 16.3734 24.4626 16.3633 24.484 16.3532ZM22.1163 13.5168C22.1213 13.5226 22.1258 13.5284 22.1303 13.5343C22.1413 13.5321 22.1542 13.5332 22.1617 13.5268C22.1697 13.5199 22.1717 13.5062 22.1767 13.495C22.1692 13.4897 22.1622 13.4839 22.1552 13.4786C22.1423 13.4913 22.1293 13.504 22.1163 13.5168ZM30.4305 55.258C30.4195 55.249 30.409 55.2352 30.405 55.2373C30.3956 55.241 30.3866 55.2521 30.3841 55.2622C30.3826 55.267 30.3971 55.2834 30.4011 55.2824C30.4105 55.2797 30.418 55.2691 30.4305 55.258ZM20.747 34.9879C20.741 34.9879 20.735 34.9879 20.729 34.9879C20.729 35.007 20.729 35.0261 20.73 35.0452C20.73 35.0457 20.741 35.0452 20.747 35.0452C20.747 35.0261 20.747 35.007 20.747 34.9879ZM28.854 14.4239C28.8555 14.4313 28.8565 14.4393 28.8575 14.4472C28.8745 14.4446 28.8915 14.4419 28.9084 14.4393C28.9074 14.4318 28.9064 14.4244 28.9054 14.417C28.8885 14.4191 28.8715 14.4212 28.854 14.4239ZM22.015 20.691C21.9945 20.683 21.9845 20.675 21.978 20.6777C21.9685 20.6814 21.9626 20.6931 21.9551 20.7016C21.9621 20.7085 21.9715 20.7228 21.9765 20.7212C21.9875 20.7175 21.9965 20.7058 22.015 20.691ZM23.2809 15.9883C23.2755 15.9962 23.27 16.0036 23.2645 16.0111C23.2784 16.0212 23.2929 16.0312 23.3074 16.0408C23.3114 16.0344 23.3189 16.0238 23.3179 16.0227C23.3064 16.0105 23.2934 15.9994 23.2809 15.9883Z" fill="white"/>
</g>
<path d="M42.0752 36.4307C42.4674 36.4307 42.8451 36.5705 43.123 36.8184C43.4008 37.0661 43.5546 37.4017 43.5547 37.752C43.5547 38.1023 43.4009 38.4387 43.123 38.6865C42.8451 38.9343 42.4674 39.0742 42.0752 39.0742H29.3125C28.9204 39.0742 28.5435 38.9343 28.2705 38.6865C27.9926 38.4388 27.8331 38.1032 27.833 37.7529C27.833 37.4025 27.9925 37.0662 28.2705 36.8184C28.5435 36.5706 28.9204 36.4307 29.3125 36.4307H42.0752ZM42.0752 32.0244C42.4674 32.0244 42.8451 32.1643 43.123 32.4121C43.4008 32.6598 43.5546 32.9955 43.5547 33.3457C43.5547 33.6961 43.4009 34.0324 43.123 34.2803C42.8451 34.5281 42.4674 34.668 42.0752 34.668H29.3125C28.9204 34.668 28.5435 34.528 28.2705 34.2803C27.9926 34.0325 27.8331 33.697 27.833 33.3467C27.833 32.9962 27.9925 32.6599 28.2705 32.4121C28.5435 32.1643 28.9204 32.0244 29.3125 32.0244H42.0752Z" fill="#D6ABFF"/>
<defs>
<filter id="filter0_dd_4869_9082" x="15.8776" y="7.7682" width="42.3639" height="58.3236" filterUnits="userSpaceOnUse" color-interpolation-filters="sRGB">
<feFlood flood-opacity="0" result="BackgroundImageFix"/>
<feColorMatrix in="SourceAlpha" type="matrix" values="0 0 0 0 0 0 0 0 0 0 0 0 0 0 0 0 0 0 127 0" result="hardAlpha"/>
<feOffset dx="3.09021" dy="3.09021"/>
<feGaussianBlur stdDeviation="0.386277"/>
<feColorMatrix type="matrix" values="0 0 0 0 0.25098 0 0 0 0 0.341176 0 0 0 0 0.427451 0 0 0 0.3 0"/>
<feBlend mode="normal" in2="BackgroundImageFix" result="effect1_dropShadow_4869_9082"/>
<feColorMatrix in="SourceAlpha" type="matrix" values="0 0 0 0 0 0 0 0 0 0 0 0 0 0 0 0 0 0 127 0" result="hardAlpha"/>
<feOffset/>
<feGaussianBlur stdDeviation="0.565973"/>
<feComposite in2="hardAlpha" operator="out"/>
<feColorMatrix type="matrix" values="0 0 0 0 0 0 0 0 0 0 0 0 0 0 0 0 0 0 0.25 0"/>
<feBlend mode="normal" in2="effect1_dropShadow_4869_9082" result="effect2_dropShadow_4869_9082"/>
<feBlend mode="normal" in="SourceGraphic" in2="effect2_dropShadow_4869_9082" result="shape"/>
</filter>
</defs>
</svg>
