<svg width="72" height="72" viewBox="0 0 72 72" fill="none" xmlns="http://www.w3.org/2000/svg">
<path d="M0 36.0015C0 16.1184 16.1184 0 36.0015 0C55.8846 0 72.003 16.1184 72.003 36.0015C72.003 55.8846 55.8846 72.003 36.0015 72.003C16.1184 72.003 0 55.8846 0 36.0015Z" fill="#E7E5F7"/>
<g filter="url(#filter0_dd_4843_38106)">
<path d="M57.4809 14.2115H13.901V57.7914H57.4809V14.2115Z" fill="white"/>
</g>
<path fill-rule="evenodd" clip-rule="evenodd" d="M48.7098 49.5873C49.0606 49.5873 49.3981 49.7267 49.6468 49.9749C49.8955 50.2231 50.0332 50.5598 50.0332 50.9108C50.0332 51.2618 49.8955 51.5985 49.6468 51.8467C49.3981 52.0948 49.0606 52.2343 48.7098 52.2343C43.9135 52.2343 27.4685 52.2343 22.6722 52.2343C22.3213 52.2343 21.9838 52.0948 21.7396 51.8467C21.4909 51.5985 21.3488 51.2618 21.3488 50.9108C21.3488 50.5598 21.4909 50.2231 21.7396 49.9749C21.9838 49.7267 22.3213 49.5873 22.6722 49.5873C27.4685 49.5873 43.9135 49.5873 48.7098 49.5873Z" fill="#BEC1FD"/>
<path d="M33.9421 44.8243H26.7378C26.4245 44.8243 26.1369 44.6457 26.0025 44.3645C25.8684 44.0834 25.9003 43.745 26.0985 43.5023L37.9119 28.594C38.0651 28.3962 38.3017 28.2875 38.5512 28.2875C38.8005 28.2875 39.037 28.4027 39.1903 28.6005C39.2797 28.7092 41.3191 31.3471 40.6606 34.7196C40.1621 37.2872 38.2763 39.5229 35.048 41.3688C34.6582 41.5923 34.1594 41.4582 33.9294 41.0688C33.7056 40.679 33.8399 40.1808 34.2297 39.9508C37.0168 38.3541 38.6342 36.4952 39.0432 34.4258C39.3565 32.8353 38.8772 31.4108 38.4487 30.5359L28.4255 43.1893H33.9421C36.4351 43.1893 38.7556 42.2567 40.4881 40.5641C41.3959 39.6761 42.1182 38.6541 42.6359 37.5237C43.9081 34.7453 43.3839 30.2421 43.0963 28.4346C42.9235 27.3358 43.4093 26.2373 44.3363 25.6305C44.3619 25.6113 44.3873 25.5986 44.4195 25.5859L46.5608 24.5128C46.5227 24.4679 46.4905 24.4106 46.4651 24.3592C45.2697 21.9003 43.5245 20.9613 41.1272 21.4851C39.6506 21.8108 38.2825 22.6858 37.2856 23.9443L20.9974 44.4921C20.716 44.8435 20.2045 44.9073 19.8466 44.6265C19.4952 44.3453 19.4311 43.8345 19.7125 43.4766L36.0004 22.9285C37.2342 21.3764 38.9283 20.2971 40.7758 19.8882C43.7291 19.2432 46.171 20.412 47.6989 23.1839H50.6841C51.0869 23.1839 51.4322 23.4778 51.4894 23.8741C51.5535 24.27 51.317 24.653 50.9334 24.7809L47.4751 25.8924L45.2121 27.0293C44.8412 27.2912 44.6496 27.7448 44.7199 28.1918C45.1035 30.6189 45.5316 35.1413 44.1254 38.2135C43.5245 39.5229 42.687 40.7108 41.6324 41.7394C39.5931 43.732 36.8636 44.8243 33.9421 44.8243Z" fill="#4627B6" stroke="#4627B6" stroke-width="0.75"/>
<defs>
<filter id="filter0_dd_4843_38106" x="12.7691" y="13.0796" width="48.5745" height="48.5745" filterUnits="userSpaceOnUse" color-interpolation-filters="sRGB">
<feFlood flood-opacity="0" result="BackgroundImageFix"/>
<feColorMatrix in="SourceAlpha" type="matrix" values="0 0 0 0 0 0 0 0 0 0 0 0 0 0 0 0 0 0 127 0" result="hardAlpha"/>
<feOffset dx="3.09021" dy="3.09021"/>
<feGaussianBlur stdDeviation="0.386277"/>
<feColorMatrix type="matrix" values="0 0 0 0 0.25098 0 0 0 0 0.341176 0 0 0 0 0.427451 0 0 0 0.3 0"/>
<feBlend mode="normal" in2="BackgroundImageFix" result="effect1_dropShadow_4843_38106"/>
<feColorMatrix in="SourceAlpha" type="matrix" values="0 0 0 0 0 0 0 0 0 0 0 0 0 0 0 0 0 0 127 0" result="hardAlpha"/>
<feOffset/>
<feGaussianBlur stdDeviation="0.565973"/>
<feComposite in2="hardAlpha" operator="out"/>
<feColorMatrix type="matrix" values="0 0 0 0 0 0 0 0 0 0 0 0 0 0 0 0 0 0 0.25 0"/>
<feBlend mode="normal" in2="effect1_dropShadow_4843_38106" result="effect2_dropShadow_4843_38106"/>
<feBlend mode="normal" in="SourceGraphic" in2="effect2_dropShadow_4843_38106" result="shape"/>
</filter>
</defs>
</svg>
