<svg width="72" height="72" viewBox="0 0 72 72" fill="none" xmlns="http://www.w3.org/2000/svg">
<path d="M0 36.0015C0 16.1184 16.1184 0 36.0015 0C55.8846 0 72.003 16.1184 72.003 36.0015C72.003 55.8846 55.8846 72.003 36.0015 72.003C16.1184 72.003 0 55.8846 0 36.0015Z" fill="#E7E5F7"/>
<g filter="url(#filter0_dd_4843_38081)">
<path d="M21.5743 10.8914C21.5743 8.41784 23.5796 6.4126 26.0532 6.4126H44.9357C47.4093 6.4126 49.4146 8.41784 49.4146 10.8914V60.9001C49.4146 63.3737 47.4093 65.3789 44.9357 65.3789H26.0532C23.5796 65.3789 21.5743 63.3737 21.5743 60.9001V10.8914Z" fill="white"/>
</g>
<path d="M21.5699 10.8914C21.5699 8.41784 23.5752 6.4126 26.0488 6.4126H44.9313C47.4049 6.4126 49.4102 8.41784 49.4102 10.8914V60.9001C49.4102 63.3737 47.4049 65.3789 44.9314 65.3789H26.0488C23.5752 65.3789 21.5699 63.3737 21.5699 60.9001V10.8914Z" fill="#BEC1FD"/>
<path fill-rule="evenodd" clip-rule="evenodd" d="M33.3046 39.3588C33.8491 37.8172 35.6497 38.1298 36.8768 38.932C37.7966 39.5543 38.5968 40.3426 39.3778 41.1302C40.0192 41.7383 40.61 42.3962 41.0878 43.1381C41.8163 44.1967 42.3623 45.3724 42.5829 46.6078C42.7719 47.4348 42.9361 48.2897 42.6581 49.0746C42.6521 49.0965 42.6441 49.118 42.6366 49.139C42.5269 49.9182 42.2866 50.6772 42.0116 51.3881C41.6573 52.4127 41.1972 53.4043 40.62 54.3119C40.6938 54.2654 40.767 54.2186 40.8387 54.1693C40.8476 54.162 40.8568 54.1538 40.8661 54.1469C41.0015 54.0243 41.1376 53.9022 41.2743 53.7816C41.3125 53.7474 41.3509 53.7129 41.3895 53.6791C41.7492 53.3153 42.0704 52.9118 42.41 52.5287C42.8128 52.1009 43.1403 51.6128 43.4696 51.1263C43.8078 50.6634 44.2063 50.2505 44.5741 49.8119C44.9673 49.2583 45.6206 48.9911 46.2968 48.8959C46.7271 48.8119 47.1375 48.8373 47.5311 48.9408C47.582 48.9695 47.6341 48.9985 47.6864 49.0258C47.7632 49.0656 47.8415 49.1049 47.9208 49.139C47.9889 49.1681 48.0569 49.1951 48.1239 49.226C48.2179 49.2696 48.3121 49.3141 48.4061 49.3578C48.4516 49.3827 48.4964 49.4079 48.5419 49.432C48.5876 49.457 48.6374 49.4801 48.6825 49.5082C48.7922 49.5757 48.9033 49.6437 49.0116 49.7142C49.0428 49.7381 49.0738 49.762 49.1053 49.7855C49.2073 49.8624 49.3098 49.9391 49.411 50.016V56.6537C48.819 56.7535 48.2257 56.8489 47.6366 56.9603C46.2214 57.2869 44.8574 57.763 43.4716 58.1722C42.4186 58.4848 41.3412 58.733 40.2987 59.0746C40.7765 59.189 41.258 59.1635 41.7216 59.0609C42.2768 58.9625 42.8281 58.8452 43.3837 58.7465C44.3886 58.5561 45.4091 58.4252 46.41 58.2211C46.9494 58.0715 47.48 57.8976 48.0155 57.7367C48.3479 57.6359 48.8652 57.4711 49.411 57.3529V60.9017C49.411 61.2384 49.372 61.5658 49.3016 61.8812C49.1072 62.0195 48.91 62.1548 48.7069 62.2806C48.2878 62.5394 47.8639 62.8019 47.3739 62.9261C46.8371 63.0859 46.2954 63.2854 45.7069 63.2269C44.8838 63.1703 44.135 62.7105 43.3387 62.4877C42.7732 62.3033 42.2031 62.1335 41.6385 61.9457C41.012 61.7247 40.4026 61.4451 39.7723 61.2367C39.7577 61.2323 39.743 61.2274 39.7284 61.223C40.613 61.634 41.4478 62.1548 42.2831 62.6674C43.1052 63.1203 43.8397 63.7106 44.4608 64.4242C44.7379 64.7381 44.7967 65.0621 44.7303 65.3812H38.9257C38.7331 64.7563 38.5669 64.1241 38.2821 63.5267C38.0761 63.1091 37.7221 62.7909 37.3954 62.4642C37.5713 63.44 37.9005 64.4104 38.1903 65.3812H34.4423C34.4484 65.375 34.4547 65.3689 34.4608 65.3627C34.9689 64.7917 35.4771 64.1484 35.6063 63.3539C35.6116 63.3141 35.6141 63.2731 35.6151 63.2328C35.3354 63.7219 34.9978 64.1738 34.5848 64.557C34.2741 64.8477 33.9256 65.1357 33.5477 65.3812H29.1952C28.4983 65.0334 27.8451 64.5817 27.2577 64.057C26.957 63.7792 26.6659 63.4901 26.3856 63.1927C25.9477 62.8058 25.5497 62.3739 25.1346 61.9633C24.5923 61.3729 23.8412 60.6583 23.8983 59.8344C24.1035 59.3426 24.5711 59.5147 24.9725 59.7318C25.4858 59.9808 25.9989 60.2348 26.5175 60.472C27.6089 60.9373 28.6712 61.483 29.7645 61.9398C30.0182 62.0493 30.2766 62.1311 30.537 62.1888C30.7157 62.2107 30.896 62.2245 31.077 62.2279C31.5801 62.2454 32.0841 62.2294 32.5751 62.1615C32.7697 62.1142 32.962 62.0557 33.1483 61.9838C34.0743 61.6982 34.5933 61.4567 35.1864 60.7709C34.679 60.8609 34.1597 60.9104 33.6444 60.9584C32.6939 61.0508 31.765 61.3199 30.787 61.2094C29.7859 61.1286 28.8157 60.8053 27.8622 60.4379C26.4853 59.9648 25.1784 59.2799 23.9755 58.433C23.7232 58.2784 23.4784 58.1123 23.2391 57.9359C22.6551 57.6268 22.0809 57.294 21.5682 56.8773V52.4408C22.7191 52.7532 23.8144 53.6493 24.7802 54.3129C26.5075 55.5287 28.2745 56.6892 30.0624 57.8051C31.2018 58.5026 32.6543 58.986 33.9071 58.7084C33.3678 58.5879 32.8168 58.3629 32.3505 58.1888C31.4936 57.8374 30.689 57.3492 29.9237 56.8119C28.8418 56.0941 27.7332 55.2373 26.7509 54.3763C26.4767 54.1525 26.2108 53.9172 25.955 53.6703C25.9362 53.6522 25.9181 53.6334 25.8993 53.6146C25.7838 53.5021 25.6705 53.3867 25.5594 53.2689C25.3096 53.0316 25.0674 52.7865 24.8319 52.5355C24.2884 52.0349 23.7841 51.5464 23.3348 51.0941C22.9027 50.6908 22.4594 50.1405 22.5839 49.5463C22.6698 49.22 22.9654 49.0263 23.1903 48.8021C23.7338 48.3674 24.3386 47.9532 25.0458 47.8041C26.2668 47.5871 27.6609 47.951 28.6591 48.8285C29.1192 49.1362 29.5551 49.4892 29.9735 49.8314C30.436 50.2051 30.8471 50.6375 31.1971 51.1156C32.1678 52.2972 33.0001 53.5732 33.7792 54.8763C33.8486 54.9738 33.919 55.0704 33.9891 55.1664C34.1455 55.4071 34.314 55.6434 34.5077 55.8549C34.1822 54.5108 33.662 53.1965 32.8475 52.0297C31.4109 49.9944 29.42 48.1176 28.9921 45.6224C28.941 45.3998 28.9118 45.1775 28.9032 44.9574C28.8146 44.424 28.8961 43.8898 29.037 43.392C29.2081 42.843 29.4891 42.1816 30.0936 42.0326C30.4225 41.9953 30.7618 42.0417 31.0887 42.1488C31.1982 42.1731 31.3074 42.2075 31.413 42.2494C32.6034 42.4955 33.7244 43.6859 34.2499 44.7396C34.5902 45.4879 34.8658 46.2569 35.1151 47.0326C35.7911 48.4672 36.3606 49.9501 36.6884 51.4672C37.1139 52.715 37.4716 53.9775 37.6366 55.266C37.9087 54.4878 37.8219 53.581 37.744 52.7347C37.6281 51.402 37.3037 50.075 36.8358 48.7914C36.4314 47.6683 35.8731 46.597 35.4413 45.4828C34.97 44.5579 34.5013 43.6287 34.1425 42.6615C33.8095 41.7068 33.0396 40.2982 33.3046 39.3588ZM37.1268 56.6049C36.9615 56.5882 36.8031 56.6128 36.6503 56.6537C36.3213 56.973 35.985 57.2928 35.7899 57.7142C35.7285 58.0117 35.7135 58.3201 35.7753 58.6312C35.8656 58.9968 36.014 59.3492 36.1307 59.7094C36.2455 59.9722 36.2655 60.2671 36.4159 60.516C36.5091 60.6439 36.6246 60.7535 36.7352 60.8656C36.876 61.0204 37.0286 61.1687 37.2372 61.2074C37.3677 61.2387 37.5404 61.2131 37.6522 61.1947C37.8278 61.1855 37.9646 61.0978 38.0721 60.9711C38.1502 60.893 38.2454 60.8239 38.2694 60.7074C38.3317 60.4752 38.3737 60.2358 38.3993 59.9935C38.493 59.3027 38.2719 58.5777 37.9764 57.9232C37.7567 57.4533 37.5204 56.9637 37.1268 56.6049Z" fill="#7E84FB"/>
<path d="M21.5682 41.8939C22.3325 42.3354 23.0186 42.896 23.6034 43.5677C24.4116 44.4834 23.3927 45.4895 22.6835 46.1859C22.5613 46.3049 22.4485 46.4173 22.3563 46.516C22.145 46.7431 21.872 47.0161 21.5682 47.2455V41.8939Z" fill="#7E84FB"/>
<path d="M42.8895 40.8431C43.0947 40.3512 43.5623 40.5235 43.9637 40.7406C44.4769 40.9895 44.9893 41.2436 45.5077 41.4808C46.5992 41.9461 47.6623 42.4917 48.7557 42.9486C48.9712 43.0415 49.1905 43.113 49.411 43.1683V46.8754C48.2509 46.5328 47.1705 45.8872 46.2499 45.0648C45.9493 44.7871 45.6581 44.4988 45.3778 44.2015C44.9399 43.8147 44.5409 43.3836 44.1259 42.973C43.5835 42.3826 42.8324 41.6672 42.8895 40.8431Z" fill="#7E84FB"/>
<path d="M27.1591 36.8812C28.2638 36.5463 31.4069 35.5026 30.8641 37.8177C30.6864 38.6498 30.3111 39.3767 29.7303 39.9574C29.6672 40.0205 29.601 40.0821 29.5331 40.142C29.0188 40.624 28.4519 41.0516 27.8505 41.4242C27.4314 41.683 27.0074 41.9454 26.5175 42.0697C25.9807 42.2294 25.4389 42.4289 24.8505 42.3705C24.0273 42.3139 23.2785 41.8541 22.4823 41.6312C22.1783 41.5321 21.8733 41.4359 21.5682 41.3402V38.0707C21.887 38.0085 22.206 37.9469 22.5262 37.89C23.5312 37.6996 24.5517 37.5687 25.5526 37.3646C26.092 37.2151 26.6236 37.0421 27.1591 36.8812Z" fill="#7E84FB"/>
<path d="M39.8622 33.3373C41.2671 33.3914 42.6113 34.5252 43.7704 35.3217C45.4979 36.5376 47.2655 37.6979 49.0536 38.8138C49.1694 38.8847 49.2893 38.9521 49.411 39.0179V42.1771C48.5392 42.0567 47.6899 41.769 46.8534 41.4467C45.4765 40.9736 44.1696 40.2886 42.9667 39.4418C42.7145 39.2872 42.4696 39.1211 42.2303 38.9447C41.3657 38.4871 40.5176 37.9831 39.868 37.2211C39.1884 36.5103 37.4319 34.682 38.5145 33.9047C38.8597 33.5419 39.3294 33.3107 39.8622 33.3373Z" fill="#7E84FB"/>
<path d="M44.037 28.8129C45.2581 28.5958 46.6521 28.9597 47.6503 29.8373C48.1104 30.145 48.5463 30.498 48.9647 30.8402C49.1199 30.9656 49.2675 31.0997 49.411 31.2377V38.1556C49.244 38.0464 49.0782 37.9353 48.9149 37.8207C47.8329 37.1028 46.7235 36.2462 45.7411 35.3851C45.467 35.1614 45.2019 34.926 44.9462 34.6791C44.9274 34.661 44.9093 34.6422 44.8905 34.6234C44.775 34.5109 44.6617 34.3954 44.5507 34.2777C44.3007 34.0404 44.0576 33.7953 43.8221 33.5443C43.2787 33.0438 42.7743 32.5551 42.3251 32.1029C41.893 31.6996 41.4506 31.1492 41.5751 30.5551C41.661 30.2288 41.9566 30.035 42.1815 29.8109C42.725 29.3762 43.3298 28.9619 44.037 28.8129Z" fill="#7E84FB"/>
<path d="M25.4403 28.0394C25.8705 27.9556 26.2802 27.9809 26.6737 28.0844C26.7246 28.1131 26.7766 28.1421 26.829 28.1693C26.9059 28.2092 26.9849 28.2484 27.0643 28.2826C27.1323 28.3115 27.2006 28.3387 27.2675 28.3695C27.3614 28.4132 27.4558 28.4577 27.5497 28.5013C27.5951 28.5262 27.6401 28.5505 27.6854 28.5746C27.7312 28.5996 27.7809 28.6237 27.826 28.6517C27.9357 28.7192 28.046 28.7873 28.1542 28.8578C28.1854 28.8817 28.2173 28.9046 28.2489 28.9281C28.3545 29.0078 28.4605 29.0877 28.5653 29.1674C28.5875 29.1859 28.6083 29.2045 28.6298 29.223C28.8312 29.4082 29.0308 29.5957 29.2245 29.7894L29.7499 30.3148C29.866 30.4309 29.9853 30.5424 30.0956 30.6644C30.2647 30.8594 30.4171 31.0686 30.5653 31.2797C30.6814 31.4461 30.7978 31.6135 30.9139 31.7806C30.9959 31.9033 31.0778 32.0261 31.1571 32.1498L31.2108 32.2338C31.2402 32.2801 31.2685 32.3277 31.2968 32.3744C31.3685 32.4934 31.438 32.613 31.5048 32.7338C31.5548 32.8252 31.6043 32.9174 31.6532 33.0092C31.7073 33.1216 31.7611 33.2346 31.8065 33.351C31.8301 33.4166 31.8531 33.4827 31.871 33.5492C31.8812 33.6 31.8896 33.6505 31.8964 33.7015C31.9022 33.7674 31.9037 33.833 31.9042 33.8978C31.9015 33.9245 31.8983 33.9507 31.8944 33.9769C31.874 34.1052 31.8452 34.2316 31.8104 34.3558C31.8101 34.3569 31.8107 34.3595 31.8104 34.3607C31.8095 34.3625 31.8088 34.3648 31.8085 34.3666C31.7739 34.4777 31.734 34.5867 31.6884 34.6927C31.6567 34.7622 31.6221 34.8305 31.5848 34.8959C31.5492 34.9331 31.5129 34.9698 31.4764 35.0062L31.4755 35.0082C31.4381 35.0456 31.3992 35.0825 31.3622 35.1195C31.3153 35.1544 31.2686 35.1904 31.2206 35.224C30.9659 35.3007 30.709 35.3723 30.4481 35.431C29.2411 35.7139 28.0004 35.8729 26.7792 36.1039C25.3642 36.4305 24.0007 36.9056 22.6151 37.3148C22.2683 37.4178 21.9183 37.5131 21.5682 37.6078V31.6547C21.964 31.2308 22.288 30.7501 22.6132 30.2699C22.9515 29.8068 23.3498 29.3932 23.7177 28.9545C24.1109 28.4011 24.7642 28.1346 25.4403 28.0394Z" fill="#7E84FB"/>
<path fill-rule="evenodd" clip-rule="evenodd" d="M40.6444 6.40857C40.6712 6.5251 40.6966 6.64247 40.7177 6.76013C40.9066 7.58695 41.0697 8.44129 40.7919 9.22595C40.7859 9.24793 40.7789 9.27024 40.7714 9.29138C40.6616 10.0706 40.4214 10.8295 40.1464 11.5404C39.792 12.5651 39.331 13.5566 38.7538 14.4642C38.8277 14.4177 38.9016 14.37 38.9735 14.3207C38.9823 14.3134 38.9916 14.306 39.0009 14.2992C39.1364 14.1766 39.2723 14.0536 39.4091 13.933C39.4472 13.8988 39.4857 13.8642 39.5243 13.8304C39.884 13.4667 40.2052 13.0632 40.5448 12.6801C40.9474 12.2524 41.2742 11.7649 41.6034 11.2787C41.9418 10.8154 42.3419 10.4021 42.7098 9.96326C43.103 9.41006 43.7547 9.14344 44.4305 9.04822C44.8609 8.96424 45.2713 8.98969 45.6649 9.09314C45.7159 9.1219 45.7687 9.14984 45.8212 9.17712C45.8979 9.21693 45.9754 9.25625 46.0546 9.29041C46.1228 9.31949 46.1915 9.34635 46.2587 9.37732C46.3527 9.42101 46.4469 9.46546 46.5409 9.50916C46.5865 9.53413 46.632 9.55917 46.6776 9.58337C46.7231 9.6083 46.7714 9.63259 46.8163 9.66052C46.9259 9.72796 47.0372 9.79417 47.1454 9.86462C47.1768 9.88867 47.2083 9.91419 47.2401 9.93787C47.3456 10.0175 47.4518 10.0965 47.5565 10.1761C47.5788 10.1947 47.5995 10.2133 47.621 10.2318C47.8224 10.417 48.021 10.6045 48.2147 10.7982L48.7401 11.3236C48.8564 11.4399 48.9764 11.551 49.0868 11.6732C49.2015 11.8055 49.3074 11.9451 49.411 12.0863V16.4457C48.2127 16.7245 46.9822 16.8825 45.7704 17.1117C44.3553 17.4383 42.992 17.9144 41.6063 18.3236C40.5533 18.6362 39.475 18.8854 38.4325 19.2269C38.9103 19.3413 39.3927 19.3159 39.8563 19.2133C40.4114 19.1149 40.962 18.9975 41.5175 18.8988C42.5224 18.7084 43.5429 18.5775 44.5438 18.3734C45.0832 18.2239 45.6139 18.0499 46.1493 17.889C46.8943 17.6632 48.5678 17.1162 49.411 17.4945V20.0394C49.2267 20.3782 48.9984 20.6893 48.7216 20.9662C48.6584 21.0294 48.5913 21.0908 48.5233 21.1508C48.0091 21.6327 47.4421 22.0594 46.8407 22.432C46.4216 22.6908 45.9977 22.9542 45.5077 23.0785C44.9712 23.2382 44.4298 23.4367 43.8417 23.3783C43.0183 23.3217 42.269 22.8618 41.4725 22.639C40.9071 22.4547 40.3377 22.2848 39.7733 22.097C39.1467 21.8761 38.5364 21.5975 37.9061 21.389C37.8915 21.3846 37.8768 21.3798 37.8622 21.3754C38.7468 21.7863 39.5816 22.3071 40.4169 22.8197C41.2391 23.2727 41.9734 23.8629 42.5946 24.5765C43.4028 25.4923 42.384 26.4983 41.6747 27.1947C41.5525 27.3136 41.4397 27.4252 41.3475 27.5238C40.6892 28.2312 39.4383 29.3949 38.4901 28.2474C37.9278 27.7043 37.5663 27.0014 37.3153 26.2855C36.9807 25.4261 36.816 24.5172 36.4159 23.6781C36.2099 23.2606 35.8568 22.9422 35.5302 22.6156C35.9292 24.8297 37.1298 27.0128 36.8231 29.2494C36.7739 29.8641 36.5702 30.4613 36.0966 30.8431C35.6849 31.2894 35.1682 31.6609 34.5233 31.7103C34.0165 31.8071 33.5019 31.5977 33.1561 31.1752C32.3855 30.4408 31.7068 29.6174 31.1903 28.6918C30.7541 27.9942 30.6858 27.2745 31.329 26.7836C31.4797 26.632 31.6317 26.4809 31.7821 26.3304C32.0541 26.0593 32.3268 25.7886 32.5956 25.515C33.1036 24.9441 33.6118 24.3006 33.7411 23.5062C33.7463 23.4663 33.7499 23.4246 33.7509 23.3842C33.4711 23.8734 33.1317 24.325 32.7186 24.7084C31.7211 25.6414 30.338 26.5514 28.8231 26.0922C27.5611 25.7743 26.3839 25.094 25.3925 24.2084C25.0917 23.9306 24.8007 23.6415 24.5204 23.3441C24.0824 22.9572 23.6835 22.5262 23.2684 22.1156C22.7261 21.5252 21.976 20.8097 22.0331 19.9857C22.2384 19.4942 22.7059 19.667 23.1073 19.8842C23.6205 20.1331 24.1327 20.3871 24.6512 20.6244C25.7427 21.0896 26.8058 21.6343 27.8993 22.0912C28.153 22.2006 28.4114 22.2835 28.6718 22.3412C28.8505 22.363 29.0308 22.3758 29.2118 22.3793C29.7146 22.3967 30.2181 22.3817 30.7089 22.3138C30.9034 22.2666 31.0959 22.208 31.2821 22.1361C32.2082 21.8505 32.727 21.6081 33.3202 20.9222C32.8129 21.0122 32.2945 21.0627 31.7792 21.1107C30.8286 21.2031 29.8998 21.4712 28.9218 21.3607C27.9205 21.28 26.9496 20.9567 25.996 20.5892C24.6192 20.1161 23.3121 19.4321 22.1093 18.5853C21.9247 18.4722 21.7455 18.3509 21.5682 18.226V13.5199C22.0379 13.8332 22.4891 14.1717 22.9149 14.4642C24.6423 15.6801 26.4092 16.8406 28.1971 17.9564C29.3367 18.654 30.789 19.1376 32.0419 18.8597C31.5026 18.7393 30.9516 18.5143 30.4852 18.3402C29.6282 17.9887 28.8229 17.5007 28.0575 16.9633C26.9755 16.2454 25.867 15.3887 24.8846 14.5277C24.6106 14.304 24.3445 14.0695 24.0887 13.8226C24.07 13.8046 24.0519 13.7857 24.0331 13.767C23.9176 13.6545 23.8043 13.539 23.6932 13.4213C23.4432 13.1838 23.2003 12.938 22.9647 12.6869C22.4608 12.2227 21.9921 11.7682 21.5682 11.3441V10.8881C21.5682 9.8832 21.8981 8.95468 22.4569 8.2074C22.6862 8.09694 22.9268 8.0089 23.1805 7.95544C24.4016 7.73845 25.7947 8.10334 26.7928 8.98083C27.253 9.28854 27.6898 9.6406 28.1083 9.98279C28.5708 10.3565 28.9818 10.7889 29.3319 11.267C30.3025 12.4485 31.133 13.7247 31.912 15.0277C31.9817 15.1255 32.0535 15.2224 32.1239 15.3187C32.2802 15.5594 32.4488 15.7948 32.6425 16.0062C32.317 14.6624 31.7966 13.3487 30.9823 12.182C29.6699 10.3226 27.8949 8.5956 27.2714 6.40857H32.9862C33.0768 6.66601 33.1645 6.92439 33.2479 7.18396C33.924 8.61871 34.4943 10.1013 34.8221 11.6185C35.2477 12.8664 35.6054 14.1289 35.7704 15.4174C36.0423 14.6394 35.9567 13.7331 35.8788 12.8871C35.7629 11.5542 35.4376 10.2265 34.9696 8.94275C34.6595 8.0816 34.2589 7.25135 33.8944 6.40857H40.6444ZM35.2606 16.7572C35.0953 16.7406 34.937 16.7651 34.7841 16.806C34.4553 17.1252 34.1197 17.4445 33.9247 17.8656C33.8632 18.1632 33.8482 18.4723 33.91 18.7836C34.0004 19.1489 34.1489 19.5008 34.2655 19.8607C34.3803 20.1235 34.3994 20.4185 34.5497 20.6674C34.6431 20.7955 34.7592 20.9056 34.87 21.0179C35.0108 21.1727 35.1633 21.3192 35.3719 21.3578C35.5024 21.3891 35.6741 21.3654 35.786 21.347C35.9619 21.3379 36.0993 21.2494 36.2069 21.1224C36.2849 21.0445 36.3802 20.9753 36.4042 20.8588C36.4664 20.6266 36.5065 20.387 36.5321 20.1449C36.6258 19.4542 36.4057 18.73 36.1102 18.0756C35.8905 17.6056 35.6543 17.1161 35.2606 16.7572Z" fill="#7E84FB"/>
<path d="M49.411 23.0336V29.8295C48.736 28.8466 48.1852 27.8087 47.9833 26.6322C47.9322 26.4094 47.903 26.1864 47.8944 25.9662C47.8058 25.4328 47.8873 24.8986 48.0282 24.4008C48.1993 23.8518 48.4803 23.1903 49.0848 23.0414C49.1927 23.0291 49.3018 23.0286 49.411 23.0336Z" fill="#7E84FB"/>
<path d="M21.5682 25.0736C21.6303 25.2972 21.6857 25.5223 21.7264 25.7504C21.9154 26.5774 22.0787 27.4323 21.8007 28.2172C21.7947 28.2391 21.7886 28.2615 21.7811 28.2826C21.7331 28.6235 21.6585 28.9606 21.5682 29.2914V25.0736Z" fill="#7E84FB"/>
<path d="M44.9313 64.2466V65.3794H26.0485V64.2466H44.9313ZM48.278 60.8999V10.8911C48.2778 9.04283 46.7796 7.54443 44.9313 7.54443H26.0485C24.2003 7.5446 22.702 9.04293 22.7018 10.8911V60.8999C22.7018 62.7482 24.2002 64.2464 26.0485 64.2466V65.3794L25.818 65.3735C23.4516 65.2534 21.5699 63.2961 21.5699 60.8999V10.8911C21.5701 8.41777 23.5751 6.41277 26.0485 6.4126H44.9313C47.4048 6.4126 49.4096 8.41767 49.4098 10.8911V60.8999C49.4098 63.2962 47.5283 65.2536 45.1617 65.3735L44.9313 65.3794V64.2466C46.7797 64.2466 48.278 62.7483 48.278 60.8999Z" fill="white"/>
<defs>
<filter id="filter0_dd_4843_38081" x="20.4424" y="5.28065" width="32.8349" height="63.961" filterUnits="userSpaceOnUse" color-interpolation-filters="sRGB">
<feFlood flood-opacity="0" result="BackgroundImageFix"/>
<feColorMatrix in="SourceAlpha" type="matrix" values="0 0 0 0 0 0 0 0 0 0 0 0 0 0 0 0 0 0 127 0" result="hardAlpha"/>
<feOffset dx="3.09021" dy="3.09021"/>
<feGaussianBlur stdDeviation="0.386277"/>
<feColorMatrix type="matrix" values="0 0 0 0 0.25098 0 0 0 0 0.341176 0 0 0 0 0.427451 0 0 0 0.3 0"/>
<feBlend mode="normal" in2="BackgroundImageFix" result="effect1_dropShadow_4843_38081"/>
<feColorMatrix in="SourceAlpha" type="matrix" values="0 0 0 0 0 0 0 0 0 0 0 0 0 0 0 0 0 0 127 0" result="hardAlpha"/>
<feOffset/>
<feGaussianBlur stdDeviation="0.565973"/>
<feComposite in2="hardAlpha" operator="out"/>
<feColorMatrix type="matrix" values="0 0 0 0 0 0 0 0 0 0 0 0 0 0 0 0 0 0 0.25 0"/>
<feBlend mode="normal" in2="effect1_dropShadow_4843_38081" result="effect2_dropShadow_4843_38081"/>
<feBlend mode="normal" in="SourceGraphic" in2="effect2_dropShadow_4843_38081" result="shape"/>
</filter>
</defs>
</svg>
