<svg width="73" height="72" viewBox="0 0 73 72" fill="none" xmlns="http://www.w3.org/2000/svg">
<rect x="0.88916" width="72" height="72" rx="36" fill="#F3E6FF"/>
<g filter="url(#filter0_dd_4891_788)">
<rect x="12.7017" y="18.3137" width="48.375" height="34.875" fill="white"/>
</g>
<path d="M35.2018 44.9234C35.2018 44.3021 35.7055 43.7984 36.3268 43.7984H56.5768C57.1981 43.7984 57.7018 44.3021 57.7018 44.9234C57.7018 45.5448 57.1981 46.0484 56.5768 46.0484H36.3268C35.7055 46.0484 35.2018 45.5448 35.2018 44.9234Z" fill="#D6ABFF"/>
<path d="M35.2018 41.3235C35.2018 40.7022 35.7055 40.1985 36.3268 40.1985H56.5768C57.1981 40.1985 57.7018 40.7022 57.7018 41.3235C57.7018 41.9448 57.1981 42.4485 56.5768 42.4485H36.3268C35.7055 42.4485 35.2018 41.9448 35.2018 41.3235Z" fill="#D6ABFF"/>
<path d="M35.2018 48.5234C35.2018 47.9021 35.7055 47.3984 36.3268 47.3984H44.2018C44.8231 47.3984 45.3268 47.9021 45.3268 48.5234C45.3268 49.1447 44.8231 49.6484 44.2018 49.6484H36.3268C35.7055 49.6484 35.2018 49.1447 35.2018 48.5234Z" fill="#D6ABFF"/>
<rect x="12.7017" y="18.3135" width="19.125" height="34.875" fill="#470890"/>
<path d="M53.0294 29.9764C53.0272 30.2299 52.9875 30.47 52.9875 30.47C52.9653 30.6048 52.8352 30.7143 52.6984 30.7131L48.9535 30.6811C48.8167 30.6799 48.7058 30.5671 48.707 30.4303L48.7392 26.6627C48.7404 26.5261 48.804 26.4041 48.8805 26.3914C48.8952 26.3889 48.9189 26.3862 48.9486 26.3836C48.9611 26.3796 48.9736 26.3761 48.9867 26.374C48.9867 26.374 49.0196 26.3686 49.1623 26.3582C49.2612 26.3507 49.3615 26.3473 49.4626 26.3482C49.5638 26.3491 49.664 26.3542 49.7627 26.3633C51.6079 26.5315 53.0455 28.0908 53.0294 29.9764ZM57.4501 26.4291L53.6227 26.3963C53.4859 26.3952 53.3731 26.5061 53.3719 26.6427L53.3392 30.4699C53.338 30.6066 53.4489 30.7194 53.5857 30.7206L57.4131 30.7533C57.5498 30.7545 57.6626 30.6436 57.6637 30.5069L57.6965 26.6797C57.6976 26.5431 57.5868 26.4302 57.4501 26.4291ZM53.6286 26.0671L57.3737 26.0991C57.5103 26.1003 57.6404 25.9909 57.6627 25.856C57.6627 25.856 57.7025 25.6161 57.7047 25.3625C57.7208 23.4769 56.2832 21.9176 54.438 21.7493C54.3391 21.7403 54.2391 21.7352 54.1379 21.7343C54.0368 21.7335 53.9365 21.7369 53.8374 21.7442C53.6947 21.7547 53.6618 21.7601 53.6618 21.7601C53.5269 21.7822 53.4156 21.9122 53.4145 22.0489L53.3822 25.8164C53.3811 25.9531 53.492 26.0659 53.6286 26.0671ZM52.8542 21.7667L49.0268 21.7339C48.8902 21.7327 48.7774 21.8436 48.7762 21.9803L48.7434 25.8075C48.7423 25.9443 48.8532 26.057 48.9898 26.0581L52.8172 26.0909C52.954 26.0921 53.0668 25.9813 53.068 25.8445L53.1007 22.0173C53.1019 21.8806 52.991 21.7678 52.8542 21.7667Z" fill="#992BFF"/>
<defs>
<filter id="filter0_dd_4891_788" x="11.5698" y="17.1818" width="53.3697" height="39.8697" filterUnits="userSpaceOnUse" color-interpolation-filters="sRGB">
<feFlood flood-opacity="0" result="BackgroundImageFix"/>
<feColorMatrix in="SourceAlpha" type="matrix" values="0 0 0 0 0 0 0 0 0 0 0 0 0 0 0 0 0 0 127 0" result="hardAlpha"/>
<feOffset dx="3.09021" dy="3.09021"/>
<feGaussianBlur stdDeviation="0.386277"/>
<feColorMatrix type="matrix" values="0 0 0 0 0.25098 0 0 0 0 0.341176 0 0 0 0 0.427451 0 0 0 0.3 0"/>
<feBlend mode="normal" in2="BackgroundImageFix" result="effect1_dropShadow_4891_788"/>
<feColorMatrix in="SourceAlpha" type="matrix" values="0 0 0 0 0 0 0 0 0 0 0 0 0 0 0 0 0 0 127 0" result="hardAlpha"/>
<feOffset/>
<feGaussianBlur stdDeviation="0.565973"/>
<feComposite in2="hardAlpha" operator="out"/>
<feColorMatrix type="matrix" values="0 0 0 0 0 0 0 0 0 0 0 0 0 0 0 0 0 0 0.25 0"/>
<feBlend mode="normal" in2="effect1_dropShadow_4891_788" result="effect2_dropShadow_4891_788"/>
<feBlend mode="normal" in="SourceGraphic" in2="effect2_dropShadow_4891_788" result="shape"/>
</filter>
</defs>
</svg>
