<svg width="73" height="72" viewBox="0 0 73 72" fill="none" xmlns="http://www.w3.org/2000/svg">
<path d="M0.0090332 36.0015C0.0090332 16.1184 16.1275 0 36.0105 0C55.8936 0 72.0121 16.1184 72.0121 36.0015C72.0121 55.8846 55.8936 72.003 36.0105 72.003C16.1275 72.003 0.0090332 55.8846 0.0090332 36.0015Z" fill="#F3E6FF"/>
<g filter="url(#filter0_dd_4869_9196)">
<path fill-rule="evenodd" clip-rule="evenodd" d="M54.0675 9.10227L54.0675 61.9181C54.0675 62.0279 53.9784 62.117 53.8686 62.117L16.978 62.117C16.8682 62.117 16.7791 62.0279 16.7791 61.9181L16.7791 9.10227C16.7791 8.99243 16.8682 8.90332 16.978 8.90332L53.8686 8.90332C53.9784 8.90332 54.0675 8.99243 54.0675 9.10227Z" fill="#470890"/>
</g>
<path d="M45.6824 53.9583C46.0745 53.9583 46.4522 54.0972 46.7302 54.345C47.0082 54.5928 47.1618 54.9292 47.1619 55.2795C47.1619 55.6299 47.0081 55.9663 46.7302 56.2141C46.4522 56.4619 46.0745 56.6008 45.6824 56.6008H24.9197C24.5275 56.6008 24.1497 56.4619 23.8767 56.2141C23.5989 55.9663 23.4402 55.6299 23.4402 55.2795C23.4403 54.9292 23.5988 54.5927 23.8767 54.345C24.1497 54.0971 24.5275 53.9583 24.9197 53.9583H45.6824Z" fill="#992BFF"/>
<path d="M45.6824 49.5823C46.0745 49.5823 46.4522 49.7212 46.7302 49.969C47.0082 50.2168 47.1618 50.5531 47.1619 50.9036C47.1619 51.254 47.0081 51.5903 46.7302 51.8381C46.4522 52.0859 46.0745 52.2249 45.6824 52.2249H24.9197C24.5275 52.2249 24.1497 52.0859 23.8767 51.8381C23.5988 51.5903 23.4402 51.2539 23.4402 50.9036C23.4402 50.5532 23.5988 50.2168 23.8767 49.969C24.1497 49.7212 24.5275 49.5823 24.9197 49.5823H45.6824Z" fill="#992BFF"/>
<path d="M19.7938 27.3516C23.9719 27.4985 27.3142 31.0033 27.3143 35.3047C27.3143 39.6062 23.972 43.1119 19.7938 43.2588V27.3516Z" fill="#F59C2F"/>
<path d="M43.1571 35.5791C47.369 35.5791 50.8013 38.9917 50.9452 43.2588H35.37C35.5139 38.9918 38.9453 35.5791 43.1571 35.5791Z" fill="#F59C2F"/>
<path d="M35.37 43.2588C31.1918 43.1119 27.8495 39.6062 27.8495 35.3047C27.8496 31.0033 31.1919 27.4985 35.37 27.3516V43.2588Z" fill="#F59C2F"/>
<path d="M50.9452 27.3516C50.8013 31.6186 47.3698 35.0322 43.1571 35.0322C38.9461 35.0322 35.5139 31.6186 35.37 27.3516H50.9452Z" fill="#F59C2F"/>
<path d="M27.5819 19.6719C31.7929 19.6719 35.226 23.0846 35.37 27.3516H19.7938C19.9378 23.0847 23.3694 19.6721 27.5819 19.6719Z" fill="#F59C2F"/>
<path d="M35.37 11.4443C39.548 11.5914 42.8894 15.0963 42.8895 19.3984C42.8895 23.699 39.5481 27.2045 35.37 27.3516V11.4443Z" fill="#F59C2F"/>
<path d="M50.9452 27.3516C46.7671 27.2045 43.4257 23.699 43.4257 19.3984C43.4258 15.0963 46.7672 11.5914 50.9452 11.4443V27.3516Z" fill="#F59C2F"/>
<path d="M35.37 11.4443C35.2261 15.7114 31.7938 19.125 27.5819 19.125C23.3702 19.1248 19.9377 15.7113 19.7938 11.4443H35.37Z" fill="#F59C2F"/>
<defs>
<filter id="filter0_dd_4869_9196" x="15.6471" y="7.77137" width="42.2832" height="58.2083" filterUnits="userSpaceOnUse" color-interpolation-filters="sRGB">
<feFlood flood-opacity="0" result="BackgroundImageFix"/>
<feColorMatrix in="SourceAlpha" type="matrix" values="0 0 0 0 0 0 0 0 0 0 0 0 0 0 0 0 0 0 127 0" result="hardAlpha"/>
<feOffset dx="3.09021" dy="3.09021"/>
<feGaussianBlur stdDeviation="0.386277"/>
<feColorMatrix type="matrix" values="0 0 0 0 0.25098 0 0 0 0 0.341176 0 0 0 0 0.427451 0 0 0 0.3 0"/>
<feBlend mode="normal" in2="BackgroundImageFix" result="effect1_dropShadow_4869_9196"/>
<feColorMatrix in="SourceAlpha" type="matrix" values="0 0 0 0 0 0 0 0 0 0 0 0 0 0 0 0 0 0 127 0" result="hardAlpha"/>
<feOffset/>
<feGaussianBlur stdDeviation="0.565973"/>
<feComposite in2="hardAlpha" operator="out"/>
<feColorMatrix type="matrix" values="0 0 0 0 0 0 0 0 0 0 0 0 0 0 0 0 0 0 0.25 0"/>
<feBlend mode="normal" in2="effect1_dropShadow_4869_9196" result="effect2_dropShadow_4869_9196"/>
<feBlend mode="normal" in="SourceGraphic" in2="effect2_dropShadow_4869_9196" result="shape"/>
</filter>
</defs>
</svg>
