<svg width="72" height="72" viewBox="0 0 72 72" fill="none" xmlns="http://www.w3.org/2000/svg">
<rect width="72" height="72" rx="36" fill="#F3E6FF"/>
<g filter="url(#filter0_dd_4891_778)">
<path d="M36.5624 11.6489C49.2473 11.6489 59.5952 21.6466 60.1611 34.1918L46.7083 56.6149C43.6342 58.079 40.1942 58.9 36.5624 58.9C23.5149 58.9 12.9377 48.3225 12.9374 35.275C12.9374 22.2273 23.5147 11.6489 36.5624 11.6489Z" fill="#470890"/>
</g>
<path d="M54.5793 34.4346C54.3164 34.3321 54.0277 34.2456 53.6429 34.1541C53.3279 34.0789 52.9943 34.0125 52.6231 33.951C52.333 33.9027 52.0212 33.8549 51.7112 33.8331C51.6527 33.829 51.5902 33.8253 51.5286 33.8253C51.5145 33.8253 51.5005 33.8258 51.486 33.8262C51.3971 33.8285 51.3074 33.8417 51.2204 33.854L51.1986 33.8572C51.0196 33.8827 50.8396 33.9219 50.6656 33.9592L50.6253 33.9678C50.5518 33.9838 50.4784 33.9997 50.4055 34.0157C50.0211 34.0994 49.6241 34.1864 49.2275 34.242C49.0041 34.2706 48.8232 34.2838 48.6587 34.2838C48.5572 34.2838 48.4634 34.2788 48.3718 34.2688C48.273 34.2529 48.1851 34.2306 48.1039 34.2005C48.0623 34.1805 48.0233 34.1582 47.9879 34.134C47.9644 34.1131 47.9421 34.0908 47.9222 34.068C47.9204 34.0653 47.9186 34.0626 47.9168 34.0598L47.914 34.0562C47.9326 34.0202 47.9557 33.9833 47.9843 33.9437C48.1434 33.7475 48.3455 33.5795 48.5395 33.4274C48.9229 33.1328 49.3349 32.8664 49.7224 32.6228C50.1562 32.3505 50.6357 32.0655 51.1886 31.7522C51.6827 31.4717 52.1794 31.199 52.6603 30.9354L52.7822 30.8684C53.1416 30.6713 53.5133 30.4677 53.8749 30.2601C54.0132 30.1813 54.1754 30.0866 54.3331 29.9869C54.4433 29.9172 54.5593 29.8417 54.6622 29.7497C54.7379 29.6814 54.7701 29.5589 54.7406 29.4514C54.7057 29.3253 54.5829 29.2265 54.4605 29.2265C54.4555 29.2265 54.451 29.2265 54.446 29.227C53.991 29.2543 53.5146 29.349 52.9014 29.5339C52.7822 29.5698 52.663 29.6067 52.5438 29.6436C52.1785 29.7574 51.8014 29.8749 51.4211 29.9559C50.9679 30.0525 50.4852 30.1394 49.8548 30.2387C49.3712 30.3147 48.8545 30.3908 48.2757 30.4705C47.8053 30.5351 47.381 30.5943 46.9487 30.6617C46.7057 30.6999 46.49 30.735 46.2888 30.7692C46.2171 30.781 46.1455 30.7937 46.0735 30.807C45.938 30.8311 45.7979 30.8561 45.6597 30.8757C45.6352 30.8789 45.6112 30.8816 45.5867 30.8844C45.5808 30.8616 45.5754 30.8375 45.5708 30.8129C45.5672 30.7705 45.5663 30.7323 45.5681 30.6959C45.5754 30.6626 45.5849 30.6294 45.5967 30.5966C45.6257 30.5369 45.661 30.4782 45.7045 30.4172C45.8618 30.2264 46.049 30.0698 46.2113 29.9418C46.3572 29.8307 46.5108 29.7246 46.66 29.6217C46.8952 29.4601 47.1381 29.2925 47.3566 29.1008C47.7767 28.7311 48.113 28.2758 48.4384 27.835C48.5286 27.7134 48.6215 27.5873 48.7149 27.4648C48.7865 27.3724 48.8735 27.264 48.9705 27.1616C49.058 27.0696 49.1559 26.9808 49.2701 26.8902C49.4745 26.7354 49.6939 26.5961 49.9064 26.4617C49.9998 26.4021 50.0963 26.3406 50.1902 26.2787C50.4558 26.1043 50.7961 25.8644 51.0731 25.552C51.1565 25.4577 51.2394 25.3521 51.3418 25.2087C51.432 25.083 51.5064 24.9678 51.5693 24.8567C51.6414 24.7297 51.6944 24.6131 51.7302 24.5011C51.7683 24.3841 51.776 24.2748 51.7543 24.1769C51.7271 24.0581 51.6301 23.9615 51.4878 23.9128C51.4116 23.8864 51.326 23.8832 51.2521 23.8832H51.2453C51.1388 23.8837 51.0422 23.8964 50.9584 23.9219C50.8528 23.9543 50.7531 24.0039 50.6688 24.049C50.5772 24.0977 50.4911 24.1519 50.395 24.2129C50.3642 24.2329 50.3329 24.2529 50.3017 24.2739C50.1766 24.3549 50.0474 24.4392 49.9101 24.5025C49.7424 24.5676 49.5647 24.6104 49.3929 24.6518L49.3236 24.6682C49.1505 24.7101 48.9714 24.7529 48.7987 24.808C48.6052 24.8699 48.4208 24.9514 48.2503 25.0507C48.1085 25.1331 47.9657 25.236 47.7871 25.3844C47.5478 25.5843 47.3312 25.8179 47.1222 26.0438L47.0651 26.1052C46.8458 26.342 46.6096 26.5906 46.3454 26.8001C45.9438 27.106 45.6211 27.3055 45.3003 27.4462C45.1607 27.5031 45.0347 27.5404 44.9159 27.5605C44.8815 27.5641 44.8479 27.5655 44.8158 27.5655C44.7926 27.5655 44.77 27.5646 44.7478 27.5632C44.7179 27.5573 44.6884 27.5495 44.6603 27.5395C44.6408 27.5299 44.6222 27.519 44.605 27.5076C44.5873 27.4917 44.571 27.4749 44.5551 27.4566C44.5438 27.4398 44.5334 27.4229 44.5248 27.4061C44.5189 27.3879 44.5135 27.3683 44.5094 27.3483C44.5067 27.31 44.5076 27.27 44.5112 27.2267C44.527 27.1365 44.5551 27.0418 44.5964 26.9376C44.6662 26.7796 44.7559 26.6188 44.8874 26.4176C44.9844 26.2687 45.0945 26.1152 45.2432 25.9204C45.2781 25.8757 45.313 25.8311 45.3478 25.786C45.4616 25.6408 45.5785 25.4905 45.6878 25.3375L45.7902 25.1941C45.9624 24.9523 46.141 24.7028 46.3119 24.4537C46.7986 23.7462 47.1916 23.0746 47.5125 22.4016C47.6879 22.0341 47.8293 21.6976 47.944 21.3725C48.0677 21.0228 48.1484 20.7059 48.1905 20.4031L48.1964 20.3599L48.1978 20.3485C48.1978 20.3112 48.1882 20.2761 48.1697 20.2442C48.1429 20.1982 48.0981 20.1636 48.0468 20.1495C48.0292 20.1445 48.011 20.1422 47.9929 20.1422C47.9562 20.1422 47.9204 20.1518 47.8891 20.1705C47.8624 20.1859 47.8361 20.2105 47.8184 20.236C47.5501 20.3435 47.2927 20.5152 47.0089 20.777C46.7755 20.9914 46.5625 21.2337 46.3567 21.4677C46.3191 21.5105 46.2815 21.5533 46.2439 21.5952C46.1464 21.7058 46.0168 21.8506 45.8795 21.9913C45.7657 22.1079 45.6429 22.2194 45.5246 22.3274C45.4956 22.3533 45.4666 22.3797 45.4376 22.4061C45.2626 22.5664 45.0863 22.7258 44.91 22.8851C44.731 23.0468 44.552 23.2089 44.3743 23.3714C44.2406 23.4939 44.1065 23.6146 43.9723 23.7357C43.8422 23.8532 43.7126 23.9702 43.5839 24.0877C43.3903 24.2643 43.1959 24.4465 43.0083 24.6227C42.933 24.6928 42.8583 24.7629 42.783 24.8335C42.4939 25.103 42.2351 25.348 41.9926 25.5825C41.8553 25.715 41.7265 25.8366 41.5987 25.9545C41.5171 26.0296 41.4328 26.1075 41.3436 26.179C41.247 26.2514 41.1523 26.3088 41.0548 26.3538C41.0462 26.357 41.0376 26.3602 41.0286 26.3634C41.0132 26.1822 41.0345 25.9946 41.0576 25.8184C41.1088 25.4455 41.184 25.0448 41.2878 24.5935C41.3494 24.324 41.4215 24.0521 41.4913 23.789C41.5203 23.6779 41.5498 23.5668 41.5788 23.4557C41.6042 23.3559 41.6214 23.274 41.6323 23.1966L41.6363 23.1693C41.644 23.1155 41.6518 23.0604 41.6536 23.0053C41.654 22.9867 41.6531 22.968 41.6527 22.9493L41.6522 22.9425C41.6495 22.8851 41.6463 22.8282 41.6436 22.7713L41.64 22.7057L41.6395 22.7012C41.6164 22.26 41.5924 21.8042 41.6454 21.3571C41.6857 21.0834 41.756 20.7929 41.8589 20.4692C41.9151 20.2916 41.9803 20.114 42.0433 19.9419L42.0538 19.9137C42.1213 19.7293 42.1784 19.5362 42.2287 19.3231C42.274 19.1305 42.3089 18.9238 42.3357 18.6906C42.3592 18.4876 42.3656 18.2822 42.3543 18.0796C42.3425 17.8597 42.3098 17.6438 42.2582 17.4389C42.2074 17.2381 42.1317 17.0323 42.0334 16.827C41.9976 16.7528 41.9078 16.7145 41.8371 16.7145C41.7569 16.7145 41.6799 16.7587 41.6413 16.827C41.4202 17.2218 41.2289 17.6402 41.044 18.045L41.0299 18.0769C40.9502 18.2513 40.8445 18.4803 40.7335 18.7057C40.6556 18.8632 40.5504 19.0695 40.4276 19.2657C40.3242 19.4319 40.2087 19.5936 40.0967 19.7502C39.9993 19.8859 39.8991 20.0266 39.8067 20.1696C39.576 20.5274 39.4241 20.8917 39.3561 21.2532C39.3045 21.5283 39.285 21.8115 39.2664 22.0856C39.2537 22.2709 39.2406 22.463 39.2175 22.6502C39.1812 22.9006 39.1264 23.1164 39.0493 23.3109C38.9872 23.4507 38.9102 23.5813 38.8154 23.7106C38.7039 23.8504 38.5852 23.9729 38.4633 24.0754C38.4515 24.0262 38.4415 23.9775 38.4329 23.9319C38.4143 23.8354 38.3994 23.7371 38.3844 23.6419C38.3799 23.6109 38.3749 23.5795 38.3699 23.5481C38.3495 23.4183 38.3264 23.279 38.2947 23.1397C38.2661 23.0145 38.2249 22.8911 38.1845 22.7718C38.1718 22.7349 38.1592 22.6975 38.1469 22.6602C38.0168 22.2636 37.9058 21.8506 37.8156 21.4326C37.7707 21.2218 37.7304 21.0092 37.6932 20.8097L37.6787 20.731C37.6429 20.5397 37.6058 20.3421 37.5736 20.1468C37.5713 20.1331 37.5695 20.1195 37.5672 20.1058C37.5487 19.9478 37.5391 19.7857 37.5296 19.6295L37.5242 19.5348C37.5178 19.4365 37.5129 19.3377 37.5079 19.2393C37.4988 19.0695 37.4897 18.8942 37.4757 18.7221C37.4344 18.2098 37.3714 17.6179 37.1457 17.0824C37.0886 16.9467 37.0188 16.832 36.9327 16.7309C36.8946 16.6863 36.8484 16.6435 36.7922 16.6007C36.7646 16.5797 36.7337 16.5611 36.6988 16.5433C36.7066 16.5124 36.6952 16.4723 36.6717 16.4486C36.654 16.4308 36.6254 16.4199 36.5973 16.4199C36.5697 16.4199 36.5466 16.4304 36.5321 16.4486C36.3367 16.7022 36.194 17.0187 36.0965 17.4153C36.0503 17.6033 36.0208 17.7968 35.9982 17.9617C35.9705 18.1606 35.9533 18.361 35.9379 18.549C35.9157 18.825 35.8844 19.1045 35.8545 19.375C35.8386 19.5162 35.8228 19.6573 35.8083 19.7985C35.7579 20.2852 35.7131 20.7756 35.6677 21.2778C35.6319 21.6758 35.5998 22.035 35.5644 22.4011L35.5599 22.4503C35.5282 22.7818 35.4955 23.1242 35.4525 23.4598C35.4226 23.6742 35.3845 23.9019 35.3292 24.1969C35.2712 24.5066 35.2195 24.7593 35.166 24.9933C35.1488 25.0689 35.1311 25.1449 35.1139 25.2205C35.0731 25.3972 35.031 25.5802 34.9915 25.7605C34.9779 25.8238 34.9648 25.8871 34.9521 25.9504C34.8764 25.8712 34.8053 25.791 34.7423 25.7123C34.6176 25.5429 34.5079 25.3503 34.4155 25.1404C34.2999 24.8522 34.221 24.5544 34.144 24.2488C34.1349 24.2129 34.1259 24.1769 34.1172 24.1414C34.081 23.9971 34.0443 23.8482 33.999 23.7038C33.9418 23.5217 33.8689 23.3364 33.781 23.1533C33.6332 22.8437 33.4206 22.5792 33.252 22.3825C33.1723 22.2896 33.0884 22.1976 33.0068 22.1083L32.9484 22.0446L32.9257 22.0196C32.8758 21.9649 32.8255 21.9098 32.7752 21.8543L32.7494 21.8256C32.7272 21.8015 32.705 21.7773 32.6837 21.7523C32.6415 21.6899 32.603 21.6189 32.5631 21.5301C32.419 21.1699 32.3311 20.7843 32.2459 20.4113L32.2295 20.3408C32.215 20.2766 32.2005 20.2128 32.186 20.1486C32.0949 19.7466 32.0011 19.3313 31.8593 18.9361C31.7813 18.7184 31.6997 18.5354 31.6095 18.3756C31.566 18.2986 31.5134 18.2207 31.4455 18.1324C31.3938 18.065 31.3421 18.0095 31.2886 17.9621C31.1509 17.8415 31.0031 17.7622 30.849 17.7263C30.771 17.7085 30.6877 17.6989 30.6011 17.6989C30.5041 17.6989 30.4017 17.7108 30.2965 17.7331C30.2634 17.7404 30.2349 17.7613 30.2158 17.7927C30.195 17.8278 30.1882 17.8697 30.1982 17.907C30.205 17.9307 30.2167 17.9512 30.2335 17.9676C30.1954 18.4634 30.2739 18.962 30.35 19.4447C30.3717 19.5822 30.3944 19.7247 30.4139 19.8645C30.4429 20.0881 30.4592 20.2734 30.4656 20.4478C30.4701 20.5753 30.466 20.705 30.4624 20.8302C30.4606 20.8926 30.4588 20.9555 30.4579 21.0174C30.4547 21.2596 30.4588 21.5783 30.5209 21.8934C30.5784 22.1848 30.6999 22.4576 30.8114 22.6862C30.8635 22.7932 30.9197 22.9002 30.9745 23.004C31.0008 23.0541 31.0276 23.1046 31.0539 23.1551C31.1454 23.3323 31.2243 23.4985 31.295 23.6628C31.4563 24.0549 31.566 24.4433 31.6209 24.8171C31.6517 25.0675 31.6594 25.3139 31.6431 25.5497C31.4785 25.4719 31.3077 25.3758 31.1214 25.2551C30.9047 25.1149 30.6863 24.9601 30.4724 24.7962C29.928 24.3686 29.4544 23.8746 28.9776 23.3637C28.8883 23.2685 28.799 23.1734 28.7098 23.0782C28.5738 22.9339 28.4383 22.7891 28.3028 22.6438C28.2393 22.5751 28.1754 22.5063 28.1115 22.4371C27.8758 22.1821 27.6315 21.918 27.3827 21.6676C27.2345 21.5182 27.1089 21.3944 26.9775 21.2733C26.881 21.1845 26.7844 21.0957 26.687 21.0074L26.5429 20.8753C26.2646 20.6208 25.9795 20.384 25.6631 20.1227C25.6373 20.0967 25.6065 20.0789 25.5711 20.0685C25.553 20.0639 25.5344 20.0612 25.5158 20.0612C25.4973 20.0612 25.4791 20.0639 25.4605 20.0685C25.4256 20.0789 25.3944 20.0967 25.3685 20.1227L25.3522 20.1436L25.3359 20.165C25.3169 20.1973 25.3073 20.2328 25.3073 20.2706C25.3046 20.292 25.3019 20.3134 25.2992 20.3348L25.2947 20.3676L25.2965 20.3603V20.3581C25.286 20.4418 25.2811 20.5138 25.282 20.5844C25.2824 20.6599 25.2888 20.7424 25.301 20.843C25.3237 21.0279 25.3617 21.2091 25.4161 21.3958C25.5113 21.7209 25.6595 22.0587 25.883 22.4603C25.9709 22.6179 26.067 22.7809 26.1762 22.9584C26.2464 23.0727 26.3203 23.1875 26.3915 23.2981C26.4218 23.3455 26.4527 23.3933 26.483 23.4411C26.5982 23.6214 26.7196 23.8022 26.837 23.9766C26.9136 24.0899 26.9925 24.2074 27.0691 24.324C27.2349 24.5762 27.3818 24.8116 27.5173 25.0434C27.6832 25.3271 27.8391 25.6226 27.9769 25.8835C28.334 26.5606 28.5887 27.086 28.8013 27.5869C28.9028 27.8305 29.0329 28.1528 29.1381 28.4852C29.1662 28.5745 29.1915 28.6665 29.2156 28.7557L29.2251 28.7898C29.1947 28.7821 29.1625 28.7721 29.1304 28.7598C29.0642 28.7284 28.9985 28.6888 28.9296 28.6378C28.8371 28.5626 28.7451 28.4738 28.6409 28.3582C28.5756 28.2863 28.514 28.2093 28.4537 28.1351C28.4165 28.0891 28.3793 28.0431 28.3417 27.998C28.2606 27.902 28.1627 27.7909 28.0462 27.6925C27.9714 27.6297 27.9035 27.5796 27.8382 27.5395C27.7466 27.484 27.6456 27.4416 27.5481 27.4006L27.5277 27.392C27.3528 27.3182 27.1751 27.2608 26.978 27.1985C26.7776 27.1352 26.5755 27.0805 26.3783 27.0364L26.3434 27.0286C25.9972 26.9512 25.6391 26.8711 25.3028 26.74C25.2466 26.7113 25.1936 26.6726 25.1424 26.6352C25.1301 26.6257 25.1174 26.617 25.1052 26.6079C24.9973 26.531 24.8895 26.4504 24.7848 26.373L24.7032 26.3129C24.2713 25.9928 23.9114 25.7405 23.5697 25.5188C23.0988 25.2123 22.6641 24.9792 22.2403 24.8057C22.1424 24.7652 22.0518 24.7342 21.9625 24.7101C21.8497 24.6791 21.735 24.6641 21.628 24.6523C21.5859 24.6477 21.5424 24.6454 21.5002 24.6454C21.4712 24.6454 21.4422 24.6464 21.4136 24.6482C21.3434 24.6536 21.2518 24.6637 21.1698 24.6955C21.0592 24.7379 20.9835 24.7861 20.9251 24.8508C20.8911 24.8881 20.8634 24.9264 20.8417 24.9642C20.8249 24.9942 20.8118 25.0261 20.7986 25.0589C20.7977 25.0607 20.7963 25.063 20.7954 25.0648C20.7469 25.1386 20.7469 25.2519 20.7954 25.3298C20.8729 25.4541 20.9858 25.5538 21.095 25.6508L21.1 25.6554C21.2174 25.7592 21.3438 25.8552 21.4531 25.9372C21.551 26.011 21.6525 26.0829 21.7499 26.153C21.8619 26.2327 21.9775 26.3156 22.0885 26.4003C22.3255 26.587 22.505 26.7609 22.6537 26.9467C22.7575 27.0851 22.8563 27.2313 22.9519 27.3733C23.184 27.7171 23.4242 28.0732 23.7541 28.34C23.9032 28.4611 24.0519 28.5604 24.2083 28.6432C24.3438 28.7147 24.4829 28.7766 24.5894 28.8226C24.7354 28.8855 24.8858 28.9451 25.0313 29.0025C25.1446 29.0476 25.2625 29.094 25.3771 29.1423C25.587 29.2329 25.8589 29.3595 26.1032 29.5389C26.2143 29.6295 26.3171 29.7328 26.4087 29.8448C26.5061 29.9796 26.5918 30.1308 26.6702 30.3075C26.697 30.3758 26.7164 30.4368 26.73 30.4941C26.7119 30.4982 26.6929 30.5028 26.672 30.5064C26.6122 30.5124 26.5478 30.5151 26.4817 30.5151C26.3625 30.5151 26.2338 30.506 26.0778 30.4859C26.0117 30.4768 25.946 30.4664 25.8802 30.4559C25.8145 30.4454 25.7483 30.4349 25.6826 30.4254C25.5131 30.4013 25.3432 30.3799 25.1773 30.3621C24.8981 30.332 24.6057 30.3093 24.283 30.292C23.9671 30.2751 23.6426 30.2656 23.3634 30.2583C23.3068 30.2565 23.2501 30.2555 23.1935 30.2542C23.0911 30.2519 22.9886 30.2492 22.8866 30.2455C22.7688 30.2414 22.6405 30.2305 22.4937 30.2118C22.1719 30.1658 21.8487 30.0957 21.5365 30.0279C21.2641 29.9687 20.9822 29.9077 20.7021 29.8626C20.3753 29.8102 20.1233 29.787 19.8858 29.787C19.8427 29.787 19.8001 29.7879 19.7584 29.7893C19.6751 29.7925 19.5908 29.8016 19.5096 29.8102C19.4407 29.8175 19.37 29.8248 19.3002 29.8289L19.2626 29.8312C19.0958 29.8412 18.9236 29.8512 18.7573 29.8867C18.6589 29.9077 18.5696 29.9974 18.5402 30.1048C18.5112 30.2109 18.5415 30.327 18.6204 30.4085C18.7219 30.5137 18.8411 30.6194 18.9966 30.7414C19.1538 30.8648 19.3061 30.9727 19.4616 31.071C19.7317 31.2422 20.0394 31.4048 20.4016 31.5692C20.969 31.8255 21.5641 32.0391 22.1402 32.2453C22.2671 32.2909 22.394 32.3364 22.5204 32.3824C22.8005 32.4839 23.1695 32.6201 23.5388 32.7753C23.7872 32.8814 24.0057 32.9843 24.2074 33.09L24.2296 33.1018C24.2799 33.1282 24.332 33.1555 24.385 33.1797C24.4702 33.2179 24.5573 33.2534 24.6307 33.2826C24.7753 33.3413 24.9239 33.3982 25.0671 33.4533C25.2589 33.5271 25.4574 33.6031 25.6504 33.6837C25.7869 33.7425 25.9668 33.8208 26.1445 33.9123C26.3045 33.9947 26.4228 34.0653 26.5265 34.1422C26.5614 34.1709 26.5909 34.1978 26.6167 34.2251C26.5696 34.2397 26.5184 34.2515 26.4599 34.2611C26.3675 34.2711 26.27 34.2761 26.1621 34.2761C25.9976 34.2761 25.8308 34.2643 25.6876 34.2533C25.5906 34.2456 25.4923 34.236 25.3971 34.2269C25.2412 34.2119 25.0803 34.1964 24.9217 34.1891C24.899 34.1882 24.8759 34.1878 24.8528 34.1878C24.7168 34.1878 24.5835 34.2046 24.4584 34.2215C24.2753 34.2465 24.0873 34.2889 23.8838 34.3512C23.6154 34.4332 23.3526 34.5429 23.0983 34.649C23.004 34.6882 22.9066 34.7287 22.8105 34.7669C22.5485 34.8721 22.2005 34.9996 21.8293 35.057C21.6942 35.0725 21.5501 35.0802 21.3892 35.0802C21.2038 35.0802 21.0184 35.0702 20.8453 35.0588C20.7941 35.0556 20.7424 35.052 20.6912 35.0488C20.4895 35.0347 20.281 35.021 20.0757 35.021C20.0095 35.021 19.9479 35.0219 19.8872 35.0251C19.7086 35.0338 19.5314 35.057 19.3614 35.0943C19.1996 35.1303 19.0324 35.1895 18.8357 35.2806C18.7033 35.342 18.58 35.4217 18.4608 35.4991C18.421 35.5246 18.3811 35.5506 18.3407 35.5756C18.3022 35.6002 18.2632 35.6239 18.2243 35.6476C18.0987 35.7245 17.9691 35.8037 17.8503 35.8957C17.8109 35.9189 17.7792 35.9513 17.7561 35.9909C17.7203 36.0519 17.7103 36.1261 17.7293 36.1949C17.7416 36.239 17.7647 36.2786 17.7973 36.3114C17.844 36.3588 17.9034 36.3834 17.9836 36.3893C18.0217 36.3916 18.0597 36.3947 18.0978 36.3975C18.2061 36.4052 18.3185 36.4134 18.4296 36.4175C18.4826 36.4198 18.5365 36.4266 18.5891 36.433C18.6072 36.4353 18.6254 36.4375 18.6435 36.4398C18.7097 36.4476 18.7754 36.4558 18.8407 36.4644C19.6134 36.5705 20.4215 36.7463 21.3103 37.0017C21.3642 37.0167 21.4182 37.0327 21.4717 37.0486C21.6394 37.0982 21.8125 37.1492 21.9865 37.1861C22.2009 37.2312 22.4348 37.2612 22.7022 37.279C22.8608 37.2899 23.0285 37.2949 23.2148 37.2949C23.4758 37.2949 23.7269 37.2854 24.0279 37.2726C24.2436 37.2635 24.4335 37.259 24.608 37.259C24.9443 37.259 25.2425 37.2754 25.5186 37.3095C25.6319 37.3268 25.747 37.3491 25.8603 37.376C25.8372 37.4151 25.8122 37.4538 25.7832 37.4935C25.698 37.5991 25.5942 37.7006 25.4655 37.8031C25.0857 38.0908 24.6538 38.2921 24.3202 38.4351C23.8788 38.6199 23.4183 38.777 22.9732 38.9287L22.7851 38.9933L22.7493 39.0051C22.2843 39.1645 21.8034 39.3293 21.3416 39.5206C21.1535 39.598 20.9536 39.684 20.7655 39.786C20.6948 39.8243 20.6282 39.8662 20.5548 39.9135C20.4968 39.9504 20.4387 39.9878 20.3807 40.0251C20.3263 40.0601 20.272 40.0952 20.2176 40.1298C19.9234 40.3183 19.6796 40.4804 19.4457 40.6603C19.2345 40.8224 19.0174 40.9999 18.8765 41.2299C18.8656 41.2472 18.8561 41.2663 18.8475 41.2845L18.8452 41.2895C18.8153 41.3505 18.8085 41.4043 18.823 41.458C18.8425 41.5295 18.8969 41.5837 18.9753 41.6105C19.1819 41.6811 19.4131 41.7153 19.6828 41.7153C19.7915 41.7153 19.9076 41.7098 20.0372 41.6989C20.3739 41.6693 20.7379 41.5996 21.182 41.479C21.4005 41.4193 21.6203 41.3524 21.8333 41.2877C21.9824 41.2426 22.1365 41.1957 22.2884 41.1516C22.4674 41.1001 22.6424 41.0546 22.8096 41.0159C22.9728 40.9781 23.1477 40.9471 23.3779 40.9148C23.8194 40.8579 24.2708 40.8251 24.7068 40.7937C25.0694 40.7673 25.4447 40.7404 25.8122 40.6994L25.8539 40.6949C25.9917 40.6794 26.134 40.6639 26.2718 40.6357C26.3711 40.6152 26.4712 40.5888 26.5678 40.5633L26.6222 40.5492L26.6303 40.5469C26.8728 40.4836 27.1234 40.418 27.3754 40.3802C27.4566 40.3707 27.5236 40.3666 27.5866 40.3666C27.6206 40.3666 27.6537 40.368 27.685 40.3707C27.7108 40.3757 27.7344 40.3816 27.7575 40.3889C27.7747 40.3985 27.7929 40.4098 27.8128 40.4235C27.8287 40.4376 27.8423 40.4504 27.8536 40.4627C27.8504 40.4677 27.8473 40.4731 27.8436 40.4781C27.811 40.5159 27.7716 40.5533 27.7235 40.5929C27.5209 40.7427 27.2911 40.8588 27.0691 40.9713L27.0337 40.989C26.9866 41.0132 26.9385 41.0368 26.8905 41.0605C26.7069 41.1516 26.517 41.2454 26.348 41.3642C26.2909 41.4043 26.2424 41.4425 26.2007 41.4808C26.125 41.5504 26.0574 41.6319 25.9922 41.7112L25.984 41.7212C25.8517 41.8815 25.7279 42.0577 25.6051 42.2598C25.5399 42.3673 25.4769 42.4784 25.4161 42.5859C25.2965 42.7971 25.1732 43.0152 25.0263 43.2147C24.8963 43.3763 24.7571 43.517 24.6012 43.6436C24.5074 43.7123 24.4081 43.7756 24.3116 43.8366C24.2821 43.8553 24.2522 43.8744 24.2228 43.8936C24.0968 43.9746 23.9658 44.0657 23.8094 44.1809C23.5733 44.3548 23.2982 44.5656 23.0471 44.8106C22.8128 45.0383 22.6093 45.2896 22.442 45.5573C22.3618 45.6862 22.2888 45.831 22.2068 46.0281C22.1429 46.1807 22.0903 46.3419 22.0459 46.5208C22.0282 46.5928 22.0377 46.6647 22.0726 46.7248C22.1184 46.804 22.2014 46.8514 22.3002 46.8555C22.3097 46.8564 22.3197 46.8564 22.3296 46.8564C22.3958 46.8564 22.4629 46.8473 22.5272 46.8382L22.5399 46.8364C22.6274 46.8245 22.7131 46.8017 22.8005 46.7781C23.0226 46.7171 23.2429 46.6287 23.4314 46.5504C23.8842 46.3633 24.3297 46.1452 24.7476 45.9375C24.9062 45.8592 25.0649 45.7804 25.224 45.7026C25.5072 45.5633 25.756 45.3743 25.9831 45.1903C26.2011 45.0137 26.4082 44.8174 26.609 44.6276C26.8198 44.4277 27.0382 44.2205 27.2698 44.0361C27.4357 43.9122 27.6021 43.8071 27.7779 43.7146C27.9352 43.6317 28.102 43.5521 28.2742 43.4778C28.4482 43.405 28.635 43.3317 28.8303 43.2966C28.8416 43.2957 28.853 43.2953 28.8639 43.2948C28.8652 43.2975 28.8666 43.2998 28.8679 43.3025C28.872 43.3153 28.8752 43.329 28.8784 43.3422C28.8802 43.3786 28.8797 43.4164 28.8765 43.4574C28.8571 43.5657 28.8231 43.6782 28.7696 43.8121C28.6957 43.9805 28.6046 44.1554 28.4822 44.363C28.4301 44.4513 28.3748 44.5392 28.3213 44.6244C28.2796 44.6908 28.2361 44.7596 28.1949 44.8284C28.1609 44.8844 28.1274 44.9431 28.0947 44.9991C28.0675 45.0469 28.0399 45.0947 28.0113 45.1421C27.9225 45.2914 27.83 45.4389 27.7435 45.5765C27.6501 45.7249 27.5558 45.8729 27.462 46.0204C27.3677 46.1684 27.2739 46.3159 27.1806 46.4643C26.9834 46.7772 26.8143 47.0636 26.6639 47.339C26.493 47.6528 26.3407 47.9783 26.212 48.3057C26.0883 48.6208 25.9931 48.9527 25.9287 49.2929C25.9151 49.3657 25.8997 49.444 25.8784 49.5223C25.8703 49.5515 25.8621 49.5802 25.8535 49.6093C25.8399 49.6571 25.8254 49.7067 25.8136 49.7564C25.7769 49.9144 25.7832 50.076 25.8326 50.2358C25.8512 50.295 25.8866 50.3415 25.9355 50.3706C25.9709 50.3907 26.009 50.4011 26.0488 50.4011C26.0892 50.4011 26.1268 50.3907 26.1617 50.3706C26.2913 50.3105 26.4286 50.244 26.5574 50.1671C26.7142 50.0728 26.861 49.9617 26.9834 49.8657C27.2363 49.6676 27.4792 49.4431 27.7271 49.179C28.1722 48.7046 28.577 48.1805 28.9685 47.6732L29.0764 47.5335C29.2749 47.2776 29.487 47.0053 29.7123 46.7403C29.8551 46.5718 30.0155 46.3951 30.2022 46.2007C30.5802 45.8069 30.8762 45.5113 31.1617 45.2436C31.4255 44.9964 31.6476 44.8033 31.8611 44.6353C32.0097 44.5219 32.1874 44.394 32.38 44.3038C32.4176 44.2897 32.4521 44.2792 32.4847 44.2719C32.4861 44.2719 32.4874 44.2719 32.4892 44.2719L32.4956 44.2738C32.4983 44.2751 32.5006 44.2765 32.5028 44.2779C32.5037 44.2801 32.5042 44.2829 32.5047 44.2851C32.506 44.3129 32.5051 44.3412 32.5028 44.3717C32.4815 44.4828 32.4462 44.5966 32.3882 44.7405C32.351 44.8252 32.3102 44.9103 32.2703 44.9923C32.23 45.0765 32.1878 45.1639 32.1498 45.2509C32.0977 45.3702 32.0419 45.489 31.988 45.6047C31.9 45.7918 31.8094 45.9849 31.7337 46.1811C31.6122 46.4958 31.5579 46.8304 31.5769 47.1487C31.586 47.3012 31.6213 47.4602 31.6843 47.6341C31.7269 47.7502 31.7777 47.8654 31.8271 47.9765C31.8434 48.0134 31.8593 48.0507 31.8756 48.0876C31.9309 48.226 31.9653 48.3362 31.9866 48.4446C31.9939 48.5375 31.992 48.6331 31.9816 48.7355C31.9562 48.8844 31.9127 49.0333 31.8497 49.1922C31.716 49.4927 31.5366 49.7819 31.3784 50.0364C31.1975 50.3274 31.0135 50.6452 30.888 50.9981C30.8359 51.1451 30.8014 51.31 30.7801 51.5162C30.7638 51.6729 30.7765 51.85 30.8186 52.0572C30.8399 52.161 30.8907 52.2634 30.9315 52.3454C30.975 52.4333 31.0312 52.5148 31.0897 52.5972C31.1712 52.7119 31.2619 52.823 31.3489 52.9305C31.3961 52.9883 31.445 53.0489 31.4917 53.1085C31.5415 53.1723 31.6422 53.2014 31.7151 53.2014C31.7718 53.2009 31.8253 53.1868 31.8742 53.1581C31.9213 53.1304 31.9599 53.0917 31.988 53.0443L32.0183 52.9737C32.0791 52.8339 32.1421 52.6887 32.2087 52.5489C32.283 52.3918 32.3587 52.2429 32.4498 52.0644C32.5613 51.8463 32.6778 51.6269 32.7911 51.4142C32.8455 51.3118 32.8999 51.2089 32.9543 51.106C33.1002 50.8291 33.2511 50.5309 33.4437 50.1384C33.5249 49.9736 33.591 49.8101 33.6459 49.6389C33.7374 49.3548 33.8118 49.0606 33.8838 48.7761C33.9106 48.6695 33.9378 48.563 33.9654 48.4569C34.0833 48.0075 34.1938 47.6036 34.3538 47.2115C34.4037 47.0959 34.4739 46.9447 34.5723 46.8077C34.6027 46.7708 34.6335 46.7389 34.6661 46.7098C34.6883 46.6952 34.7114 46.682 34.7364 46.6692C34.764 46.6597 34.7898 46.6515 34.8161 46.6451C34.8324 46.6934 34.8447 46.7448 34.8542 46.804C34.8673 46.9315 34.8678 47.0622 34.8682 47.1888C34.8682 47.2384 34.8687 47.2885 34.8696 47.3381C34.8719 47.446 34.8796 47.5476 34.8936 47.6487C34.9158 47.8071 34.958 47.9624 34.9965 48.0926C35.0541 48.2902 35.1302 48.4851 35.2036 48.6736C35.2431 48.7742 35.2839 48.8785 35.3215 48.9819C35.4248 49.2687 35.4991 49.5765 35.5485 49.9217C35.588 50.2313 35.6147 50.545 35.6274 50.8542L35.6329 50.9912C35.6446 51.2849 35.6569 51.5882 35.6809 51.886C35.7122 52.2671 35.7548 52.5985 35.811 52.8991C35.8418 53.063 35.8794 53.2214 35.9229 53.3708C35.9827 53.5766 36.0652 53.7742 36.131 53.924C36.1672 53.9859 36.2171 54.036 36.2787 54.0724C36.3422 54.1093 36.4124 54.1284 36.4863 54.1289C36.5602 54.1284 36.63 54.1093 36.6939 54.0724C36.7555 54.0356 36.8054 53.9859 36.8416 53.9245L36.8584 53.8853C36.9318 53.7146 37.0084 53.5383 37.0587 53.3571C37.0746 53.2984 37.0913 53.2396 37.1081 53.1809C37.1462 53.0475 37.1852 52.91 37.2192 52.7729C37.3234 52.3518 37.3964 51.926 37.4544 51.5654C37.5233 51.1365 37.5668 50.7103 37.6003 50.3501C37.6357 49.9681 37.6543 49.5793 37.6724 49.2027L37.676 49.1289C37.686 48.9108 37.6932 48.6886 37.7 48.4742C37.7073 48.2538 37.7145 48.0261 37.7254 47.8021C37.7485 47.3204 37.7843 46.8992 37.8351 46.5149C37.8709 46.2558 37.9117 46.0263 37.9588 45.8128C38.0114 45.5765 38.0712 45.3757 38.1424 45.199C38.1877 45.0965 38.2317 45.0164 38.2811 44.9454C38.3006 44.9226 38.321 44.9012 38.3418 44.8825C38.3495 44.8775 38.3572 44.873 38.3649 44.8684C38.3772 44.8771 38.3867 44.8871 38.3957 44.8976C38.4266 44.9426 38.4551 44.9945 38.4832 45.0565C38.5408 45.2054 38.5811 45.357 38.6169 45.5C38.6659 45.693 38.7048 45.8856 38.7397 46.065C38.7583 46.1634 38.7765 46.2622 38.7946 46.3605C38.8426 46.6228 38.892 46.8933 38.9605 47.1555C39.0058 47.3313 39.0602 47.4788 39.1264 47.6054C39.1368 47.6259 39.1495 47.6446 39.159 47.6591C39.1993 47.7206 39.2478 47.7784 39.2945 47.8344L39.3018 47.8431C39.3987 47.9592 39.5207 48.0539 39.6276 48.1336C39.8125 48.272 40.0215 48.3772 40.2232 48.4792C40.4135 48.5748 40.6107 48.6741 40.7874 48.8011C40.8677 48.868 40.9375 48.9372 41.0014 49.0128C41.0657 49.1043 41.1228 49.2063 41.1763 49.3252C41.3 49.6448 41.3562 49.9768 41.3921 50.2304C41.3984 50.2814 41.4047 50.3324 41.4111 50.3829C41.4333 50.5573 41.456 50.7376 41.485 50.9138C41.504 51.0299 41.5285 51.1451 41.557 51.2558C41.5869 51.3737 41.63 51.4971 41.693 51.6446C41.7877 51.8677 41.9255 52.0749 42.1023 52.2602C42.1934 52.3554 42.3085 52.4478 42.4644 52.5512C42.6112 52.6482 42.7762 52.716 42.9326 52.7775L42.9888 52.7852L43.0405 52.7921C43.113 52.7916 43.1819 52.7729 43.2444 52.7365C43.3051 52.7005 43.3536 52.6518 43.3894 52.5908C43.4257 52.528 43.4447 52.4592 43.4447 52.3859C43.4556 52.2056 43.4633 52.0148 43.4275 51.8336C43.4225 51.7635 43.4194 51.692 43.4166 51.6223C43.4157 51.5945 43.4144 51.5668 43.413 51.539C43.4062 51.3919 43.3999 51.2726 43.3926 51.1624C43.3831 51.0172 43.3704 50.8701 43.3577 50.7276C43.3482 50.6129 43.3378 50.4949 43.3292 50.3779C43.3246 50.3173 43.3205 50.2563 43.316 50.1958C43.3024 50.0018 43.2884 49.8019 43.2675 49.6057C43.2399 49.3438 43.2036 49.0889 43.1587 48.848C43.1243 48.6609 43.0776 48.4405 42.9924 48.2265C42.9063 48.0084 42.7912 47.7825 42.6307 47.5162C42.5582 47.396 42.4816 47.2753 42.4073 47.1587C42.2187 46.8614 42.0239 46.5545 41.8779 46.2267C41.8199 46.0787 41.7809 45.9444 41.7587 45.8164C41.7469 45.6866 41.7487 45.5469 41.7642 45.4012C41.7696 45.367 41.7764 45.336 41.7841 45.3055C41.8172 45.3256 41.8521 45.3479 41.8888 45.3747C41.9813 45.4512 42.0728 45.5396 42.1852 45.6621C42.2885 45.7741 42.3951 45.9007 42.5197 46.0609C42.643 46.223 42.7708 46.4011 42.9222 46.6219C42.9598 46.6765 42.9969 46.7316 43.0337 46.7863C43.0994 46.8833 43.1669 46.9839 43.2362 47.0809C43.316 47.192 43.3826 47.2735 43.4524 47.345C43.5277 47.4224 43.6156 47.4884 43.7013 47.5521L43.718 47.5649C43.8082 47.6327 43.9066 47.6892 43.9913 47.7356C44.121 47.8071 44.2587 47.8686 44.3915 47.9287C44.4427 47.9519 44.494 47.9747 44.5447 47.9984C44.7469 48.0917 44.9037 48.18 45.0383 48.2756C45.1095 48.3348 45.172 48.3977 45.2305 48.466C45.3343 48.613 45.419 48.7756 45.501 48.9327C45.5772 49.0784 45.6556 49.2291 45.7499 49.3675C45.8605 49.5301 46.001 49.6849 46.18 49.8402C46.3078 49.9508 46.4451 50.0542 46.5775 50.1543C46.606 50.1762 46.6346 50.1976 46.6631 50.219C46.8703 50.3829 47.062 50.5537 47.2324 50.7258C47.3176 50.8118 47.4327 50.8592 47.5564 50.8592C47.6806 50.8592 47.7962 50.8118 47.8819 50.7258C47.9376 50.6698 47.9784 50.5996 47.9997 50.5232C48.0169 50.4749 48.0224 50.4216 48.0156 50.3693C48.0074 50.2518 47.9576 50.1411 47.8814 50.0737C47.8733 50.066 47.8646 50.0587 47.856 50.051C47.8433 50.0264 47.8316 50.0013 47.8198 49.9758L47.8093 49.9544C47.7572 49.8433 47.7051 49.7322 47.6534 49.6202C47.5777 49.4581 47.503 49.2924 47.4304 49.1321L47.3593 48.9746C47.1716 48.5602 46.97 48.1199 46.7461 47.6933C46.6309 47.4734 46.5117 47.2621 46.3921 47.0654C46.3128 46.9352 46.233 46.8049 46.1528 46.6747L46.1174 46.6173C45.8741 46.2212 45.6171 45.7955 45.3846 45.3629C45.2563 45.1248 45.1321 44.8789 45.0156 44.6326C44.8982 44.3844 44.7713 44.1326 44.6594 43.9104L44.6118 43.8157C44.4962 43.5862 44.3766 43.3494 44.2737 43.109C44.1713 42.8609 44.1101 42.6551 44.0811 42.462C44.0716 42.3796 44.0702 42.3118 44.0761 42.248C44.0815 42.218 44.0888 42.1902 44.0978 42.1638C44.1006 42.1583 44.1037 42.1524 44.1069 42.1469C44.1432 42.1342 44.1781 42.1251 44.2134 42.1182C44.2306 42.1169 44.2483 42.116 44.2655 42.116C44.2828 42.116 44.3 42.1169 44.3172 42.1182C44.3548 42.1255 44.3915 42.1355 44.4301 42.1497C44.4795 42.1738 44.528 42.2029 44.5778 42.2394C44.6544 42.3013 44.7305 42.376 44.8112 42.4679C44.8837 42.5508 44.9581 42.641 45.0387 42.7443L45.0909 42.8131C45.2033 42.962 45.3197 43.1154 45.453 43.2506C45.5337 43.3326 45.6248 43.4068 45.7231 43.4719C45.8546 43.5589 46.0023 43.6195 46.1682 43.6841C46.4202 43.7825 46.6876 43.8448 46.9459 43.9054C47.2079 43.9669 47.4789 44.0302 47.7341 44.1308C47.8905 44.2018 48.0387 44.2883 48.1751 44.3876C48.423 44.592 48.6279 44.8457 48.8255 45.0911L48.8441 45.1134C48.9456 45.24 49.0553 45.3747 49.1727 45.5009C49.3036 45.6411 49.4559 45.7741 49.6263 45.8952C49.7786 46.0036 49.9581 46.0905 50.1603 46.1525C50.2817 46.1898 50.41 46.2066 50.5233 46.2217C50.6158 46.234 50.7123 46.2408 50.8197 46.2431C50.8478 46.244 50.8759 46.2444 50.904 46.2444C51.0132 46.2444 51.1238 46.2399 51.2308 46.2358C51.2865 46.2335 51.3414 46.2317 51.3967 46.2303C51.4619 46.228 51.5209 46.2276 51.5771 46.2276C51.7262 46.2276 51.8581 46.2335 51.9804 46.2472C52.0393 46.2467 52.0956 46.2317 52.1463 46.2021C52.2202 46.1584 52.275 46.0869 52.2977 46.0045C52.3367 45.8619 52.2719 45.7017 52.1463 45.6311C52.1182 45.6156 52.0878 45.6006 52.052 45.5847C51.9541 45.5286 51.8608 45.4599 51.7828 45.4002C51.5068 45.1821 51.2408 44.9208 50.9679 44.6021C50.7807 44.3826 50.6012 44.1504 50.4268 43.9259C50.3687 43.8503 50.3103 43.7747 50.2514 43.6996C50.0306 43.4173 49.7877 43.1181 49.5076 42.844C49.373 42.7129 49.2153 42.5799 49.0267 42.4379C48.8744 42.324 48.7086 42.2198 48.5336 42.1287C48.4257 42.0727 48.312 42.024 48.2023 41.9775L48.171 41.9639C48.0409 41.9083 47.8869 41.8423 47.7346 41.7713C47.3425 41.5891 47.0579 41.4261 46.8118 41.2426C46.7094 41.1593 46.6255 41.0783 46.5548 40.9949C46.5276 40.9553 46.5036 40.9157 46.4841 40.877C46.4778 40.8574 46.4719 40.8374 46.4669 40.8165C46.4664 40.8023 46.4664 40.7882 46.4669 40.7741C46.4696 40.7627 46.4723 40.7513 46.4755 40.74L46.4791 40.7368C46.5022 40.7217 46.5272 40.7076 46.5539 40.6949C46.6504 40.6594 46.7565 40.6339 46.8884 40.6134C47.0552 40.5938 47.2347 40.5842 47.4363 40.5842C47.5691 40.5842 47.7128 40.5883 47.8882 40.597C48.2671 40.6156 48.6687 40.6534 49.116 40.7126C49.9654 40.8292 50.865 40.9904 52.0321 41.2354C52.1907 41.2686 52.3498 41.3018 52.5084 41.3346C52.6431 41.3624 52.7777 41.3902 52.9123 41.4184C53.1475 41.4671 53.3977 41.5172 53.6778 41.5714C53.7385 41.5828 53.7992 41.5946 53.8604 41.6064C54.0512 41.6433 54.2484 41.6816 54.4437 41.7153C54.4696 41.7221 54.4963 41.7257 54.5221 41.7257C54.548 41.7257 54.5743 41.7221 54.6006 41.7153C54.674 41.6948 54.7383 41.6451 54.7764 41.5791C54.8571 41.4416 54.8095 41.2599 54.6708 41.1739C54.6545 41.1639 54.6386 41.1538 54.6219 41.1438C54.6064 41.1343 54.5892 41.1256 54.5661 41.1156C54.475 41.0646 54.3862 41.005 54.301 40.9476L54.2774 40.9316C54.2081 40.8852 54.1383 40.8388 54.0689 40.7923L53.9633 40.7213C53.7811 40.5988 53.5681 40.4563 53.3564 40.3174C52.9055 40.0219 52.5207 39.7833 52.111 39.578C51.9038 39.4741 51.6768 39.3762 51.4184 39.2788C51.1651 39.1836 50.9566 39.1081 50.7617 39.0402L50.6253 38.9933C50.4517 38.9332 50.2722 38.8708 50.0963 38.8062C49.8561 38.7183 49.6186 38.6218 49.4396 38.5475L49.4292 38.543L49.4183 38.5389C49.1097 38.4059 48.8395 38.2703 48.5916 38.1236C48.462 38.0462 48.3315 37.9615 48.1928 37.8646C48.1642 37.8441 48.1348 37.8227 48.1058 37.8022C48.0604 37.7689 48.0133 37.7352 47.9657 37.7029C47.8633 37.6332 47.7577 37.564 47.6562 37.4966C47.4218 37.3427 47.1798 37.1829 46.9527 37.0104C46.8784 36.9516 46.7819 36.8719 46.6949 36.7818C46.737 36.7718 46.7819 36.7627 46.8313 36.7549C46.9586 36.7403 47.0987 36.7335 47.2596 36.7335C47.3724 36.7335 47.4835 36.7367 47.6154 36.7413C47.6865 36.744 47.7581 36.7476 47.8293 36.7513C47.9612 36.7581 48.0976 36.7649 48.2313 36.7649C48.2735 36.7649 48.3129 36.7645 48.3514 36.7631C48.4901 36.7581 48.641 36.7331 48.8269 36.6839C49.0512 36.6242 49.2633 36.5291 49.4233 36.4535C49.5774 36.3797 49.7292 36.2955 49.8756 36.2135C50.0474 36.1179 50.2242 36.0191 50.4064 35.9376C50.5867 35.8661 50.7816 35.8137 50.9851 35.7823C51.1274 35.7659 51.2752 35.7577 51.437 35.7577C51.7565 35.7577 52.0815 35.7901 52.396 35.8215C52.6172 35.8438 52.8452 35.8666 53.07 35.8775C53.1561 35.882 53.2413 35.8843 53.3238 35.8843C53.6334 35.8843 53.9243 35.8529 54.189 35.7905C54.3626 35.7495 54.5439 35.6849 54.7424 35.5925C54.916 35.5123 55.086 35.4026 55.294 35.2373C55.3525 35.1909 55.3788 35.0984 55.3788 35.0319C55.3788 34.9541 55.3461 34.8758 55.294 34.8266C55.0869 34.6322 54.8054 34.5224 54.5793 34.4346Z" fill="#992BFF"/>
<path d="M50.5377 44.0759C55.6097 35.6888 59.423 34.7243 59.7158 34.5736C60.0087 34.423 60.1875 34.1494 60.1875 34.1494C60.1875 34.1494 60.1633 34.2711 60.0457 34.5736C59.8808 34.9978 59.6664 35.3372 59.6664 35.3372L48.3985 54.0522L47.4131 55.6992C47.1763 56.0992 47.0172 56.3069 46.6875 56.6494C46.6875 56.6494 46.9349 56.2082 46.8524 55.8689C46.77 55.5295 45.92 51.7116 50.5377 44.0759Z" fill="url(#paint0_radial_4891_778)"/>
<defs>
<filter id="filter0_dd_4891_778" x="11.8055" y="10.517" width="52.2183" height="52.2459" filterUnits="userSpaceOnUse" color-interpolation-filters="sRGB">
<feFlood flood-opacity="0" result="BackgroundImageFix"/>
<feColorMatrix in="SourceAlpha" type="matrix" values="0 0 0 0 0 0 0 0 0 0 0 0 0 0 0 0 0 0 127 0" result="hardAlpha"/>
<feOffset dx="3.09021" dy="3.09021"/>
<feGaussianBlur stdDeviation="0.386277"/>
<feColorMatrix type="matrix" values="0 0 0 0 0.25098 0 0 0 0 0.341176 0 0 0 0 0.427451 0 0 0 0.3 0"/>
<feBlend mode="normal" in2="BackgroundImageFix" result="effect1_dropShadow_4891_778"/>
<feColorMatrix in="SourceAlpha" type="matrix" values="0 0 0 0 0 0 0 0 0 0 0 0 0 0 0 0 0 0 127 0" result="hardAlpha"/>
<feOffset/>
<feGaussianBlur stdDeviation="0.565973"/>
<feComposite in2="hardAlpha" operator="out"/>
<feColorMatrix type="matrix" values="0 0 0 0 0 0 0 0 0 0 0 0 0 0 0 0 0 0 0.25 0"/>
<feBlend mode="normal" in2="effect1_dropShadow_4891_778" result="effect2_dropShadow_4891_778"/>
<feBlend mode="normal" in="SourceGraphic" in2="effect2_dropShadow_4891_778" result="shape"/>
</filter>
<radialGradient id="paint0_radial_4891_778" cx="0" cy="0" r="1" gradientTransform="matrix(3.21586 1.78167 -15.8154 30.2205 50.9753 43.482)" gradientUnits="userSpaceOnUse">
<stop offset="0.31858" stop-color="white"/>
<stop offset="1" stop-color="#DDDDDD" stop-opacity="0.933333"/>
</radialGradient>
</defs>
</svg>
