<svg width="96" height="96" viewBox="0 0 96 96" fill="none" xmlns="http://www.w3.org/2000/svg">
<path opacity="0.3" d="M23.7969 58.3001L23.7969 37.7001L64.0123 37.7001V58.3001L23.7969 58.3001Z" fill="#8B3DFF"/>
<rect x="64.0118" y="37.7001" width="2.0025" height="20.6" fill="#8B3DFF"/>
<path d="M64.0113 53.7348V55.8865C63.1472 55.7351 62.3376 55.4466 61.5825 55.021C60.4178 54.3534 59.498 53.4124 58.8233 52.198C58.1557 50.9835 57.822 49.5844 57.822 48.0007C57.822 46.4169 58.1557 45.0178 58.8233 43.8033C59.498 42.5889 60.4178 41.6514 61.5825 40.9909C62.3376 40.5608 63.1472 40.2692 64.0113 40.1162V42.263C63.5632 42.3819 63.1406 42.558 62.7437 42.7913C61.9411 43.2671 61.3126 43.9525 60.8581 44.8473C60.4035 45.7422 60.1763 46.7933 60.1763 48.0007C60.1763 49.2222 60.4035 50.2804 60.8581 51.1753C61.3197 52.063 61.9553 52.7448 62.765 53.2207C63.1549 53.4464 63.5704 53.6178 64.0113 53.7348Z" fill="#8B3DFF"/>
<path fill-rule="evenodd" clip-rule="evenodd" d="M41.3944 55.7881H38.9762L37.57 52.1341H29.9104L28.5042 55.7881H26.086L32.2541 40.2133H35.2263L41.3944 55.7881ZM33.7029 42.2694L30.6561 50.1953H36.8349L33.7881 42.2694H33.7029Z" fill="#8B3DFF"/>
<path fill-rule="evenodd" clip-rule="evenodd" d="M43.3655 55.7881V40.2133H50.5776C51.5364 40.2133 52.3461 40.366 53.0066 40.6714C53.6741 40.9697 54.1748 41.3958 54.5086 41.9498C54.8424 42.4967 55.0093 43.1465 55.0093 43.8993C55.0093 45.4263 54.2565 46.4951 52.7509 47.1059V47.2018C53.8446 47.4787 54.6578 47.9652 55.1904 48.6612C55.7302 49.3572 56.0001 50.2272 56.0001 51.2712C56.0001 52.7414 55.5562 53.8635 54.6684 54.6376C53.7807 55.4046 52.4171 55.7881 50.5776 55.7881H43.3655ZM50.1302 46.6585C50.9683 46.6585 51.6145 46.4596 52.0691 46.0619C52.5307 45.6571 52.7615 45.0854 52.7615 44.3467C52.7615 43.5655 52.5449 42.9867 52.1117 42.6103C51.6785 42.2339 51.018 42.0457 50.1302 42.0457H45.624V46.6585H50.1302ZM50.7161 53.8706C51.7033 53.8706 52.4419 53.6433 52.932 53.1888C53.422 52.7272 53.667 52.056 53.667 51.1754C53.667 50.2947 53.422 49.6271 52.932 49.1726C52.4419 48.7181 51.7033 48.4908 50.7161 48.4908H45.624V53.8706H50.7161Z" fill="#8B3DFF"/>
<g opacity="0.3">
<path d="M66.0148 55.9999C67.6655 55.9238 68.9897 55.4803 69.9873 54.6694C71.0881 53.7746 71.8267 52.5885 72.2031 51.1113L70.3175 49.9714C70.0334 51.2782 69.4972 52.2654 68.7089 52.933C68.0255 53.5107 67.1275 53.8358 66.0148 53.9082V55.9999Z" fill="#8B3DFF"/>
<path d="M66.0148 42.0947C66.9456 42.1576 67.7265 42.3933 68.3574 42.8019C69.1102 43.2777 69.6712 43.9879 70.0405 44.9325L71.8303 43.6222C71.397 42.5143 70.6549 41.6336 69.6038 40.9802C68.6692 40.389 67.4729 40.0624 66.0148 40.0004V42.0947Z" fill="#8B3DFF"/>
</g>
</svg>
