<svg width="96" height="96" viewBox="0 0 96 96" fill="none" xmlns="http://www.w3.org/2000/svg">
<path d="M40.2607 66.4633H37.8458L36.4415 62.8144H28.7926L27.3883 66.4633H24.9734L31.133 50.9102H34.1011L40.2607 66.4633ZM32.5798 52.9633L29.5373 60.8782H35.7075L32.6649 52.9633H32.5798Z" fill="#8B3DFF"/>
<path d="M42.2293 62.4633V46.9102H49.4314C50.3889 46.9102 51.1974 47.0626 51.857 47.3676C52.5236 47.6655 53.0236 48.091 53.357 48.6442C53.6903 49.1903 53.857 49.8392 53.857 50.591C53.857 52.1158 53.1052 53.1832 51.6017 53.7931V53.8889C52.6938 54.1655 53.5059 54.6513 54.0378 55.3463C54.5768 56.0414 54.8463 56.9102 54.8463 57.9527C54.8463 59.4208 54.4031 60.5414 53.5165 61.3144C52.63 62.0804 51.2683 62.4633 49.4314 62.4633H42.2293ZM48.9846 53.3463C49.8215 53.3463 50.4669 53.1477 50.9208 52.7506C51.3818 52.3463 51.6123 51.7754 51.6123 51.0378C51.6123 50.2577 51.396 49.6797 50.9634 49.3038C50.5307 48.9279 49.8712 48.7399 48.9846 48.7399H44.4846V53.3463H48.9846ZM49.5697 60.5485C50.5556 60.5485 51.2931 60.3215 51.7825 59.8676C52.2719 59.4066 52.5165 58.7364 52.5165 57.857C52.5165 56.9775 52.2719 56.3109 51.7825 55.857C51.2931 55.4031 50.5556 55.1761 49.5697 55.1761H44.4846V60.5485H49.5697Z" fill="#8B3DFF"/>
<path d="M64.3244 58.6868C62.8918 58.6868 61.5904 58.357 60.4202 57.6974C59.2571 57.0307 58.3386 56.091 57.6649 54.8783C56.9982 53.6655 56.6649 52.2683 56.6649 50.6868C56.6649 49.1052 56.9982 47.708 57.6649 46.4953C58.3386 45.2825 59.2571 44.3463 60.4202 43.6868C61.5904 43.0201 62.8918 42.6868 64.3244 42.6868C66.0195 42.6868 67.3883 43.0166 68.4308 43.6761C69.4805 44.3286 70.2216 45.208 70.6542 46.3144L68.867 47.6229C68.4982 46.6797 67.9379 45.9705 67.1861 45.4953C66.4415 45.013 65.4875 44.7719 64.3244 44.7719C63.3032 44.7719 62.3883 45.0095 61.5798 45.4846C60.7783 45.9598 60.1507 46.6442 59.6968 47.5378C59.2429 48.4314 59.0159 49.4811 59.0159 50.6868C59.0159 51.9066 59.2429 52.9634 59.6968 53.857C60.1578 54.7435 60.7925 55.4244 61.601 55.8995C62.4095 56.3676 63.328 56.6017 64.3563 56.6017C65.6968 56.6017 66.7571 56.2719 67.5372 55.6123C68.3244 54.9456 68.8599 53.9598 69.1436 52.6549L71.0266 53.7932C70.6507 55.2683 69.9131 56.4527 68.8138 57.3463C67.7145 58.24 66.218 58.6868 64.3244 58.6868Z" fill="#8B3DFF"/>
<path opacity="0.5" fill-rule="evenodd" clip-rule="evenodd" d="M56.1922 31.0366C52.3791 31.0366 49.2879 34.1278 49.2879 37.9409V42.1606C49.2879 42.5749 48.9521 42.9106 48.5379 42.9106C48.1237 42.9106 47.7879 42.5749 47.7879 42.1606C47.7879 38.1787 44.5599 34.9507 40.5779 34.9507C36.596 34.9507 33.368 38.1787 33.368 42.1606V46.1619C33.368 46.5761 33.0322 46.9119 32.618 46.9119C32.2038 46.9119 31.868 46.5761 31.868 46.1619V42.1606C31.868 37.3503 35.7676 33.4507 40.5779 33.4507C43.5915 33.4507 46.2476 34.9812 47.8114 37.3072C48.1354 32.9617 51.7638 29.5366 56.1922 29.5366C60.8338 29.5366 64.5965 33.2994 64.5965 37.9409C64.5965 38.3551 64.2607 38.6909 63.8465 38.6909C63.4323 38.6909 63.0965 38.3551 63.0965 37.9409C63.0965 34.1278 60.0053 31.0366 56.1922 31.0366Z" fill="#8B3DFF"/>
</svg>
