<svg width="96" height="96" viewBox="0 0 96 96" fill="none" xmlns="http://www.w3.org/2000/svg">
<g filter="url(#filter0_f_1526_9787)">
<path d="M40.2607 55.7766H37.8458L36.4415 52.1276H28.7926L27.3883 55.7766H24.9734L31.133 40.2234H34.1011L40.2607 55.7766ZM32.5798 42.2766L29.5373 50.1915H35.7075L32.6649 42.2766H32.5798Z" fill="#8B3DFF"/>
</g>
<g filter="url(#filter1_f_1526_9787)">
<path d="M42.2274 55.7766V40.2234H49.4295C50.3869 40.2234 51.1954 40.3759 51.855 40.6808C52.5217 40.9787 53.0217 41.4042 53.355 41.9574C53.6883 42.5035 53.855 43.1525 53.855 43.9042C53.855 45.4291 53.1032 46.4964 51.5997 47.1064V47.2021C52.6919 47.4787 53.504 47.9645 54.0359 48.6596C54.5749 49.3546 54.8444 50.2234 54.8444 51.2659C54.8444 52.734 54.4011 53.8546 53.5146 54.6276C52.6281 55.3936 51.2664 55.7766 49.4295 55.7766H42.2274ZM48.9827 46.6596C49.8196 46.6596 50.4649 46.461 50.9188 46.0638C51.3798 45.6596 51.6103 45.0886 51.6103 44.351C51.6103 43.5709 51.394 42.9929 50.9614 42.617C50.5288 42.2411 49.8692 42.0532 48.9827 42.0532H44.4827V46.6596H48.9827ZM49.5678 53.8617C50.5536 53.8617 51.2912 53.6347 51.7805 53.1808C52.2699 52.7198 52.5146 52.0496 52.5146 51.1702C52.5146 50.2908 52.2699 49.6241 51.7805 49.1702C51.2912 48.7163 50.5536 48.4893 49.5678 48.4893H44.4827V53.8617H49.5678Z" fill="#8B3DFF"/>
</g>
<path d="M64.3244 56C62.8918 56 61.5904 55.6702 60.4202 55.0106C59.2571 54.344 58.3386 53.4043 57.6649 52.1915C56.9982 50.9787 56.6649 49.5816 56.6649 48C56.6649 46.4184 56.9982 45.0213 57.6649 43.8085C58.3386 42.5957 59.2571 41.6596 60.4202 41C61.5904 40.3333 62.8918 40 64.3244 40C66.0195 40 67.3883 40.3298 68.4308 40.9894C69.4805 41.6418 70.2216 42.5213 70.6542 43.6277L68.867 44.9362C68.4982 43.9929 67.9379 43.2837 67.1861 42.8085C66.4415 42.3262 65.4875 42.0851 64.3244 42.0851C63.3032 42.0851 62.3883 42.3227 61.5798 42.7979C60.7783 43.273 60.1507 43.9574 59.6968 44.8511C59.2429 45.7447 59.0159 46.7943 59.0159 48C59.0159 49.2199 59.2429 50.2766 59.6968 51.1702C60.1578 52.0567 60.7925 52.7376 61.601 53.2128C62.4095 53.6809 63.328 53.9149 64.3563 53.9149C65.6968 53.9149 66.7571 53.5851 67.5372 52.9255C68.3244 52.2589 68.8599 51.2731 69.1436 49.9681L71.0266 51.1064C70.6507 52.5816 69.9131 53.766 68.8138 54.6596C67.7145 55.5532 66.218 56 64.3244 56Z" fill="#8B3DFF"/>
<defs>
<filter id="filter0_f_1526_9787" x="21.9734" y="37.2234" width="21.2872" height="21.5532" filterUnits="userSpaceOnUse" color-interpolation-filters="sRGB">
<feFlood flood-opacity="0" result="BackgroundImageFix"/>
<feBlend mode="normal" in="SourceGraphic" in2="BackgroundImageFix" result="shape"/>
<feGaussianBlur stdDeviation="1.5" result="effect1_foregroundBlur_1526_9787"/>
</filter>
<filter id="filter1_f_1526_9787" x="40.7274" y="38.7234" width="15.617" height="18.5532" filterUnits="userSpaceOnUse" color-interpolation-filters="sRGB">
<feFlood flood-opacity="0" result="BackgroundImageFix"/>
<feBlend mode="normal" in="SourceGraphic" in2="BackgroundImageFix" result="shape"/>
<feGaussianBlur stdDeviation="0.75" result="effect1_foregroundBlur_1526_9787"/>
</filter>
</defs>
</svg>
