<svg width="96" height="96" viewBox="0 0 96 96" fill="none" xmlns="http://www.w3.org/2000/svg">
<path d="M40.2607 55.7767H37.8458L36.4415 52.1277H28.7926L27.3883 55.7767H24.9734L31.133 40.2235H34.1011L40.2607 55.7767ZM32.5798 42.2767L29.5373 50.1916H35.7075L32.6649 42.2767H32.5798Z" fill="#8B3DFF"/>
<path d="M42.2293 43.2234V40.2234H44.4846V41.3085H49.5697C50.5556 41.3085 51.2931 41.0815 51.7825 40.6276C51.9104 40.5072 52.0215 40.3724 52.116 40.2234H54.6578C54.4496 40.9755 54.0692 41.5925 53.5165 42.0744C52.63 42.8404 51.2683 43.2234 49.4314 43.2234H42.2293Z" fill="#8B3DFF"/>
<path fill-rule="evenodd" clip-rule="evenodd" d="M42.2293 55.7766V45.2234H49.4314C50.3889 45.2234 51.1974 45.3759 51.857 45.6808C52.5236 45.9787 53.0236 46.4042 53.357 46.9574C53.6903 47.5035 53.857 48.1525 53.857 48.9042C53.857 50.4291 53.1052 51.4964 51.6017 52.1064V52.2021C52.6938 52.4787 53.5059 52.9645 54.0378 53.6596C54.4902 54.2429 54.7527 54.9485 54.8254 55.7766H52.4989C52.4348 55.0892 52.196 54.5537 51.7825 54.1702C51.2931 53.7163 50.5556 53.4893 49.5697 53.4893H44.4846V55.7766H42.2293ZM48.9846 51.6596C49.8215 51.6596 50.4669 51.461 50.9208 51.0638C51.3818 50.6596 51.6123 50.0886 51.6123 49.351C51.6123 48.5709 51.396 47.9929 50.9634 47.617C50.5307 47.2411 49.8712 47.0532 48.9846 47.0532H44.4846V51.6596H48.9846Z" fill="#8B3DFF"/>
<path d="M56.6649 42.1489C56.6649 41.4734 56.7257 40.8316 56.8473 40.2234H59.2412C59.091 40.8136 59.0159 41.4555 59.0159 42.1489C59.0159 43.3688 59.2429 44.4255 59.6968 45.3191C60.1578 46.2057 60.7925 46.8865 61.601 47.3617C62.4095 47.8298 63.328 48.0638 64.3563 48.0638C65.6968 48.0638 66.7571 47.734 67.5372 47.0745C68.3244 46.4078 68.8599 45.422 69.1436 44.117L71.0266 45.2553C70.6507 46.7305 69.9131 47.9149 68.8138 48.8085C67.7145 49.7021 66.218 50.1489 64.3244 50.1489C62.8918 50.1489 61.5904 49.8191 60.4202 49.1596C59.2571 48.4929 58.3386 47.5532 57.6649 46.3404C56.9982 45.1276 56.6649 43.7305 56.6649 42.1489Z" fill="#8B3DFF"/>
<path d="M57.7683 55.7766C58.4316 54.6512 59.3155 53.7753 60.4202 53.1489C61.5904 52.4823 62.8918 52.1489 64.3244 52.1489C66.0195 52.1489 67.3883 52.4787 68.4308 53.1383C69.4805 53.7908 70.2216 54.6702 70.6542 55.7766L68.1143 55.7766C67.8467 55.4525 67.5373 55.1794 67.1861 54.9574C66.4415 54.4752 65.4876 54.234 64.3244 54.234C63.3032 54.234 62.3883 54.4716 61.5798 54.9468C61.1947 55.1751 60.8498 55.4517 60.5449 55.7766H57.7683Z" fill="#8B3DFF"/>
</svg>
