<svg width="96" height="96" viewBox="0 0 96 96" fill="none" xmlns="http://www.w3.org/2000/svg">
<path d="M40.2603 61.4916H37.8453L36.441 57.8425H28.7916L27.3873 61.4916H24.9723L31.1322 45.9376H34.1004L40.2603 61.4916ZM32.5791 47.9909L29.5364 55.9062H35.7069L32.6642 47.9909H32.5791Z" fill="#8B3DFF"/>
<g opacity="0.3">
<path d="M42.2281 61.4917V45.9377H49.4306C50.3881 45.9377 51.1967 46.0902 51.8563 46.3952C52.523 46.6931 53.023 47.1187 53.3564 47.6719C53.6897 48.218 53.8564 48.867 53.8564 49.6188C53.8564 51.1437 53.1046 52.2111 51.601 52.8211V52.9168C52.6932 53.1934 53.5053 53.6793 54.0373 54.3743C54.5763 55.0694 54.8458 55.9383 54.8458 56.9809C54.8458 58.449 54.4025 59.5696 53.516 60.3427C52.6294 61.1087 51.2676 61.4917 49.4306 61.4917H42.2281ZM48.9838 52.3742C49.8207 52.3742 50.4662 52.1756 50.9201 51.7785C51.3811 51.3742 51.6116 50.8032 51.6116 50.0656C51.6116 49.2854 51.3953 48.7074 50.9626 48.3315C50.53 47.9556 49.8704 47.7676 48.9838 47.7676H44.4836V52.3742H48.9838ZM49.569 59.5767C50.5548 59.5767 51.2924 59.3498 51.7818 58.8959C52.2712 58.4348 52.5159 57.7646 52.5159 56.8851C52.5159 56.0056 52.2712 55.3389 51.7818 54.885C51.2924 54.4311 50.5548 54.2041 49.569 54.2041H44.4836V59.5767H49.569Z" fill="#8B3DFF"/>
<path d="M64.3252 61.7151C62.8925 61.7151 61.5911 61.3853 60.4208 60.7256C59.2576 60.0589 58.3391 59.1192 57.6653 57.9064C56.9986 56.6935 56.6653 55.2963 56.6653 53.7146C56.6653 52.133 56.9986 50.7358 57.6653 49.5229C58.3391 48.3101 59.2576 47.3739 60.4208 46.7143C61.5911 46.0476 62.8925 45.7142 64.3252 45.7142C66.0204 45.7142 67.3892 46.044 68.4318 46.7036C69.4815 47.3562 70.2227 48.2356 70.6554 49.3421L68.868 50.6507C68.4992 49.7073 67.9389 48.9981 67.1871 48.5229C66.4424 48.0406 65.4884 47.7994 64.3252 47.7994C63.3039 47.7994 62.389 48.037 61.5804 48.5122C60.779 48.9875 60.1513 49.6719 59.6974 50.5655C59.2434 51.4592 59.0165 52.5089 59.0165 53.7146C59.0165 54.9346 59.2434 55.9914 59.6974 56.885C60.1584 57.7716 60.7932 58.4525 61.6017 58.9277C62.4103 59.3958 63.3287 59.6298 64.3572 59.6298C65.6977 59.6298 66.758 59.3 67.5382 58.6404C68.3255 57.9737 68.8609 56.9879 69.1446 55.6828L71.0277 56.8212C70.6518 58.2964 69.9142 59.4809 68.8148 60.3746C67.7155 61.2682 66.219 61.7151 64.3252 61.7151Z" fill="#8B3DFF"/>
</g>
<path d="M42.2281 55.777V40.223H49.4306C50.3881 40.223 51.1967 40.3755 51.8563 40.6805C52.523 40.9784 53.023 41.4039 53.3564 41.9572C53.6897 42.5033 53.8564 43.1523 53.8564 43.9041C53.8564 45.429 53.1046 46.4964 51.601 47.1064V47.2021C52.6932 47.4787 53.5053 47.9646 54.0373 48.6596C54.5763 49.3547 54.8458 50.2235 54.8458 51.2661C54.8458 52.7343 54.4025 53.8549 53.516 54.628C52.6294 55.394 51.2676 55.777 49.4306 55.777H42.2281ZM48.9838 46.6595C49.8207 46.6595 50.4662 46.4609 50.9201 46.0637C51.3811 45.6595 51.6116 45.0885 51.6116 44.3509C51.6116 43.5707 51.3953 42.9927 50.9626 42.6168C50.53 42.2409 49.8704 42.0529 48.9838 42.0529H44.4836V46.6595H48.9838ZM49.569 53.862C50.5548 53.862 51.2924 53.6351 51.7818 53.1811C52.2712 52.7201 52.5159 52.0499 52.5159 51.1704C52.5159 50.2909 52.2712 49.6242 51.7818 49.1703C51.2924 48.7164 50.5548 48.4894 49.569 48.4894H44.4836V53.862H49.569Z" fill="#8B3DFF"/>
<path d="M64.3237 50.2859C62.891 50.2859 61.5895 49.9561 60.4192 49.2964C59.256 48.6297 58.3375 47.69 57.6637 46.4772C56.997 45.2643 56.6637 43.8671 56.6637 42.2854C56.6637 40.7038 56.997 39.3066 57.6637 38.0937C58.3375 36.8809 59.256 35.9447 60.4192 35.2851C61.5895 34.6184 62.891 34.285 64.3237 34.285C66.0188 34.285 67.3877 34.6148 68.4303 35.2744C69.48 35.927 70.2211 36.8064 70.6538 37.9129L68.8665 39.2215C68.4976 38.2781 67.9373 37.5689 67.1855 37.0937C66.4408 36.6114 65.4868 36.3702 64.3237 36.3702C63.3023 36.3702 62.3874 36.6078 61.5788 37.0831C60.7774 37.5583 60.1497 38.2427 59.6958 39.1363C59.2418 40.03 59.0149 41.0797 59.0149 42.2854C59.0149 43.5054 59.2418 44.5622 59.6958 45.4558C60.1568 46.3424 60.7916 47.0233 61.6001 47.4985C62.4087 47.9666 63.3272 48.2006 64.3556 48.2006C65.6961 48.2006 66.7564 47.8708 67.5366 47.2112C68.3239 46.5445 68.8594 45.5587 69.1431 44.2536L71.0261 45.392C70.6502 46.8672 69.9126 48.0517 68.8133 48.9454C67.7139 49.839 66.2174 50.2859 64.3237 50.2859Z" fill="#8B3DFF"/>
</svg>
