<svg width="96" height="96" viewBox="0 0 96 96" fill="none" xmlns="http://www.w3.org/2000/svg">
<path opacity="0.3" d="M69.4568 55.7807L39.8255 55.7744L33.6677 40.2258L69.4576 40.2322C70.562 40.2324 71.4573 41.1277 71.4573 42.2322V53.7807C71.4573 54.8854 70.5616 55.7809 69.4568 55.7807Z" fill="#8B3DFF"/>
<path d="M39.8254 55.7744H37.4112L36.0074 52.1265H28.3608L26.9569 55.7744H24.5427L30.7005 40.2258H33.6677L39.8254 55.7744ZM32.1469 42.2784L29.1052 50.1909H35.2736L32.2319 42.2784H32.1469Z" fill="#8B3DFF"/>
<path d="M42.9615 56.5651L38.9373 41.5463L45.8919 39.6828C46.8165 39.4351 47.6367 39.3731 48.3525 39.497C49.0733 39.6121 49.6662 39.8936 50.1312 40.3416C50.5944 40.7827 50.9233 41.3662 51.1178 42.0921C51.5123 43.5645 51.0625 44.7898 49.7685 45.7678L49.7933 45.8602C50.9195 45.8447 51.8293 46.1037 52.5228 46.6372C53.2231 47.1689 53.7082 47.9381 53.9779 48.9449C54.3578 50.3625 54.2197 51.5593 53.5636 52.5351C52.9058 53.5041 51.6899 54.2263 49.9162 54.7016L42.9615 56.5651ZM47.1258 46.0134C47.9339 45.7969 48.5057 45.4382 48.8413 44.9372C49.1818 44.4275 49.2567 43.8166 49.0658 43.1044C48.864 42.351 48.5055 41.8488 47.9905 41.5978C47.4755 41.3468 46.79 41.336 45.9339 41.5653L41.5885 42.7297L42.7804 47.1778L47.1258 46.0134ZM49.5543 52.8167C50.5062 52.5616 51.1597 52.1516 51.5148 51.5867C51.8681 51.0149 51.931 50.3044 51.7034 49.4552C51.4759 48.606 51.0671 48.0256 50.4771 47.7139C49.8871 47.4022 49.1162 47.3739 48.1642 47.629L43.2538 48.9447L44.6439 54.1324L49.5543 52.8167Z" fill="#8B3DFF"/>
<path d="M67.8155 54.9787C66.5752 55.6948 65.2837 56.0598 63.9408 56.0737C62.6006 56.0779 61.3357 55.7234 60.1462 55.0102C58.9628 54.2935 57.9759 53.2505 57.1853 51.8812C56.3948 50.512 55.985 49.1357 55.956 47.7525C55.9331 46.3658 56.2603 45.0962 56.9376 43.9438C57.6175 42.7817 58.5776 41.8426 59.8179 41.1265C61.2854 40.2792 62.6353 39.8805 63.8676 39.9304C65.1025 39.9707 66.1838 40.3616 67.1113 41.1032L66.2181 43.1294C65.4273 42.4971 64.5877 42.1632 63.6993 42.1275C62.8136 42.0822 61.8672 42.3503 60.8602 42.9317C59.976 43.4422 59.3027 44.1052 58.8402 44.9207C58.3839 45.7327 58.1826 46.6389 58.2363 47.6395C58.29 48.64 58.6181 49.6622 59.2208 50.7061C59.8306 51.7622 60.5553 52.5636 61.3949 53.1104C62.2371 53.6475 63.127 53.9197 64.0645 53.9269C64.9985 53.928 65.9106 53.6716 66.8009 53.1576C67.9614 52.4875 68.7145 51.672 69.0603 50.7111C69.4086 49.7404 69.3794 48.6192 68.9728 47.3476L71.172 47.3919C71.5839 48.857 71.5373 50.2511 71.0323 51.5742C70.5272 52.8974 69.455 54.0322 67.8155 54.9787Z" fill="#8B3DFF"/>
</svg>
