<svg width="96" height="96" viewBox="0 0 96 96" fill="none" xmlns="http://www.w3.org/2000/svg">
<path d="M40.2602 55.7766H37.8453L36.441 52.1276H28.7921L27.3879 55.7766H24.973L31.1325 40.2234H34.1006L40.2602 55.7766ZM32.5793 42.2766L29.5368 50.1915H35.707L32.6645 42.2766H32.5793Z" fill="#8B3DFF"/>
<path d="M42.2285 55.7766V40.2234H49.4307C50.3881 40.2234 51.1966 40.3759 51.8562 40.6808C52.5229 40.9787 53.0229 41.4042 53.3562 41.9574C53.6895 42.5035 53.8562 43.1525 53.8562 43.9042C53.8562 45.4291 53.1044 46.4964 51.6009 47.1064V47.2021C52.6931 47.4787 53.5051 47.9645 54.0371 48.6596C54.5761 49.3546 54.8456 50.2234 54.8456 51.2659C54.8456 52.734 54.4023 53.8546 53.5158 54.6276C52.6293 55.3936 51.2675 55.7766 49.4307 55.7766H42.2285ZM48.9839 46.6596C49.8207 46.6596 50.4661 46.461 50.92 46.0638C51.381 45.6596 51.6115 45.0886 51.6115 44.351C51.6115 43.5709 51.3952 42.9929 50.9626 42.617C50.53 42.2411 49.8704 42.0532 48.9839 42.0532H44.4839V46.6596H48.9839ZM49.569 53.8617C50.5548 53.8617 51.2924 53.6347 51.7817 53.1808C52.2711 52.7198 52.5158 52.0496 52.5158 51.1702C52.5158 50.2908 52.2711 49.6241 51.7817 49.1702C51.2924 48.7163 50.5548 48.4893 49.569 48.4893H44.4839V53.8617H49.569Z" fill="#8B3DFF"/>
<path opacity="0.3" d="M64.3249 56C62.8923 56 61.5909 55.6702 60.4207 55.0106C59.2575 54.344 58.3391 53.4043 57.6653 52.1915C56.9987 50.9787 56.6653 49.5816 56.6653 48C56.6653 46.4184 56.9987 45.0213 57.6653 43.8085C58.3391 42.5957 59.2575 41.6596 60.4207 41C61.5909 40.3333 62.8923 40 64.3249 40C66.02 40 67.3887 40.3298 68.4313 40.9894C69.4809 41.6418 70.2221 42.5213 70.6547 43.6277L68.8675 44.9362C68.4987 43.9929 67.9384 43.2837 67.1866 42.8085C66.4419 42.3262 65.488 42.0851 64.3249 42.0851C63.3036 42.0851 62.3888 42.3227 61.5802 42.7979C60.7788 43.273 60.1512 43.9574 59.6973 44.8511C59.2434 45.7447 59.0164 46.7943 59.0164 48C59.0164 49.2199 59.2434 50.2766 59.6973 51.1702C60.1583 52.0567 60.793 52.7376 61.6015 53.2128C62.41 53.6809 63.3285 53.9149 64.3568 53.9149C65.6973 53.9149 66.7575 53.5851 67.5377 52.9255C68.3249 52.2589 68.8604 51.273 69.1441 49.9681L71.027 51.1064C70.6512 52.5816 69.9136 53.766 68.8143 54.6596C67.715 55.5532 66.2185 56 64.3249 56Z" fill="#8B3DFF"/>
<path fill-rule="evenodd" clip-rule="evenodd" d="M56.6653 36C57.0796 36 57.4153 36.3358 57.4153 36.75V59.25C57.4153 59.6642 57.0796 60 56.6653 60C56.2511 60 55.9153 59.6642 55.9153 59.25L55.9153 36.75C55.9153 36.3358 56.2511 36 56.6653 36Z" fill="#8B3DFF"/>
</svg>
