<svg width="273" height="30" fill="none" xmlns="http://www.w3.org/2000/svg">
  <svg width="83" height="31" y="-0.5" viewBox="0 0 80 30">
    <defs>
      <radialGradient id="a1" cx="0" cy="0" r="1"
        gradientTransform="translate(0.512 1.10851) rotate(-72.683) scale(0.705506 0.266579)">
        <stop stop-color="#6420FF" />
        <stop offset="1" stop-color="#6420FF" stop-opacity="0" />
      </radialGradient>
      <radialGradient id="a2" cx="0" cy="0" r="1"
        gradientTransform="translate(0.024 0.665731) rotate(15.5171) scale(0.606092 1.40957)">
        <stop offset="0.25" stop-color="#00C4CC" />
        <stop offset="1" stop-color="#00C4CC" stop-opacity="0" />
      </radialGradient>
      <radialGradient id="a3" cx="0" cy="0" r="1"
        gradientTransform="translate(0.42675 0.999376) rotate(-68.2891) scale(0.795435 0.382638)">
        <stop stop-color="#6420FF" />
        <stop offset="1" stop-color="#6420FF" stop-opacity="0" />
      </radialGradient>
      <radialGradient id="a4" cx="0" cy="0" r="1"
        gradientTransform="translate(0.0284999 0.999376) rotate(-56.8182) scale(0.715334 0.566718)">
        <stop stop-color="#6420FF" />
        <stop offset="1" stop-color="#6420FF" stop-opacity="0" />
      </radialGradient>
      <radialGradient id="a5" cx="0" cy="0" r="1"
        gradientTransform="translate(0.096 0.0919862) rotate(34.5928) scale(1.03255 2.80688)">
        <stop stop-color="#00C4CC" />
        <stop offset="1" stop-color="#00C4CC" stop-opacity="0" />
      </radialGradient>
      <pattern id="a" width="1" height="1" patternContentUnits="objectBoundingBox">
        <rect width="1" height="1" fill="#7D2AE7" />
        <rect width="1" height="1" fill="url(#a1)" />
        <rect width="1" height="1" fill="url(#a2)" />
        <rect width="1" height="1" fill="url(#a3)" />
        <rect width="1" height="1" fill="url(#a4)" />
        <rect width="1" height="1" fill="url(#a5)" />
      </pattern>
    </defs>
    <path fill="url(#a)"
      d="M79.444 18.096c-.136 0-.26.088-.324.272-.82 2.34-1.928 3.732-2.84 3.732-.524 0-.736-.584-.736-1.5 0-2.292 1.372-7.152 2.064-9.368.08-.268.132-.508.132-.712 0-.644-.352-.96-1.224-.96-.94 0-1.952.368-2.936 2.092-.34-1.52-1.368-2.184-2.804-2.184-1.66 0-3.264 1.068-4.584 2.8-1.32 1.732-2.872 2.3-4.04 2.02.84-2.056 1.152-3.592 1.152-4.732 0-1.788-.884-2.868-2.312-2.868-2.172 0-3.424 2.072-3.424 4.252 0 1.684.764 3.416 2.444 4.256-1.408 3.184-3.464 6.064-4.244 6.064-1.008 0-1.304-4.932-1.248-8.46.036-2.024.204-2.128.204-2.74 0-.352-.228-.592-1.144-.592-2.136 0-2.796 1.808-2.896 3.884a10.233 10.233 0 01-.368 2.332c-.892 3.184-2.732 5.6-3.932 5.6-.556 0-.708-.556-.708-1.284 0-2.292 1.284-5.156 1.284-7.6 0-1.796-.788-2.932-2.272-2.932-1.748 0-4.06 2.08-6.248 5.976.72-2.984 1.016-5.872-1.116-5.872A2.886 2.886 0 0036 9.916a.752.752 0 00-.432.728c.204 3.176-2.56 11.312-5.18 11.312-.476 0-.708-.516-.708-1.348 0-2.296 1.368-7.144 2.056-9.364.088-.288.136-.536.136-.752 0-.608-.376-.92-1.228-.92-.936 0-1.952.356-2.932 2.08-.344-1.52-1.372-2.184-2.808-2.184-2.356 0-4.988 2.492-6.144 5.74-1.548 4.336-4.668 8.524-8.868 8.524-3.812 0-5.824-3.172-5.824-8.184C4.068 8.312 9.38 2.4 13.32 2.4c1.884 0 2.784 1.2 2.784 3.04 0 2.228-1.244 3.264-1.244 4.112 0 .26.216.516.644.516 1.712 0 3.728-2.012 3.728-4.756S17.004.56 13.064.56C6.552.56 0 7.112 0 15.508c0 6.68 3.296 10.708 8.996 10.708 3.888 0 7.284-3.024 9.116-6.552.208 2.924 1.536 4.452 3.56 4.452 1.8 0 3.256-1.072 4.368-2.956.428 1.972 1.564 2.936 3.04 2.936 1.692 0 3.108-1.072 4.456-3.064-.02 1.564.336 3.036 1.692 3.036.64 0 1.404-.148 1.54-.708 1.428-5.904 4.956-10.724 6.036-10.724.32 0 .408.308.408.672 0 1.604-1.132 4.892-1.132 6.992 0 2.268.964 3.768 2.956 3.768 2.208 0 4.452-2.704 5.948-6.656.468 3.692 1.48 6.672 3.064 6.672 1.944 0 5.396-4.092 7.488-8.424.82.104 2.052.076 3.236-.76-.504 1.276-.8 2.672-.8 4.068 0 4.02 1.92 5.148 3.572 5.148 1.796 0 3.252-1.072 4.368-2.956.368 1.7 1.308 2.932 3.036 2.932 2.704 0 5.052-2.764 5.052-5.032 0-.6-.256-.964-.556-.964zM23.32 21.888c-1.092 0-1.52-1.1-1.52-2.74 0-2.848 1.948-7.604 4.008-7.604.9 0 1.24 1.06 1.24 2.356 0 2.892-1.852 7.988-3.728 7.988zm37.404-8.5c-.652-.776-.888-1.832-.888-2.772 0-1.16.424-2.14.932-2.14s.664.5.664 1.196c0 1.164-.416 2.864-.708 3.716zm8.468 8.5c-1.092 0-1.52-1.264-1.52-2.74 0-2.748 1.948-7.604 4.024-7.604.9 0 1.22 1.052 1.22 2.356 0 2.892-1.82 7.988-3.724 7.988z" />
  </svg>
  <path
    d="M101.656 3.995H94.99v19.672h6.666c6.104 0 9.688-3.177 9.688-9.839 0-6.656-3.584-9.833-9.688-9.833Zm-3.583 17.057V6.61h3.359c4.37 0 6.693 1.938 6.693 7.22 0 5.286-2.323 7.223-6.693 7.223h-3.36Zm29.026-4.297c.057-.422.083-1.125.083-1.745-.026-4.302-2.323-6.463-6.271-6.463-3.864 0-6.942 2.474-6.942 7.703 0 5.14 2.771 7.698 7.166 7.698 3.36 0 5.099-1.547 5.912-3.485l-1.932-1.208h-.282c-.672 1.433-1.765 2.136-3.698 2.136-2.349 0-3.916-1.266-4.114-4.443l9.802-.026.276-.167Zm-10.021-1.942c.333-2.782 1.734-3.907 3.833-3.907 2.131 0 3.334 1.125 3.417 3.906h-7.25Zm17.526 9.135c3.698 0 5.682-1.88 5.682-4.578 0-2.224-1.145-3.657-4-4.302l-2.13-.505c-1.651-.365-2.156-.985-2.156-1.912 0-1.099.87-1.713 2.604-1.713 1.37 0 2.406.39 3.302 1.432h.281l1.625-1.688c-.838-1.182-2.322-2.135-5.208-2.135-3.302 0-5.406 1.604-5.406 4.245 0 2.078 1.151 3.541 4.036 4.245l2.209.53c1.401.34 1.932.985 1.932 1.943 0 1.209-.948 1.995-2.745 1.938-1.818-.057-3.078-.677-4.057-2.11h-.281l-1.677 1.797c.755 1.605 3.02 2.813 5.989 2.813Zm10.021-17.453c1.12 0 1.906-.76 1.906-1.854 0-1.1-.786-1.854-1.906-1.854-1.146 0-1.932.755-1.932 1.854 0 1.093.786 1.854 1.932 1.854Zm1.458 17.172V8.828h-2.942v14.839h2.942Zm9.381 6.297c5.182 0 7.083-2.25 7.083-4.891 0-2.443-1.427-3.906-4.672-4.02l-3.391-.11c-1.177-.058-1.708-.453-1.708-1.209 0-.645.474-1.156 1.318-1.156.39 0 1.036.058 1.37.058 3.474 0 5.572-2.105 5.572-4.86 0-1.323-.421-2.333-1.317-3.094v-.28c1.375-.73 2.015-1.688 2.187-3.147l-2.239-.536-.282.172c-.057.927-.338 1.713-.895 2.385-.756-.474-1.792-.73-3.026-.73-3.5 0-5.573 2.053-5.573 4.975 0 1.937.812 3.286 2.411 4.161v.282c-1.458.39-2.239 1.125-2.239 2.302 0 .984.416 1.687 1.369 2.25v.28c-1.849.392-2.911 1.35-2.911 3.006 0 2.39 1.932 4.162 6.943 4.162Zm0-13.573c-1.792 0-2.745-1.016-2.745-2.787 0-1.797.953-2.807 2.745-2.807 1.765 0 2.77 1.01 2.77 2.807 0 1.771-1.005 2.787-2.77 2.787Zm0 11.265c-2.714 0-4.032-.786-4.032-2.276 0-1.093.698-1.823 2.354-1.823h.5l3.11.167c1.568.057 2.187.531 2.187 1.63 0 1.209-1.036 2.302-4.119 2.302Zm12.281-3.989V16.02c0-3.625 1.677-4.943 3.922-4.943 2.015 0 2.88.927 2.88 3.26v9.329h2.943v-9.61c0-3.573-1.459-5.51-5.016-5.51-2.182 0-3.636.953-4.563 2.583l-.281-.052v-2.25h-2.828v14.839h2.943Zm25.838.281c4.651 0 6.917-2.443 6.917-5.901 0-2.896-1.51-4.833-5.432-5.708l-2.464-.558c-2.213-.51-2.969-1.38-2.969-2.838 0-1.547 1.204-2.563 3.698-2.563 1.959 0 3.417.62 4.537 1.886h.333l1.516-2.078c-1.344-1.662-3.391-2.474-6.386-2.474-4.312 0-6.718 2.192-6.718 5.338 0 2.839 1.593 4.693 5.093 5.51l2.412.59c2.406.588 3.219 1.463 3.219 3.093 0 1.797-1.152 2.979-3.756 2.979s-4.396-1.182-5.515-2.98h-.334l-1.708 2.079c1.005 1.854 3.469 3.625 7.557 3.625Zm16.026 0c3.443 0 5.323-1.797 6.021-4.13l-2.047-1.151h-.276c-.62 1.823-1.849 2.724-3.698 2.724-2.38 0-4.005-1.657-4.005-5.141 0-3.516 1.625-5.146 3.979-5.146 1.875 0 2.88.76 3.584 2.219h.281l2.015-1.432c-.786-1.938-2.52-3.344-5.88-3.344-4.005 0-7.031 2.698-7.031 7.703 0 5 3.026 7.698 7.057 7.698Zm11.355-.281V16.02c0-3.682 1.739-4.943 3.921-4.943 1.99 0 2.886.927 2.886 3.287v9.302h2.937v-9.558c0-3.625-1.453-5.562-4.984-5.562-2.099 0-3.526.927-4.479 2.36l-.281-.058v-7.98h-2.938v20.798h2.938Zm19.796.281c4.256 0 7.058-2.698 7.058-7.698 0-5.005-2.802-7.703-7.058-7.703-4.255 0-7.057 2.698-7.057 7.703 0 5 2.802 7.698 7.057 7.698Zm0-2.557c-2.52 0-4.005-1.516-4.005-5.141 0-3.63 1.485-5.146 4.005-5.146 2.521 0 4.006 1.516 4.006 5.146 0 3.625-1.485 5.14-4.006 5.14Zm16.464 2.557c4.255 0 7.057-2.698 7.057-7.698 0-5.005-2.802-7.703-7.057-7.703-4.255 0-7.057 2.698-7.057 7.703 0 5 2.802 7.698 7.057 7.698Zm0-2.557c-2.521 0-4.005-1.516-4.005-5.141 0-3.63 1.484-5.146 4.005-5.146s4.005 1.516 4.005 5.146c0 3.625-1.484 5.14-4.005 5.14Zm13.943 2.557c.729 0 1.427-.11 1.791-.339l-.307-2.302-.198-.057a2.3 2.3 0 0 1-.781.14c-.839 0-1.287-.447-1.287-1.546V2.87h-2.968v17.114c0 2.73 1.427 3.964 3.75 3.964Z"
    fill="#0E1318" />
</svg>
