<svg width="80" height="40" viewBox="0 0 80 40" xmlns="http://www.w3.org/2000/svg">
  <path fill="white"
    d="M 79.444 23.096 c -0.136 0 -0.26 0.088 -0.324 0.272 c -0.82 2.34 -1.928 3.732 -2.84 3.732 c -0.524 0 -0.736 -0.584 -0.736 -1.5 c 0 -2.292 1.372 -7.152 2.064 -9.368 c 0.08 -0.268 0.132 -0.508 0.132 -0.712 c 0 -0.644 -0.352 -0.96 -1.224 -0.96 c -0.94 0 -1.952 0.368 -2.936 2.092 c -0.34 -1.52 -1.368 -2.184 -2.804 -2.184 c -1.66 0 -3.264 1.068 -4.584 2.8 c -1.32 1.732 -2.872 2.3 -4.04 2.02 c 0.84 -2.056 1.152 -3.592 1.152 -4.732 c 0 -1.788 -0.884 -2.868 -2.312 -2.868 c -2.172 0 -3.424 2.072 -3.424 4.252 c 0 1.684 0.764 3.416 2.444 4.256 c -1.408 3.184 -3.464 6.064 -4.244 6.064 c -1.008 0 -1.304 -4.932 -1.248 -8.46 c 0.036 -2.024 0.204 -2.128 0.204 -2.74 c 0 -0.352 -0.228 -0.592 -1.144 -0.592 c -2.136 0 -2.796 1.808 -2.896 3.884 a 10.233 10.233 0 0 1 -0.368 2.332 c -0.892 3.184 -2.732 5.6 -3.932 5.6 c -0.556 0 -0.708 -0.556 -0.708 -1.284 c 0 -2.292 1.284 -5.156 1.284 -7.6 c 0 -1.796 -0.788 -2.932 -2.272 -2.932 c -1.748 0 -4.06 2.08 -6.248 5.976 c 0.72 -2.984 1.016 -5.872 -1.116 -5.872 A 2.886 2.886 0 0 0 36 14.916 a 0.752 0.752 0 0 0 -0.432 0.728 c 0.204 3.176 -2.56 11.312 -5.18 11.312 c -0.476 0 -0.708 -0.516 -0.708 -1.348 c 0 -2.296 1.368 -7.144 2.056 -9.364 c 0.088 -0.288 0.136 -0.536 0.136 -0.752 c 0 -0.608 -0.376 -0.92 -1.228 -0.92 c -0.936 0 -1.952 0.356 -2.932 2.08 c -0.344 -1.52 -1.372 -2.184 -2.808 -2.184 c -2.356 0 -4.988 2.492 -6.144 5.74 c -1.548 4.336 -4.668 8.524 -8.868 8.524 c -3.812 0 -5.824 -3.172 -5.824 -8.184 C 4.068 13.312 9.38 7.4 13.32 7.4 c 1.884 0 2.784 1.2 2.784 3.04 c 0 2.228 -1.244 3.264 -1.244 4.112 c 0 0.26 0.216 0.516 0.644 0.516 c 1.712 0 3.728 -2.012 3.728 -4.756 S 17.004 5.56 13.064 5.56 C 6.552 5.56 0 12.112 0 20.508 c 0 6.68 3.296 10.708 8.996 10.708 c 3.888 0 7.284 -3.024 9.116 -6.552 c 0.208 2.924 1.536 4.452 3.56 4.452 c 1.8 0 3.256 -1.072 4.368 -2.956 c 0.428 1.972 1.564 2.936 3.04 2.936 c 1.692 0 3.108 -1.072 4.456 -3.064 c -0.02 1.564 0.336 3.036 1.692 3.036 c 0.64 0 1.404 -0.148 1.54 -0.708 c 1.428 -5.904 4.956 -10.724 6.036 -10.724 c 0.32 0 0.408 0.308 0.408 0.672 c 0 1.604 -1.132 4.892 -1.132 6.992 c 0 2.268 0.964 3.768 2.956 3.768 c 2.208 0 4.452 -2.704 5.948 -6.656 c 0.468 3.692 1.48 6.672 3.064 6.672 c 1.944 0 5.396 -4.092 7.488 -8.424 c 0.82 0.104 2.052 0.076 3.236 -0.76 c -0.504 1.276 -0.8 2.672 -0.8 4.068 c 0 4.02 1.92 5.148 3.572 5.148 c 1.796 0 3.252 -1.072 4.368 -2.956 c 0.368 1.7 1.308 2.932 3.036 2.932 c 2.704 0 5.052 -2.764 5.052 -5.032 c 0 -0.6 -0.256 -0.964 -0.556 -0.964 z M 23.32 26.888 c -1.092 0 -1.52 -1.1 -1.52 -2.74 c 0 -2.848 1.948 -7.604 4.008 -7.604 c 0.9 0 1.24 1.06 1.24 2.356 c 0 2.892 -1.852 7.988 -3.728 7.988 z m 37.404 -8.5 c -0.652 -0.776 -0.888 -1.832 -0.888 -2.772 c 0 -1.16 0.424 -2.14 0.932 -2.14 s 0.664 0.5 0.664 1.196 c 0 1.164 -0.416 2.864 -0.708 3.716 z m 8.468 8.5 c -1.092 0 -1.52 -1.264 -1.52 -2.74 c 0 -2.748 1.948 -7.604 4.024 -7.604 c 0.9 0 1.22 1.052 1.22 2.356 c 0 2.892 -1.82 7.988 -3.724 7.988 zM 76.774 8.3435 C 76.8079 8.89 77.1496 9.4366 77.6962 9.4024 C 78.2768 9.4024 78.6525 8.89 78.6525 8.2751 C 78.6525 5.7473 77.5596 2.7755 75.2023 1.1016 C 75.0661 0.9992 74.8611 1.0333 74.7584 1.17 C 74.6561 1.3408 74.6561 1.5457 74.7927 1.6824 C 76.3979 3.3903 76.6029 5.679 76.774 8.3435 Z M 77.1156 2.0923 C 77.1839 2.468 77.5252 2.8438 78.0035 2.673 C 78.3452 2.5705 78.5502 2.2289 78.4135 1.7507 C 78.3112 1.3408 77.9012 0.8284 77.6279 0.5551 C 77.4912 0.4185 77.2862 0.3501 77.1156 0.4526 C 76.9106 0.5551 76.8763 0.7259 76.9446 0.9308 C 77.0129 1.2041 77.0812 1.7507 77.1156 2.0923 Z M 69.5664 9.2999 C 72.4015 8.0702 73.1871 4.8933 73.1871 2.1606 C 73.1871 1.6824 72.8115 1.2383 72.3332 1.2383 C 71.8892 1.2383 71.4792 1.6482 71.4792 2.1264 C 71.4109 4.5517 71.0693 6.9771 69.1903 8.7534 C 69.088 8.8558 69.0537 9.0267 69.1564 9.1633 C 69.2247 9.2999 69.4297 9.3682 69.5664 9.2999 Z M 78.7552 1.614 C 78.8918 1.9556 79.3018 2.1947 79.7114 1.9556 C 80.0191 1.7848 80.0874 1.4091 79.8824 0.9992 C 79.6774 0.6234 79.1991 0.2477 78.8918 0.0769 C 78.7552 -0.0256 78.5158 -0.0256 78.3791 0.0769 C 78.2085 0.2135 78.2429 0.3843 78.3112 0.5551 C 78.4475 0.8284 78.6185 1.3408 78.7552 1.614 Z M 52.8279 5.0983 C 52.9306 5.0983 53.3406 5.0641 53.8529 5.0641 C 53.9895 6.6013 54.1602 8.7192 54.1602 8.7192 C 54.1945 9.1291 54.5362 9.4366 54.9458 9.4024 C 55.3901 9.4024 55.7318 9.0267 55.6635 8.5826 C 55.6635 8.5826 55.4924 6.4988 55.3558 4.9958 C 56.0047 4.9617 56.688 4.9617 57.2003 4.9275 C 57.2003 5.2008 57.2003 5.4741 57.132 5.7473 C 57.0297 6.2256 56.7907 6.5671 56.4491 6.7721 C 56.3124 6.8404 56.1414 7.0112 56.278 7.2845 C 56.3807 7.5236 56.688 7.4895 56.8247 7.4553 C 58.1226 6.9771 58.7376 5.9523 58.8059 4.4834 C 58.8403 4.1418 58.5326 3.8344 58.1909 3.8686 H 58.0886 C 57.303 3.9027 56.2441 3.9369 55.2535 3.971 C 55.2191 3.6978 55.2191 3.4928 55.2191 3.4587 C 55.1851 3.1854 55.1508 2.9463 55.1168 2.8438 C 55.0485 2.6047 54.8095 2.5022 54.4679 2.6047 C 54.0918 2.7071 53.6479 3.0487 53.7162 3.5953 C 53.7162 3.6636 53.7506 3.8344 53.7506 4.0394 C 53.1012 4.0735 52.6233 4.0735 52.5206 4.0735 C 52.145 4.0735 52.0766 4.0735 52.1106 4.3126 C 52.1106 4.7226 52.35 5.1325 52.8279 5.0983 Z M 41.8972 6.328 C 42.0679 6.328 43.4341 6.2597 45.0057 6.2256 C 45.108 7.5578 45.2107 8.6167 45.2107 8.6167 C 45.2447 9.0949 45.6547 9.4366 46.133 9.4366 C 46.6453 9.4366 47.0553 8.9925 46.9869 8.4801 C 46.9869 8.4801 46.8842 7.4553 46.7819 6.1572 C 48.3875 6.0889 49.7538 6.0548 49.7538 6.0548 C 50.0271 6.0548 50.2661 5.8157 50.2321 5.5424 C 50.2321 5.2691 49.9927 5.03 49.7194 5.0641 C 49.7194 5.0641 48.3532 5.0983 46.7136 5.1666 C 46.6453 4.2785 46.577 3.3903 46.5086 2.6388 C 47.8065 2.6047 48.9338 2.5363 48.9338 2.5363 C 49.2071 2.5363 49.4465 2.2972 49.4121 2.024 C 49.4121 1.7507 49.1732 1.5116 48.8998 1.5457 C 48.8998 1.5457 47.7726 1.5799 46.4059 1.6482 C 46.372 1.3408 46.372 1.1016 46.338 1.0675 C 46.3036 0.7259 46.2697 0.4526 46.2353 0.3501 C 46.133 0.0427 45.8597 -0.0598 45.4497 0.0427 C 45.0057 0.1452 44.493 0.5551 44.5614 1.2041 C 44.5614 1.2724 44.5957 1.4774 44.5957 1.7165 C 43.0928 1.7848 41.7606 1.819 41.6579 1.819 C 41.5212 1.819 41.5212 1.9556 41.5895 2.2289 C 41.6579 2.6047 42.1362 2.8438 42.5118 2.8096 C 42.6485 2.8096 43.6051 2.7755 44.698 2.7413 C 44.7664 3.4928 44.8347 4.3809 44.903 5.2691 C 42.9562 5.3374 41.1456 5.4057 41.0429 5.4057 C 40.9066 5.4057 40.9066 5.5424 40.975 5.8157 C 41.0089 6.0889 41.4872 6.328 41.8972 6.328 Z M 60.8898 1.7165 C 61.4361 2.0923 62.1194 2.5705 62.8027 3.117 C 63.2127 3.4587 63.964 3.3562 64.2717 2.7755 C 64.5789 2.1947 64.2373 1.5799 63.554 1.4432 C 62.7684 1.2724 61.8121 1.1016 61.0605 1.1016 C 60.8898 1.1016 60.7532 1.17 60.7188 1.3066 C 60.6505 1.4432 60.7532 1.614 60.8898 1.7165 Z M 60.9238 8.7875 C 61.0948 9.2657 61.6071 9.4366 62.0854 9.2999 C 65.5696 8.5143 67.4824 6.2256 68.7124 2.2972 C 68.7807 2.1264 68.678 1.9556 68.5074 1.8873 C 68.3364 1.819 68.1658 1.9215 68.0974 2.0581 C 66.6625 5.4741 64.7156 6.6013 61.5388 7.4553 C 61.0265 7.6261 60.7188 8.241 60.9238 8.7875 Z" />
</svg>