<svg width="60" height="60" viewBox="0 0 60 60" fill="none" xmlns="http://www.w3.org/2000/svg">
  <defs>
    <radialGradient id="a1" cx="0" cy="0" r="1" gradientUnits="userSpaceOnUse"
      gradientTransform="translate(0.193158 0.886316) rotate(-49.4156) scale(0.773414)">
      <stop stop-color="#6420FF" />
      <stop offset="1" stop-color="#6420FF" stop-opacity="0" />
    </radialGradient>
    <radialGradient id="a2" cx="0" cy="0" r="1" gradientUnits="userSpaceOnUse"
      gradientTransform="translate(0.264737 0.113684) rotate(54.7035) scale(0.872171)">
      <stop stop-color="#00C4CC" />
      <stop offset="1" stop-color="#00C4CC" stop-opacity="0" />
    </radialGradient>
    <radialGradient id="a3" cx="0" cy="0" r="1" gradientUnits="userSpaceOnUse"
      gradientTransform="translate(0.193158 0.886316) rotate(-45.1954) scale(0.764052 0.351398)">
      <stop stop-color="#6420FF" />
      <stop offset="1" stop-color="#6420FF" stop-opacity="0" />
    </radialGradient>
    <radialGradient id="a4" cx="0" cy="0" r="1" gradientUnits="userSpaceOnUse"
      gradientTransform="translate(0.408947 0.134737) rotate(66.5198) scale(0.787295 1.31889)">
      <stop stop-color="#00C4CC" stop-opacity="0.725916" />
      <stop offset="0.0001" stop-color="#00C4CC" />
      <stop offset="1" stop-color="#00C4CC" stop-opacity="0" />
    </radialGradient>

    <pattern id="a" width="1" height="1" patternContentUnits="objectBoundingBox">
      <rect width="1" height="1" fill="#7D2AE7" />
      <rect width="1" height="1" fill="url(#a1)" />
      <rect width="1" height="1" fill="url(#a2)" />
      <rect width="1" height="1" fill="url(#a3)" />
      <rect width="1" height="1" fill="url(#a4)" />
    </pattern>
  </defs>

  <circle cx="50%" cy="50%" r="50%" fill="url(#a)" />
  <path
    d="M53.671 31.302c-.08 0-.15.054-.186.16-.483 1.375-1.135 2.195-1.671 2.195-.308 0-.432-.343-.432-.883 0-1.344.808-4.2 1.211-5.503.048-.134.075-.275.08-.418 0-.379-.207-.566-.72-.566-.512 0-1.149.22-1.724 1.233-.201-.895-.805-1.286-1.65-1.286-.974 0-1.916.628-2.692 1.644-.776 1.016-1.685 1.354-2.373 1.188.495-1.206.676-2.11.676-2.779 0-1.051-.519-1.685-1.357-1.685-1.277 0-2.011 1.217-2.011 2.497 0 .99.447 2.008 1.436 2.503-.826 1.869-2.035 3.56-2.494 3.56-.592 0-.767-2.896-.731-4.97.017-1.188.118-1.25.118-1.611 0-.205-.136-.347-.673-.347-1.252 0-1.643 1.063-1.7 2.284a6.302 6.302 0 01-.216 1.368c-.527 1.872-1.605 3.291-2.31 3.291-.33 0-.415-.328-.415-.755 0-1.345.752-3.03.752-4.464 0-1.057-.462-1.724-1.336-1.724-1.025 0-2.384 1.223-3.67 3.51.424-1.75.596-3.448-.654-3.448a1.71 1.71 0 00-.78.202.44.44 0 00-.251.426c.118 1.87-1.505 6.647-3.045 6.647-.282 0-.415-.302-.415-.794 0-1.345.803-4.194 1.206-5.5.049-.142.076-.291.08-.442 0-.355-.22-.539-.72-.539-.551 0-1.146.21-1.724 1.224-.202-.895-.806-1.286-1.647-1.286-1.383 0-2.933 1.463-3.61 3.374-.91 2.547-2.744 5.006-5.211 5.006-2.24 0-3.422-1.863-3.422-4.805 0-4.253 3.122-7.725 5.436-7.725 1.108 0 1.635.705 1.635 1.786 0 1.31-.729 1.917-.729 2.414 0 .152.125.303.377.303 1.007 0 2.189-1.182 2.189-2.794 0-1.611-1.307-2.793-3.623-2.793C10.85 21 7 24.85 7 29.783c0 3.925 1.937 6.291 5.284 6.291 2.284 0 4.28-1.774 5.359-3.85.121 1.72.9 2.615 2.088 2.615 1.058 0 1.914-.628 2.568-1.736.252 1.158.919 1.727 1.787 1.727.995 0 1.824-.63 2.615-1.8-.012.917.199 1.782.995 1.782.377 0 .827-.085.907-.414.835-3.469 2.912-6.3 3.546-6.3.186 0 .236.177.236.393 0 .942-.663 2.873-.663 4.106 0 1.335.566 2.215 1.736 2.215 1.297 0 2.615-1.587 3.495-3.91.275 2.169.87 3.92 1.798 3.92 1.143 0 3.173-2.403 4.402-4.95.48.062 1.206.047 1.899-.445a6.613 6.613 0 00-.468 2.388c0 2.363 1.125 3.024 2.097 3.024 1.057 0 1.913-.628 2.568-1.736.216.998.767 1.724 1.783 1.724 1.588 0 2.968-1.623 2.968-2.956 0-.352-.151-.569-.329-.569zm-32.968 2.23c-.643 0-.895-.648-.895-1.61 0-1.671 1.144-4.468 2.355-4.468.527 0 .729.625.729 1.387 0 1.697-1.087 4.692-2.19 4.692zm21.973-4.993c-.382-.457-.521-1.079-.521-1.63 0-.68.248-1.255.548-1.255.299 0 .388.293.388.701 0 .682-.243 1.683-.415 2.184zm4.973 4.994c-.64 0-.891-.744-.891-1.612 0-1.614 1.143-4.466 2.364-4.466.527 0 .716.616.716 1.386 0 1.697-1.069 4.692-2.189 4.692z"
    fill="#fff" />
</svg>
