<svg fill="none" height="31" viewBox="0 0 273 31" width="273" xmlns="http://www.w3.org/2000/svg"><g fill="#fff"><path d="m101.656 4.95844h-6.6665v19.67186h6.6665c6.104 0 9.688-3.1771 9.688-9.8385 0-6.65628-3.584-9.83336-9.688-9.83336zm-3.5832 17.05726v-14.44268h3.3592c4.37 0 6.693 1.9375 6.693 7.21878 0 5.2864-2.323 7.2239-6.693 7.2239z"/><path d="m127.099 17.7188c.057-.4218.083-1.125.083-1.7448-.026-4.302-2.323-6.4635-6.271-6.4635-3.864 0-6.942 2.474-6.942 7.7031 0 5.1406 2.771 7.6979 7.166 7.6979 3.36 0 5.099-1.5468 5.912-3.4843l-1.932-1.2084h-.282c-.672 1.4323-1.765 2.1354-3.698 2.1354-2.349 0-3.916-1.2656-4.114-4.4427l9.802-.026zm-10.021-1.9427c.333-2.7812 1.734-3.9062 3.833-3.9062 2.131 0 3.334 1.125 3.417 3.9062z"/><path d="m134.604 24.9115c3.698 0 5.682-1.8802 5.682-4.5781 0-2.2239-1.145-3.6562-4-4.3021l-2.13-.5052c-1.651-.3646-2.156-.9844-2.156-1.9114 0-1.099.87-1.7136 2.604-1.7136 1.37 0 2.406.3906 3.302 1.4323h.281l1.625-1.6875c-.838-1.1823-2.322-2.1354-5.208-2.1354-3.302 0-5.406 1.6042-5.406 4.2448 0 2.0781 1.151 3.5417 4.036 4.2448l2.209.5312c1.401.3386 1.932.9844 1.932 1.9427 0 1.2084-.948 1.9948-2.745 1.9375-1.818-.0573-3.078-.677-4.057-2.1093h-.281l-1.677 1.7968c.755 1.6042 3.02 2.8125 5.989 2.8125z"/><path d="m144.625 7.45846c1.12 0 1.906-.76042 1.906-1.85417 0-1.09896-.786-1.85417-1.906-1.85417-1.146 0-1.932.75521-1.932 1.85417 0 1.09375.786 1.85417 1.932 1.85417zm1.458 17.17184v-14.83851h-2.942v14.83851z"/><path d="m155.464 30.9272c5.182 0 7.083-2.25 7.083-4.8906 0-2.4427-1.427-3.9062-4.672-4.0208l-3.391-.1094c-1.177-.0573-1.708-.4531-1.708-1.2083 0-.6459.474-1.1563 1.318-1.1563.39 0 1.036.0573 1.37.0573 3.474 0 5.572-2.1042 5.572-4.8594 0-1.3229-.421-2.3333-1.317-3.0937v-.2813c1.375-.7291 2.015-1.68747 2.187-3.14581l-2.239-.53646-.282.17188c-.057.92708-.338 1.71354-.895 2.38539-.756-.47393-1.792-.72914-3.026-.72914-3.5 0-5.573 2.05204-5.573 4.97394 0 1.9375.812 3.2865 2.411 4.1615v.2812c-1.458.3907-2.239 1.125-2.239 2.3021 0 .9844.416 1.6875 1.369 2.25v.2813c-1.849.3906-2.911 1.3489-2.911 3.0052 0 2.3906 1.932 4.1614 6.943 4.1614zm0-13.5729c-1.792 0-2.745-1.0156-2.745-2.7864 0-1.7969.953-2.8073 2.745-2.8073 1.765 0 2.77 1.0104 2.77 2.8073 0 1.7708-1.005 2.7864-2.77 2.7864zm0 11.2656c-2.714 0-4.032-.7864-4.032-2.276 0-1.0938.698-1.8229 2.354-1.8229h.5l3.11.1666c1.568.0573 2.187.5313 2.187 1.6303 0 1.2083-1.036 2.302-4.119 2.302z"/><path d="m167.745 24.6303v-7.6458c0-3.625 1.677-4.9428 3.922-4.9428 2.015 0 2.88.9271 2.88 3.2605v9.3281h2.943v-9.6094c0-3.5729-1.459-5.5104-5.016-5.5104-2.182 0-3.636.9531-4.563 2.5833l-.281-.0521v-2.24995h-2.828v14.83855z"/><path d="m193.583 24.9116c4.651 0 6.917-2.4427 6.917-5.9011 0-2.8958-1.51-4.8333-5.432-5.7083l-2.464-.5573c-2.213-.5104-2.969-1.3802-2.969-2.83855 0-1.54687 1.204-2.5625 3.698-2.5625 1.959 0 3.417.61979 4.537 1.88542h.333l1.516-2.07813c-1.344-1.66146-3.391-2.47395-6.386-2.47395-4.312 0-6.718 2.1927-6.718 5.33851 0 2.8386 1.593 4.6927 5.093 5.5104l2.412.5886c2.406.5885 3.219 1.4635 3.219 3.0937 0 1.7969-1.152 2.9792-3.756 2.9792s-4.396-1.1823-5.515-2.9792h-.334l-1.708 2.0782c1.005 1.8541 3.469 3.625 7.557 3.625z"/><path d="m209.609 24.9115c3.443 0 5.323-1.7968 6.021-4.1302l-2.047-1.151h-.276c-.62 1.8229-1.849 2.7239-3.698 2.7239-2.38 0-4.005-1.6562-4.005-5.1406 0-3.5156 1.625-5.1458 3.979-5.1458 1.875 0 2.88.7604 3.584 2.2187h.281l2.015-1.4323c-.786-1.9375-2.52-3.3437-5.88-3.3437-4.005 0-7.031 2.6979-7.031 7.7031 0 5 3.026 7.6979 7.057 7.6979z"/><path d="m220.964 24.6303v-7.6458c0-3.6823 1.739-4.9427 3.921-4.9427 1.99 0 2.886.9271 2.886 3.2864v9.3021h2.937v-9.5573c0-3.625-1.453-5.56248-4.984-5.56248-2.099 0-3.526.92708-4.479 2.35938l-.281-.0573v-7.97916h-2.938v20.79686z"/><path d="m240.76 24.9115c4.256 0 7.058-2.6979 7.058-7.6979 0-5.0052-2.802-7.7031-7.058-7.7031-4.255 0-7.057 2.6979-7.057 7.7031 0 5 2.802 7.6979 7.057 7.6979zm0-2.5573c-2.52 0-4.005-1.5156-4.005-5.1406 0-3.6302 1.485-5.1458 4.005-5.1458 2.521 0 4.006 1.5156 4.006 5.1458 0 3.625-1.485 5.1406-4.006 5.1406z"/><path d="m257.224 24.9115c4.255 0 7.057-2.6979 7.057-7.6979 0-5.0052-2.802-7.7031-7.057-7.7031s-7.057 2.6979-7.057 7.7031c0 5 2.802 7.6979 7.057 7.6979zm0-2.5573c-2.521 0-4.005-1.5156-4.005-5.1406 0-3.6302 1.484-5.1458 4.005-5.1458s4.005 1.5156 4.005 5.1458c0 3.625-1.484 5.1406-4.005 5.1406z"/><path d="m271.167 24.9116c.729 0 1.427-.1094 1.791-.3386l-.307-2.3021-.198-.0573c-.224.0834-.5.1407-.781.1407-.839 0-1.287-.4479-1.287-1.5469v-16.97396h-2.968v17.11456c0 2.7292 1.427 3.9636 3.75 3.9636z"/><path d="m82.4231 19.1259c-.1411 0-.2697.0912-.3361.2817-.8508 2.4236-2.0003 3.8653-2.9465 3.8653-.5437 0-.7636-.6048-.7636-1.5536 0-2.3738 1.4234-7.4074 2.1414-9.7025.083-.2776.1369-.5262.1369-.7375 0-.667-.3652-.9942-1.2699-.9942-.9752 0-2.0252.3811-3.0461 2.1667-.3527-1.5743-1.4193-2.262-2.9091-2.262-1.7223 0-3.3864 1.1061-4.7559 2.9-1.3695 1.7938-2.9797 2.3821-4.1915 2.0921.8715-2.1294 1.1952-3.7203 1.1952-4.901 0-1.85185-.9172-2.97042-2.3987-2.97042-2.2535 0-3.5524 2.146-3.5524 4.40382 0 1.7442.7926 3.538 2.5356 4.408-1.4608 3.2978-3.5939 6.2806-4.4031 6.2806-1.0458 0-1.3529-5.1081-1.2948-8.7621.0373-2.0963.2116-2.204.2116-2.8379 0-.3646-.2365-.6131-1.1869-.6131-2.2161 0-2.9008 1.8725-3.0046 4.0227-.0332.8161-.1618 1.6281-.3818 2.4153-.9254 3.2977-2.8344 5.8-4.0794 5.8-.5769 0-.7346-.5759-.7346-1.3299 0-2.3738 1.3322-5.3401 1.3322-7.8714 0-1.8602-.8176-3.0367-2.3572-3.0367-1.8136 0-4.2123 2.1543-6.4823 6.1894.747-3.0906 1.0541-6.0817-1.1579-6.0817-.4814.0083-.9503.1284-1.3736.3563-.2905.1367-.469.435-.4482.754.2116 3.2894-2.656 11.716-5.3743 11.716-.4938 0-.7345-.5345-.7345-1.3962 0-2.378 1.4193-7.3991 2.1331-9.6984.0913-.2983.1411-.5551.1411-.7789 0-.6297-.3901-.9528-1.2741-.9528-.9711 0-2.0252.3687-3.0419 2.1543-.3569-1.5743-1.4235-2.262-2.9133-2.262-2.4444 0-5.1751 2.581-6.3744 5.945-1.6061 4.4908-4.8431 8.8284-9.2006 8.8284-3.9549 0-6.04235-3.2853-6.04235-8.4763 0-7.49442 5.5112-13.61756 9.59895-13.61756 1.9546 0 2.8884 1.24285 2.8884 3.14857 0 2.30757-1.2907 3.38057-1.2907 4.25889 0 .2693.2241.5344.6682.5344 1.7762 0 3.8678-2.08386 3.8678-4.92586s-2.3116-4.921717-6.3993-4.921717c-6.7562 0-13.5539 6.785997-13.5539 15.481877 0 6.9186 3.4196 11.0904 9.33335 11.0904 4.03375 0 7.55715-3.132 9.45785-6.786.2158 3.0284 1.5936 4.611 3.6935 4.611 1.8675 0 3.3781-1.1103 4.5318-3.0616.444 2.0425 1.6226 3.0409 3.154 3.0409 1.7554 0 3.2245-1.1103 4.6231-3.1734-.0208 1.6198.3486 3.1444 1.7554 3.1444.664 0 1.4567-.1533 1.5978-.7333 1.4815-6.1148 5.1418-11.107 6.2623-11.107.332 0 .4234.319.4234.696 0 1.6613-1.1745 5.0667-1.1745 7.2417 0 2.349 1.0001 3.9026 3.0668 3.9026 2.2908 0 4.619-2.8006 6.1711-6.8937.4855 3.8238 1.5355 6.9103 3.1789 6.9103 2.0169 0 5.5983-4.2382 7.7688-8.7249.8507.1077 2.1289.0787 3.3573-.7871-.5229 1.3215-.83 2.7674-.83 4.2133 0 4.1635 1.992 5.3318 3.706 5.3318 1.8633 0 3.3739-1.1103 4.5318-3.0616.3818 1.7608 1.357 3.0368 3.1498 3.0368 2.8054 0 5.2415-2.8628 5.2415-5.2118 0-.6214-.2656-.9984-.5769-.9984zm-58.2286 3.9274c-1.133 0-1.577-1.1392-1.577-2.8378 0-2.9497 2.021-7.8756 4.1583-7.8756.9337 0 1.2865 1.0979 1.2865 2.4402 0 2.9952-1.9215 8.2732-3.8678 8.2732zm38.8066-8.8035c-.6764-.8037-.9213-1.8975-.9213-2.871 0-1.2015.4399-2.21646.967-2.21646.527 0 .6889.51785.6889 1.23876 0 1.2055-.4316 2.9662-.7346 3.8487zm8.7856 8.8035c-1.133 0-1.577-1.3091-1.577-2.8378 0-2.8462 2.021-7.8756 4.1749-7.8756.9337 0 1.2657 1.0896 1.2657 2.4402 0 2.9952-1.8882 8.2732-3.8636 8.2732z"/></g></svg>