<svg viewBox="0 0 863 180" fill="none" xmlns="http://www.w3.org/2000/svg"><path d="M509.421 112.446c-.873 0-1.668.565-2.078 1.745-5.258 15.004-12.363 23.93-18.211 23.93-3.36 0-4.719-3.744-4.719-9.618 0-14.697 8.797-45.861 13.235-60.07.513-1.72.846-3.258.846-4.566 0-4.13-2.257-6.156-7.849-6.156-6.027 0-12.517 2.36-18.826 13.415-2.18-9.747-8.772-14.005-17.98-14.005-10.645 0-20.93 6.848-29.395 17.955-8.464 11.106-18.416 14.748-25.905 12.952 5.386-13.183 7.387-23.033 7.387-30.343 0-11.465-5.669-18.39-14.826-18.39-13.927 0-21.955 13.286-21.955 27.265 0 10.798 4.899 21.904 15.671 27.29-9.028 20.418-22.212 38.885-27.214 38.885-6.463 0-8.361-31.625-8.002-54.248.231-12.979 1.308-13.646 1.308-17.57 0-2.257-1.462-3.796-7.336-3.796-13.696 0-17.929 11.593-18.57 24.905-.205 5.053-1 10.08-2.36 14.954-5.719 20.417-17.518 35.909-25.213 35.909-3.565 0-4.54-3.565-4.54-8.233 0-14.697 8.234-33.062 8.234-48.734 0-11.517-5.053-18.801-14.569-18.801-11.209 0-26.034 13.338-40.064 38.32 4.617-19.134 6.515-37.653-7.156-37.653a18.503 18.503 0 0 0-8.49 2.206 4.82 4.82 0 0 0-2.77 4.668c1.308 20.365-16.416 72.536-33.216 72.536-3.053 0-4.54-3.309-4.54-8.644 0-14.722 8.772-45.81 13.183-60.045.565-1.847.873-3.437.873-4.822 0-3.898-2.411-5.9-7.875-5.9-6.002 0-12.517 2.284-18.801 13.339-2.206-9.747-8.797-14.005-18.006-14.005-15.107 0-31.984 15.98-39.397 36.807-9.926 27.804-29.933 54.658-56.864 54.658-24.444 0-37.346-20.34-37.346-52.478 0-46.4 34.063-84.31 59.327-84.31 12.081 0 17.852 7.696 17.852 19.494 0 14.287-7.977 20.93-7.977 26.368 0 1.667 1.385 3.308 4.13 3.308 10.978 0 23.905-12.901 23.905-30.497C123.322 12.876 109.035 0 83.771 0 42.013 0 0 42.014 0 95.851c0 42.835 21.135 68.664 57.685 68.664 24.931 0 46.708-19.391 58.455-42.014 1.334 18.75 9.849 28.548 22.828 28.548 11.542 0 20.878-6.874 28.009-18.955 2.744 12.645 10.029 18.826 19.493 18.826 10.85 0 19.93-6.874 28.574-19.647-.129 10.029 2.154 19.468 10.849 19.468 4.104 0 9.003-.949 9.875-4.54 9.157-37.858 31.78-68.766 38.705-68.766 2.052 0 2.616 1.975 2.616 4.31 0 10.285-7.258 31.368-7.258 44.834 0 14.543 6.181 24.162 18.954 24.162 14.159 0 28.548-17.339 38.141-42.681 3.001 23.675 9.49 42.783 19.647 42.783 12.466 0 34.601-26.239 48.016-54.017 5.258.667 13.158.487 20.75-4.873-3.232 8.182-5.13 17.133-5.13 26.085 0 25.778 12.312 33.011 22.905 33.011 11.516 0 20.853-6.874 28.009-18.955 2.36 10.901 8.387 18.801 19.468 18.801 17.339 0 32.395-17.724 32.395-32.267 0-3.847-1.642-6.182-3.565-6.182Zm-359.886 24.316c-7.002 0-9.746-7.054-9.746-17.57 0-18.262 12.491-48.759 25.7-48.759 5.771 0 7.952 6.797 7.952 15.107 0 18.545-11.876 51.222-23.906 51.222Zm239.847-54.505c-4.181-4.976-5.694-11.747-5.694-17.775 0-7.438 2.719-13.722 5.976-13.722s4.258 3.206 4.258 7.67c0 7.463-2.668 18.364-4.54 23.827Zm54.299 54.505c-7.002 0-9.746-8.105-9.746-17.57 0-17.621 12.491-48.759 25.803-48.759 5.771 0 7.823 6.746 7.823 15.107 0 18.545-11.67 51.222-23.88 51.222Z" fill="#7D2AE7"/><path d="M509.421 112.446c-.873 0-1.668.565-2.078 1.745-5.258 15.004-12.363 23.93-18.211 23.93-3.36 0-4.719-3.744-4.719-9.618 0-14.697 8.797-45.861 13.235-60.07.513-1.72.846-3.258.846-4.566 0-4.13-2.257-6.156-7.849-6.156-6.027 0-12.517 2.36-18.826 13.415-2.18-9.747-8.772-14.005-17.98-14.005-10.645 0-20.93 6.848-29.395 17.955-8.464 11.106-18.416 14.748-25.905 12.952 5.386-13.183 7.387-23.033 7.387-30.343 0-11.465-5.669-18.39-14.826-18.39-13.927 0-21.955 13.286-21.955 27.265 0 10.798 4.899 21.904 15.671 27.29-9.028 20.418-22.212 38.885-27.214 38.885-6.463 0-8.361-31.625-8.002-54.248.231-12.979 1.308-13.646 1.308-17.57 0-2.257-1.462-3.796-7.336-3.796-13.696 0-17.929 11.593-18.57 24.905-.205 5.053-1 10.08-2.36 14.954-5.719 20.417-17.518 35.909-25.213 35.909-3.565 0-4.54-3.565-4.54-8.233 0-14.697 8.234-33.062 8.234-48.734 0-11.517-5.053-18.801-14.569-18.801-11.209 0-26.034 13.338-40.064 38.32 4.617-19.134 6.515-37.653-7.156-37.653a18.503 18.503 0 0 0-8.49 2.206 4.82 4.82 0 0 0-2.77 4.668c1.308 20.365-16.416 72.536-33.216 72.536-3.053 0-4.54-3.309-4.54-8.644 0-14.722 8.772-45.81 13.183-60.045.565-1.847.873-3.437.873-4.822 0-3.898-2.411-5.9-7.875-5.9-6.002 0-12.517 2.284-18.801 13.339-2.206-9.747-8.797-14.005-18.006-14.005-15.107 0-31.984 15.98-39.397 36.807-9.926 27.804-29.933 54.658-56.864 54.658-24.444 0-37.346-20.34-37.346-52.478 0-46.4 34.063-84.31 59.327-84.31 12.081 0 17.852 7.696 17.852 19.494 0 14.287-7.977 20.93-7.977 26.368 0 1.667 1.385 3.308 4.13 3.308 10.978 0 23.905-12.901 23.905-30.497C123.322 12.876 109.035 0 83.771 0 42.013 0 0 42.014 0 95.851c0 42.835 21.135 68.664 57.685 68.664 24.931 0 46.708-19.391 58.455-42.014 1.334 18.75 9.849 28.548 22.828 28.548 11.542 0 20.878-6.874 28.009-18.955 2.744 12.645 10.029 18.826 19.493 18.826 10.85 0 19.93-6.874 28.574-19.647-.129 10.029 2.154 19.468 10.849 19.468 4.104 0 9.003-.949 9.875-4.54 9.157-37.858 31.78-68.766 38.705-68.766 2.052 0 2.616 1.975 2.616 4.31 0 10.285-7.258 31.368-7.258 44.834 0 14.543 6.181 24.162 18.954 24.162 14.159 0 28.548-17.339 38.141-42.681 3.001 23.675 9.49 42.783 19.647 42.783 12.466 0 34.601-26.239 48.016-54.017 5.258.667 13.158.487 20.75-4.873-3.232 8.182-5.13 17.133-5.13 26.085 0 25.778 12.312 33.011 22.905 33.011 11.516 0 20.853-6.874 28.009-18.955 2.36 10.901 8.387 18.801 19.468 18.801 17.339 0 32.395-17.724 32.395-32.267 0-3.847-1.642-6.182-3.565-6.182Zm-359.886 24.316c-7.002 0-9.746-7.054-9.746-17.57 0-18.262 12.491-48.759 25.7-48.759 5.771 0 7.952 6.797 7.952 15.107 0 18.545-11.876 51.222-23.906 51.222Zm239.847-54.505c-4.181-4.976-5.694-11.747-5.694-17.775 0-7.438 2.719-13.722 5.976-13.722s4.258 3.206 4.258 7.67c0 7.463-2.668 18.364-4.54 23.827Zm54.299 54.505c-7.002 0-9.746-8.105-9.746-17.57 0-17.621 12.491-48.759 25.803-48.759 5.771 0 7.823 6.746 7.823 15.107 0 18.545-11.67 51.222-23.88 51.222Z" fill="url(#_2582211521__a)"/><path d="M509.421 112.446c-.873 0-1.668.565-2.078 1.745-5.258 15.004-12.363 23.93-18.211 23.93-3.36 0-4.719-3.744-4.719-9.618 0-14.697 8.797-45.861 13.235-60.07.513-1.72.846-3.258.846-4.566 0-4.13-2.257-6.156-7.849-6.156-6.027 0-12.517 2.36-18.826 13.415-2.18-9.747-8.772-14.005-17.98-14.005-10.645 0-20.93 6.848-29.395 17.955-8.464 11.106-18.416 14.748-25.905 12.952 5.386-13.183 7.387-23.033 7.387-30.343 0-11.465-5.669-18.39-14.826-18.39-13.927 0-21.955 13.286-21.955 27.265 0 10.798 4.899 21.904 15.671 27.29-9.028 20.418-22.212 38.885-27.214 38.885-6.463 0-8.361-31.625-8.002-54.248.231-12.979 1.308-13.646 1.308-17.57 0-2.257-1.462-3.796-7.336-3.796-13.696 0-17.929 11.593-18.57 24.905-.205 5.053-1 10.08-2.36 14.954-5.719 20.417-17.518 35.909-25.213 35.909-3.565 0-4.54-3.565-4.54-8.233 0-14.697 8.234-33.062 8.234-48.734 0-11.517-5.053-18.801-14.569-18.801-11.209 0-26.034 13.338-40.064 38.32 4.617-19.134 6.515-37.653-7.156-37.653a18.503 18.503 0 0 0-8.49 2.206 4.82 4.82 0 0 0-2.77 4.668c1.308 20.365-16.416 72.536-33.216 72.536-3.053 0-4.54-3.309-4.54-8.644 0-14.722 8.772-45.81 13.183-60.045.565-1.847.873-3.437.873-4.822 0-3.898-2.411-5.9-7.875-5.9-6.002 0-12.517 2.284-18.801 13.339-2.206-9.747-8.797-14.005-18.006-14.005-15.107 0-31.984 15.98-39.397 36.807-9.926 27.804-29.933 54.658-56.864 54.658-24.444 0-37.346-20.34-37.346-52.478 0-46.4 34.063-84.31 59.327-84.31 12.081 0 17.852 7.696 17.852 19.494 0 14.287-7.977 20.93-7.977 26.368 0 1.667 1.385 3.308 4.13 3.308 10.978 0 23.905-12.901 23.905-30.497C123.322 12.876 109.035 0 83.771 0 42.013 0 0 42.014 0 95.851c0 42.835 21.135 68.664 57.685 68.664 24.931 0 46.708-19.391 58.455-42.014 1.334 18.75 9.849 28.548 22.828 28.548 11.542 0 20.878-6.874 28.009-18.955 2.744 12.645 10.029 18.826 19.493 18.826 10.85 0 19.93-6.874 28.574-19.647-.129 10.029 2.154 19.468 10.849 19.468 4.104 0 9.003-.949 9.875-4.54 9.157-37.858 31.78-68.766 38.705-68.766 2.052 0 2.616 1.975 2.616 4.31 0 10.285-7.258 31.368-7.258 44.834 0 14.543 6.181 24.162 18.954 24.162 14.159 0 28.548-17.339 38.141-42.681 3.001 23.675 9.49 42.783 19.647 42.783 12.466 0 34.601-26.239 48.016-54.017 5.258.667 13.158.487 20.75-4.873-3.232 8.182-5.13 17.133-5.13 26.085 0 25.778 12.312 33.011 22.905 33.011 11.516 0 20.853-6.874 28.009-18.955 2.36 10.901 8.387 18.801 19.468 18.801 17.339 0 32.395-17.724 32.395-32.267 0-3.847-1.642-6.182-3.565-6.182Zm-359.886 24.316c-7.002 0-9.746-7.054-9.746-17.57 0-18.262 12.491-48.759 25.7-48.759 5.771 0 7.952 6.797 7.952 15.107 0 18.545-11.876 51.222-23.906 51.222Zm239.847-54.505c-4.181-4.976-5.694-11.747-5.694-17.775 0-7.438 2.719-13.722 5.976-13.722s4.258 3.206 4.258 7.67c0 7.463-2.668 18.364-4.54 23.827Zm54.299 54.505c-7.002 0-9.746-8.105-9.746-17.57 0-17.621 12.491-48.759 25.803-48.759 5.771 0 7.823 6.746 7.823 15.107 0 18.545-11.67 51.222-23.88 51.222Z" fill="url(#_2582211521__b)"/><path d="M509.421 112.446c-.873 0-1.668.565-2.078 1.745-5.258 15.004-12.363 23.93-18.211 23.93-3.36 0-4.719-3.744-4.719-9.618 0-14.697 8.797-45.861 13.235-60.07.513-1.72.846-3.258.846-4.566 0-4.13-2.257-6.156-7.849-6.156-6.027 0-12.517 2.36-18.826 13.415-2.18-9.747-8.772-14.005-17.98-14.005-10.645 0-20.93 6.848-29.395 17.955-8.464 11.106-18.416 14.748-25.905 12.952 5.386-13.183 7.387-23.033 7.387-30.343 0-11.465-5.669-18.39-14.826-18.39-13.927 0-21.955 13.286-21.955 27.265 0 10.798 4.899 21.904 15.671 27.29-9.028 20.418-22.212 38.885-27.214 38.885-6.463 0-8.361-31.625-8.002-54.248.231-12.979 1.308-13.646 1.308-17.57 0-2.257-1.462-3.796-7.336-3.796-13.696 0-17.929 11.593-18.57 24.905-.205 5.053-1 10.08-2.36 14.954-5.719 20.417-17.518 35.909-25.213 35.909-3.565 0-4.54-3.565-4.54-8.233 0-14.697 8.234-33.062 8.234-48.734 0-11.517-5.053-18.801-14.569-18.801-11.209 0-26.034 13.338-40.064 38.32 4.617-19.134 6.515-37.653-7.156-37.653a18.503 18.503 0 0 0-8.49 2.206 4.82 4.82 0 0 0-2.77 4.668c1.308 20.365-16.416 72.536-33.216 72.536-3.053 0-4.54-3.309-4.54-8.644 0-14.722 8.772-45.81 13.183-60.045.565-1.847.873-3.437.873-4.822 0-3.898-2.411-5.9-7.875-5.9-6.002 0-12.517 2.284-18.801 13.339-2.206-9.747-8.797-14.005-18.006-14.005-15.107 0-31.984 15.98-39.397 36.807-9.926 27.804-29.933 54.658-56.864 54.658-24.444 0-37.346-20.34-37.346-52.478 0-46.4 34.063-84.31 59.327-84.31 12.081 0 17.852 7.696 17.852 19.494 0 14.287-7.977 20.93-7.977 26.368 0 1.667 1.385 3.308 4.13 3.308 10.978 0 23.905-12.901 23.905-30.497C123.322 12.876 109.035 0 83.771 0 42.013 0 0 42.014 0 95.851c0 42.835 21.135 68.664 57.685 68.664 24.931 0 46.708-19.391 58.455-42.014 1.334 18.75 9.849 28.548 22.828 28.548 11.542 0 20.878-6.874 28.009-18.955 2.744 12.645 10.029 18.826 19.493 18.826 10.85 0 19.93-6.874 28.574-19.647-.129 10.029 2.154 19.468 10.849 19.468 4.104 0 9.003-.949 9.875-4.54 9.157-37.858 31.78-68.766 38.705-68.766 2.052 0 2.616 1.975 2.616 4.31 0 10.285-7.258 31.368-7.258 44.834 0 14.543 6.181 24.162 18.954 24.162 14.159 0 28.548-17.339 38.141-42.681 3.001 23.675 9.49 42.783 19.647 42.783 12.466 0 34.601-26.239 48.016-54.017 5.258.667 13.158.487 20.75-4.873-3.232 8.182-5.13 17.133-5.13 26.085 0 25.778 12.312 33.011 22.905 33.011 11.516 0 20.853-6.874 28.009-18.955 2.36 10.901 8.387 18.801 19.468 18.801 17.339 0 32.395-17.724 32.395-32.267 0-3.847-1.642-6.182-3.565-6.182Zm-359.886 24.316c-7.002 0-9.746-7.054-9.746-17.57 0-18.262 12.491-48.759 25.7-48.759 5.771 0 7.952 6.797 7.952 15.107 0 18.545-11.876 51.222-23.906 51.222Zm239.847-54.505c-4.181-4.976-5.694-11.747-5.694-17.775 0-7.438 2.719-13.722 5.976-13.722s4.258 3.206 4.258 7.67c0 7.463-2.668 18.364-4.54 23.827Zm54.299 54.505c-7.002 0-9.746-8.105-9.746-17.57 0-17.621 12.491-48.759 25.803-48.759 5.771 0 7.823 6.746 7.823 15.107 0 18.545-11.67 51.222-23.88 51.222Z" fill="url(#_2582211521__c)"/><path d="M509.421 112.446c-.873 0-1.668.565-2.078 1.745-5.258 15.004-12.363 23.93-18.211 23.93-3.36 0-4.719-3.744-4.719-9.618 0-14.697 8.797-45.861 13.235-60.07.513-1.72.846-3.258.846-4.566 0-4.13-2.257-6.156-7.849-6.156-6.027 0-12.517 2.36-18.826 13.415-2.18-9.747-8.772-14.005-17.98-14.005-10.645 0-20.93 6.848-29.395 17.955-8.464 11.106-18.416 14.748-25.905 12.952 5.386-13.183 7.387-23.033 7.387-30.343 0-11.465-5.669-18.39-14.826-18.39-13.927 0-21.955 13.286-21.955 27.265 0 10.798 4.899 21.904 15.671 27.29-9.028 20.418-22.212 38.885-27.214 38.885-6.463 0-8.361-31.625-8.002-54.248.231-12.979 1.308-13.646 1.308-17.57 0-2.257-1.462-3.796-7.336-3.796-13.696 0-17.929 11.593-18.57 24.905-.205 5.053-1 10.08-2.36 14.954-5.719 20.417-17.518 35.909-25.213 35.909-3.565 0-4.54-3.565-4.54-8.233 0-14.697 8.234-33.062 8.234-48.734 0-11.517-5.053-18.801-14.569-18.801-11.209 0-26.034 13.338-40.064 38.32 4.617-19.134 6.515-37.653-7.156-37.653a18.503 18.503 0 0 0-8.49 2.206 4.82 4.82 0 0 0-2.77 4.668c1.308 20.365-16.416 72.536-33.216 72.536-3.053 0-4.54-3.309-4.54-8.644 0-14.722 8.772-45.81 13.183-60.045.565-1.847.873-3.437.873-4.822 0-3.898-2.411-5.9-7.875-5.9-6.002 0-12.517 2.284-18.801 13.339-2.206-9.747-8.797-14.005-18.006-14.005-15.107 0-31.984 15.98-39.397 36.807-9.926 27.804-29.933 54.658-56.864 54.658-24.444 0-37.346-20.34-37.346-52.478 0-46.4 34.063-84.31 59.327-84.31 12.081 0 17.852 7.696 17.852 19.494 0 14.287-7.977 20.93-7.977 26.368 0 1.667 1.385 3.308 4.13 3.308 10.978 0 23.905-12.901 23.905-30.497C123.322 12.876 109.035 0 83.771 0 42.013 0 0 42.014 0 95.851c0 42.835 21.135 68.664 57.685 68.664 24.931 0 46.708-19.391 58.455-42.014 1.334 18.75 9.849 28.548 22.828 28.548 11.542 0 20.878-6.874 28.009-18.955 2.744 12.645 10.029 18.826 19.493 18.826 10.85 0 19.93-6.874 28.574-19.647-.129 10.029 2.154 19.468 10.849 19.468 4.104 0 9.003-.949 9.875-4.54 9.157-37.858 31.78-68.766 38.705-68.766 2.052 0 2.616 1.975 2.616 4.31 0 10.285-7.258 31.368-7.258 44.834 0 14.543 6.181 24.162 18.954 24.162 14.159 0 28.548-17.339 38.141-42.681 3.001 23.675 9.49 42.783 19.647 42.783 12.466 0 34.601-26.239 48.016-54.017 5.258.667 13.158.487 20.75-4.873-3.232 8.182-5.13 17.133-5.13 26.085 0 25.778 12.312 33.011 22.905 33.011 11.516 0 20.853-6.874 28.009-18.955 2.36 10.901 8.387 18.801 19.468 18.801 17.339 0 32.395-17.724 32.395-32.267 0-3.847-1.642-6.182-3.565-6.182Zm-359.886 24.316c-7.002 0-9.746-7.054-9.746-17.57 0-18.262 12.491-48.759 25.7-48.759 5.771 0 7.952 6.797 7.952 15.107 0 18.545-11.876 51.222-23.906 51.222Zm239.847-54.505c-4.181-4.976-5.694-11.747-5.694-17.775 0-7.438 2.719-13.722 5.976-13.722s4.258 3.206 4.258 7.67c0 7.463-2.668 18.364-4.54 23.827Zm54.299 54.505c-7.002 0-9.746-8.105-9.746-17.57 0-17.621 12.491-48.759 25.803-48.759 5.771 0 7.823 6.746 7.823 15.107 0 18.545-11.67 51.222-23.88 51.222Z" fill="url(#_2582211521__d)"/><path d="M509.421 112.446c-.873 0-1.668.565-2.078 1.745-5.258 15.004-12.363 23.93-18.211 23.93-3.36 0-4.719-3.744-4.719-9.618 0-14.697 8.797-45.861 13.235-60.07.513-1.72.846-3.258.846-4.566 0-4.13-2.257-6.156-7.849-6.156-6.027 0-12.517 2.36-18.826 13.415-2.18-9.747-8.772-14.005-17.98-14.005-10.645 0-20.93 6.848-29.395 17.955-8.464 11.106-18.416 14.748-25.905 12.952 5.386-13.183 7.387-23.033 7.387-30.343 0-11.465-5.669-18.39-14.826-18.39-13.927 0-21.955 13.286-21.955 27.265 0 10.798 4.899 21.904 15.671 27.29-9.028 20.418-22.212 38.885-27.214 38.885-6.463 0-8.361-31.625-8.002-54.248.231-12.979 1.308-13.646 1.308-17.57 0-2.257-1.462-3.796-7.336-3.796-13.696 0-17.929 11.593-18.57 24.905-.205 5.053-1 10.08-2.36 14.954-5.719 20.417-17.518 35.909-25.213 35.909-3.565 0-4.54-3.565-4.54-8.233 0-14.697 8.234-33.062 8.234-48.734 0-11.517-5.053-18.801-14.569-18.801-11.209 0-26.034 13.338-40.064 38.32 4.617-19.134 6.515-37.653-7.156-37.653a18.503 18.503 0 0 0-8.49 2.206 4.82 4.82 0 0 0-2.77 4.668c1.308 20.365-16.416 72.536-33.216 72.536-3.053 0-4.54-3.309-4.54-8.644 0-14.722 8.772-45.81 13.183-60.045.565-1.847.873-3.437.873-4.822 0-3.898-2.411-5.9-7.875-5.9-6.002 0-12.517 2.284-18.801 13.339-2.206-9.747-8.797-14.005-18.006-14.005-15.107 0-31.984 15.98-39.397 36.807-9.926 27.804-29.933 54.658-56.864 54.658-24.444 0-37.346-20.34-37.346-52.478 0-46.4 34.063-84.31 59.327-84.31 12.081 0 17.852 7.696 17.852 19.494 0 14.287-7.977 20.93-7.977 26.368 0 1.667 1.385 3.308 4.13 3.308 10.978 0 23.905-12.901 23.905-30.497C123.322 12.876 109.035 0 83.771 0 42.013 0 0 42.014 0 95.851c0 42.835 21.135 68.664 57.685 68.664 24.931 0 46.708-19.391 58.455-42.014 1.334 18.75 9.849 28.548 22.828 28.548 11.542 0 20.878-6.874 28.009-18.955 2.744 12.645 10.029 18.826 19.493 18.826 10.85 0 19.93-6.874 28.574-19.647-.129 10.029 2.154 19.468 10.849 19.468 4.104 0 9.003-.949 9.875-4.54 9.157-37.858 31.78-68.766 38.705-68.766 2.052 0 2.616 1.975 2.616 4.31 0 10.285-7.258 31.368-7.258 44.834 0 14.543 6.181 24.162 18.954 24.162 14.159 0 28.548-17.339 38.141-42.681 3.001 23.675 9.49 42.783 19.647 42.783 12.466 0 34.601-26.239 48.016-54.017 5.258.667 13.158.487 20.75-4.873-3.232 8.182-5.13 17.133-5.13 26.085 0 25.778 12.312 33.011 22.905 33.011 11.516 0 20.853-6.874 28.009-18.955 2.36 10.901 8.387 18.801 19.468 18.801 17.339 0 32.395-17.724 32.395-32.267 0-3.847-1.642-6.182-3.565-6.182Zm-359.886 24.316c-7.002 0-9.746-7.054-9.746-17.57 0-18.262 12.491-48.759 25.7-48.759 5.771 0 7.952 6.797 7.952 15.107 0 18.545-11.876 51.222-23.906 51.222Zm239.847-54.505c-4.181-4.976-5.694-11.747-5.694-17.775 0-7.438 2.719-13.722 5.976-13.722s4.258 3.206 4.258 7.67c0 7.463-2.668 18.364-4.54 23.827Zm54.299 54.505c-7.002 0-9.746-8.105-9.746-17.57 0-17.621 12.491-48.759 25.803-48.759 5.771 0 7.823 6.746 7.823 15.107 0 18.545-11.67 51.222-23.88 51.222Z" fill="url(#_2582211521__e)"/><path d="M645.435 46.393c-3.823 0-6.922-1.13-9.297-3.389-2.374-2.317-3.562-5.242-3.562-8.775 0-3.533 1.188-6.43 3.562-8.688 2.375-2.26 5.474-3.389 9.297-3.389 3.823 0 6.893 1.13 9.21 3.389 2.374 2.258 3.562 5.155 3.562 8.688 0 3.533-1.188 6.458-3.562 8.775-2.375 2.26-5.445 3.389-9.21 3.389Zm-8.862 8.427c2.548.522 5.502.782 8.862.782 3.417 0 6.342-.26 8.775-.782V151h-17.637V54.82ZM565.497 152.825c-7.066 0-13.032-1.188-17.898-3.563-4.865-2.432-8.543-5.85-11.034-10.252-2.491-4.46-3.736-9.644-3.736-15.552 0-7.82 2.462-14.133 7.385-18.941 4.924-4.865 11.961-8.08 21.113-9.644l18.245-3.04c4.229-.696 7.559-1.507 9.992-2.433 2.433-.985 4.17-2.201 5.213-3.65 1.043-1.447 1.564-3.3 1.564-5.56 0-3.996-1.506-6.98-4.518-8.949-3.012-2.027-7.791-3.04-14.336-3.04-6.371 0-12.25 1.418-17.637 4.257-5.387 2.78-10.021 6.834-13.902 12.163l-9.383-13.64c5.039-6.024 11.034-10.513 17.985-13.467 6.951-3.012 14.48-4.518 22.59-4.518 13.032 0 22.473 2.838 28.324 8.514 5.908 5.677 8.862 14.249 8.862 25.718v40.314c0 5.85 2.432 8.775 7.298 8.775 1.216 0 2.259-.087 3.128-.261.926-.232 1.94-.608 3.041-1.129l1.477 14.596c-2.781 1.448-6.43 2.172-10.948 2.172-13.38 0-20.359-7.501-20.939-22.503h-.782c-4.344 15.755-14.712 23.633-31.104 23.633Zm3.823-14.597c9.036 0 15.9-2.548 20.591-7.646 4.75-5.155 7.125-12.598 7.125-22.329v-9.47c-1.159 1.564-3.157 2.896-5.995 3.997-2.78 1.1-6.603 2.056-11.469 2.867l-12.945 2.259c-5.329.927-9.268 2.664-11.816 5.213-2.549 2.491-3.823 5.85-3.823 10.078 0 4.634 1.564 8.312 4.691 11.035 3.186 2.664 7.733 3.996 13.641 3.996Z" fill="#7D2AE7"/><rect x="682.336" y="57.336" width="176.053" height="89.327" rx="44.664" stroke="#7D2AE7" stroke-width="8.673"/><path d="M802.384 131.472c-15.137 0-26.46-10.99-26.46-31.187 0-20.239 11.323-31.188 26.46-31.188 15.138 0 26.46 10.949 26.46 31.188 0 20.197-11.322 31.187-26.46 31.187Zm0-9.041c9.871 0 16.216-7.133 16.216-22.146 0-15.055-6.345-22.188-16.216-22.188-9.912 0-16.257 7.133-16.257 22.188 0 15.013 6.345 22.146 16.257 22.146ZM772.515 131.016c-3.899 0-6.387-2.53-6.387-6.096 0-3.567 2.488-6.138 6.387-6.138 3.857 0 6.345 2.571 6.345 6.138 0 3.566-2.488 6.096-6.345 6.096ZM722.116 122.141c27.414-17.958 30.939-26.46 30.939-34.132 0-6.387-3.691-10.037-10.866-10.037-6.884 0-11.654 3.443-15.386 9.705l-5.641-7.548c4.272-6.304 11.323-11.032 21.027-11.032 13.977 0 21.027 7.01 21.027 18.912 0 11.156-8.709 22.478-26.75 33.717l.083.332h27.082v8.544h-41.515v-8.461Z" fill="#7D2AE7"/><defs><radialGradient id="_2582211521__a" cx="0" cy="0" r="1" gradientUnits="userSpaceOnUse" gradientTransform="matrix(107.72725 -110.80506 73.63893 71.59347 262.649 182.366)"><stop stop-color="#6420FF"/><stop offset="1" stop-color="#6420FF" stop-opacity="0"/></radialGradient><radialGradient id="_2582211521__b" cx="0" cy="0" r="1" gradientUnits="userSpaceOnUse" gradientTransform="rotate(5.088 -1226.294 193.303) scale(300.769 239.719)"><stop offset=".25" stop-color="#00C4CC"/><stop offset="1" stop-color="#00C4CC" stop-opacity="0"/></radialGradient><radialGradient id="_2582211521__c" cx="0" cy="0" r="1" gradientUnits="userSpaceOnUse" gradientTransform="rotate(-38.849 342.575 -228.192) scale(193.819 132.528)"><stop stop-color="#6420FF"/><stop offset="1" stop-color="#6420FF" stop-opacity="0"/></radialGradient><radialGradient id="_2582211521__d" cx="0" cy="0" r="1" gradientUnits="userSpaceOnUse" gradientTransform="matrix(200.83354 -98.49298 67.3465 137.32387 14.62 164.412)"><stop stop-color="#6420FF"/><stop offset="1" stop-color="#6420FF" stop-opacity="0"/></radialGradient><radialGradient id="_2582211521__e" cx="0" cy="0" r="1" gradientUnits="userSpaceOnUse" gradientTransform="matrix(436.03708 96.44116 -118.28136 534.78264 49.247 15.133)"><stop stop-color="#00C4CC"/><stop offset="1" stop-color="#00C4CC" stop-opacity="0"/></radialGradient></defs></svg>