<svg width="32" height="32" viewBox="0 0 32 32" fill="none" xmlns="http://www.w3.org/2000/svg">
<g filter="url(#filter0_ii_10814_9756)">
<rect width="32" height="32" rx="16" fill="url(#paint0_linear_10814_9756)"/>
<rect x="0.0532829" y="0.0532829" width="31.8934" height="31.8934" rx="15.9467" stroke="black" stroke-opacity="0.12" stroke-width="0.106566"/>
</g>
<path d="M5.90389 14.1454C4.88945 13.8311 4.29901 13.326 4.09611 12.2782C4.09611 12.1521 3.9971 12.0498 3.875 12.0498C3.7529 12.0498 3.6539 12.1521 3.6539 12.2782C3.34957 13.326 2.86055 13.9358 1.84611 14.1454C1.72401 14.1454 1.625 14.2477 1.625 14.3738C1.625 14.4999 1.72401 14.6022 1.84611 14.6022C2.86055 14.9165 3.45099 15.4216 3.6539 16.4694C3.6539 16.5955 3.7529 16.6978 3.875 16.6978C3.9971 16.6978 4.09611 16.5955 4.09611 16.4694C4.40043 15.4216 4.88945 14.8117 5.90389 14.6022C6.026 14.6022 6.125 14.4999 6.125 14.3738C6.125 14.2477 6.026 14.1454 5.90389 14.1454Z" fill="white"/>
<path d="M7.71167 5.28796C8 6.6875 8.9375 7.89844 11.0563 8.47635C11.1978 8.47635 11.3125 8.58403 11.3125 8.71685C11.3125 8.84966 11.1978 8.95735 11.0563 8.95735C9.02344 9.53906 8.34375 10.4219 7.7133 12.1382C7.6864 12.244 7.58971 12.3243 7.46875 12.3243C7.34316 12.3243 7.2435 12.2379 7.22157 12.126C6.76562 10.5625 6.02344 9.53906 3.88125 8.95735C3.73974 8.95735 3.625 8.84966 3.625 8.71685C3.625 8.58403 3.73974 8.47635 3.88125 8.47635C6 7.89844 6.95312 6.78125 7.22533 5.29025C7.25417 5.18706 7.34976 5.10938 7.46875 5.10938C7.58687 5.10938 7.68202 5.18591 7.71167 5.28796Z" fill="white"/>
<path d="M17.7891 5.5957C21.0515 5.5957 22.9961 7.23823 22.9961 9.47266C22.996 11.7768 21.3306 13.4079 19.9111 13.4082C19.5578 13.4082 19.3789 13.2347 19.3789 12.9482C19.379 12.3101 20.4071 11.3521 20.4072 9.54297C20.4072 8.01834 19.4757 7.05957 17.9512 7.05957C14.6887 7.05995 10.9746 10.9147 10.9746 17.5811C10.9746 21.5167 12.9291 24.3652 16.085 24.3652C18.8141 24.3652 21.1725 22.4065 22.5381 19.6377C22.6589 19.3943 22.7753 19.2824 22.9072 19.2822C23.0982 19.2822 23.2812 19.4466 23.2812 19.8047C23.2809 21.4218 20.3862 26.4023 15.3799 26.4023C10.6628 26.4023 7.60547 22.8645 7.60547 17.5107C7.60548 16.913 7.64303 16.3298 7.71191 15.7627C8.21463 12.8983 9.19846 11.5357 9.74219 10.9531C10.0385 10.6492 10.4416 10.3866 11.2803 10.208C12.0188 10.0985 12.5625 9.45902 12.5625 8.7168C12.5625 8.29251 12.3849 7.90155 12.0947 7.62402C13.7482 6.33061 15.724 5.59576 17.7891 5.5957ZM11.1377 8.4707C11.2392 8.50531 11.3125 8.60207 11.3125 8.7168C11.3125 8.86041 11.198 8.97733 11.0566 8.97754C10.8815 9.01403 10.7148 9.05559 10.5557 9.10059C10.743 8.88179 10.9367 8.67139 11.1377 8.4707Z" fill="white"/>
<defs>
<filter id="filter0_ii_10814_9756" x="0" y="0" width="32" height="32" filterUnits="userSpaceOnUse" color-interpolation-filters="sRGB">
<feFlood flood-opacity="0" result="BackgroundImageFix"/>
<feBlend mode="normal" in="SourceGraphic" in2="BackgroundImageFix" result="shape"/>
<feColorMatrix in="SourceAlpha" type="matrix" values="0 0 0 0 0 0 0 0 0 0 0 0 0 0 0 0 0 0 127 0" result="hardAlpha"/>
<feMorphology radius="2.85756" operator="erode" in="SourceAlpha" result="effect1_innerShadow_10814_9756"/>
<feOffset/>
<feGaussianBlur stdDeviation="4.83587"/>
<feComposite in2="hardAlpha" operator="arithmetic" k2="-1" k3="1"/>
<feColorMatrix type="matrix" values="0 0 0 0 0 0 0 0 0 0.950481 0 0 0 0 0.989277 0 0 0 1 0"/>
<feBlend mode="normal" in2="shape" result="effect1_innerShadow_10814_9756"/>
<feColorMatrix in="SourceAlpha" type="matrix" values="0 0 0 0 0 0 0 0 0 0 0 0 0 0 0 0 0 0 127 0" result="hardAlpha"/>
<feMorphology radius="0.87925" operator="erode" in="SourceAlpha" result="effect2_innerShadow_10814_9756"/>
<feOffset/>
<feGaussianBlur stdDeviation="1.09906"/>
<feComposite in2="hardAlpha" operator="arithmetic" k2="-1" k3="1"/>
<feColorMatrix type="matrix" values="0 0 0 0 0.996434 0 0 0 0 0.904917 0 0 0 0 1 0 0 0 1 0"/>
<feBlend mode="normal" in2="effect1_innerShadow_10814_9756" result="effect2_innerShadow_10814_9756"/>
</filter>
<linearGradient id="paint0_linear_10814_9756" x1="9.88535" y1="3.89848" x2="13.0184" y2="31.6579" gradientUnits="userSpaceOnUse">
<stop offset="0.029444" stop-color="#00C4CC"/>
<stop offset="0.519444" stop-color="#5A32FA"/>
<stop offset="1" stop-color="#7D2AE8"/>
</linearGradient>
</defs>
</svg>
