<svg width="96" height="96" viewBox="0 0 96 96" fill="none" xmlns="http://www.w3.org/2000/svg">
<path d="M39.2923 65.916L35.8387 57.1956H33.2417L29.7881 65.916H31.846L34.5076 58.9921H34.5821L37.2437 65.916H39.2923Z" fill="#8B3DFF"/>
<path fill-rule="evenodd" clip-rule="evenodd" d="M53.8955 65.916C53.786 65.4087 53.5819 64.9625 53.2831 64.5772C52.8177 63.969 52.1072 63.544 51.1515 63.3019V63.2182C52.4671 62.6845 53.1249 61.7505 53.1249 60.4163C53.1249 59.7585 52.979 59.1907 52.6874 58.7128C52.3957 58.2288 51.9582 57.8565 51.3749 57.5958C50.7978 57.329 50.0903 57.1956 49.2525 57.1956H42.9507V65.916H44.9241V64.4283H49.3736C50.2361 64.4283 50.8815 64.6269 51.3097 65.024C51.5611 65.2572 51.7387 65.5545 51.8425 65.916H53.8955ZM48.8616 62.8272C49.5939 62.8272 50.1586 62.6534 50.5557 62.3059C50.9591 61.9522 51.1608 61.4526 51.1608 60.8073C51.1608 60.1246 50.9715 59.6189 50.593 59.29C50.2144 58.9611 49.6373 58.7966 48.8616 58.7966H44.9241V62.8272H48.8616Z" fill="#8B3DFF"/>
<path d="M55.7921 65.916C55.6524 65.316 55.5825 64.6773 55.5825 64C55.5825 62.6161 55.8742 61.3936 56.4575 60.3324C57.0471 59.2713 57.8507 58.4521 58.8684 57.875C59.8924 57.2917 61.0311 57 62.2846 57C63.7678 57 64.9655 57.2886 65.8777 57.8657C66.7962 58.4366 67.4447 59.2061 67.8232 60.1742L66.2594 61.3191C65.9367 60.4938 65.4464 59.8732 64.7886 59.4574C64.137 59.0355 63.3024 58.8245 62.2846 58.8245C61.391 58.8245 60.5905 59.0324 59.883 59.4481C59.1818 59.8639 58.6326 60.4628 58.2354 61.2447C57.8383 62.0266 57.6397 62.945 57.6397 64C57.6397 64.7001 57.7251 65.3387 57.896 65.916H55.7921Z" fill="#8B3DFF"/>
<path d="M66.8222 65.916H66.4565C66.4722 65.8523 66.4871 65.7876 66.5014 65.7221L66.8222 65.916Z" fill="#8B3DFF"/>
<g opacity="0.3">
<path d="M58.8679 70.1343C59.8919 70.7114 61.0306 71 62.2842 71C63.9411 71 65.2505 70.609 66.2123 69.8271C67.1742 69.0452 67.8196 68.0089 68.1485 66.7181L66.8217 65.916L66.456 65.916C66.1982 66.9621 65.7446 67.76 65.0953 68.3098C64.4127 68.887 63.485 69.1755 62.3121 69.1755C61.4123 69.1755 60.6086 68.9707 59.9012 68.5612C59.1937 68.1454 58.6383 67.5496 58.235 66.7739C58.0983 66.5049 57.9851 66.2189 57.8955 65.916L55.7916 65.916C55.9374 66.5419 56.1592 67.1258 56.457 67.6676C57.0466 68.7287 57.8502 69.551 58.8679 70.1343Z" fill="#8B3DFF"/>
<path d="M42.9502 65.916V70.8046H49.2521C50.8593 70.8046 52.0508 70.4695 52.8265 69.7993C53.6022 69.1229 53.9901 68.1424 53.9901 66.8578C53.9901 66.5234 53.9584 66.2095 53.8951 65.916L51.842 65.916C51.915 66.1703 51.9515 66.4563 51.9515 66.774C51.9515 67.5435 51.7374 68.13 51.3092 68.5333C50.881 68.9305 50.2357 69.1291 49.3731 69.1291H44.9236V65.916H42.9502Z" fill="#8B3DFF"/>
<path d="M29.7876 65.916L27.8516 70.8046H29.9646L31.1933 67.6118H37.8861L39.1149 70.8046H41.2279L39.2919 65.916H37.2432L37.2438 65.9176H31.8449L31.8455 65.916H29.7876Z" fill="#8B3DFF"/>
</g>
<path fill-rule="evenodd" clip-rule="evenodd" d="M26 65.166C26 64.7518 26.3358 64.416 26.75 64.416L70.25 64.416C70.6642 64.416 71 64.7518 71 65.166C71 65.5802 70.6642 65.916 70.25 65.916L26.75 65.916C26.3358 65.916 26 65.5802 26 65.166Z" fill="#8B3DFF"/>
<path opacity="0.3" d="M36 41H60V45C60 47.2091 58.2091 49 56 49H40C37.7909 49 36 47.2091 36 45V41Z" fill="#8B3DFF"/>
<g clip-path="url(#clip0_1526_9682)">
<path opacity="0.6" d="M40.0003 49.0002H56.0003C58.2094 49.0002 60.0003 47.2093 60.0003 45.0002V41.0002L53.4145 34.4144C52.6335 33.6334 51.3671 33.6334 50.5861 34.4144L37.1719 47.8286C37.8957 48.5525 38.8957 49.0002 40.0003 49.0002Z" fill="#8B3DFF"/>
<path fill-rule="evenodd" clip-rule="evenodd" d="M36 29C36 26.7909 37.7909 25 40 25H56C58.2091 25 60 26.7909 60 29V41L53.4142 34.4142C52.6332 33.6332 51.3668 33.6332 50.5858 34.4142L37.1716 47.8284C36.4477 47.1046 36 46.1046 36 45V29ZM42.5 34C43.8807 34 45 32.8807 45 31.5C45 30.1193 43.8807 29 42.5 29C41.1193 29 40 30.1193 40 31.5C40 32.8807 41.1193 34 42.5 34Z" fill="#8B3DFF"/>
<circle opacity="0.6" cx="42.5" cy="31.5" r="2.5" fill="#8B3DFF"/>
</g>
<path fill-rule="evenodd" clip-rule="evenodd" d="M33 41C33 40.5858 33.3358 40.25 33.75 40.25L62.25 40.25C62.6642 40.25 63 40.5858 63 41C63 41.4142 62.6642 41.75 62.25 41.75L33.75 41.75C33.3358 41.75 33 41.4142 33 41Z" fill="#8B3DFF"/>
<defs>
<clipPath id="clip0_1526_9682">
<rect width="24" height="16" fill="white" transform="translate(36 25)"/>
</clipPath>
</defs>
</svg>
