<svg width="96" height="96" viewBox="0 0 96 96" fill="none" xmlns="http://www.w3.org/2000/svg">
<path opacity="0.6" d="M40.4446 47.0002H56.4446C58.6538 47.0002 60.4446 45.2093 60.4446 43.0002V39.0002L53.8589 32.4144C53.0778 31.6334 51.8115 31.6334 51.0304 32.4144L37.6162 45.8286C38.3401 46.5525 39.3401 47.0002 40.4446 47.0002Z" fill="#8B3DFF"/>
<path fill-rule="evenodd" clip-rule="evenodd" d="M36.4443 27C36.4443 24.7909 38.2352 23 40.4443 23H56.4443C58.6535 23 60.4443 24.7909 60.4443 27V39L53.8585 32.4142C53.0775 31.6332 51.8112 31.6332 51.0301 32.4142L37.6159 45.8284C36.8921 45.1046 36.4443 44.1046 36.4443 43V27ZM42.9443 32C44.325 32 45.4443 30.8807 45.4443 29.5C45.4443 28.1193 44.325 27 42.9443 27C41.5636 27 40.4443 28.1193 40.4443 29.5C40.4443 30.8807 41.5636 32 42.9443 32Z" fill="#8B3DFF"/>
<circle opacity="0.6" cx="42.9443" cy="29.5" r="2.5" fill="#8B3DFF"/>
<path opacity="0.3" d="M26.8516 73L26.8516 55L61.9912 55V73L26.8516 73Z" fill="#8B3DFF"/>
<rect x="61.9912" y="55" width="1.74976" height="18" fill="#8B3DFF"/>
<path d="M61.9902 69.0108V70.8909C61.2351 70.7586 60.5277 70.5066 59.8679 70.1347C58.8502 69.5514 58.0466 68.7291 57.457 67.668C56.8737 66.6068 56.582 65.3843 56.582 64.0004C56.582 62.6165 56.8737 61.394 57.457 60.3329C58.0466 59.2717 58.8502 58.4525 59.8679 57.8754C60.5277 57.4995 61.2351 57.2448 61.9902 57.1111V58.9869C61.5986 59.0908 61.2294 59.2447 60.8826 59.4485C60.1813 59.8643 59.6321 60.4632 59.235 61.2451C58.8378 62.027 58.6392 62.9454 58.6392 64.0004C58.6392 65.0678 58.8378 65.9924 59.235 66.7743C59.6383 67.5501 60.1937 68.1458 60.9012 68.5616C61.2419 68.7588 61.6049 68.9086 61.9902 69.0108Z" fill="#8B3DFF"/>
<path fill-rule="evenodd" clip-rule="evenodd" d="M42.2279 70.805H40.1149L38.8861 67.6122H32.1933L30.9646 70.805H28.8516L34.2412 57.196H36.8383L42.2279 70.805ZM35.5071 58.9925L32.8449 65.918H38.2438L35.5816 58.9925H35.5071Z" fill="#8B3DFF"/>
<path fill-rule="evenodd" clip-rule="evenodd" d="M43.9502 70.805V57.196H50.2521C51.0898 57.196 51.7973 57.3294 52.3744 57.5962C52.9577 57.8569 53.3952 58.2292 53.6869 58.7132C53.9786 59.1911 54.1244 59.7589 54.1244 60.4167C54.1244 61.7509 53.4666 62.6849 52.151 63.2186V63.3023C53.1067 63.5444 53.8172 63.9695 54.2826 64.5776C54.7543 65.1858 54.9901 65.946 54.9901 66.8582C54.9901 68.1428 54.6022 69.1233 53.8265 69.7997C53.0508 70.4699 51.8593 70.805 50.2521 70.805H43.9502ZM49.8611 62.8276C50.5934 62.8276 51.1581 62.6539 51.5552 62.3063C51.9586 61.9526 52.1603 61.4531 52.1603 60.8077C52.1603 60.125 51.971 59.6193 51.5925 59.2904C51.2139 58.9615 50.6368 58.797 49.8611 58.797H45.9236V62.8276H49.8611ZM50.3731 69.1295C51.2357 69.1295 51.881 68.9309 52.3092 68.5337C52.7374 68.1304 52.9515 67.5439 52.9515 66.7744C52.9515 66.0049 52.7374 65.4216 52.3092 65.0244C51.881 64.6273 51.2357 64.4287 50.3731 64.4287H45.9236V69.1295H50.3731Z" fill="#8B3DFF"/>
<g opacity="0.3">
<path d="M63.7412 70.9902C65.1836 70.9237 66.3407 70.5362 67.2123 69.8276C68.1742 69.0457 68.8196 68.0094 69.1485 66.7186L67.5009 65.7226C67.2527 66.8644 66.7842 67.727 66.0953 68.3103C65.4982 68.8152 64.7135 69.0992 63.7412 69.1624V70.9902Z" fill="#8B3DFF"/>
<path d="M63.7412 58.84C64.5546 58.8949 65.2369 59.1009 65.7881 59.4579C66.4459 59.8737 66.9362 60.4943 67.2589 61.3196L68.8227 60.1747C68.4442 59.2066 67.7957 58.4371 66.8772 57.8662C66.0606 57.3496 65.0153 57.0642 63.7412 57.01V58.84Z" fill="#8B3DFF"/>
</g>
</svg>
