<svg width="96" height="96" viewBox="0 0 96 96" fill="none" xmlns="http://www.w3.org/2000/svg">
<path fill-rule="evenodd" clip-rule="evenodd" d="M74.2596 16.7516C74.2596 16.3374 74.5954 16.0016 75.0096 16.0016H79.2523C79.6665 16.0016 80.0023 16.3374 80.0023 16.7516V20.9942C80.0023 21.4084 79.6665 21.7442 79.2523 21.7442C78.838 21.7442 78.5023 21.4084 78.5023 20.9942V18.5622L74.1257 22.9388C73.8328 23.2317 73.358 23.2317 73.0651 22.9388C72.7722 22.6459 72.7722 22.171 73.0651 21.8781L77.4416 17.5016H75.0096C74.5954 17.5016 74.2596 17.1658 74.2596 16.7516Z" fill="#8B3DFF"/>
<path fill-rule="evenodd" clip-rule="evenodd" d="M16.7477 21.7442C16.3335 21.7442 15.9977 21.4084 15.9977 20.9942L15.9977 16.7516C15.9977 16.3374 16.3335 16.0016 16.7477 16.0016L20.9904 16.0016C21.4046 16.0016 21.7404 16.3374 21.7404 16.7516C21.7404 17.1658 21.4046 17.5016 20.9904 17.5016L18.5584 17.5016L22.9349 21.8781C23.2278 22.171 23.2278 22.6459 22.9349 22.9388C22.642 23.2317 22.1672 23.2317 21.8743 22.9388L17.4977 18.5622L17.4977 20.9942C17.4977 21.4084 17.162 21.7442 16.7477 21.7442Z" fill="#8B3DFF"/>
<path fill-rule="evenodd" clip-rule="evenodd" d="M21.7404 79.2485C21.7404 79.6627 21.4046 79.9985 20.9904 79.9985H16.7477C16.3335 79.9985 15.9977 79.6627 15.9977 79.2485L15.9977 75.0059C15.9977 74.5917 16.3335 74.2559 16.7477 74.2559C17.162 74.2559 17.4977 74.5917 17.4977 75.0059L17.4977 77.4379L21.8743 73.0613C22.1672 72.7685 22.642 72.7685 22.9349 73.0613C23.2278 73.3542 23.2278 73.8291 22.9349 74.122L18.5584 78.4985H20.9904C21.4046 78.4985 21.7404 78.8343 21.7404 79.2485Z" fill="#8B3DFF"/>
<path fill-rule="evenodd" clip-rule="evenodd" d="M79.2523 74.2559C79.6665 74.2559 80.0023 74.5917 80.0023 75.0059L80.0023 79.2485C80.0023 79.6627 79.6665 79.9985 79.2523 79.9985L75.0096 79.9985C74.5954 79.9985 74.2596 79.6627 74.2596 79.2485C74.2596 78.8343 74.5954 78.4985 75.0096 78.4985H77.4416L73.0651 74.122C72.7722 73.8291 72.7722 73.3542 73.0651 73.0613C73.358 72.7685 73.8328 72.7685 74.1257 73.0613L78.5023 77.4379L78.5023 75.0059C78.5023 74.5917 78.838 74.2559 79.2523 74.2559Z" fill="#8B3DFF"/>
<path opacity="0.4" d="M37.8428 51.8624C38.4476 52.2297 39.1574 52.4413 39.9167 52.4413H55.9167C58.1258 52.4413 59.9167 50.6504 59.9167 48.4413V46.4413H41.9172L37.0886 51.2699C37.2965 51.4779 37.5273 51.663 37.7768 51.8213C37.7987 51.8352 37.8207 51.8489 37.8428 51.8624Z" fill="#8B3DFF"/>
<path opacity="0.2" d="M35.9167 46.4413V48.4413C35.9167 49.5459 36.3644 50.5459 37.0883 51.2697L41.9167 46.4413H35.9167Z" fill="#8B3DFF"/>
<path opacity="0.6" d="M47.9167 40.4413L41.9167 46.4413H59.9162V44.4412L55.9163 40.4413H47.9167Z" fill="#8B3DFF"/>
<g opacity="0.4">
<path d="M35.9167 40.4413V46.4413H41.9167L47.9167 40.4413H35.9167Z" fill="#8B3DFF"/>
<path d="M55.9167 40.4413L59.9167 44.4413V40.4413H55.9167Z" fill="#8B3DFF"/>
</g>
<path opacity="0.8" d="M55.9163 40.4413H47.9167L50.5023 37.8557C51.2833 37.0746 52.5497 37.0746 53.3307 37.8557L55.9163 40.4413Z" fill="#8B3DFF"/>
<path opacity="0.6" d="M35.9167 34.4413V40.4413H47.9167L50.5025 37.8555C51.2835 37.0744 52.5499 37.0744 53.3309 37.8555L55.9167 40.4413H59.9167V34.4413H44.8667C44.8995 34.6028 44.9167 34.7701 44.9167 34.9413C44.9167 36.322 43.7974 37.4413 42.4167 37.4413C41.036 37.4413 39.9167 36.322 39.9167 34.9413C39.9167 34.7701 39.9339 34.6028 39.9667 34.4413H35.9167Z" fill="#8B3DFF"/>
<path opacity="0.4" d="M42.4167 37.4413C43.7974 37.4413 44.9167 36.322 44.9167 34.9413C44.9167 34.7701 44.8995 34.6028 44.8667 34.4413H39.9667C39.9339 34.6028 39.9167 34.7701 39.9167 34.9413C39.9167 36.322 41.036 37.4413 42.4167 37.4413Z" fill="#8B3DFF"/>
<path d="M39.9167 28.4413C37.7075 28.4413 35.9167 30.2321 35.9167 32.4413V34.4413H39.9667C40.1983 33.3002 41.2072 32.4413 42.4167 32.4413C43.6262 32.4413 44.635 33.3002 44.8667 34.4413H59.9167V32.4413C59.9167 30.2321 58.1258 28.4413 55.9167 28.4413H39.9167Z" fill="#8B3DFF"/>
<path opacity="0.6" d="M44.8665 34.4413H39.9665C40.1981 33.3002 41.207 32.4413 42.4165 32.4413C43.626 32.4413 44.6348 33.3002 44.8665 34.4413Z" fill="#8B3DFF"/>
<path d="M42.6216 67.4039H40.9436L39.9679 64.8685H34.6531L33.6774 67.4039H31.9994L36.2793 56.5969H38.3417L42.6216 67.4039ZM37.2846 58.0236L35.1705 63.5232H39.4578L37.3438 58.0236H37.2846Z" fill="#8B3DFF"/>
<path d="M43.9886 67.4039V56.5969H48.993C49.6583 56.5969 50.22 56.7029 50.6783 56.9148C51.1416 57.1218 51.489 57.4174 51.7206 57.8018C51.9522 58.1813 52.068 58.6322 52.068 59.1545C52.068 60.214 51.5457 60.9557 50.5009 61.3795V61.446C51.2598 61.6382 51.8241 61.9758 52.1937 62.4587C52.5682 62.9417 52.7555 63.5453 52.7555 64.2697C52.7555 65.2898 52.4475 66.0685 51.8315 66.6056C51.2155 67.1378 50.2693 67.4039 48.993 67.4039H43.9886ZM48.6825 61.069C49.264 61.069 49.7125 60.9311 50.0279 60.6551C50.3482 60.3742 50.5083 59.9775 50.5083 59.465C50.5083 58.9229 50.358 58.5213 50.0574 58.2601C49.7568 57.9989 49.2985 57.8683 48.6825 57.8683H45.5557V61.069H48.6825ZM49.0891 66.0734C49.7741 66.0734 50.2866 65.9157 50.6266 65.6003C50.9666 65.28 51.1366 64.8143 51.1366 64.2032C51.1366 63.5922 50.9666 63.1289 50.6266 62.8135C50.2866 62.4981 49.7741 62.3405 49.0891 62.3405H45.5557V66.0734H49.0891Z" fill="#8B3DFF"/>
<path d="M59.3421 67.5589C58.3466 67.5589 57.4424 67.3297 56.6292 66.8714C55.8211 66.4082 55.1829 65.7552 54.7147 64.9126C54.2515 64.0699 54.0199 63.0991 54.0199 62.0001C54.0199 60.9012 54.2515 59.9304 54.7147 59.0877C55.1829 58.245 55.8211 57.5945 56.6292 57.1362C57.4424 56.673 58.3466 56.4414 59.3421 56.4414C60.5199 56.4414 61.471 56.6706 62.1954 57.1289C62.9247 57.5822 63.4397 58.1933 63.7403 58.9621L62.4984 59.8713C62.2422 59.2158 61.8529 58.723 61.3305 58.3929C60.8131 58.0578 60.1503 57.8902 59.3421 57.8902C58.6325 57.8902 57.9968 58.0553 57.435 58.3855C56.8781 58.7157 56.442 59.1912 56.1266 59.8121C55.8112 60.433 55.6535 61.1624 55.6535 62.0001C55.6535 62.8477 55.8112 63.582 56.1266 64.2029C56.4469 64.8189 56.888 65.292 57.4498 65.6222C58.0115 65.9474 58.6497 66.1101 59.3643 66.1101C60.2956 66.1101 61.0324 65.8809 61.5744 65.4226C62.1215 64.9594 62.4935 64.2744 62.6906 63.3676L63.999 64.1586C63.7378 65.1836 63.2253 66.0066 62.4615 66.6275C61.6976 67.2484 60.6578 67.5589 59.3421 67.5589Z" fill="#8B3DFF"/>
</svg>
