<svg width="96" height="96" viewBox="0 0 96 96" fill="none" xmlns="http://www.w3.org/2000/svg">
<path opacity="0.4" d="M37.9258 48.6165C38.5305 48.9839 39.2404 49.1954 39.9996 49.1954H55.9996C58.2088 49.1954 59.9996 47.4046 59.9996 45.1954V43.1954H42.0001L37.1715 48.024C37.3795 48.232 37.6102 48.4172 37.8597 48.5755C37.8816 48.5894 37.9036 48.6031 37.9258 48.6165Z" fill="#8B3DFF"/>
<path opacity="0.2" d="M35.9996 43.1954V45.1954C35.9996 46.3 36.4473 47.3 37.1712 48.0239L41.9996 43.1954H35.9996Z" fill="#8B3DFF"/>
<path opacity="0.6" d="M47.9996 37.1954L41.9996 43.1954H59.9991V41.1953L55.9993 37.1954H47.9996Z" fill="#8B3DFF"/>
<g opacity="0.4">
<path d="M35.9996 37.1954V43.1954H41.9996L47.9996 37.1954H35.9996Z" fill="#8B3DFF"/>
<path d="M55.9996 37.1954L59.9996 41.1954V37.1954H55.9996Z" fill="#8B3DFF"/>
</g>
<path opacity="0.8" d="M55.9993 37.1954H47.9996L50.5852 34.6098C51.3663 33.8288 52.6326 33.8288 53.4137 34.6098L55.9993 37.1954Z" fill="#8B3DFF"/>
<path opacity="0.6" d="M35.9996 31.1954V37.1954H47.9996L50.5854 34.6096C51.3665 33.8286 52.6328 33.8286 53.4138 34.6096L55.9996 37.1954H59.9996V31.1954H44.9496C44.9824 31.357 44.9996 31.5242 44.9996 31.6954C44.9996 33.0761 43.8803 34.1954 42.4996 34.1954C41.1189 34.1954 39.9996 33.0761 39.9996 31.6954C39.9996 31.5242 40.0168 31.357 40.0496 31.1954H35.9996Z" fill="#8B3DFF"/>
<path opacity="0.4" d="M42.4996 34.1954C43.8803 34.1954 44.9996 33.0761 44.9996 31.6954C44.9996 31.5242 44.9824 31.357 44.9496 31.1954H40.0496C40.0168 31.357 39.9996 31.5242 39.9996 31.6954C39.9996 33.0761 41.1189 34.1954 42.4996 34.1954Z" fill="#8B3DFF"/>
<path d="M39.9996 25.1954C37.7905 25.1954 35.9996 26.9863 35.9996 29.1954V31.1954H40.0496C40.2813 30.0543 41.2902 29.1954 42.4996 29.1954C43.7091 29.1954 44.718 30.0543 44.9496 31.1954H59.9996V29.1954C59.9996 26.9863 58.2088 25.1954 55.9996 25.1954H39.9996Z" fill="#8B3DFF"/>
<path opacity="0.6" d="M44.9494 31.1954H40.0494C40.2811 30.0543 41.29 29.1954 42.4994 29.1954C43.7089 29.1954 44.7178 30.0543 44.9494 31.1954Z" fill="#8B3DFF"/>
<path d="M41.3902 70.8046H39.2772L38.0485 67.6118H31.3557L30.1269 70.8046H28.0139L33.4035 57.1956H36.0006L41.3902 70.8046ZM34.6695 58.9921L32.0073 65.9176H37.4062L34.744 58.9921H34.6695Z" fill="#8B3DFF"/>
<path d="M55.8225 70.8047C55.9446 69.9012 56.2103 69.0771 56.6197 68.3324C57.2092 67.2713 58.0128 66.4521 59.0306 65.875C60.0545 65.2917 61.1932 65 62.4468 65C63.9299 65 65.1276 65.2886 66.0399 65.8657C66.9583 66.4366 67.6068 67.2061 67.9853 68.1742L66.4215 69.3191C66.0988 68.4938 65.6086 67.8732 64.9508 67.4574C64.2992 67.0355 63.4645 66.8245 62.4468 66.8245C61.5532 66.8245 60.7526 67.0324 60.0452 67.4481C59.3439 67.8639 58.7947 68.4628 58.3976 69.2447C58.1586 69.7152 57.9915 70.2352 57.8963 70.8047H55.8225Z" fill="#8B3DFF"/>
<path fill-rule="evenodd" clip-rule="evenodd" d="M43.1125 70.8047H45.086V68.4283H49.5354C50.398 68.4283 51.0434 68.6269 51.4716 69.024C51.8998 69.4212 52.1139 70.0045 52.1139 70.774C52.1139 70.7843 52.1138 70.7945 52.1138 70.8047H54.1522C54.1432 69.916 53.9074 69.1735 53.445 68.5772C52.9796 67.969 52.269 67.544 51.3133 67.3019V67.2182C52.629 66.6845 53.2868 65.7505 53.2868 64.4163C53.2868 63.7585 53.1409 63.1907 52.8493 62.7128C52.5576 62.2288 52.1201 61.8565 51.5368 61.5958C50.9596 61.329 50.2522 61.1956 49.4144 61.1956H43.1125V70.8047ZM50.7176 66.3059C50.3204 66.6534 49.7557 66.8272 49.0235 66.8272H45.086V62.7966H49.0235C49.7992 62.7966 50.3763 62.9611 50.7548 63.29C51.1334 63.6189 51.3227 64.1246 51.3227 64.8073C51.3227 65.4526 51.121 65.9522 50.7176 66.3059Z" fill="#8B3DFF"/>
</svg>
