<svg width="96" height="96" viewBox="0 0 96 96" fill="none" xmlns="http://www.w3.org/2000/svg">
<path d="M41.2279 70.8046H39.1149L37.8861 67.6118H31.1933L29.9646 70.8046H27.8516L33.2412 57.1956H35.8383L41.2279 70.8046ZM34.5071 58.9921L31.8449 65.9176H37.2438L34.5816 58.9921H34.5071Z" fill="#8B3DFF"/>
<path opacity="0.5" d="M42.9502 70.8046V57.1956H49.2521C50.0898 57.1956 50.7973 57.329 51.3744 57.5958C51.9577 57.8565 52.3952 58.2288 52.6869 58.7128C52.9786 59.1907 53.1244 59.7585 53.1244 60.4163C53.1244 61.7505 52.4666 62.6845 51.151 63.2182V63.3019C52.1067 63.544 52.8172 63.969 53.2826 64.5772C53.7543 65.1854 53.9901 65.9456 53.9901 66.8578C53.9901 68.1424 53.6022 69.1229 52.8265 69.7993C52.0508 70.4695 50.8593 70.8046 49.2521 70.8046H42.9502ZM48.8611 62.8272C49.5934 62.8272 50.1581 62.6534 50.5552 62.3059C50.9586 61.9522 51.1603 61.4526 51.1603 60.8073C51.1603 60.1246 50.971 59.6189 50.5925 59.29C50.2139 58.9611 49.6368 58.7966 48.8611 58.7966H44.9236V62.8272H48.8611ZM49.3731 69.1291C50.2357 69.1291 50.881 68.9305 51.3092 68.5333C51.7374 68.13 51.9515 67.5435 51.9515 66.774C51.9515 66.0045 51.7374 65.4212 51.3092 65.024C50.881 64.6269 50.2357 64.4283 49.3731 64.4283H44.9236V69.1291H49.3731Z" fill="#8B3DFF"/>
<path opacity="0.3" d="M62.2842 71C61.0306 71 59.8919 70.7114 58.8679 70.1343C57.8502 69.551 57.0466 68.7287 56.457 67.6676C55.8737 66.6064 55.582 65.3839 55.582 64C55.582 62.6161 55.8737 61.3936 56.457 60.3324C57.0466 59.2713 57.8502 58.4521 58.8679 57.875C59.8919 57.2917 61.0306 57 62.2842 57C63.7673 57 64.965 57.2886 65.8772 57.8657C66.7957 58.4366 67.4442 59.2061 67.8227 60.1742L66.2589 61.3191C65.9362 60.4938 65.4459 59.8732 64.7881 59.4574C64.1366 59.0355 63.3019 58.8245 62.2842 58.8245C61.3905 58.8245 60.59 59.0324 59.8826 59.4481C59.1813 59.8639 58.6321 60.4628 58.235 61.2447C57.8378 62.0266 57.6392 62.945 57.6392 64C57.6392 65.0674 57.8378 65.992 58.235 66.7739C58.6383 67.5496 59.1937 68.1454 59.9012 68.5612C60.6086 68.9707 61.4123 69.1755 62.3121 69.1755C63.485 69.1755 64.4127 68.887 65.0953 68.3098C65.7842 67.7265 66.2527 66.8639 66.5009 65.7221L68.1485 66.7181C67.8196 68.0089 67.1742 69.0452 66.2123 69.8271C65.2505 70.609 63.9411 71 62.2842 71Z" fill="#8B3DFF"/>
<path opacity="0.4" d="M37.9262 48.4211C38.5309 48.7885 39.2407 49 40 49H56C58.2091 49 60 47.2091 60 45V43H42.0005L37.1719 47.8286C37.3798 48.0366 37.6106 48.2218 37.8601 48.3801C37.882 48.3939 37.904 48.4076 37.9262 48.4211Z" fill="#8B3DFF"/>
<path opacity="0.2" d="M36 43V45C36 46.1046 36.4477 47.1046 37.1716 47.8284L42 43H36Z" fill="#8B3DFF"/>
<path opacity="0.6" d="M48 37L42 43H59.9995V40.9999L55.9996 37H48Z" fill="#8B3DFF"/>
<g opacity="0.4">
<path d="M36 37V43H42L48 37H36Z" fill="#8B3DFF"/>
<path d="M56 37L60 41V37H56Z" fill="#8B3DFF"/>
</g>
<path opacity="0.8" d="M55.9996 37H48L50.5856 34.4144C51.3666 33.6334 52.633 33.6334 53.414 34.4144L55.9996 37Z" fill="#8B3DFF"/>
<path opacity="0.6" d="M36 31V37H48L50.5858 34.4142C51.3668 33.6332 52.6332 33.6332 53.4142 34.4142L56 37H60V31H44.95C44.9828 31.1616 45 31.3288 45 31.5C45 32.8807 43.8807 34 42.5 34C41.1193 34 40 32.8807 40 31.5C40 31.3288 40.0172 31.1616 40.05 31H36Z" fill="#8B3DFF"/>
<path opacity="0.4" d="M42.5 34C43.8807 34 45 32.8807 45 31.5C45 31.3288 44.9828 31.1616 44.95 31H40.05C40.0172 31.1616 40 31.3288 40 31.5C40 32.8807 41.1193 34 42.5 34Z" fill="#8B3DFF"/>
<path d="M40 25C37.7909 25 36 26.7909 36 29V31H40.05C40.2816 29.8589 41.2905 29 42.5 29C43.7095 29 44.7184 29.8589 44.95 31H60V29C60 26.7909 58.2091 25 56 25H40Z" fill="#8B3DFF"/>
<path opacity="0.6" d="M44.9498 31H40.0498C40.2814 29.8589 41.2903 29 42.4998 29C43.7093 29 44.7182 29.8589 44.9498 31Z" fill="#8B3DFF"/>
</svg>
