<svg width="96" height="96" viewBox="0 0 96 96" fill="none" xmlns="http://www.w3.org/2000/svg">
<path fill-rule="evenodd" clip-rule="evenodd" d="M71.75 45.25C71.5511 45.25 71.3603 45.171 71.2197 45.0303L68.2197 42.0303C67.9268 41.7374 67.9268 41.2626 68.2197 40.9697C68.5126 40.6768 68.9874 40.6768 69.2803 40.9697L71 42.6893L71 28.5C71 28.0858 71.3358 27.75 71.75 27.75C72.1642 27.75 72.5 28.0858 72.5 28.5L72.5 42.6893L74.2197 40.9697C74.5126 40.6768 74.9874 40.6768 75.2803 40.9697C75.5732 41.2626 75.5732 41.7374 75.2803 42.0303L72.2803 45.0303C72.1397 45.171 71.9489 45.25 71.75 45.25Z" fill="#8B3DFF"/>
<path opacity="0.3" d="M60 24.5C60 22.2909 58.2091 20.5 56 20.5L40 20.5C37.7909 20.5 36 22.2909 36 24.5L36 32.5C36 30.2909 37.7909 28.5 40 28.5L56 28.5C58.2091 28.5 60 30.2909 60 32.5L60 24.5Z" fill="#8B3DFF"/>
<path opacity="0.6" d="M40.0003 52.5002H56.0003C58.2094 52.5002 60.0003 50.7093 60.0003 48.5002V44.5002L53.4145 37.9144C52.6335 37.1334 51.3671 37.1334 50.5861 37.9144L37.1719 51.3286C37.8957 52.0525 38.8957 52.5002 40.0003 52.5002Z" fill="#8B3DFF"/>
<path fill-rule="evenodd" clip-rule="evenodd" d="M36 32.5C36 30.2909 37.7909 28.5 40 28.5H56C58.2091 28.5 60 30.2909 60 32.5V44.5L53.4142 37.9142C52.6332 37.1332 51.3668 37.1332 50.5858 37.9142L37.1716 51.3284C36.4477 50.6046 36 49.6046 36 48.5V32.5ZM42.5 37.5C43.8807 37.5 45 36.3807 45 35C45 33.6193 43.8807 32.5 42.5 32.5C41.1193 32.5 40 33.6193 40 35C40 36.3807 41.1193 37.5 42.5 37.5Z" fill="#8B3DFF"/>
<circle opacity="0.6" cx="42.5" cy="35" r="2.5" fill="#8B3DFF"/>
<g opacity="0.5">
<path d="M41.2279 75.3046H39.1149L37.8861 72.1118H31.1933L29.9646 75.3046H27.8516L33.2412 61.6956H35.8383L41.2279 75.3046ZM34.5071 63.4921L31.8449 70.4176H37.2438L34.5816 63.4921H34.5071Z" fill="#8B3DFF"/>
<path d="M42.9502 75.3046V61.6956H49.2521C50.0898 61.6956 50.7973 61.829 51.3744 62.0958C51.9577 62.3565 52.3952 62.7288 52.6869 63.2128C52.9786 63.6907 53.1244 64.2585 53.1244 64.9163C53.1244 66.2505 52.4666 67.1845 51.151 67.7182V67.8019C52.1067 68.044 52.8172 68.469 53.2826 69.0772C53.7543 69.6854 53.9901 70.4456 53.9901 71.3578C53.9901 72.6424 53.6022 73.6229 52.8265 74.2993C52.0508 74.9695 50.8593 75.3046 49.2521 75.3046H42.9502ZM48.8611 67.3272C49.5934 67.3272 50.1581 67.1534 50.5552 66.8059C50.9586 66.4522 51.1603 65.9526 51.1603 65.3073C51.1603 64.6246 50.971 64.1189 50.5925 63.79C50.2139 63.4611 49.6368 63.2966 48.8611 63.2966H44.9236V67.3272H48.8611ZM49.3731 73.6291C50.2357 73.6291 50.881 73.4305 51.3092 73.0333C51.7374 72.63 51.9515 72.0435 51.9515 71.274C51.9515 70.5045 51.7374 69.9212 51.3092 69.524C50.881 69.1269 50.2357 68.9283 49.3731 68.9283H44.9236V73.6291H49.3731Z" fill="#8B3DFF"/>
<path d="M62.2842 75.5C61.0306 75.5 59.8919 75.2114 58.8679 74.6343C57.8502 74.051 57.0466 73.2287 56.457 72.1676C55.8737 71.1064 55.582 69.8839 55.582 68.5C55.582 67.1161 55.8737 65.8936 56.457 64.8324C57.0466 63.7713 57.8502 62.9521 58.8679 62.375C59.8919 61.7917 61.0306 61.5 62.2842 61.5C63.7673 61.5 64.965 61.7886 65.8772 62.3657C66.7957 62.9366 67.4442 63.7061 67.8227 64.6742L66.2589 65.8191C65.9362 64.9938 65.4459 64.3732 64.7881 63.9574C64.1366 63.5355 63.3019 63.3245 62.2842 63.3245C61.3905 63.3245 60.59 63.5324 59.8826 63.9481C59.1813 64.3639 58.6321 64.9628 58.235 65.7447C57.8378 66.5266 57.6392 67.445 57.6392 68.5C57.6392 69.5674 57.8378 70.492 58.235 71.2739C58.6383 72.0496 59.1937 72.6454 59.9012 73.0612C60.6086 73.4707 61.4123 73.6755 62.3121 73.6755C63.485 73.6755 64.4127 73.387 65.0953 72.8098C65.7842 72.2265 66.2527 71.3639 66.5009 70.2221L68.1485 71.2181C67.8196 72.5089 67.1742 73.5452 66.2123 74.3271C65.2505 75.109 63.9411 75.5 62.2842 75.5Z" fill="#8B3DFF"/>
</g>
</svg>
