<svg width="96" height="96" viewBox="0 0 96 96" fill="none" xmlns="http://www.w3.org/2000/svg">
<path opacity="0.6" d="M40 49.0002H56C58.2091 49.0002 60 47.2093 60 45.0002V41.0002L53.4142 34.4144C52.6332 33.6334 51.3668 33.6334 50.5858 34.4144L37.1716 47.8286C37.8954 48.5525 38.8954 49.0002 40 49.0002Z" fill="#8B3DFF"/>
<path fill-rule="evenodd" clip-rule="evenodd" d="M35.9997 29C35.9997 26.7909 37.7906 25 39.9997 25H55.9997C58.2088 25 59.9997 26.7909 59.9997 29V41L53.4139 34.4142C52.6329 33.6332 51.3665 33.6332 50.5855 34.4142L37.1713 47.8284C36.4474 47.1046 35.9997 46.1046 35.9997 45V29ZM42.4997 34C43.8804 34 44.9997 32.8807 44.9997 31.5C44.9997 30.1193 43.8804 29 42.4997 29C41.119 29 39.9997 30.1193 39.9997 31.5C39.9997 32.8807 41.119 34 42.4997 34Z" fill="#8B3DFF"/>
<circle opacity="0.6" cx="42.4997" cy="31.5" r="2.5" fill="#8B3DFF"/>
<g opacity="0.5">
<path d="M41.2276 78.9613H39.1146L37.8858 75.7685H31.193L29.9643 78.9613H27.8513L33.2409 65.3523H35.838L41.2276 78.9613ZM34.5068 67.1488L31.8446 74.0744H37.2435L34.5813 67.1488H34.5068Z" fill="#8B3DFF"/>
<path d="M42.9499 78.9613V65.3523H49.2518C50.0895 65.3523 50.797 65.4857 51.3741 65.7526C51.9574 66.0132 52.3949 66.3855 52.6866 66.8696C52.9783 67.3474 53.1241 67.9152 53.1241 68.573C53.1241 69.9073 52.4663 70.8412 51.1507 71.3749V71.4587C52.1064 71.7007 52.8169 72.1258 53.2823 72.7339C53.754 73.3421 53.9898 74.1023 53.9898 75.0145C53.9898 76.2991 53.6019 77.2796 52.8262 77.956C52.0505 78.6262 50.859 78.9613 49.2518 78.9613H42.9499ZM48.8608 70.9839C49.5931 70.9839 50.1578 70.8102 50.5549 70.4627C50.9583 70.1089 51.16 69.6094 51.16 68.964C51.16 68.2814 50.9707 67.7756 50.5922 67.4467C50.2136 67.1178 49.6365 66.9534 48.8608 66.9534H44.9233V70.9839H48.8608ZM49.3728 77.2858C50.2354 77.2858 50.8807 77.0872 51.3089 76.6901C51.7371 76.2867 51.9512 75.7003 51.9512 74.9308C51.9512 74.1612 51.7371 73.5779 51.3089 73.1808C50.8807 72.7836 50.2354 72.585 49.3728 72.585H44.9233V77.2858H49.3728Z" fill="#8B3DFF"/>
<path d="M62.2839 79.1567C61.0303 79.1567 59.8916 78.8682 58.8676 78.291C57.8499 77.7077 57.0463 76.8855 56.4567 75.8243C55.8734 74.7631 55.5817 73.5406 55.5817 72.1567C55.5817 70.7729 55.8734 69.5504 56.4567 68.4892C57.0463 67.428 57.8499 66.6089 58.8676 66.0317C59.8916 65.4484 61.0303 65.1567 62.2839 65.1567C63.767 65.1567 64.9647 65.4453 65.8769 66.0224C66.7954 66.5934 67.4439 67.3629 67.8224 68.3309L66.2586 69.4759C65.9359 68.6505 65.4456 68.03 64.7878 67.6142C64.1362 67.1922 63.3016 66.9812 62.2839 66.9812C61.3902 66.9812 60.5897 67.1891 59.8823 67.6049C59.181 68.0207 58.6318 68.6195 58.2347 69.4014C57.8375 70.1833 57.6389 71.1018 57.6389 72.1567C57.6389 73.2241 57.8375 74.1488 58.2347 74.9307C58.638 75.7064 59.1934 76.3021 59.9009 76.7179C60.6083 77.1275 61.412 77.3323 62.3118 77.3323C63.4847 77.3323 64.4124 77.0437 65.095 76.4666C65.7839 75.8832 66.2524 75.0207 66.5006 73.8788L68.1482 74.8748C67.8193 76.1656 67.1739 77.202 66.212 77.9839C65.2502 78.7658 63.9408 79.1567 62.2839 79.1567Z" fill="#8B3DFF"/>
</g>
<path fill-rule="evenodd" clip-rule="evenodd" d="M62.4139 17.5933C62.4139 17.179 62.7497 16.8433 63.1639 16.8433H67.4065C67.8208 16.8433 68.1565 17.179 68.1565 17.5933V21.8359C68.1565 22.2501 67.8208 22.5859 67.4065 22.5859C66.9923 22.5859 66.6565 22.2501 66.6565 21.8359V19.4039L62.28 23.7804C61.9871 24.0733 61.5123 24.0733 61.2194 23.7804C60.9265 23.4876 60.9265 23.0127 61.2194 22.7198L65.5959 18.3433H63.1639C62.7497 18.3433 62.4139 18.0075 62.4139 17.5933Z" fill="#8B3DFF"/>
<path fill-rule="evenodd" clip-rule="evenodd" d="M28.5934 22.5859C28.1792 22.5859 27.8434 22.2501 27.8434 21.8359L27.8434 17.5933C27.8434 17.179 28.1792 16.8433 28.5934 16.8433L32.8361 16.8433C33.2503 16.8433 33.5861 17.179 33.5861 17.5933C33.5861 18.0075 33.2503 18.3433 32.8361 18.3433L30.4041 18.3433L34.7806 22.7198C35.0735 23.0127 35.0735 23.4876 34.7806 23.7804C34.4877 24.0733 34.0129 24.0733 33.72 23.7804L29.3434 19.4039L29.3434 21.8359C29.3434 22.2501 29.0077 22.5859 28.5934 22.5859Z" fill="#8B3DFF"/>
<path fill-rule="evenodd" clip-rule="evenodd" d="M33.5861 56.4069C33.5861 56.8211 33.2503 57.1569 32.8361 57.1569H28.5934C28.1792 57.1569 27.8434 56.8211 27.8434 56.4069L27.8434 52.1642C27.8434 51.75 28.1792 51.4142 28.5934 51.4142C29.0077 51.4142 29.3434 51.75 29.3434 52.1642L29.3434 54.5962L33.72 50.2197C34.0129 49.9268 34.4877 49.9268 34.7806 50.2197C35.0735 50.5126 35.0735 50.9874 34.7806 51.2803L30.4041 55.6569H32.8361C33.2503 55.6569 33.5861 55.9926 33.5861 56.4069Z" fill="#8B3DFF"/>
<path fill-rule="evenodd" clip-rule="evenodd" d="M67.4065 51.4142C67.8208 51.4142 68.1565 51.75 68.1565 52.1642L68.1565 56.4069C68.1565 56.8211 67.8208 57.1569 67.4065 57.1569L63.1639 57.1569C62.7497 57.1569 62.4139 56.8211 62.4139 56.4069C62.4139 55.9926 62.7497 55.6569 63.1639 55.6569H65.5959L61.2194 51.2803C60.9265 50.9874 60.9265 50.5126 61.2194 50.2197C61.5123 49.9268 61.9871 49.9268 62.28 50.2197L66.6565 54.5962L66.6565 52.1642C66.6565 51.75 66.9923 51.4142 67.4065 51.4142Z" fill="#8B3DFF"/>
</svg>
