<svg width="96" height="96" viewBox="0 0 96 96" fill="none" xmlns="http://www.w3.org/2000/svg">
<path opacity="0.3" fill-rule="evenodd" clip-rule="evenodd" d="M24.7023 54.1869C24.4094 54.4798 23.9346 54.4798 23.6417 54.1869C20.2246 50.7699 20.2246 45.2297 23.6417 41.8126C23.9346 41.5197 24.4094 41.5197 24.7023 41.8126C24.9952 42.1055 24.9952 42.5803 24.7023 42.8732C21.871 45.7045 21.871 50.295 24.7023 53.1263C24.9952 53.4192 24.9952 53.8941 24.7023 54.1869Z" fill="#8B3DFF"/>
<path opacity="0.5" fill-rule="evenodd" clip-rule="evenodd" d="M21.8742 57.0156C21.5813 57.3085 21.1064 57.3085 20.8135 57.0156C15.8344 52.0364 15.8344 43.9635 20.8135 38.9843C21.1064 38.6914 21.5813 38.6914 21.8742 38.9843C22.1671 39.2772 22.1671 39.7521 21.8742 40.045C17.4808 44.4384 17.4808 51.5615 21.8742 55.9549C22.1671 56.2478 22.1671 56.7227 21.8742 57.0156Z" fill="#8B3DFF"/>
<path opacity="0.3" fill-rule="evenodd" clip-rule="evenodd" d="M71.2978 41.8129C71.5907 41.52 72.0656 41.52 72.3585 41.8129C75.7755 45.23 75.7755 50.7702 72.3585 54.1873C72.0656 54.4802 71.5907 54.4802 71.2978 54.1873C71.0049 53.8944 71.0049 53.4195 71.2978 53.1266C74.1291 50.2953 74.1291 45.7049 71.2978 42.8736C71.0049 42.5807 71.0049 42.1058 71.2978 41.8129Z" fill="#8B3DFF"/>
<path opacity="0.5" fill-rule="evenodd" clip-rule="evenodd" d="M74.1259 38.9843C74.4188 38.6914 74.8937 38.6914 75.1866 38.9843C80.1658 43.9635 80.1658 52.0364 75.1866 57.0155C74.8937 57.3084 74.4188 57.3084 74.1259 57.0155C73.833 56.7226 73.833 56.2478 74.1259 55.9549C78.5193 51.5615 78.5193 44.4384 74.1259 40.045C73.833 39.7521 73.833 39.2772 74.1259 38.9843Z" fill="#8B3DFF"/>
<path opacity="0.2" fill-rule="evenodd" clip-rule="evenodd" d="M55.8281 25H39.8281C37.619 25 35.8281 26.7909 35.8281 29V45C35.8281 47.2091 37.619 49 39.8281 49H55.8281C58.0373 49 59.8281 47.2091 59.8281 45V29C59.8281 26.7909 58.0373 25 55.8281 25ZM39.8281 21C35.4098 21 31.8281 24.5817 31.8281 29V45C31.8281 49.4183 35.4098 53 39.8281 53H55.8281C60.2464 53 63.8281 49.4183 63.8281 45V29C63.8281 24.5817 60.2464 21 55.8281 21H39.8281Z" fill="#8B3DFF"/>
<path opacity="0.6" d="M39.8284 49.0002H55.8284C58.0376 49.0002 59.8284 47.2093 59.8284 45.0002V41.0002L53.2426 34.4144C52.4616 33.6334 51.1953 33.6334 50.4142 34.4144L37 47.8286C37.7239 48.5525 38.7239 49.0002 39.8284 49.0002Z" fill="#8B3DFF"/>
<path fill-rule="evenodd" clip-rule="evenodd" d="M35.8281 29C35.8281 26.7909 37.619 25 39.8281 25H55.8281C58.0373 25 59.8281 26.7909 59.8281 29V41L53.2423 34.4142C52.4613 33.6332 51.195 33.6332 50.4139 34.4142L36.9997 47.8284C36.2758 47.1046 35.8281 46.1046 35.8281 45V29ZM42.3281 34C43.7088 34 44.8281 32.8807 44.8281 31.5C44.8281 30.1193 43.7088 29 42.3281 29C40.9474 29 39.8281 30.1193 39.8281 31.5C39.8281 32.8807 40.9474 34 42.3281 34Z" fill="#8B3DFF"/>
<circle opacity="0.6" cx="42.3281" cy="31.5" r="2.5" fill="#8B3DFF"/>
<path d="M39.0146 72H37.7724L37.0501 70.1231H33.1158L32.3935 72H31.1514L34.3196 64H35.8463L39.0146 72ZM35.0638 65.0561L33.4988 69.1272H36.6726L35.1076 65.0561H35.0638Z" fill="#8B3DFF"/>
<path d="M41.0146 73.5V62.5H46.1084C46.7855 62.5 47.3573 62.6078 47.8238 62.8235C48.2953 63.0342 48.6489 63.3352 48.8847 63.7264C49.1204 64.1126 49.2383 64.5716 49.2383 65.1033C49.2383 66.1817 48.7066 66.9366 47.6432 67.368V67.4357C48.4157 67.6313 48.99 67.9749 49.3662 68.4665C49.7474 68.958 49.938 69.5725 49.938 70.3098C49.938 71.3482 49.6245 72.1407 48.9975 72.6874C48.3706 73.2291 47.4075 73.5 46.1084 73.5H41.0146ZM45.7924 67.052C46.3842 67.052 46.8407 66.9115 47.1617 66.6306C47.4877 66.3447 47.6508 65.9409 47.6508 65.4193C47.6508 64.8675 47.4978 64.4587 47.1918 64.1929C46.8858 63.927 46.4193 63.7941 45.7924 63.7941H42.6097V67.052H45.7924ZM46.2062 72.1457C46.9034 72.1457 47.425 71.9852 47.7711 71.6642C48.1172 71.3381 48.2903 70.8641 48.2903 70.2421C48.2903 69.6202 48.1172 69.1487 47.7711 68.8276C47.425 68.5066 46.9034 68.3461 46.2062 68.3461H42.6097V72.1457H46.2062Z" fill="#8B3DFF"/>
<path d="M58.6396 75C57.3861 75 56.2473 74.7114 55.2234 74.1343C54.2057 73.551 53.402 72.7287 52.8125 71.6676C52.2292 70.6064 51.9375 69.3839 51.9375 68C51.9375 66.6161 52.2292 65.3936 52.8125 64.3324C53.402 63.2713 54.2057 62.4521 55.2234 61.875C56.2473 61.2917 57.3861 61 58.6396 61C60.1228 61 61.3205 61.2886 62.2327 61.8657C63.1512 62.4366 63.7996 63.2061 64.1782 64.1742L62.6144 65.3191C62.2917 64.4938 61.8014 63.8732 61.1436 63.4574C60.492 63.0355 59.6574 62.8245 58.6396 62.8245C57.746 62.8245 56.9455 63.0324 56.238 63.4481C55.5368 63.8639 54.9876 64.4628 54.5904 65.2447C54.1933 66.0266 53.9947 66.945 53.9947 68C53.9947 69.0674 54.1933 69.992 54.5904 70.7739C54.9938 71.5496 55.5492 72.1454 56.2566 72.5612C56.9641 72.9707 57.7677 73.1755 58.6676 73.1755C59.8404 73.1755 60.7682 72.887 61.4508 72.3098C62.1396 71.7265 62.6082 70.8639 62.8564 69.7221L64.504 70.7181C64.1751 72.0089 63.5297 73.0452 62.5678 73.8271C61.6059 74.609 60.2965 75 58.6396 75Z" fill="#8B3DFF"/>
</svg>
