<svg width="96" height="96" viewBox="0 0 96 96" fill="none" xmlns="http://www.w3.org/2000/svg">
<path opacity="0.6" d="M40.0003 49.6284H56.0003C58.2094 49.6284 60.0003 47.8375 60.0003 45.6284V41.6284L53.4145 35.0426C52.6335 34.2615 51.3671 34.2615 50.5861 35.0426L37.1719 48.4568C37.8957 49.1806 38.8957 49.6284 40.0003 49.6284Z" fill="#8B3DFF"/>
<path fill-rule="evenodd" clip-rule="evenodd" d="M36 29.6282C36 27.419 37.7909 25.6282 40 25.6282H56C58.2091 25.6282 60 27.419 60 29.6282V41.6282L53.4142 35.0424C52.6332 34.2613 51.3668 34.2613 50.5858 35.0424L37.1716 48.4566C36.4477 47.7327 36 46.7327 36 45.6282V29.6282ZM42.5 34.6282C43.8807 34.6282 45 33.5089 45 32.1282C45 30.7475 43.8807 29.6282 42.5 29.6282C41.1193 29.6282 40 30.7475 40 32.1282C40 33.5089 41.1193 34.6282 42.5 34.6282Z" fill="#8B3DFF"/>
<circle opacity="0.6" cx="42.5" cy="32.1282" r="2.5" fill="#8B3DFF"/>
<path d="M40.441 74.4385L38.4 73.8916L38.0395 70.4896L31.5748 68.7573L29.5615 71.5234L27.5205 70.9765L36.2488 59.2261L38.7573 59.8982L40.441 74.4385ZM37.0066 61.2891L32.6426 67.2896L37.8576 68.6869L37.0785 61.3083L37.0066 61.2891Z" fill="#8B3DFF"/>
<path d="M42.1047 74.8843L45.6269 61.7389L51.7141 63.37C52.5233 63.5868 53.1721 63.8988 53.6605 64.3059C54.1565 64.7087 54.4827 65.1815 54.6392 65.7246C54.7972 66.2616 54.7911 66.8478 54.6209 67.4832C54.2756 68.772 53.3984 69.5039 51.9895 69.6789L51.9679 69.7598C52.8283 70.2409 53.4046 70.8354 53.6968 71.5433C53.995 72.2528 54.026 73.0481 53.7899 73.9293C53.4574 75.1701 52.829 76.0168 51.9047 76.4694C50.9819 76.916 49.7443 76.9313 48.1918 76.5153L42.1047 74.8843ZM49.8789 68.7086C50.5862 68.8981 51.1766 68.8764 51.6502 68.6435C52.1314 68.4063 52.4555 67.9759 52.6225 67.3525C52.7992 66.6932 52.7473 66.1556 52.4668 65.74C52.1862 65.3243 51.6713 65.0161 50.9221 64.8153L47.1187 63.7962L46.0755 67.6895L49.8789 68.7086ZM48.7423 74.9282C49.5755 75.1515 50.2503 75.1267 50.7667 74.8539C51.2847 74.5751 51.6433 74.064 51.8425 73.3207C52.0416 72.5775 51.9858 71.9586 51.675 71.4641C51.3642 70.9697 50.7922 70.6108 49.959 70.3876L45.6611 69.236L44.4445 73.7766L48.7423 74.9282Z" fill="#8B3DFF"/>
<path d="M60.7293 80.077C59.5184 79.7526 58.4932 79.1791 57.6535 78.3566C56.8214 77.5298 56.258 76.5275 55.9632 75.3499C55.6744 74.174 55.7091 72.9176 56.0672 71.5809C56.4254 70.2442 57.0236 69.1388 57.8617 68.2648C58.7058 67.3924 59.694 66.8091 60.8265 66.5151C61.9665 66.2166 63.1419 66.2296 64.3527 66.5541C65.7854 66.9379 66.8676 67.5266 67.5993 68.3202C68.3387 69.1094 68.7659 70.0205 68.881 71.0536L67.0742 71.7548C66.9761 70.874 66.6631 70.1477 66.1354 69.5758C65.6152 68.9996 64.8636 68.5798 63.8805 68.3164C63.0174 68.0851 62.1903 68.0787 61.3993 68.2972C60.6144 68.5173 59.9289 68.9536 59.3429 69.6061C58.7569 70.2586 58.3274 71.0943 58.0543 72.1133C57.7781 73.1443 57.7306 74.0889 57.9118 74.9469C58.1007 75.8006 58.483 76.5198 59.0587 77.1045C59.636 77.6832 60.3593 78.0891 61.2285 78.3219C62.3614 78.6255 63.3322 78.5869 64.1409 78.2061C64.9573 77.8209 65.6331 77.109 66.1684 76.0703L67.502 77.4588C66.8503 78.6205 65.9586 79.4545 64.8272 79.9608C63.6957 80.4671 62.3297 80.5059 60.7293 80.077Z" fill="#8B3DFF"/>
<path opacity="0.5" d="M35.3785 15.7655C33.2447 15.1937 31.0513 16.46 30.4796 18.5939L26.3385 34.0487C25.7667 36.1826 27.033 38.3759 29.1669 38.9477L36 40.7786V29.6282C36 27.419 37.7909 25.6282 40 25.6282H53.4414L53.6618 24.8055C54.2336 22.6717 52.9672 20.4783 50.8334 19.9066L35.3785 15.7655Z" fill="#8B3DFF"/>
<path opacity="0.3" d="M44.7021 49.6282L46.4792 56.2604C47.051 58.3942 49.2444 59.6606 51.3782 59.0888L66.833 54.9477C68.9669 54.3759 70.2332 52.1826 69.6615 50.0487L65.5204 34.5939C64.9486 32.46 62.7552 31.1937 60.6214 31.7655L59.9997 31.932V45.6282C59.9997 47.8373 58.2088 49.6282 55.9997 49.6282H44.7021Z" fill="#8B3DFF"/>
</svg>
