<svg width="96" height="96" viewBox="0 0 96 96" fill="none" xmlns="http://www.w3.org/2000/svg">
<path fill-rule="evenodd" clip-rule="evenodd" d="M72.25 28.25C72.4489 28.25 72.6397 28.329 72.7803 28.4697L75.7803 31.4697C76.0732 31.7626 76.0732 32.2374 75.7803 32.5303C75.4874 32.8232 75.0126 32.8232 74.7197 32.5303L73 30.8107V45C73 45.4142 72.6642 45.75 72.25 45.75C71.8358 45.75 71.5 45.4142 71.5 45L71.5 30.8107L69.7803 32.5303C69.4874 32.8232 69.0126 32.8232 68.7197 32.5303C68.4268 32.2374 68.4268 31.7626 68.7197 31.4697L71.7197 28.4697C71.8603 28.329 72.0511 28.25 72.25 28.25Z" fill="#8B3DFF"/>
<path opacity="0.3" d="M36.5 49C36.5 51.2091 38.2909 53 40.5 53L56.5 53C58.7091 53 60.5 51.2091 60.5 49L60.5 41C60.5 43.2091 58.7091 45 56.5 45L40.5 45C38.2909 45 36.5 43.2091 36.5 41L36.5 49Z" fill="#8B3DFF"/>
<path opacity="0.6" d="M40.5003 45.0002H56.5003C58.7094 45.0002 60.5003 43.2093 60.5003 41.0002V37.0002L53.9145 30.4144C53.1335 29.6334 51.8671 29.6334 51.0861 30.4144L37.6719 43.8286C38.3957 44.5525 39.3957 45.0002 40.5003 45.0002Z" fill="#8B3DFF"/>
<path fill-rule="evenodd" clip-rule="evenodd" d="M36.5 25C36.5 22.7909 38.2909 21 40.5 21H56.5C58.7091 21 60.5 22.7909 60.5 25V37L53.9142 30.4142C53.1332 29.6332 51.8668 29.6332 51.0858 30.4142L37.6716 43.8284C36.9477 43.1046 36.5 42.1046 36.5 41V25ZM43 30C44.3807 30 45.5 28.8807 45.5 27.5C45.5 26.1193 44.3807 25 43 25C41.6193 25 40.5 26.1193 40.5 27.5C40.5 28.8807 41.6193 30 43 30Z" fill="#8B3DFF"/>
<circle opacity="0.6" cx="43" cy="27.5" r="2.5" fill="#8B3DFF"/>
<path d="M41.2279 74.8046H39.1149L37.8861 71.6118H31.1933L29.9646 74.8046H27.8516L33.2412 61.1956H35.8383L41.2279 74.8046ZM34.5071 62.9921L31.8449 69.9176H37.2438L34.5816 62.9921H34.5071Z" fill="#8B3DFF"/>
<path opacity="0.5" d="M42.9502 74.8046V61.1956H49.2521C50.0898 61.1956 50.7973 61.329 51.3744 61.5958C51.9577 61.8565 52.3952 62.2288 52.6869 62.7128C52.9786 63.1907 53.1244 63.7585 53.1244 64.4163C53.1244 65.7505 52.4666 66.6845 51.151 67.2182V67.3019C52.1067 67.544 52.8172 67.969 53.2826 68.5772C53.7543 69.1854 53.9901 69.9456 53.9901 70.8578C53.9901 72.1424 53.6022 73.1229 52.8265 73.7993C52.0508 74.4695 50.8593 74.8046 49.2521 74.8046H42.9502ZM48.8611 66.8272C49.5934 66.8272 50.1581 66.6534 50.5552 66.3059C50.9586 65.9522 51.1603 65.4526 51.1603 64.8073C51.1603 64.1246 50.971 63.6189 50.5925 63.29C50.2139 62.9611 49.6368 62.7966 48.8611 62.7966H44.9236V66.8272H48.8611ZM49.3731 73.1291C50.2357 73.1291 50.881 72.9305 51.3092 72.5333C51.7374 72.13 51.9515 71.5435 51.9515 70.774C51.9515 70.0045 51.7374 69.4212 51.3092 69.024C50.881 68.6269 50.2357 68.4283 49.3731 68.4283H44.9236V73.1291H49.3731Z" fill="#8B3DFF"/>
<path opacity="0.3" d="M62.2842 75C61.0306 75 59.8919 74.7114 58.8679 74.1343C57.8502 73.551 57.0466 72.7287 56.457 71.6676C55.8737 70.6064 55.582 69.3839 55.582 68C55.582 66.6161 55.8737 65.3936 56.457 64.3324C57.0466 63.2713 57.8502 62.4521 58.8679 61.875C59.8919 61.2917 61.0306 61 62.2842 61C63.7673 61 64.965 61.2886 65.8772 61.8657C66.7957 62.4366 67.4442 63.2061 67.8227 64.1742L66.2589 65.3191C65.9362 64.4938 65.4459 63.8732 64.7881 63.4574C64.1366 63.0355 63.3019 62.8245 62.2842 62.8245C61.3905 62.8245 60.59 63.0324 59.8826 63.4481C59.1813 63.8639 58.6321 64.4628 58.235 65.2447C57.8378 66.0266 57.6392 66.945 57.6392 68C57.6392 69.0674 57.8378 69.992 58.235 70.7739C58.6383 71.5496 59.1937 72.1454 59.9012 72.5612C60.6086 72.9707 61.4123 73.1755 62.3121 73.1755C63.485 73.1755 64.4127 72.887 65.0953 72.3098C65.7842 71.7265 66.2527 70.8639 66.5009 69.7221L68.1485 70.7181C67.8196 72.0089 67.1742 73.0452 66.2123 73.8271C65.2505 74.609 63.9411 75 62.2842 75Z" fill="#8B3DFF"/>
</svg>
