<svg width="96" height="96" viewBox="0 0 96 96" fill="none" xmlns="http://www.w3.org/2000/svg">
<path opacity="0.3" d="M66.5308 70.4657L40.8452 70.4602L35.4556 56.8512L66.5316 56.8567C67.636 56.8569 68.5312 57.7523 68.5312 58.8567V68.4657C68.5312 69.5704 67.6356 70.4659 66.5308 70.4657Z" fill="#8B3DFF"/>
<path d="M40.8456 70.4602H38.7325L37.5038 67.2674H30.811L29.5823 70.4602H27.4692L32.8589 56.8512H35.4559L40.8456 70.4602ZM34.1248 58.6477L31.4626 65.5733H36.8615L34.1993 58.6477H34.1248Z" fill="#8B3DFF"/>
<path d="M43.5911 71.1523L40.0688 58.007L46.156 56.3759C46.9652 56.1591 47.6831 56.1049 48.3096 56.2132C48.9405 56.314 49.4595 56.5604 49.8665 56.9525C50.2719 57.3386 50.5597 57.8493 50.73 58.4847C51.0753 59.7734 50.6816 60.8458 49.549 61.7018L49.5707 61.7827C50.5564 61.7692 51.3528 61.9959 51.9597 62.4628C52.5727 62.9282 52.9972 63.6015 53.2333 64.4826C53.5658 65.7234 53.4449 66.7709 52.8707 67.625C52.2949 68.4732 51.2308 69.1052 49.6783 69.5212L43.5911 71.1523ZM47.2359 61.9169C47.9432 61.7273 48.4437 61.4133 48.7374 60.9749C49.0355 60.5288 49.101 59.9941 48.934 59.3707C48.7573 58.7113 48.4436 58.2718 47.9928 58.052C47.542 57.8323 46.942 57.8228 46.1927 58.0236L42.3894 59.0427L43.4326 62.936L47.2359 61.9169ZM49.3615 67.8715C50.1947 67.6482 50.7667 67.2894 51.0775 66.7949C51.3867 66.2945 51.4417 65.6726 51.2426 64.9293C51.0434 64.186 50.6856 63.678 50.1692 63.4052C49.6528 63.1324 48.978 63.1076 48.1448 63.3309L43.847 64.4825L45.0636 69.0231L49.3615 67.8715Z" fill="#8B3DFF"/>
<path d="M65.3465 69.7638C64.2609 70.3906 63.1305 70.7101 61.9551 70.7222C60.7821 70.7259 59.675 70.4156 58.6339 69.7914C57.5981 69.1641 56.7343 68.2512 56.0423 67.0527C55.3504 65.8542 54.9917 64.6497 54.9663 63.439C54.9463 62.2252 55.2327 61.114 55.8255 60.1054C56.4206 59.0882 57.2609 58.2662 58.3465 57.6395C59.631 56.8979 60.8125 56.5489 61.8911 56.5926C62.9719 56.6278 63.9183 56.97 64.7302 57.6191L63.9483 59.3926C63.2562 58.8392 62.5213 58.5469 61.7438 58.5157C60.9685 58.476 60.1401 58.7106 59.2588 59.2195C58.4849 59.6663 57.8955 60.2466 57.4908 60.9604C57.0914 61.6711 56.9152 62.4643 56.9622 63.3401C57.0092 64.2158 57.2964 65.1105 57.8239 66.0241C58.3576 66.9485 58.9919 67.65 59.7268 68.1285C60.464 68.5986 61.2428 68.8369 62.0634 68.8432C62.8809 68.8442 63.6792 68.6197 64.4585 68.1698C65.4742 67.5834 66.1334 66.8696 66.436 66.0285C66.7409 65.1789 66.7153 64.1976 66.3594 63.0846L68.2843 63.1234C68.6448 64.4057 68.6041 65.6259 68.162 66.784C67.72 67.9421 66.7815 68.9354 65.3465 69.7638Z" fill="#8B3DFF"/>
<path opacity="0.3" d="M36.0005 40.8478H60.0005V44.8478C60.0005 47.0569 58.2096 48.8478 56.0005 48.8478H40.0005C37.7913 48.8478 36.0005 47.0569 36.0005 44.8478V40.8478Z" fill="#8B3DFF"/>
<g clip-path="url(#clip0_1526_9649)">
<path opacity="0.6" d="M40.0008 48.848H56.0008C58.2099 48.848 60.0008 47.0571 60.0008 44.848V40.848L53.415 34.2622C52.634 33.4811 51.3676 33.4811 50.5866 34.2622L37.1724 47.6764C37.8962 48.4003 38.8962 48.848 40.0008 48.848Z" fill="#8B3DFF"/>
<path fill-rule="evenodd" clip-rule="evenodd" d="M36.0005 28.8478C36.0005 26.6386 37.7913 24.8478 40.0005 24.8478H56.0005C58.2096 24.8478 60.0005 26.6386 60.0005 28.8478V40.8478L53.4147 34.262C52.6337 33.4809 51.3673 33.4809 50.5863 34.262L37.1721 47.6762C36.4482 46.9523 36.0005 45.9523 36.0005 44.8478V28.8478ZM42.5005 33.8478C43.8812 33.8478 45.0005 32.7285 45.0005 31.3478C45.0005 29.9671 43.8812 28.8478 42.5005 28.8478C41.1198 28.8478 40.0005 29.9671 40.0005 31.3478C40.0005 32.7285 41.1198 33.8478 42.5005 33.8478Z" fill="#8B3DFF"/>
<circle opacity="0.6" cx="42.5005" cy="31.3478" r="2.5" fill="#8B3DFF"/>
</g>
<path fill-rule="evenodd" clip-rule="evenodd" d="M33.0005 40.8478C33.0005 40.4336 33.3363 40.0978 33.7505 40.0978L62.2505 40.0978C62.6647 40.0978 63.0005 40.4336 63.0005 40.8478C63.0005 41.262 62.6647 41.5978 62.2505 41.5978L33.7505 41.5978C33.3363 41.5978 33.0005 41.262 33.0005 40.8478Z" fill="#8B3DFF"/>
<defs>
<clipPath id="clip0_1526_9649">
<rect width="24" height="16" fill="white" transform="translate(36.0005 24.8478)"/>
</clipPath>
</defs>
</svg>
