<svg width="96" height="96" viewBox="0 0 96 96" fill="none" xmlns="http://www.w3.org/2000/svg">
<g clip-path="url(#clip0_1526_9676)">
<path opacity="0.6" d="M39.5735 49.0002H55.5735C57.7827 49.0002 59.5735 47.2093 59.5735 45.0002V41.0002L52.9878 34.4144C52.2067 33.6334 50.9404 33.6334 50.1593 34.4144L36.7451 47.8286C37.469 48.5525 38.469 49.0002 39.5735 49.0002Z" fill="#8B3DFF"/>
<path fill-rule="evenodd" clip-rule="evenodd" d="M35.5732 29C35.5732 26.7909 37.3641 25 39.5732 25H55.5732C57.7824 25 59.5732 26.7909 59.5732 29V41L52.9875 34.4142C52.2064 33.6332 50.9401 33.6332 50.159 34.4142L36.7448 47.8284C36.021 47.1046 35.5732 46.1046 35.5732 45V29ZM42.0732 34C43.454 34 44.5732 32.8807 44.5732 31.5C44.5732 30.1193 43.454 29 42.0732 29C40.6925 29 39.5732 30.1193 39.5732 31.5C39.5732 32.8807 40.6925 34 42.0732 34Z" fill="#8B3DFF"/>
<circle opacity="0.6" cx="42.0732" cy="31.5" r="2.5" fill="#8B3DFF"/>
</g>
<path opacity="0.3" d="M49.5732 25H55.5732C57.7824 25 59.5732 26.7909 59.5732 29V45C59.5732 47.2091 57.7824 49 55.5732 49H49.5732V25Z" fill="#8B3DFF"/>
<path fill-rule="evenodd" clip-rule="evenodd" d="M49.5732 22C49.9875 22 50.3232 22.3358 50.3232 22.75L50.3232 73.25C50.3232 73.6642 49.9875 74 49.5732 74C49.159 74 48.8232 73.6642 48.8232 73.25L48.8232 22.75C48.8232 22.3358 49.159 22 49.5732 22Z" fill="#8B3DFF"/>
<g opacity="0.3">
<path d="M50.3232 70.7483C51.4 70.6272 52.2344 70.3109 52.8265 69.7993C53.6022 69.1229 53.9901 68.1424 53.9901 66.8578C53.9901 65.9456 53.7543 65.1854 53.2826 64.5772C52.8172 63.969 52.1067 63.544 51.151 63.3019V63.2182C52.4666 62.6845 53.1244 61.7505 53.1244 60.4163C53.1244 59.7585 52.9786 59.1907 52.6869 58.7128C52.3952 58.2288 51.9577 57.8565 51.3744 57.5958C51.0622 57.4515 50.7118 57.3461 50.3232 57.2799V59.102C50.422 59.1572 50.5118 59.2198 50.5925 59.29C50.971 59.6189 51.1603 60.1246 51.1603 60.8073C51.1603 61.4526 50.9586 61.9522 50.5552 62.3059C50.4834 62.3688 50.4061 62.426 50.3232 62.4775V64.5281C50.7277 64.6241 51.0563 64.7894 51.3092 65.024C51.7374 65.4212 51.9515 66.0045 51.9515 66.774C51.9515 67.5435 51.7374 68.13 51.3092 68.5333C51.0563 68.7679 50.7277 68.9332 50.3232 69.0292V70.7483Z" fill="#8B3DFF"/>
<path d="M58.8679 70.1343C59.8919 70.7114 61.0306 71 62.2842 71C63.9411 71 65.2505 70.609 66.2123 69.8271C67.1742 69.0452 67.8196 68.0089 68.1485 66.7181L66.5009 65.7221C66.2527 66.8639 65.7842 67.7265 65.0953 68.3098C64.4127 68.887 63.485 69.1755 62.3121 69.1755C61.4123 69.1755 60.6086 68.9707 59.9012 68.5612C59.1937 68.1454 58.6383 67.5496 58.235 66.7739C57.8378 65.992 57.6392 65.0674 57.6392 64C57.6392 62.945 57.8378 62.0266 58.235 61.2447C58.6321 60.4628 59.1813 59.8639 59.8826 59.4481C60.59 59.0324 61.3905 58.8245 62.2842 58.8245C63.3019 58.8245 64.1366 59.0355 64.7881 59.4574C65.4459 59.8732 65.9362 60.4938 66.2589 61.3191L67.8227 60.1742C67.4442 59.2061 66.7957 58.4366 65.8772 57.8657C64.965 57.2886 63.7673 57 62.2842 57C61.0306 57 59.8919 57.2917 58.8679 57.875C57.8502 58.4521 57.0466 59.2713 56.457 60.3324C55.8737 61.3936 55.582 62.6161 55.582 64C55.582 65.3839 55.8737 66.6064 56.457 67.6676C57.0466 68.7287 57.8502 69.551 58.8679 70.1343Z" fill="#8B3DFF"/>
</g>
<path d="M48.8232 57.1956H42.9502V70.8046H48.8232V69.1291H44.9236V64.4283H48.8232V62.8272H44.9236V58.7966H48.8232V57.1956Z" fill="#8B3DFF"/>
<path fill-rule="evenodd" clip-rule="evenodd" d="M41.2279 70.8046H39.1149L37.8861 67.6118H31.1933L29.9646 70.8046H27.8516L33.2412 57.1956H35.8383L41.2279 70.8046ZM34.5071 58.9921L31.8449 65.9176H37.2438L34.5816 58.9921H34.5071Z" fill="#8B3DFF"/>
<defs>
<clipPath id="clip0_1526_9676">
<rect width="14" height="24" fill="white" transform="translate(35.5732 25)"/>
</clipPath>
</defs>
</svg>
